<svg width="100" height="55" viewBox="0 0 100 55" fill="none" xmlns="http://www.w3.org/2000/svg">
<rect width="100" height="55" rx="10" fill="#FF0000"/>
<path d="M15.2563 16.7666C16.2817 16.9489 17.1248 17.0742 17.7856 17.1426C18.4465 17.2109 18.9819 17.2679 19.3921 17.3135C19.8706 17.359 20.2466 17.3704 20.52 17.3477H21.5454C21.91 17.3477 22.3657 17.3477 22.9126 17.3477C23.4823 17.3249 24.1886 17.3135 25.0317 17.3135C25.5103 18.43 25.9432 19.4554 26.3306 20.3896C26.7407 21.3239 27.0825 22.1214 27.356 22.7822C27.675 23.5798 27.9712 24.2975 28.2446 24.9355C28.5636 25.7331 28.9054 26.6104 29.27 27.5674C29.6346 28.5244 29.965 29.4245 30.2612 30.2676C30.5802 31.1107 30.8423 31.8057 31.0474 32.3525C31.2524 32.8994 31.355 33.1501 31.355 33.1045C31.355 33.0817 31.3664 32.8538 31.3892 32.4209C31.4119 31.9652 31.4347 31.4069 31.4575 30.7461C31.4803 30.0625 31.5031 29.3219 31.5259 28.5244C31.5715 27.7041 31.5942 26.918 31.5942 26.166C31.617 25.3913 31.6284 24.6849 31.6284 24.0469C31.6284 23.4089 31.6056 22.9303 31.5601 22.6113C31.4917 22.224 31.355 21.7796 31.1499 21.2783C30.9676 20.8454 30.717 20.3327 30.3979 19.7402C30.0789 19.125 29.6346 18.43 29.0649 17.6553C29.9992 17.6781 30.7625 17.6895 31.355 17.6895C31.9474 17.6895 32.4259 17.6895 32.7905 17.6895C33.2007 17.6895 33.5197 17.6781 33.7476 17.6553C34.0438 17.6553 34.4084 17.6325 34.8413 17.5869C35.2287 17.5413 35.7072 17.5072 36.2769 17.4844C36.8693 17.4388 37.5985 17.3818 38.4644 17.3135C37.9631 17.7692 37.5643 18.2021 37.2681 18.6123C36.9718 19.0225 36.7326 19.387 36.5503 19.7061C36.3452 20.0706 36.2085 20.4124 36.1401 20.7314C36.049 21.1416 35.9692 21.8138 35.9009 22.748C35.8553 23.6595 35.7983 24.6849 35.73 25.8242C35.6844 26.9635 35.6388 28.1484 35.5933 29.3789C35.5477 30.6094 35.5021 31.7373 35.4565 32.7627C35.4565 33.5374 35.4338 34.3691 35.3882 35.2578C35.3426 36.0098 35.297 36.8643 35.2515 37.8213C35.2059 38.7555 35.1489 39.7012 35.0806 40.6582L32.0386 40.7266C31.1499 39.1543 30.3979 37.8099 29.7827 36.6934C29.1903 35.554 28.7004 34.6198 28.313 33.8906C27.88 33.0475 27.5155 32.3411 27.2192 31.7715C26.9686 31.2246 26.6382 30.598 26.228 29.8916C25.8862 29.2992 25.4533 28.57 24.9292 27.7041C24.4279 26.8382 23.8241 25.847 23.1177 24.7305C23.0493 26.3027 23.0151 27.6471 23.0151 28.7637C23.0379 29.8574 23.0721 30.7689 23.1177 31.498C23.186 32.3411 23.2658 33.0475 23.3569 33.6172C23.4709 34.1641 23.6304 34.7793 23.8354 35.4629C24.0177 36.0553 24.2342 36.7503 24.4849 37.5479C24.7583 38.3454 25.0887 39.2454 25.4761 40.248C24.1317 40.1797 23.1291 40.1455 22.4683 40.1455H21.4429C21.1239 40.1455 20.6909 40.1797 20.144 40.248C19.6883 40.2936 19.0617 40.362 18.2642 40.4531C17.4894 40.5443 16.521 40.6696 15.3589 40.8291C15.9058 40.1683 16.3387 39.5645 16.6577 39.0176C16.9995 38.4479 17.2616 37.9694 17.4438 37.582C17.6717 37.1263 17.8312 36.7275 17.9224 36.3857C17.9907 36.0212 18.0363 35.3945 18.0591 34.5059C18.0819 33.5944 18.0819 32.569 18.0591 31.4297C18.0591 30.2676 18.0363 29.0485 17.9907 27.7725C17.9679 26.4964 17.9338 25.3115 17.8882 24.2178C17.8426 23.124 17.7856 22.1898 17.7173 21.415C17.6717 20.6403 17.6375 20.1618 17.6147 19.9795C17.5464 19.6833 17.4097 19.3643 17.2046 19.0225C17.0223 18.7262 16.783 18.3958 16.4868 18.0312C16.1906 17.6439 15.7804 17.2223 15.2563 16.7666ZM36.5503 17.6553C38.1453 17.7008 39.467 17.735 40.5151 17.7578C41.5861 17.7578 42.452 17.7578 43.1128 17.7578H44.9243H55.1099C55.1554 18.2135 55.1896 18.6579 55.2124 19.0908C55.258 19.501 55.2808 19.8656 55.2808 20.1846C55.2808 20.5719 55.2694 20.9251 55.2466 21.2441C55.2238 21.5632 55.1896 21.9049 55.144 22.2695C55.0985 22.5885 55.0529 22.9303 55.0073 23.2949C54.9618 23.6595 54.882 24.0355 54.7681 24.4229C54.4491 23.1924 54.0161 22.2581 53.4692 21.6201C52.9451 20.9821 52.4097 20.515 51.8628 20.2188C51.2248 19.877 50.5526 19.6947 49.8462 19.6719C48.9119 19.7174 48.1828 19.7972 47.6587 19.9111C47.1346 20.0251 46.7244 20.1846 46.4282 20.3896C46.132 20.5947 45.9041 20.834 45.7446 21.1074C45.6079 21.3581 45.4598 21.6429 45.3003 21.9619C45.1636 22.2354 45.0382 22.6569 44.9243 23.2266C44.8104 23.7051 44.6965 24.3545 44.5825 25.1748C44.4914 25.9951 44.3888 27.0547 44.2749 28.3535C44.8901 28.1712 45.38 28.0003 45.7446 27.8408C46.132 27.6813 46.4396 27.5446 46.6675 27.4307C46.9181 27.2939 47.1004 27.1686 47.2144 27.0547C47.3055 26.918 47.4422 26.6673 47.6245 26.3027C47.7612 25.9837 47.9435 25.5508 48.1714 25.0039C48.422 24.457 48.7183 23.7051 49.0601 22.748C49.1056 23.7962 49.1284 24.6735 49.1284 25.3799C49.1284 26.0635 49.1398 26.6217 49.1626 27.0547C49.1626 27.556 49.174 27.9548 49.1968 28.251V29.5498C49.1968 30.0283 49.1968 30.6777 49.1968 31.498C49.2196 32.2956 49.2537 33.3096 49.2993 34.54C49.0259 33.6969 48.7752 33.0361 48.5474 32.5576C48.3423 32.0563 48.16 31.6803 48.0005 31.4297C47.8182 31.1335 47.6587 30.9284 47.522 30.8145C47.3625 30.7689 47.146 30.7233 46.8726 30.6777C46.6219 30.6549 46.3029 30.6436 45.9155 30.6436C45.5509 30.6436 45.0838 30.7005 44.5142 30.8145C44.4458 32.0677 44.4344 33.0817 44.48 33.8564C44.5483 34.6084 44.6395 35.1895 44.7534 35.5996C44.8674 36.0781 45.0041 36.4199 45.1636 36.625C45.3687 36.8301 45.7788 37.001 46.394 37.1377C47.0093 37.2516 47.7043 37.2972 48.479 37.2744C49.2765 37.2288 50.0854 37.0921 50.9058 36.8643C51.7261 36.6364 52.4552 36.2604 53.0933 35.7363C53.5718 35.3034 54.0845 34.7565 54.6313 34.0957C55.0871 33.526 55.5884 32.8083 56.1353 31.9424C56.7049 31.0765 57.2632 30.0283 57.8101 28.7979C57.7189 29.8232 57.6506 30.6777 57.605 31.3613C57.5822 32.0221 57.548 32.5576 57.5024 32.9678C57.4569 33.4463 57.4227 33.8109 57.3999 34.0615C57.3999 34.335 57.3657 34.7223 57.2974 35.2236C57.2518 35.6566 57.172 36.249 57.0581 37.001C56.967 37.7301 56.8416 38.6644 56.6821 39.8037C55.6112 39.8265 54.5972 39.8493 53.6401 39.8721C52.6831 39.8721 51.84 39.8835 51.1108 39.9062C50.245 39.929 49.4474 39.9518 48.7183 39.9746C47.9663 39.9746 47.1346 40.0088 46.2231 40.0771C45.4256 40.1227 44.48 40.1911 43.3862 40.2822C42.3153 40.3734 41.1304 40.4987 39.8315 40.6582C39.9455 39.1087 40.0252 37.6504 40.0708 36.2832C40.1392 34.8932 40.1847 33.6742 40.2075 32.626C40.2303 31.3955 40.2303 30.2562 40.2075 29.208C40.3215 26.5876 40.2759 24.4684 40.0708 22.8506C39.8657 21.2327 39.6265 20.196 39.353 19.7402C39.2163 19.5807 39.0226 19.387 38.772 19.1592C38.5669 18.9769 38.2821 18.7604 37.9175 18.5098C37.5529 18.2591 37.0972 17.9743 36.5503 17.6553ZM55.0073 16.9717C55.7593 17.0628 56.4429 17.1312 57.0581 17.1768C57.6506 17.2223 58.1632 17.2679 58.5962 17.3135C59.0975 17.359 59.5418 17.3932 59.9292 17.416C60.3394 17.416 60.8634 17.4046 61.5015 17.3818C62.0483 17.359 62.7433 17.3249 63.5864 17.2793C64.4295 17.2337 65.4663 17.154 66.6968 17.04C66.1043 17.3818 65.6144 17.7236 65.2271 18.0654C64.8625 18.4072 64.5776 18.7148 64.3726 18.9883C64.1219 19.3073 63.9396 19.6263 63.8257 19.9453C63.7573 20.3783 63.7801 21.2214 63.894 22.4746C63.9396 22.9987 64.008 23.6481 64.0991 24.4229C64.2131 25.1748 64.3498 26.0749 64.5093 27.123C64.6916 28.1484 64.908 29.3333 65.1587 30.6777C65.4321 32.0221 65.7397 33.5488 66.0815 35.2578C66.5373 33.959 66.9132 32.8083 67.2095 31.8057C67.5057 30.7803 67.7563 29.903 67.9614 29.1738C68.1893 28.3535 68.383 27.6243 68.5425 26.9863C68.702 26.3255 68.8957 25.471 69.1235 24.4229C69.3058 23.5342 69.5451 22.3835 69.8413 20.9707C70.1375 19.5579 70.5021 17.8148 70.9351 15.7412L72.1655 15.9121C72.2795 17.5299 72.3934 18.9541 72.5073 20.1846C72.644 21.415 72.758 22.4632 72.8491 23.3291C72.9403 24.3317 73.0314 25.1976 73.1226 25.9268C73.2137 26.5876 73.3504 27.3509 73.5327 28.2168C73.6922 28.946 73.8973 29.846 74.1479 30.917C74.3986 31.9652 74.729 33.1501 75.1392 34.4717C75.5493 32.8538 75.9139 31.4069 76.2329 30.1309C76.5747 28.8548 76.8595 27.7269 77.0874 26.7471C77.3381 25.7673 77.5431 24.9242 77.7026 24.2178C77.8849 23.5114 78.033 22.9189 78.147 22.4404C78.3976 21.3011 78.5457 20.5378 78.5913 20.1504C78.5685 19.7174 78.466 19.2959 78.2837 18.8857C78.1242 18.5212 77.8735 18.1224 77.5317 17.6895C77.1899 17.2565 76.6886 16.835 76.0278 16.4248C77.4178 16.4704 78.5457 16.5046 79.4116 16.5273C80.3003 16.5273 81.0067 16.5273 81.5308 16.5273H82.8979H84.1284C84.5841 16.5273 85.1766 16.5273 85.9058 16.5273C86.6577 16.5046 87.6147 16.4704 88.7769 16.4248C87.7743 16.9489 86.9653 17.4274 86.3501 17.8604C85.7349 18.2933 85.2563 18.6579 84.9146 18.9541C84.5044 19.3187 84.2082 19.6263 84.0259 19.877C83.8436 20.3327 83.5474 21.3581 83.1372 22.9531C82.9549 23.6367 82.7498 24.4912 82.522 25.5166C82.2941 26.5192 82.0207 27.7269 81.7017 29.1396C81.4054 30.5524 81.0636 32.2044 80.6763 34.0957C80.2889 35.9642 79.856 38.1061 79.3774 40.5215L73.4644 39.9062L70.9351 29.2764C70.5477 31.2132 70.2401 32.7855 70.0122 33.9932C69.7843 35.1781 69.6134 36.1009 69.4995 36.7617C69.3628 37.5592 69.283 38.1403 69.2603 38.5049C69.2375 38.8239 69.2147 39.1315 69.1919 39.4277C69.1691 39.6784 69.1349 39.9518 69.0894 40.248C69.0666 40.5443 69.0324 40.8177 68.9868 41.0684H62.937C62.3446 38.4707 61.8091 36.1807 61.3306 34.1982C60.8748 32.193 60.4647 30.4385 60.1001 28.9346C59.7355 27.4307 59.4165 26.1546 59.1431 25.1064C58.8924 24.0583 58.6646 23.181 58.4595 22.4746C58.0037 20.834 57.6733 19.82 57.4683 19.4326C57.3088 19.2503 57.1037 19.0339 56.853 18.7832C56.6479 18.5781 56.3973 18.3275 56.1011 18.0312C55.7821 17.7122 55.4175 17.359 55.0073 16.9717Z" fill="black"/>
</svg>
