<?xml version="1.0" standalone="no"?>
<!DOCTYPE svg PUBLIC "-//W3C//DTD SVG 20010904//EN"
 "http://www.w3.org/TR/2001/REC-SVG-20010904/DTD/svg10.dtd">
<svg version="1.0" xmlns="http://www.w3.org/2000/svg"
 width="940.000000pt" height="570.000000pt" viewBox="0 0 940.000000 570.000000"
 preserveAspectRatio="xMidYMid meet">

<g transform="translate(0.000000,570.000000) scale(0.100000,-0.100000)"
fill="#000000" stroke="none">
<path d="M7077 5681 c-4 -17 -3 -21 5 -13 5 5 8 16 6 23 -3 8 -7 3 -11 -10z"/>
<path d="M7082 5610 c0 -14 2 -19 5 -12 2 6 2 18 0 25 -3 6 -5 1 -5 -13z"/>
<path d="M7090 5573 c0 -7 9 -27 20 -45 26 -43 26 -29 0 19 -11 21 -20 32 -20
26z"/>
<path d="M7124 5458 c3 -20 11 -52 19 -70 9 -18 18 -40 20 -48 4 -12 6 -11 6
3 1 10 -6 34 -15 55 -9 20 -20 51 -25 67 -8 28 -8 28 -5 -7z"/>
<path d="M7161 5304 c0 -11 3 -14 6 -6 3 7 2 16 -1 19 -3 4 -6 -2 -5 -13z"/>
<path d="M7190 5231 c0 -5 18 -31 40 -56 50 -58 68 -91 76 -144 4 -23 10 -41
14 -41 4 0 3 23 -1 51 -7 42 -39 103 -69 129 -3 3 -18 20 -33 38 -15 19 -27
29 -27 23z"/>
<path d="M7646 5094 c-11 -28 -6 -38 9 -18 8 10 15 22 15 27 0 13 -18 7 -24
-9z"/>
<path d="M2470 5040 c-9 -6 -10 -10 -3 -10 6 0 15 5 18 10 8 12 4 12 -15 0z"/>
<path d="M1831 5008 c0 -9 -9 -21 -18 -27 -10 -5 -15 -13 -11 -16 11 -12 40
23 35 43 -4 15 -5 15 -6 0z"/>
<path d="M2090 4999 c0 -5 5 -7 10 -4 6 3 10 8 10 11 0 2 -4 4 -10 4 -5 0 -10
-5 -10 -11z"/>
<path d="M7320 4974 c0 -7 9 -22 21 -35 16 -19 18 -20 10 -4 -17 34 -31 51
-31 39z"/>
<path d="M7640 4968 c0 -9 5 -20 10 -23 13 -8 13 5 0 25 -8 13 -10 13 -10 -2z"/>
<path d="M1754 4956 c-6 -16 12 -56 26 -56 5 0 16 -8 26 -17 19 -20 92 -31
149 -22 35 5 32 6 -23 8 -72 1 -117 17 -151 55 -29 31 -24 33 21 7 40 -24 143
-37 178 -22 21 8 17 10 -30 10 -81 2 -126 11 -149 32 -24 23 -40 24 -47 5z"/>
<path d="M2073 4957 c-4 -7 -19 -18 -33 -25 -18 -9 -20 -11 -5 -8 11 2 28 7
38 11 17 7 18 6 6 -14 -8 -11 -30 -26 -49 -33 -19 -6 -30 -13 -23 -15 17 -6
71 24 83 46 20 38 4 72 -17 38z"/>
<path d="M1248 4943 c7 -3 16 -2 19 1 4 3 -2 6 -13 5 -11 0 -14 -3 -6 -6z"/>
<path d="M1288 4943 c7 -3 16 -2 19 1 4 3 -2 6 -13 5 -11 0 -14 -3 -6 -6z"/>
<path d="M1448 4933 c6 -2 18 -2 25 0 6 3 1 5 -13 5 -14 0 -19 -2 -12 -5z"/>
<path d="M8855 4930 c28 -12 37 -12 30 0 -3 6 -16 10 -28 9 -21 0 -21 -1 -2
-9z"/>
<path d="M7661 4923 c0 -4 4 -17 9 -28 8 -19 9 -19 9 2 1 12 -3 25 -9 28 -5 3
-10 3 -9 -2z"/>
<path d="M8404 4917 c-3 -10 -12 -16 -19 -13 -8 3 -16 -1 -19 -9 -4 -10 3 -13
26 -10 38 5 42 9 30 32 -10 17 -11 17 -18 0z"/>
<path d="M7416 4854 c32 -33 66 -73 76 -91 17 -32 137 -128 147 -116 3 3 1 8
-6 10 -41 15 -123 87 -141 125 -11 24 -41 61 -67 83 -72 60 -75 55 -9 -11z"/>
<path d="M9327 4903 c-4 -3 -7 -11 -7 -17 0 -6 5 -5 12 2 6 6 9 14 7 17 -3 3
-9 2 -12 -2z"/>
<path d="M9368 4899 c-10 -5 -18 -17 -18 -26 0 -9 -6 -13 -15 -10 -8 4 -17 2
-20 -3 -4 -6 -15 -10 -26 -10 -10 0 -19 -4 -19 -10 0 -14 45 -13 73 2 12 6 29
14 37 18 16 7 27 50 13 50 -4 0 -16 -5 -25 -11z"/>
<path d="M2236 4886 c3 -8 13 -17 22 -21 13 -5 13 -2 -3 15 -21 24 -26 25 -19
6z"/>
<path d="M8456 4866 c6 -15 -60 -70 -104 -87 -23 -9 -103 -79 -91 -79 4 0 22
14 40 30 19 17 46 33 61 36 49 11 142 114 103 114 -8 0 -12 -6 -9 -14z"/>
<path d="M9110 4869 c-12 -8 -10 -9 7 -4 12 3 37 -1 55 -10 l33 -16 -25 20
c-28 23 -48 26 -70 10z"/>
<path d="M7681 4860 c0 -8 4 -22 9 -30 12 -18 12 -2 0 25 -6 13 -9 15 -9 5z"/>
<path d="M9045 4850 c-8 -13 5 -13 25 0 13 8 13 10 -2 10 -9 0 -20 -4 -23 -10z"/>
<path d="M9213 4833 c-3 -10 -8 -21 -10 -25 -10 -19 6 -5 21 17 9 14 12 25 6
25 -6 0 -13 -8 -17 -17z"/>
<path d="M8880 4836 c0 -2 7 -6 15 -10 8 -3 15 -1 15 4 0 6 -7 10 -15 10 -8 0
-15 -2 -15 -4z"/>
<path d="M8921 4824 c0 -11 3 -14 6 -6 3 7 2 16 -1 19 -3 4 -6 -2 -5 -13z"/>
<path d="M9247 4827 c-11 -29 -9 -43 4 -30 6 6 9 19 7 29 -3 18 -4 18 -11 1z"/>
<path d="M9163 4760 c-10 -17 -22 -29 -28 -26 -6 2 -11 -5 -11 -15 0 -27 10
-24 38 14 35 46 41 57 29 57 -5 0 -18 -14 -28 -30z"/>
<path d="M9223 4704 c-13 -34 -23 -69 -23 -79 0 -18 -40 -77 -71 -105 -10 -9
-15 -26 -13 -45 1 -16 8 -82 14 -146 12 -116 12 -116 51 -154 21 -21 39 -41
39 -45 0 -21 78 -54 127 -54 l53 -1 0 37 c0 36 -1 37 -39 36 -28 0 -38 -4 -34
-13 3 -10 -2 -12 -16 -8 -12 3 -21 12 -21 19 0 8 -5 14 -11 14 -6 0 -9 -7 -5
-15 4 -10 -1 -15 -14 -15 -11 0 -20 5 -20 11 0 5 5 7 10 4 14 -8 13 8 -1 22
-6 6 -17 9 -24 7 -15 -6 -30 14 -30 40 0 11 -7 21 -15 24 -13 5 -13 3 -1 -11
8 -11 9 -17 3 -17 -19 0 -52 156 -52 242 0 62 38 108 91 108 19 0 43 7 53 15
11 8 29 13 40 9 15 -4 17 -2 8 4 -10 7 -7 13 15 27 15 11 35 18 44 18 11 -1
17 6 17 22 0 21 -3 22 -24 15 -13 -5 -35 -17 -49 -26 -21 -14 -24 -14 -20 -2
4 9 -1 18 -10 22 -9 3 -13 2 -10 -3 9 -15 -10 -21 -43 -15 l-30 6 20 34 c11
18 18 43 16 56 -2 17 -9 7 -25 -38z m102 -596 c5 4 5 2 1 -5 -8 -14 -36 -6
-36 9 0 7 5 6 13 -1 8 -6 18 -7 22 -3z"/>
<path d="M7988 4743 c12 -2 30 -2 40 0 9 3 -1 5 -23 4 -22 0 -30 -2 -17 -4z"/>
<path d="M7931 4731 c-10 -7 -7 -9 12 -8 14 1 23 5 20 10 -6 9 -15 9 -32 -2z"/>
<path d="M8882 4732 c-8 -5 8 -8 40 -8 29 1 68 -2 86 -6 27 -6 30 -5 20 6 -14
15 -126 21 -146 8z"/>
<path d="M7848 4723 c7 -3 16 -2 19 1 4 3 -2 6 -13 5 -11 0 -14 -3 -6 -6z"/>
<path d="M9060 4705 c7 -8 16 -12 21 -9 13 8 1 24 -18 24 -13 0 -13 -3 -3 -15z"/>
<path d="M8188 4683 c6 -2 18 -2 25 0 6 3 1 5 -13 5 -14 0 -19 -2 -12 -5z"/>
<path d="M8800 4683 c0 -6 -46 -34 -102 -62 -57 -29 -89 -49 -73 -45 68 16
198 94 183 110 -5 4 -8 3 -8 -3z"/>
<path d="M9090 4675 c-20 -24 -6 -28 15 -5 10 11 13 20 8 20 -6 0 -16 -7 -23
-15z"/>
<path d="M9245 4680 c-3 -5 -1 -10 4 -10 6 0 11 5 11 10 0 6 -2 10 -4 10 -3 0
-8 -4 -11 -10z"/>
<path d="M7928 4625 c16 -30 41 -61 41 -50 0 6 -11 24 -25 40 -14 17 -21 21
-16 10z"/>
<path d="M8040 4626 c0 -4 12 -19 26 -34 20 -21 24 -22 16 -6 -11 22 -42 51
-42 40z"/>
<path d="M7704 4581 c7 -11 70 -41 87 -41 7 0 -10 11 -37 25 -55 28 -57 29
-50 16z"/>
<path d="M8472 4565 c-16 -5 -40 -18 -53 -27 -23 -17 -23 -17 13 -3 21 8 61
19 90 23 52 8 52 8 16 13 -20 3 -49 0 -66 -6z"/>
<path d="M8100 4562 c0 -6 14 -20 30 -32 41 -29 182 -101 188 -96 8 9 -9 26
-26 26 -18 0 -145 71 -174 97 -10 9 -18 11 -18 5z"/>
<path d="M7990 4546 c0 -5 43 -67 85 -121 15 -19 15 -19 3 5 -15 29 -88 126
-88 116z"/>
<path d="M7810 4536 c0 -3 12 -12 28 -20 15 -8 41 -26 57 -41 17 -15 41 -37
54 -49 l25 -21 -25 31 c-36 46 -139 120 -139 100z"/>
<path d="M8375 4506 c-5 -6 -19 -23 -30 -36 l-20 -24 27 20 c24 17 43 43 36
49 -2 2 -7 -2 -13 -9z"/>
<path d="M9385 4500 c-3 -5 -1 -10 4 -10 6 0 11 5 11 10 0 6 -2 10 -4 10 -3 0
-8 -4 -11 -10z"/>
<path d="M2210 4395 c-24 -8 -36 -19 -38 -34 -3 -20 0 -21 67 -19 70 3 93 15
68 37 -28 22 -62 28 -97 16z"/>
<path d="M7990 4396 c20 -18 76 -36 113 -36 43 0 27 11 -22 14 -22 2 -51 11
-65 20 -31 20 -46 21 -26 2z"/>
<path d="M1658 4375 c-16 -9 -28 -19 -28 -24 0 -4 30 -11 68 -14 37 -4 77 -9
88 -13 27 -7 41 23 21 43 -21 22 -117 26 -149 8z"/>
<path d="M9258 4383 c7 -3 16 -2 19 1 4 3 -2 6 -13 5 -11 0 -14 -3 -6 -6z"/>
<path d="M9330 4376 c0 -8 5 -18 10 -21 6 -3 10 3 10 14 0 12 -4 21 -10 21 -5
0 -10 -6 -10 -14z"/>
<path d="M9376 4374 c-11 -7 -18 -16 -15 -18 2 -2 13 2 23 10 11 7 18 16 15
18 -2 2 -13 -2 -23 -10z"/>
<path d="M9250 4350 c0 -5 4 -10 9 -10 6 0 13 5 16 10 3 6 -1 10 -9 10 -9 0
-16 -4 -16 -10z"/>
<path d="M8160 4336 c0 -3 9 -10 20 -16 11 -6 20 -8 20 -6 0 3 -9 10 -20 16
-11 6 -20 8 -20 6z"/>
<path d="M8217 4299 c7 -7 15 -10 18 -7 3 3 -2 9 -12 12 -14 6 -15 5 -6 -5z"/>
<path d="M8275 4279 c4 -6 -2 -13 -14 -16 -22 -6 -31 -53 -10 -53 6 0 8 9 4
20 -4 14 -2 20 9 20 8 0 19 7 24 15 7 13 14 13 41 4 32 -11 34 -24 4 -24 -9 0
-18 -6 -20 -13 -3 -8 1 -10 13 -5 13 5 16 3 11 -10 -4 -10 -2 -29 3 -42 9 -23
8 -24 -8 -16 -15 8 -18 5 -20 -15 -1 -14 2 -22 8 -19 5 3 12 -6 16 -20 3 -14
10 -25 15 -25 5 0 7 11 3 24 -3 13 -1 27 5 30 10 7 13 -2 15 -59 1 -11 8 -20
16 -20 10 0 15 -9 14 -25 -4 -66 -4 -66 -14 -50 -5 8 -7 25 -3 38 4 18 2 21
-13 15 -11 -4 -13 -8 -6 -11 7 -2 9 -8 6 -13 -11 -18 6 -61 21 -55 8 3 15 1
15 -4 0 -18 16 -10 29 13 10 20 10 40 -4 113 -27 148 -32 161 -73 189 -36 25
-100 35 -87 14z m109 -55 c7 -18 0 -34 -15 -34 -5 0 -9 11 -9 25 0 28 15 34
24 9z m26 -103 c6 -30 8 -56 5 -59 -6 -6 -25 45 -25 69 0 10 -7 19 -15 19 -18
0 -20 26 -2 33 19 7 26 -5 37 -62z"/>
<path d="M8160 4240 c-20 -6 -21 -8 -5 -8 11 0 29 3 40 8 25 11 -1 11 -35 0z"/>
<path d="M2247 4215 c-4 -8 -2 -17 3 -20 13 -8 40 6 40 21 0 19 -36 18 -43 -1z"/>
<path d="M8200 4210 c0 -11 2 -20 4 -20 2 0 6 9 9 20 3 11 1 20 -4 20 -5 0 -9
-9 -9 -20z"/>
<path d="M1350 4211 c0 -6 4 -13 10 -16 6 -3 7 1 4 9 -7 18 -14 21 -14 7z"/>
<path d="M9357 4186 c-5 -12 0 -16 21 -15 16 0 21 3 12 6 -8 3 -18 10 -21 15
-3 5 -9 3 -12 -6z"/>
<path d="M1817 4183 c-15 -14 -7 -43 12 -43 29 0 51 11 51 25 0 20 -48 34 -63
18z"/>
<path d="M1385 4160 c10 -11 20 -20 22 -20 2 0 -2 9 -9 20 -7 11 -17 20 -22
20 -5 0 -1 -9 9 -20z"/>
<path d="M1281 4154 c0 -11 3 -14 6 -6 3 7 2 16 -1 19 -3 4 -6 -2 -5 -13z"/>
<path d="M8170 4151 c0 -6 4 -13 10 -16 6 -3 7 1 4 9 -7 18 -14 21 -14 7z"/>
<path d="M2071 4134 c0 -11 3 -14 6 -6 3 7 2 16 -1 19 -3 4 -6 -2 -5 -13z"/>
<path d="M1290 4123 c0 -13 29 -38 35 -31 3 3 -4 13 -15 23 -11 10 -20 13 -20
8z"/>
<path d="M2080 4095 c0 -3 7 -17 16 -30 9 -13 12 -30 8 -37 -5 -10 -4 -10 5
-2 10 9 9 18 -3 43 -15 28 -26 39 -26 26z"/>
<path d="M8210 4079 c7 -11 14 -19 16 -16 7 7 -7 37 -17 37 -6 0 -5 -9 1 -21z"/>
<path d="M1267 4039 c7 -7 15 -10 18 -7 3 3 -2 9 -12 12 -14 6 -15 5 -6 -5z"/>
<path d="M8239 4032 c5 -10 18 -25 27 -33 11 -9 9 -2 -6 19 -26 35 -36 42 -21
14z"/>
<path d="M8326 4018 c4 -13 8 -34 8 -48 1 -15 8 -26 19 -28 21 -4 21 -4 -3 52
-20 47 -37 64 -24 24z"/>
<path d="M2038 4003 c7 -3 16 -2 19 1 4 3 -2 6 -13 5 -11 0 -14 -3 -6 -6z"/>
<path d="M8300 3998 c0 -9 5 -20 10 -23 13 -8 13 5 0 25 -8 13 -10 13 -10 -2z"/>
<path d="M1284 3972 c-18 -13 -114 -133 -114 -143 0 -11 18 -44 108 -199 78
-133 96 -161 190 -280 137 -174 156 -196 180 -214 35 -27 26 -9 -24 44 -26 28
-44 51 -40 51 3 1 11 3 16 4 6 1 17 3 25 4 22 2 18 19 -6 26 -13 5 -25 1 -32
-9 -10 -14 -20 -7 -67 55 -30 39 -61 77 -67 84 -7 8 -13 21 -13 30 0 10 -5 13
-12 9 -7 -5 -9 -2 -5 9 4 11 2 14 -8 11 -9 -4 -26 18 -51 63 -21 37 -48 82
-60 98 -12 17 -41 68 -65 115 -46 88 -57 132 -30 122 10 -4 12 -1 7 7 -10 15
42 73 57 64 6 -3 7 -2 4 3 -3 6 -1 16 4 24 8 13 10 13 19 0 5 -8 10 -23 10
-32 0 -9 5 -20 10 -23 6 -3 10 -17 10 -30 0 -13 5 -27 10 -30 6 -3 10 -14 10
-23 -1 -13 -6 -11 -23 9 -12 15 -31 29 -42 31 -11 2 -19 10 -17 16 1 9 -3 9
-18 0 -11 -7 -20 -17 -20 -21 0 -13 81 -88 90 -82 4 2 15 -4 25 -15 13 -14 16
-29 12 -56 -3 -20 -3 -34 0 -30 3 3 12 1 20 -6 7 -6 16 -8 20 -5 7 8 33 -11
33 -25 0 -5 -5 -6 -11 -2 -6 3 -4 -8 5 -24 9 -17 13 -38 10 -46 -4 -9 -1 -23
6 -31 10 -12 14 -12 26 0 8 7 14 20 14 27 -1 8 -5 7 -14 -5 -10 -13 -16 -15
-21 -6 -4 6 -1 15 6 20 12 7 12 10 1 18 -8 4 -12 21 -10 37 l3 28 28 -42 c15
-23 34 -50 42 -60 22 -27 80 -106 89 -121 6 -9 5 -12 -1 -8 -6 4 -16 0 -23 -9
-11 -13 -7 -20 28 -51 23 -20 42 -42 42 -50 0 -7 5 -13 11 -13 8 0 8 -5 -1
-15 -11 -13 -8 -15 13 -15 19 0 25 -4 21 -15 -4 -8 -2 -15 3 -15 6 0 15 -10
22 -22 11 -23 12 -23 7 -1 -2 13 2 24 11 27 8 3 11 1 8 -4 -10 -17 7 -11 22 8
9 10 12 11 7 2 -16 -33 -46 -58 -65 -53 -10 3 -19 0 -19 -6 0 -6 5 -11 10 -11
6 0 10 -4 10 -9 0 -5 -9 -7 -20 -4 -19 5 -19 8 -6 27 18 28 4 56 -27 56 -18 0
-19 -2 -7 -11 12 -8 10 -9 -7 -4 -31 8 -35 -7 -10 -36 55 -61 57 -53 -25 -132
-186 -180 -401 -356 -463 -378 -32 -12 -35 -17 -30 -39 10 -39 34 -70 55 -70
22 0 40 -28 32 -49 -3 -9 3 -7 16 5 12 11 45 32 74 48 95 51 421 318 482 394
11 13 24 29 31 35 9 8 9 20 2 45 -8 26 -7 43 7 81 19 53 14 121 -9 121 -44 0
-279 283 -386 465 -38 65 -109 228 -109 251 0 15 -9 18 -26 6z m118 -257 c10
-19 10 -19 -9 1 -11 11 -26 31 -32 45 l-12 24 21 -25 c11 -14 25 -34 32 -45z
m28 -49 c14 -18 14 -18 -7 -6 -12 8 -19 18 -16 23 3 4 6 7 7 5 1 -2 8 -12 16
-22z m247 -342 c-5 -5 -47 35 -47 46 0 5 12 -2 26 -17 14 -14 23 -27 21 -29z
m123 -200 c-7 -29 -10 -64 -8 -78 3 -15 0 -31 -9 -37 -11 -9 -12 -9 -7 4 4 12
1 14 -18 10 -13 -4 -27 -12 -33 -19 -5 -6 -21 -15 -35 -19 -24 -6 -24 -5 -6 9
18 15 18 16 2 16 -10 0 -20 -9 -23 -20 -3 -12 -14 -20 -25 -20 -18 0 -19 2 -7
17 36 45 43 52 51 47 4 -3 8 2 8 10 0 17 15 21 24 7 4 -5 0 -11 -6 -14 -7 -2
-10 -8 -6 -12 12 -12 37 15 31 32 -4 11 -2 14 5 9 7 -4 12 -1 12 8 0 8 -9 20
-20 26 -23 12 -26 35 -7 47 7 4 29 28 48 52 l34 43 3 -33 c2 -19 -2 -57 -8
-85z m-90 -158 c0 -3 -4 -8 -10 -11 -5 -3 -10 -1 -10 4 0 6 5 11 10 11 6 0 10
-2 10 -4z m-30 -25 c0 -5 -9 -11 -20 -14 -11 -3 -20 -1 -20 3 0 5 8 11 18 13
9 3 18 5 20 6 1 0 2 -3 2 -8z m45 -1 c-3 -5 -12 -10 -18 -10 -7 0 -6 4 3 10
19 12 23 12 15 0z"/>
<path d="M1730 3133 c0 -5 9 -14 20 -21 11 -7 20 -8 20 -2 0 5 -9 14 -20 20
-11 6 -20 7 -20 3z"/>
<path d="M2035 3910 c-13 -6 -15 -9 -5 -9 8 0 22 4 30 9 18 12 2 12 -25 0z"/>
<path d="M2130 3900 c0 -5 5 -10 11 -10 5 0 7 5 4 10 -3 6 -8 10 -11 10 -2 0
-4 -4 -4 -10z"/>
<path d="M2070 3875 c7 -8 17 -15 22 -15 5 0 3 7 -6 15 -8 8 -18 15 -22 15 -3
0 -1 -7 6 -15z"/>
<path d="M1635 3860 c-13 -6 -15 -9 -5 -9 8 0 22 4 30 9 18 12 2 12 -25 0z"/>
<path d="M1206 3821 c-3 -4 3 -17 12 -27 10 -10 19 -23 19 -27 2 -16 11 -18
16 -3 6 16 -39 71 -47 57z"/>
<path d="M1100 3775 c-7 -9 -8 -15 -2 -15 5 0 12 7 16 15 3 8 4 15 2 15 -2 0
-9 -7 -16 -15z"/>
<path d="M1263 3755 c-9 -20 -8 -25 2 -25 8 0 11 -8 8 -20 -3 -11 -1 -20 5
-20 6 0 22 -25 37 -55 16 -34 30 -53 37 -49 7 5 6 11 -5 19 -10 7 -17 19 -17
28 0 9 -5 19 -11 23 -8 5 -4 12 10 23 17 13 21 23 16 44 -9 36 -25 34 -25 -2
0 -25 -3 -28 -21 -24 -14 4 -17 8 -9 13 9 6 9 9 0 15 -7 4 -9 17 -6 31 8 31
-6 31 -21 -1z"/>
<path d="M1460 3676 c0 -2 8 -10 18 -17 15 -13 16 -12 3 4 -13 16 -21 21 -21
13z"/>
<path d="M1490 3636 c0 -3 9 -10 20 -16 11 -6 20 -8 20 -6 0 3 -9 10 -20 16
-11 6 -20 8 -20 6z"/>
<path d="M1540 3596 c0 -2 8 -10 18 -17 15 -13 16 -12 3 4 -13 16 -21 21 -21
13z"/>
<path d="M1489 3525 c-5 -29 -3 -75 4 -75 4 0 7 4 7 10 0 5 8 6 18 3 14 -6 15
-4 5 8 -7 8 -17 26 -22 40 -5 13 -11 20 -12 14z"/>
<path d="M806 3473 c-6 -14 -5 -15 5 -6 7 7 10 15 7 18 -3 3 -9 -2 -12 -12z"/>
<path d="M1740 3426 c0 -2 8 -10 18 -17 15 -13 16 -12 3 4 -13 16 -21 21 -21
13z"/>
<path d="M971 3394 c0 -11 3 -14 6 -6 3 7 2 16 -1 19 -3 4 -6 -2 -5 -13z"/>
<path d="M1500 3351 c0 -5 8 -12 19 -16 10 -3 26 -21 37 -40 11 -22 22 -31 28
-25 6 6 5 14 -2 23 -7 8 -10 16 -7 19 3 2 -6 11 -20 18 -14 7 -25 17 -25 22 0
4 -7 8 -15 8 -8 0 -15 -4 -15 -9z"/>
<path d="M2900 3356 c0 -2 8 -10 18 -17 15 -13 16 -12 3 4 -13 16 -21 21 -21
13z"/>
<path d="M1610 3300 c0 -11 7 -20 15 -20 13 0 14 4 5 20 -6 11 -13 20 -15 20
-3 0 -5 -9 -5 -20z"/>
<path d="M6531 3278 c-72 -12 -71 -16 3 -14 66 1 70 0 77 -24 7 -24 7 -23 8 6
1 37 -18 44 -88 32z"/>
<path d="M6905 3281 c-38 -16 -58 -50 -63 -105 l-4 -53 -49 -12 c-27 -7 -70
-23 -94 -36 -25 -12 -47 -20 -49 -16 -2 3 -7 39 -11 79 -4 39 -10 72 -14 72
-4 0 -3 -35 2 -77 l10 -77 -30 -25 c-19 -16 -33 -39 -37 -61 -6 -34 -2 -30 15
17 l8 23 43 -28 c46 -30 68 -40 163 -69 79 -24 332 -26 382 -3 40 18 48 35 25
58 -9 10 -28 31 -42 47 -38 46 -90 81 -142 95 l-47 12 6 69 c8 91 -11 114 -72
90z m-11 -46 c-4 -8 -11 -15 -16 -15 -6 0 -5 6 2 15 7 8 14 15 16 15 2 0 1 -7
-2 -15z m-23 -56 c-5 -13 -10 -19 -10 -12 -1 15 10 45 15 40 3 -2 0 -15 -5
-28z m42 16 c-3 -9 -8 -14 -10 -11 -3 3 -2 9 2 15 9 16 15 13 8 -4z m1 -40
c-4 -8 -8 -15 -10 -15 -2 0 -4 7 -4 15 0 8 4 15 10 15 5 0 7 -7 4 -15z m-120
-107 c-27 -24 -59 -54 -71 -67 -13 -14 -23 -18 -23 -11 0 16 69 81 115 108 34
19 30 14 -21 -30z m231 22 c3 -6 -1 -7 -9 -4 -18 7 -21 14 -7 14 6 0 13 -4 16
-10z m-312 -45 c-25 -25 -48 -43 -51 -41 -5 6 78 86 89 86 5 0 -12 -20 -38
-45z m358 18 l24 -26 -27 19 c-15 10 -28 22 -28 27 0 12 5 8 31 -20z m-391 -3
c-13 -11 -27 -20 -33 -20 -12 0 35 39 47 40 5 0 -1 -9 -14 -20z m336 -17 c-7
-7 -26 7 -26 19 0 6 6 6 15 -2 9 -7 13 -15 11 -17z m45 -10 c13 -16 12 -17 -3
-4 -10 7 -18 15 -18 17 0 8 8 3 21 -13z m-260 -16 c-10 -9 -11 -8 -5 6 3 10 9
15 12 12 3 -3 0 -11 -7 -18z m35 -3 c-4 -9 -9 -15 -11 -12 -3 3 -3 13 1 22 4
9 9 15 11 12 3 -3 3 -13 -1 -22z m212 -19 c-3 -3 -9 2 -12 12 -6 14 -5 15 5 6
7 -7 10 -15 7 -18z m37 5 c3 -5 1 -10 -4 -10 -6 0 -11 5 -11 10 0 6 2 10 4 10
3 0 8 -4 11 -10z m-313 -32 c-7 -7 -12 -8 -12 -2 0 14 12 26 19 19 2 -3 -1
-11 -7 -17z m43 -7 c-3 -12 -11 -19 -16 -16 -5 4 -3 14 3 25 15 24 22 19 13
-9z m111 -27 c-3 -8 -10 -14 -16 -14 -10 0 -4 43 9 65 8 13 14 -32 7 -51z
m123 -3 c0 -14 -1 -14 -6 -1 -3 8 -10 24 -15 35 -9 20 -9 20 6 1 9 -11 16 -27
15 -35z m91 4 c0 -5 -5 -3 -10 5 -5 8 -10 20 -10 25 0 6 5 3 10 -5 5 -8 10
-19 10 -25z m45 17 c-3 -3 -11 0 -18 7 -9 10 -8 11 6 5 10 -3 15 -9 12 -12z
m-193 -24 c-9 -9 -12 -7 -12 12 0 19 3 21 12 12 9 -9 9 -15 0 -24z m-132 18
c0 -3 -4 -8 -10 -11 -5 -3 -10 -1 -10 4 0 6 5 11 10 11 6 0 10 -2 10 -4z"/>
<path d="M7705 3240 c3 -5 8 -10 11 -10 2 0 4 5 4 10 0 6 -5 10 -11 10 -5 0
-7 -4 -4 -10z"/>
<path d="M6388 3233 c7 -3 16 -2 19 1 4 3 -2 6 -13 5 -11 0 -14 -3 -6 -6z"/>
<path d="M9291 3214 c0 -11 3 -14 6 -6 3 7 2 16 -1 19 -3 4 -6 -2 -5 -13z"/>
<path d="M3180 3150 c8 -5 20 -10 25 -10 6 0 3 5 -5 10 -8 5 -19 10 -25 10 -5
0 -3 -5 5 -10z"/>
<path d="M9312 3075 c0 -16 2 -22 5 -12 2 9 2 23 0 30 -3 6 -5 -1 -5 -18z"/>
<path d="M7568 2993 c6 -2 18 -2 25 0 6 3 1 5 -13 5 -14 0 -19 -2 -12 -5z"/>
<path d="M7625 2990 c11 -5 29 -9 40 -9 l20 0 -20 9 c-11 5 -29 9 -40 9 l-20
0 20 -9z"/>
<path d="M1041 2954 c0 -11 3 -14 6 -6 3 7 2 16 -1 19 -3 4 -6 -2 -5 -13z"/>
<path d="M7725 2953 c17 -9 33 -21 37 -27 4 -6 8 -58 9 -116 1 -66 4 -94 8
-75 13 54 8 195 -8 204 -7 5 -11 13 -8 17 3 5 -11 10 -32 11 l-36 2 30 -16z"/>
<path d="M9331 2934 c0 -11 3 -14 6 -6 3 7 2 16 -1 19 -3 4 -6 -2 -5 -13z"/>
<path d="M6482 2915 c-17 -37 -14 -45 4 -12 9 16 14 31 11 33 -2 2 -9 -7 -15
-21z"/>
<path d="M1052 2910 c0 -14 2 -19 5 -12 2 6 2 18 0 25 -3 6 -5 1 -5 -13z"/>
<path d="M2471 2893 c-10 -26 -10 -27 4 -9 8 11 15 23 15 28 0 15 -7 8 -19
-19z"/>
<path d="M6556 2904 c-3 -9 -6 -39 -5 -67 1 -46 2 -48 9 -23 5 16 18 39 30 51
16 17 18 24 8 32 -27 21 -36 22 -42 7z"/>
<path d="M8592 2890 c0 -19 2 -27 5 -17 2 9 2 25 0 35 -3 9 -5 1 -5 -18z"/>
<path d="M512 2880 c0 -14 2 -19 5 -12 2 6 2 18 0 25 -3 6 -5 1 -5 -13z"/>
<path d="M547 2893 c-4 -3 -7 -11 -7 -17 0 -6 5 -5 12 2 6 6 9 14 7 17 -3 3
-9 2 -12 -2z"/>
<path d="M9342 2885 c0 -11 4 -33 8 -50 7 -27 8 -27 8 -5 0 14 -4 36 -8 50 -6
20 -8 21 -8 5z"/>
<path d="M538 2853 c7 -3 16 -2 19 1 4 3 -2 6 -13 5 -11 0 -14 -3 -6 -6z"/>
<path d="M1061 2844 c0 -11 3 -14 6 -6 3 7 2 16 -1 19 -3 4 -6 -2 -5 -13z"/>
<path d="M7210 2841 c-8 -5 -32 -11 -52 -15 -29 -5 -38 -12 -38 -27 0 -11 -5
-17 -10 -14 -6 4 -8 11 -5 16 4 5 -25 9 -69 9 -42 0 -76 -2 -76 -4 0 -2 7 -23
15 -46 8 -23 15 -55 15 -71 0 -35 2 -36 35 -3 17 17 34 24 53 22 23 -3 27 -8
30 -40 2 -26 -2 -40 -16 -50 -14 -10 -17 -22 -14 -56 3 -34 7 -40 18 -31 7 6
19 7 25 3 8 -5 9 -3 4 5 -5 8 8 28 33 54 58 59 94 142 90 207 -3 50 -10 57
-38 41z m-196 -87 c3 -8 2 -12 -4 -9 -6 3 -10 10 -10 16 0 14 7 11 14 -7z"/>
<path d="M151 2801 c-7 -23 -10 -45 -8 -48 7 -7 29 65 24 80 -2 6 -10 -8 -16
-32z"/>
<path d="M6492 2818 c-6 -13 -13 -34 -16 -48 -5 -18 -1 -15 11 10 10 19 21 37
26 38 10 5 9 22 -1 22 -5 0 -14 -10 -20 -22z"/>
<path d="M6598 2823 c12 -8 22 -22 22 -29 0 -8 7 -14 15 -14 8 0 15 6 15 14 0
22 -29 46 -53 45 l-22 0 23 -16z"/>
<path d="M234 2797 c-11 -17 -33 -62 -49 -99 -16 -37 -31 -65 -34 -62 -2 2 -4
27 -2 54 1 28 -2 50 -8 50 -11 0 -20 -56 -20 -117 0 -38 3 -43 22 -43 31 1 65
33 64 61 0 13 4 33 8 43 6 14 5 17 -3 12 -19 -12 -13 16 13 59 13 22 29 48 35
58 20 32 -5 17 -26 -16z m-44 -156 c0 -10 -7 -21 -15 -24 -12 -5 -12 -2 -3 18
13 30 18 31 18 6z"/>
<path d="M356 2815 c4 -8 8 -15 10 -15 2 0 4 7 4 15 0 8 -4 15 -10 15 -5 0 -7
-7 -4 -15z"/>
<path d="M2415 2804 c-9 -15 -12 -23 -6 -20 11 7 35 46 28 46 -3 0 -12 -12
-22 -26z"/>
<path d="M62 2795 c0 -16 2 -22 5 -12 2 9 2 23 0 30 -3 6 -5 -1 -5 -18z"/>
<path d="M1071 2804 c0 -11 3 -14 6 -6 3 7 2 16 -1 19 -3 4 -6 -2 -5 -13z"/>
<path d="M2595 2800 c3 -5 8 -10 11 -10 2 0 4 5 4 10 0 6 -5 10 -11 10 -5 0
-7 -4 -4 -10z"/>
<path d="M6812 2789 c-19 -4 -39 -12 -45 -18 -16 -16 20 -26 38 -11 9 8 29 10
50 7 21 -3 33 -2 30 4 -12 18 -41 26 -73 18z"/>
<path d="M9362 2780 c0 -14 2 -19 5 -12 2 6 2 18 0 25 -3 6 -5 1 -5 -13z"/>
<path d="M6233 2750 c0 -25 2 -35 4 -22 2 12 2 32 0 45 -2 12 -4 2 -4 -23z"/>
<path d="M7383 2778 c-15 -20 -25 -38 -20 -38 3 0 12 11 21 25 17 26 16 35 -1
13z"/>
<path d="M371 2773 c0 -6 -4 -20 -7 -30 -5 -14 -4 -15 5 -7 7 7 11 20 8 30 -3
11 -5 14 -6 7z"/>
<path d="M6570 2765 c0 -17 9 -19 28 -6 11 7 10 10 -3 15 -23 9 -25 8 -25 -9z"/>
<path d="M6416 2753 c-6 -14 -5 -15 5 -6 7 7 10 15 7 18 -3 3 -9 -2 -12 -12z"/>
<path d="M47 2753 c-4 -3 -7 -11 -7 -17 0 -6 5 -5 12 2 6 6 9 14 7 17 -3 3 -9
2 -12 -2z"/>
<path d="M508 2753 c6 -2 18 -2 25 0 6 3 1 5 -13 5 -14 0 -19 -2 -12 -5z"/>
<path d="M464 2728 l-19 -23 23 19 c21 18 27 26 19 26 -2 0 -12 -10 -23 -22z"/>
<path d="M7495 2743 c-39 -9 -135 -56 -135 -66 0 -5 -8 -7 -17 -5 -10 3 -27
-4 -37 -14 -11 -10 -14 -18 -8 -18 6 0 14 5 17 10 3 6 14 10 24 10 10 0 29 8
42 18 43 33 112 55 199 62 l85 7 -75 0 c-41 1 -84 -1 -95 -4z"/>
<path d="M1091 2735 c1 -19 18 -51 18 -35 0 8 -4 22 -9 30 -5 8 -9 11 -9 5z"/>
<path d="M3351 2709 c-6 -18 -11 -37 -10 -43 0 -6 7 7 15 28 8 22 12 41 10 43
-2 2 -9 -10 -15 -28z"/>
<path d="M291 2714 c0 -11 3 -14 6 -6 3 7 2 16 -1 19 -3 4 -6 -2 -5 -13z"/>
<path d="M3127 2701 c-9 -16 -17 -33 -17 -38 0 -4 9 7 21 26 11 18 18 35 17
37 -2 2 -12 -10 -21 -25z"/>
<path d="M47 2630 c3 -52 10 -103 14 -112 6 -11 5 -18 -4 -21 -9 -4 -8 -6 2
-6 7 -1 23 9 36 21 l22 21 -19 86 c-23 104 -30 123 -22 56 10 -87 11 -146 3
-138 -5 5 -11 38 -14 75 -9 111 -25 127 -18 18z"/>
<path d="M350 2704 c0 -11 -11 -36 -25 -57 -14 -20 -22 -37 -16 -37 5 0 12 7
15 16 3 8 10 13 15 10 9 -6 25 73 16 82 -3 3 -5 -3 -5 -14z"/>
<path d="M6392 2695 c-17 -37 -14 -45 4 -12 9 16 14 31 11 33 -2 2 -9 -7 -15
-21z"/>
<path d="M6541 2704 c0 -11 3 -14 6 -6 3 7 2 16 -1 19 -3 4 -6 -2 -5 -13z"/>
<path d="M6782 2708 c-16 -16 -15 -28 3 -28 8 0 15 9 15 20 0 23 -2 24 -18 8z"/>
<path d="M2322 2680 c-18 -29 -15 -38 4 -12 9 13 14 25 12 27 -2 2 -9 -5 -16
-15z"/>
<path d="M3611 2684 c0 -11 3 -14 6 -6 3 7 2 16 -1 19 -3 4 -6 -2 -5 -13z"/>
<path d="M3641 2669 c-6 -18 -9 -34 -7 -36 2 -2 9 10 15 28 6 18 9 34 7 36 -2
2 -9 -10 -15 -28z"/>
<path d="M7756 2669 c-8 -42 0 -50 9 -9 4 17 5 34 2 36 -2 3 -7 -10 -11 -27z"/>
<path d="M277 2671 c-4 -17 -3 -21 5 -13 5 5 8 16 6 23 -3 8 -7 3 -11 -10z"/>
<path d="M3556 2677 c3 -10 9 -15 12 -12 3 3 0 11 -7 18 -10 9 -11 8 -5 -6z"/>
<path d="M3675 2660 c-9 -18 -14 -34 -12 -37 3 -2 12 10 21 28 9 18 14 34 12
37 -3 2 -12 -10 -21 -28z"/>
<path d="M6232 2675 c-1 -11 3 -38 7 -60 7 -34 9 -35 9 -10 0 35 -15 101 -16
70z"/>
<path d="M539 2663 c-13 -16 -12 -17 4 -4 9 7 17 15 17 17 0 8 -8 3 -21 -13z"/>
<path d="M7450 2670 c-35 -7 -35 -7 -5 -9 17 0 66 -19 110 -41 43 -22 81 -38
83 -36 6 7 -100 65 -132 72 -21 5 -25 8 -15 15 16 10 9 10 -41 -1z"/>
<path d="M3150 2659 c0 -5 5 -7 10 -4 6 3 10 8 10 11 0 2 -4 4 -10 4 -5 0 -10
-5 -10 -11z"/>
<path d="M3217 2663 c-4 -3 -7 -11 -7 -17 0 -6 5 -5 12 2 6 6 9 14 7 17 -3 3
-9 2 -12 -2z"/>
<path d="M6531 2654 c0 -11 3 -14 6 -6 3 7 2 16 -1 19 -3 4 -6 -2 -5 -13z"/>
<path d="M2467 2630 c3 -11 12 -20 19 -20 20 0 17 18 -5 29 -16 9 -18 8 -14
-9z"/>
<path d="M3273 2638 c-13 -6 -23 -15 -23 -20 0 -10 36 7 45 22 7 12 7 12 -22
-2z"/>
<path d="M6519 2615 c-1 -11 -1 -27 0 -35 8 -64 7 -89 -5 -94 -8 -3 -14 -11
-14 -17 0 -7 8 -5 20 6 11 10 18 21 15 24 -2 4 5 7 15 7 15 0 5 -15 -40 -61
-32 -33 -80 -86 -106 -118 -42 -53 -46 -62 -40 -96 7 -44 -26 -168 -105 -404
-30 -89 -48 -158 -45 -171 11 -45 59 -117 87 -132 19 -10 29 -11 29 -3 0 6 6
9 14 6 18 -7 41 19 56 66 6 20 13 37 14 37 1 0 2 -28 2 -62 0 -35 5 -79 10
-98 9 -32 15 -36 72 -52 254 -68 543 -63 717 12 l70 31 -2 207 c-1 114 -3 221
-5 237 -2 17 2 41 9 55 6 14 15 59 19 100 5 62 4 78 -9 88 -13 11 -19 10 -36
-7 -22 -22 -37 -28 -26 -11 3 6 1 10 -5 10 -6 0 -9 -8 -6 -18 4 -12 -2 -26
-18 -41 l-23 -22 -28 33 c-37 44 -68 115 -62 144 2 13 0 21 -4 18 -21 -12 -13
135 7 157 10 12 12 19 4 24 -7 4 -4 15 10 32 15 20 17 29 9 45 -6 11 -13 17
-17 14 -3 -4 -1 -11 5 -17 9 -9 -10 -33 -69 -91 -72 -70 -96 -86 -222 -147
-78 -38 -159 -74 -182 -80 -43 -11 -69 -46 -58 -76 4 -10 2 -15 -7 -13 -10 2
-13 -6 -12 -27 2 -29 2 -29 -7 -6 -12 27 2 84 26 112 8 9 16 52 20 105 3 49 9
115 13 146 l8 57 -39 28 c-27 20 -39 38 -44 63 -8 49 -12 58 -15 35z m524
-219 c-36 -40 -103 -139 -103 -152 -1 -15 -48 -45 -55 -35 -3 6 0 13 8 18 18
11 77 89 77 101 0 6 6 15 13 19 7 4 28 27 46 51 18 24 36 41 39 38 2 -3 -9
-21 -25 -40z m-479 -356 c18 0 24 -6 24 -24 0 -13 -6 -23 -12 -22 -6 0 -11 -3
-11 -9 0 -5 5 -9 11 -7 19 4 27 -17 10 -24 -9 -3 -16 -11 -16 -16 0 -6 7 -5
16 3 22 18 38 -6 35 -56 0 -11 2 -14 5 -7 9 18 20 14 21 -8 2 -17 -2 -19 -25
-13 -15 3 -28 10 -30 15 -2 4 -10 8 -17 8 -9 0 -11 -8 -8 -22 4 -14 2 -20 -3
-15 -5 5 -9 12 -9 15 0 4 -4 12 -8 19 -4 6 -3 23 3 37 9 25 -3 38 -13 14 -3
-7 -6 4 -6 26 -1 32 -3 37 -15 27 -12 -10 -11 -2 2 40 9 29 18 45 20 36 2 -10
13 -17 26 -17z m649 -25 c-21 -26 -33 -33 -48 -29 -34 11 -42 25 -10 18 24 -4
35 0 54 20 35 37 37 32 4 -9z m-713 -102 c-4 -21 -13 -49 -19 -63 -10 -22 -11
-21 -6 15 10 71 16 95 25 90 4 -2 4 -22 0 -42z m759 11 c2 -2 -14 -4 -37 -4
-23 0 -42 4 -42 9 0 9 69 4 79 -5z m-659 -78 c0 -3 -4 -8 -10 -11 -5 -3 -10
-1 -10 4 0 6 5 11 10 11 6 0 10 -2 10 -4z m75 -16 c3 -5 2 -10 -4 -10 -5 0
-13 5 -16 10 -3 6 -2 10 4 10 5 0 13 -4 16 -10z m-209 -37 c-10 -10 -19 5 -10
18 6 11 8 11 12 0 2 -7 1 -15 -2 -18z m-14 -79 c-8 -35 -9 -37 -13 -13 -6 26
10 83 17 63 3 -6 1 -28 -4 -50z m88 36 c0 -12 -8 -12 -35 0 -18 8 -17 9 8 9
15 1 27 -3 27 -9z m7 -60 c0 -32 -13 -41 -19 -12 -3 13 8 37 18 42 0 0 1 -13
1 -30z"/>
<path d="M6580 2619 c0 -5 5 -7 10 -4 6 3 10 8 10 11 0 2 -4 4 -10 4 -5 0 -10
-5 -10 -11z"/>
<path d="M8312 2610 c0 -14 2 -19 5 -12 2 6 2 18 0 25 -3 6 -5 1 -5 -13z"/>
<path d="M240 2612 c0 -12 19 -26 26 -19 2 2 -2 10 -11 17 -9 8 -15 8 -15 2z"/>
<path d="M610 2605 c0 -8 2 -15 4 -15 2 0 6 7 10 15 3 8 1 15 -4 15 -6 0 -10
-7 -10 -15z"/>
<path d="M2411 2578 c-105 -142 -141 -193 -141 -201 0 -6 5 -6 13 0 6 6 44 18
82 29 39 10 89 26 113 36 l42 19 -6 47 c-4 26 -6 56 -6 68 0 18 -5 20 -28 15
-28 -6 -56 -34 -103 -106 -15 -22 -27 -36 -27 -31 0 4 25 44 56 87 57 81 61
113 5 37z m79 -49 c0 -17 -3 -18 -20 -9 -11 6 -26 8 -33 5 -6 -4 -1 2 13 13
28 23 40 20 40 -9z m3 -41 c31 2 2 -23 -43 -38 -31 -10 -43 -11 -52 -2 -9 9
-9 12 1 12 7 0 11 6 8 14 -7 18 11 26 43 18 14 -3 33 -5 43 -4z m-103 -52 c0
-11 -19 -15 -25 -6 -3 5 1 10 9 10 9 0 16 -2 16 -4z m-60 -20 c0 -3 -4 -8 -10
-11 -5 -3 -10 -1 -10 4 0 6 5 11 10 11 6 0 10 -2 10 -4z"/>
<path d="M2435 2470 c-13 -5 -14 -9 -5 -9 8 0 24 4 35 9 13 5 14 9 5 9 -8 0
-24 -4 -35 -9z"/>
<path d="M5939 2603 c-13 -16 -12 -17 4 -4 9 7 17 15 17 17 0 8 -8 3 -21 -13z"/>
<path d="M335 2590 c3 -5 1 -18 -5 -29 -6 -11 -6 -22 -1 -25 5 -3 11 4 15 17
9 33 7 47 -5 47 -5 0 -7 -4 -4 -10z"/>
<path d="M8231 2595 c0 -18 28 -61 29 -44 0 8 -7 24 -15 35 -8 10 -14 15 -14
9z"/>
<path d="M8518 2556 c-18 -38 -20 -48 -9 -59 10 -9 12 -9 7 0 -4 7 2 31 14 54
11 24 18 44 15 47 -2 2 -14 -16 -27 -42z"/>
<path d="M2231 2576 c-13 -7 -19 -16 -14 -19 6 -4 18 2 28 13 21 23 19 24 -14
6z"/>
<path d="M3397 2572 c-18 -19 -23 -42 -9 -42 4 0 13 14 19 30 13 35 12 36 -10
12z"/>
<path d="M6580 2576 c0 -8 4 -17 9 -20 5 -4 7 3 4 14 -6 23 -13 26 -13 6z"/>
<path d="M8492 2570 c0 -14 2 -19 5 -12 2 6 2 18 0 25 -3 6 -5 1 -5 -13z"/>
<path d="M2910 2572 c0 -5 7 -15 15 -22 8 -7 15 -8 15 -2 0 5 -7 15 -15 22 -8
7 -15 8 -15 2z"/>
<path d="M7171 2543 c-19 -18 -33 -35 -30 -38 3 -2 21 11 39 30 43 44 36 50
-9 8z"/>
<path d="M3145 2560 c3 -5 8 -10 11 -10 2 0 4 5 4 10 0 6 -5 10 -11 10 -5 0
-7 -4 -4 -10z"/>
<path d="M6256 2540 c4 -19 10 -42 15 -50 11 -18 1 34 -13 65 -5 13 -6 9 -2
-15z"/>
<path d="M6677 2564 c-3 -3 -22 -11 -41 -18 l-36 -13 24 -11 c20 -9 24 -8 20
2 -6 16 25 26 79 26 23 0 36 4 32 10 -7 11 -68 14 -78 4z"/>
<path d="M3200 2551 c0 -6 4 -13 10 -16 6 -3 7 1 4 9 -7 18 -14 21 -14 7z"/>
<path d="M3321 2537 c-13 -21 -12 -21 5 -5 10 10 16 20 13 22 -3 3 -11 -5 -18
-17z"/>
<path d="M176 2524 c-64 -12 -98 -25 -65 -23 33 1 191 37 164 37 -16 0 -61 -6
-99 -14z"/>
<path d="M518 2533 c12 -2 30 -2 40 0 9 3 -1 5 -23 4 -22 0 -30 -2 -17 -4z"/>
<path d="M2190 2530 c0 -5 5 -10 10 -10 6 0 10 5 10 10 0 6 -4 10 -10 10 -5 0
-10 -4 -10 -10z"/>
<path d="M3989 2525 c-1 -8 -3 -19 -4 -25 -1 -5 -3 -13 -4 -16 0 -4 -7 -1 -15
5 -11 9 -15 8 -20 -5 -8 -20 10 -44 33 -44 9 0 -2 -11 -24 -25 -22 -13 -33
-25 -25 -25 9 0 20 4 25 9 6 5 20 12 32 15 18 6 20 4 16 -14 -3 -11 0 -20 6
-20 6 0 11 9 11 19 0 11 5 23 10 26 6 4 9 1 8 -7 -2 -7 8 -14 21 -16 15 -2 21
0 16 7 -3 6 -11 8 -17 5 -7 -4 -8 -2 -4 4 4 6 -3 21 -14 32 l-20 20 25 12 c14
6 25 15 25 20 0 11 -28 10 -35 -2 -11 -18 -25 -10 -25 15 0 27 -19 36 -21 10z"/>
<path d="M8275 2526 c3 -11 2 -22 -3 -25 -5 -3 -6 -15 -2 -26 7 -18 8 -18 15
7 4 15 2 34 -5 45 -11 17 -11 17 -5 -1z"/>
<path d="M7700 2516 c0 -7 -9 -34 -20 -59 -20 -45 -79 -101 -152 -146 -21 -12
-38 -27 -38 -32 0 -14 113 67 158 112 35 37 81 139 61 139 -5 0 -9 -6 -9 -14z"/>
<path d="M1868 2515 c-11 -12 -359 -46 -479 -48 -148 -2 -147 0 -25 -95 l80
-63 96 6 c52 4 145 10 205 16 61 5 123 9 138 9 16 0 26 4 22 10 -3 5 -19 7
-36 3 -25 -5 -28 -3 -23 12 4 9 1 20 -5 25 -18 11 8 50 33 50 15 0 16 3 6 15
-9 11 -17 12 -32 4 -12 -7 -35 -8 -57 -3 -20 4 -43 6 -51 5 -11 -1 -10 1 3 9
9 6 27 8 38 5 12 -4 25 -2 28 4 4 6 26 12 48 14 45 2 81 27 40 27 -13 0 -26
-2 -29 -5z m-210 -149 c31 1 69 5 85 9 30 8 38 -8 10 -20 -25 -11 -163 -14
-169 -3 -3 4 -2 13 2 20 4 7 9 8 11 3 2 -6 29 -9 61 -9z m182 4 c0 -5 -4 -10
-10 -10 -5 0 -10 5 -10 10 0 6 5 10 10 10 6 0 10 -4 10 -10z m-40 -10 c0 -5
-4 -10 -10 -10 -5 0 -10 5 -10 10 0 6 5 10 10 10 6 0 10 -4 10 -10z m-230 -10
c0 -5 -7 -10 -16 -10 -8 0 -12 5 -9 10 3 6 10 10 16 10 5 0 9 -4 9 -10z"/>
<path d="M4505 2501 c6 -21 -3 -51 -16 -51 -6 0 -5 9 1 21 15 27 5 37 -11 10
-9 -14 -17 -17 -25 -10 -9 7 -10 2 -4 -25 7 -30 4 -37 -24 -63 -27 -26 -34
-29 -56 -19 -32 13 -42 28 -27 38 8 5 6 8 -5 8 -25 0 -22 -27 5 -44 31 -20 82
-32 73 -17 -4 6 -3 11 2 11 15 0 22 -13 13 -24 -10 -12 0 -29 37 -60 22 -19
22 -19 22 3 0 12 -4 20 -8 17 -17 -10 -36 14 -38 48 0 19 3 33 7 30 5 -3 15
10 22 28 8 18 21 39 30 47 19 15 23 71 6 71 -6 0 -8 -8 -4 -19z"/>
<path d="M3028 2503 c7 -3 16 -2 19 1 4 3 -2 6 -13 5 -11 0 -14 -3 -6 -6z"/>
<path d="M3920 2500 c0 -5 5 -10 10 -10 6 0 10 5 10 10 0 6 -4 10 -10 10 -5 0
-10 -4 -10 -10z"/>
<path d="M3120 2491 c14 -4 48 -11 75 -14 31 -4 41 -3 25 2 -14 4 -48 11 -75
14 -31 4 -41 3 -25 -2z"/>
<path d="M3256 2485 c-3 -8 -1 -15 4 -15 6 0 10 7 10 15 0 8 -2 15 -4 15 -2 0
-6 -7 -10 -15z"/>
<path d="M4420 2452 c0 -23 4 -42 9 -42 9 0 6 68 -3 78 -3 3 -6 -13 -6 -36z"/>
<path d="M611 2464 c0 -11 3 -14 6 -6 3 7 2 16 -1 19 -3 4 -6 -2 -5 -13z"/>
<path d="M2821 2454 c0 -11 3 -14 6 -6 3 7 2 16 -1 19 -3 4 -6 -2 -5 -13z"/>
<path d="M2879 2453 c-13 -15 -12 -15 9 -4 23 12 28 21 13 21 -5 0 -15 -7 -22
-17z"/>
<path d="M4350 2456 c0 -8 4 -17 9 -20 5 -4 7 3 4 14 -6 23 -13 26 -13 6z"/>
<path d="M6280 2462 c0 -19 41 -96 56 -105 8 -4 14 -14 14 -21 0 -8 6 -19 14
-25 11 -9 13 -3 13 36 0 27 -2 38 -4 26 -3 -13 -7 -23 -11 -23 -8 0 -42 49
-66 95 -8 17 -15 24 -16 17z"/>
<path d="M6688 2453 c7 -3 16 -2 19 1 4 3 -2 6 -13 5 -11 0 -14 -3 -6 -6z"/>
<path d="M538 2443 c7 -3 16 -2 19 1 4 3 -2 6 -13 5 -11 0 -14 -3 -6 -6z"/>
<path d="M3450 2440 c8 -5 20 -10 25 -10 6 0 3 5 -5 10 -8 5 -19 10 -25 10 -5
0 -3 -5 5 -10z"/>
<path d="M1901 2433 c0 -5 4 -17 9 -28 8 -18 9 -17 9 8 1 15 -3 27 -9 27 -5 0
-10 -3 -9 -7z"/>
<path d="M2830 2419 c0 -5 5 -7 10 -4 6 3 10 8 10 11 0 2 -4 4 -10 4 -5 0 -10
-5 -10 -11z"/>
<path d="M4513 2404 c-1 -24 1 -25 14 -11 9 8 12 20 9 26 -12 19 -21 12 -23
-15z"/>
<path d="M1845 2410 c-3 -5 -2 -10 4 -10 5 0 13 5 16 10 3 6 2 10 -4 10 -5 0
-13 -4 -16 -10z"/>
<path d="M4144 2404 c-18 -14 -18 -15 4 -4 12 6 22 13 22 15 0 8 -5 6 -26 -11z"/>
<path d="M6661 2404 c0 -11 3 -14 6 -6 3 7 2 16 -1 19 -3 4 -6 -2 -5 -13z"/>
<path d="M3608 2403 c6 -2 18 -2 25 0 6 3 1 5 -13 5 -14 0 -19 -2 -12 -5z"/>
<path d="M7698 2403 c6 -2 18 -2 25 0 6 3 1 5 -13 5 -14 0 -19 -2 -12 -5z"/>
<path d="M8275 2400 c-3 -6 1 -7 9 -4 18 7 21 14 7 14 -6 0 -13 -4 -16 -10z"/>
<path d="M325 2385 c-25 -12 -26 -14 -5 -9 28 7 60 23 45 23 -5 0 -23 -6 -40
-14z"/>
<path d="M1960 2378 c0 -16 5 -28 10 -28 13 0 13 20 0 40 -8 12 -10 9 -10 -12z"/>
<path d="M3670 2390 c14 -4 34 -8 45 -8 l20 -1 -20 9 c-11 5 -31 8 -45 8 l-25
0 25 -8z"/>
<path d="M1870 2374 c0 -8 5 -12 10 -9 6 3 10 10 10 16 0 5 -4 9 -10 9 -5 0
-10 -7 -10 -16z"/>
<path d="M3972 2370 c0 -14 2 -19 5 -12 2 6 2 18 0 25 -3 6 -5 1 -5 -13z"/>
<path d="M4480 2383 c0 -3 8 -15 17 -25 15 -16 15 -21 3 -28 -8 -5 -18 -6 -24
-3 -5 3 -6 1 -2 -5 10 -17 31 -15 47 4 11 14 10 18 -6 31 -11 8 -19 19 -17 24
1 5 -2 9 -8 9 -5 0 -10 -3 -10 -7z"/>
<path d="M3763 2366 c5 -13 -1 -16 -31 -16 -20 0 -53 -9 -72 -20 -19 -10 -43
-22 -52 -26 -21 -7 -24 -24 -5 -24 7 -1 5 -6 -5 -14 -27 -20 -22 -26 15 -19
46 8 31 -2 -35 -25 -41 -14 -58 -17 -62 -9 -2 7 -5 5 -5 -4 -1 -14 -53 -41
-141 -74 -28 -11 -32 -15 -17 -20 11 -5 45 7 95 33 115 60 290 106 442 117
204 14 250 19 250 27 0 4 -5 8 -11 8 -8 0 -8 5 1 15 7 8 16 13 20 10 4 -2 17
10 29 28 l22 32 -25 -28 c-14 -15 -26 -25 -26 -22 0 3 -13 -2 -30 -11 -27 -17
-33 -17 -82 -2 -51 16 -161 40 -242 53 -33 5 -38 4 -33 -9z m-103 -85 c0 -5
-7 -11 -14 -14 -10 -4 -13 -1 -9 9 6 15 23 19 23 5z"/>
<path d="M621 2328 c-1 -40 -4 -48 -20 -48 -10 0 -21 -7 -25 -15 -4 -11 1 -15
17 -15 18 0 19 2 7 10 -13 8 -12 10 3 10 10 0 17 -8 17 -20 0 -11 4 -20 9 -20
5 0 17 -19 26 -42 10 -24 19 -38 22 -32 2 6 -4 28 -14 50 -10 21 -23 68 -29
104 l-11 65 -2 -47z"/>
<path d="M4082 2357 c-8 -10 -6 -13 7 -13 11 0 17 6 14 13 -3 7 -6 13 -8 13
-1 0 -7 -6 -13 -13z"/>
<path d="M7905 2360 c27 -12 43 -12 25 0 -8 5 -22 9 -30 9 -10 0 -8 -3 5 -9z"/>
<path d="M4296 2352 c-3 -5 6 -20 21 -33 l26 -24 -19 30 c-10 17 -19 31 -20
33 -1 2 -5 -1 -8 -6z"/>
<path d="M215 2330 c-16 -11 -25 -20 -20 -20 10 0 64 39 55 40 -3 0 -18 -9
-35 -20z"/>
<path d="M4356 2322 c19 -11 29 -23 26 -32 -2 -9 2 -6 11 5 15 19 14 21 -16
32 -47 17 -57 15 -21 -5z"/>
<path d="M8230 2307 c0 -19 40 -87 53 -87 4 0 2 10 -5 21 -7 12 -21 35 -30 53
-11 21 -17 25 -18 13z"/>
<path d="M8376 2306 c3 -8 13 -17 22 -21 13 -5 13 -2 -3 15 -21 24 -26 25 -19
6z"/>
<path d="M2021 2271 c-17 -21 -31 -42 -31 -46 0 -6 20 17 59 68 7 9 11 17 8
17 -3 0 -19 -18 -36 -39z"/>
<path d="M2820 2295 c-69 -18 -141 -58 -209 -117 -67 -57 -65 -51 -39 -146 7
-23 17 -41 24 -38 6 2 17 0 25 -5 11 -7 10 -11 -6 -23 -11 -9 -15 -16 -8 -16
6 0 15 5 18 10 3 6 15 10 26 10 21 0 23 11 10 57 -9 30 -7 34 42 71 46 35 136
87 138 80 0 -3 6 -33 12 -68 4 -17 66 -138 67 -128 0 3 -11 30 -24 59 -22 47
-23 55 -10 73 8 11 14 25 14 31 -1 5 -8 -1 -16 -15 l-15 -25 6 28 c3 16 1 27
-5 27 -6 0 -8 5 -5 10 3 6 -1 13 -9 16 -14 6 -33 1 -91 -22 -18 -7 -18 -6 -6
9 7 9 19 17 26 17 7 0 15 6 18 13 3 7 21 18 42 24 31 10 36 9 31 -3 -3 -9 -1
-12 4 -9 6 3 10 -5 10 -19 0 -14 5 -28 10 -31 6 -3 10 0 10 8 0 18 -31 120
-39 128 -3 3 -26 1 -51 -6z m36 -20 c-3 -8 -1 -14 3 -12 5 1 8 -2 8 -8 -1 -5
-10 -11 -19 -12 -12 -2 -15 2 -12 12 5 11 -2 15 -22 16 -27 2 -27 2 6 9 19 4
37 8 39 9 2 0 1 -6 -3 -14z m-186 -179 c0 -2 -7 -7 -16 -10 -8 -3 -12 -2 -9 4
6 10 25 14 25 6z m-35 -86 c3 -5 1 -10 -4 -10 -6 0 -11 5 -11 10 0 6 2 10 4
10 3 0 8 -4 11 -10z"/>
<path d="M8722 2275 c0 -16 4 -43 8 -60 11 -42 11 -1 1 50 -7 34 -9 35 -9 10z"/>
<path d="M6644 2274 c-18 -14 -18 -15 4 -4 12 6 22 13 22 15 0 8 -5 6 -26 -11z"/>
<path d="M8423 2271 c1 -11 6 -17 14 -14 10 4 11 9 2 19 -15 19 -18 18 -16 -5z"/>
<path d="M3340 2273 c0 -5 -12 -21 -26 -38 -14 -16 -34 -40 -44 -53 -18 -22
-19 -22 -90 -7 -83 17 -124 19 -115 5 3 -5 21 -10 38 -10 18 0 48 -4 67 -9 75
-19 100 -21 100 -7 0 8 20 36 45 62 45 49 53 64 35 64 -5 0 -10 -3 -10 -7z"/>
<path d="M4160 2277 c0 -3 15 -10 32 -16 18 -6 28 -7 23 -2 -12 10 -55 25 -55
18z"/>
<path d="M518 2263 c-21 -2 -38 -8 -38 -14 0 -5 5 -9 11 -9 7 0 8 -11 4 -30
-7 -30 -6 -31 22 -24 15 3 44 13 63 22 l35 17 -40 3 c-43 4 -74 22 -37 22 12
0 22 5 22 10 0 6 -1 9 -2 8 -2 -1 -20 -3 -40 -5z"/>
<path d="M4415 2257 c6 -14 45 -41 51 -34 2 2 -10 13 -26 25 -16 12 -27 16
-25 9z"/>
<path d="M7455 2261 c-3 -6 -39 -29 -81 -51 -41 -23 -73 -44 -70 -47 3 -3 36
13 74 36 84 51 111 70 95 71 -6 0 -14 -4 -18 -9z"/>
<path d="M8480 2250 c34 -11 60 -11 35 0 -11 5 -29 8 -40 8 -16 0 -15 -2 5 -8z"/>
<path d="M4278 2224 c28 -13 64 -26 80 -29 15 -4 -6 8 -46 24 -86 36 -110 40
-34 5z"/>
<path d="M410 2201 c41 -22 84 -48 94 -60 23 -25 41 -26 90 -6 51 21 45 27 -9
9 l-45 -16 -44 37 c-36 29 -135 77 -156 75 -3 -1 29 -18 70 -39z"/>
<path d="M3535 2230 c-3 -6 1 -7 9 -4 18 7 21 14 7 14 -6 0 -13 -4 -16 -10z"/>
<path d="M7992 2219 c-13 -20 -14 -20 -32 -4 -21 19 -54 13 -48 -8 3 -6 14
-13 26 -15 13 -2 19 -8 16 -17 -3 -8 -1 -22 6 -32 10 -15 10 -14 6 9 -4 15 -2
30 4 33 5 3 10 -2 10 -11 0 -27 16 -4 23 34 8 38 6 39 -11 11z"/>
<path d="M440 2221 c0 -12 29 -23 41 -15 5 3 7 10 4 15 -8 12 -45 12 -45 0z"/>
<path d="M1515 2143 c-103 -213 -140 -379 -138 -628 1 -201 20 -302 65 -352
26 -28 145 -86 163 -79 14 5 14 8 2 20 -7 8 -21 34 -30 57 -15 42 -57 236 -61
289 -2 14 -7 34 -13 45 -8 15 -8 26 0 40 6 11 10 38 8 60 -6 123 43 343 105
467 37 76 38 78 27 78 -5 0 -17 -20 -27 -43 -11 -23 -30 -58 -43 -77 -13 -19
-23 -43 -23 -53 0 -10 -5 -15 -11 -12 -6 4 -10 1 -8 -6 4 -30 -2 -59 -11 -59
-5 0 -9 6 -7 12 1 7 -8 14 -20 16 -13 2 -23 -1 -23 -7 0 -6 4 -11 9 -11 15 0
9 -39 -7 -45 -8 -3 -10 0 -6 7 4 6 -1 17 -11 24 -16 12 -16 18 -6 61 7 26 18
57 25 68 8 11 17 35 21 53 4 20 11 30 18 25 7 -3 9 -3 5 2 -4 4 -3 16 3 27 9
16 13 17 26 6 15 -12 15 -11 3 9 -12 18 -11 25 3 46 l16 24 48 -16 c26 -9 54
-20 62 -25 9 -6 12 -5 9 4 -2 7 -24 19 -49 26 -24 6 -53 15 -65 19 -18 6 -25
-4 -59 -72z"/>
<path d="M7833 2206 c-13 -6 -23 -18 -22 -26 0 -10 2 -11 6 -2 7 17 23 15 23
-3 0 -8 4 -15 9 -15 15 0 23 18 12 25 -6 3 -8 12 -4 20 6 17 6 17 -24 1z"/>
<path d="M7870 2200 c0 -5 7 -10 15 -10 8 0 15 5 15 10 0 6 -7 10 -15 10 -8 0
-15 -4 -15 -10z"/>
<path d="M2118 2173 c-8 -10 -25 -34 -38 -53 l-23 -35 24 25 c25 25 63 80 56
80 -2 0 -11 -8 -19 -17z"/>
<path d="M2938 2183 c6 -2 18 -2 25 0 6 3 1 5 -13 5 -14 0 -19 -2 -12 -5z"/>
<path d="M3008 2183 c6 -2 18 -2 25 0 6 3 1 5 -13 5 -14 0 -19 -2 -12 -5z"/>
<path d="M515 2170 c3 -5 8 -10 11 -10 2 0 4 5 4 10 0 6 -5 10 -11 10 -5 0 -7
-4 -4 -10z"/>
<path d="M571 2171 c-14 -4 -26 -12 -28 -18 -3 -8 7 -7 29 4 51 25 50 29 -1
14z"/>
<path d="M3390 2169 c0 -5 5 -7 10 -4 6 3 10 8 10 11 0 2 -4 4 -10 4 -5 0 -10
-5 -10 -11z"/>
<path d="M3366 2153 c-6 -14 -5 -15 5 -6 7 7 10 15 7 18 -3 3 -9 -2 -12 -12z"/>
<path d="M1655 2150 c3 -5 8 -10 11 -10 2 0 4 5 4 10 0 6 -5 10 -11 10 -5 0
-7 -4 -4 -10z"/>
<path d="M7784 2135 c-10 -8 -14 -15 -8 -15 6 0 17 7 24 15 16 19 9 19 -16 0z"/>
<path d="M4558 2103 c7 -3 16 -2 19 1 4 3 -2 6 -13 5 -11 0 -14 -3 -6 -6z"/>
<path d="M7185 2100 c-3 -5 1 -10 9 -10 8 0 18 5 21 10 3 6 -1 10 -9 10 -8 0
-18 -4 -21 -10z"/>
<path d="M700 2096 c0 -4 15 -31 33 -60 17 -28 37 -61 43 -71 6 -10 17 -21 25
-23 10 -4 9 0 -3 15 -10 11 -18 23 -18 27 0 5 -64 103 -76 115 -2 2 -4 1 -4
-3z"/>
<path d="M8551 2084 c0 -11 3 -14 6 -6 3 7 2 16 -1 19 -3 4 -6 -2 -5 -13z"/>
<path d="M1510 2065 c-7 -9 -8 -15 -2 -15 5 0 12 7 16 15 3 8 4 15 2 15 -2 0
-9 -7 -16 -15z"/>
<path d="M4890 2055 c0 -8 -7 -15 -15 -15 -18 0 -20 -16 -2 -23 7 -3 5 -6 -5
-6 -19 -1 -26 -21 -8 -21 6 0 10 -7 10 -16 0 -8 5 -12 10 -9 13 8 13 -11 0
-36 -7 -13 -7 -19 0 -19 5 0 10 5 10 11 0 20 35 56 49 51 10 -3 12 0 7 13 -3
10 -1 24 5 31 9 11 8 14 -1 14 -7 0 -10 7 -6 16 4 12 1 14 -14 9 -11 -4 -20
-2 -20 4 0 6 -4 11 -10 11 -5 0 -10 -7 -10 -15z"/>
<path d="M8417 2030 c-3 -11 -1 -23 4 -26 5 -3 9 6 9 20 0 31 -6 34 -13 6z"/>
<path d="M8357 2024 c-3 -6 0 -28 8 -50 14 -37 14 -38 14 -9 0 37 -13 72 -22
59z"/>
<path d="M3570 1997 c0 -3 12 -12 26 -22 15 -9 23 -12 20 -6 -7 11 -46 35 -46
28z"/>
<path d="M8296 1992 c-3 -5 -1 -22 4 -38 8 -29 8 -29 9 9 1 36 -3 45 -13 29z"/>
<path d="M8402 1980 c0 -14 2 -19 5 -12 2 6 2 18 0 25 -3 6 -5 1 -5 -13z"/>
<path d="M2660 1950 c0 -5 5 -10 10 -10 6 0 10 5 10 10 0 6 -4 10 -10 10 -5 0
-10 -4 -10 -10z"/>
<path d="M3760 1950 c-18 -12 -2 -12 25 0 13 6 15 9 5 9 -8 0 -22 -4 -30 -9z"/>
<path d="M8534 1945 c-3 -8 -4 -20 -2 -27 3 -7 7 -1 10 15 6 29 1 36 -8 12z"/>
<path d="M3563 1943 c9 -2 25 -2 35 0 9 3 1 5 -18 5 -19 0 -27 -2 -17 -5z"/>
<path d="M3635 1940 c3 -5 18 -10 32 -10 32 0 28 5 -10 14 -19 4 -26 3 -22 -4z"/>
<path d="M4240 1935 c-7 -9 -11 -17 -9 -20 3 -2 10 5 17 15 14 24 10 26 -8 5z"/>
<path d="M2821 1926 c-9 -10 -8 -15 3 -19 8 -3 17 -1 20 6 3 8 12 4 26 -12 11
-13 23 -22 25 -19 3 3 -1 11 -10 18 -8 7 -15 19 -15 26 0 18 -34 18 -49 0z"/>
<path d="M2932 1920 c0 -14 2 -19 5 -12 2 6 2 18 0 25 -3 6 -5 1 -5 -13z"/>
<path d="M3402 1928 c-24 -5 -42 -12 -39 -14 5 -5 107 16 107 22 0 6 -17 4
-68 -8z"/>
<path d="M2606 1922 c-4 -7 11 -66 35 -132 7 -21 8 -19 4 10 -7 47 -11 62 -20
83 -4 9 -5 24 -1 32 6 15 -9 21 -18 7z"/>
<path d="M2661 1909 c-12 -11 -21 -23 -21 -26 0 -3 9 2 20 12 16 15 22 16 35
5 9 -7 17 -11 20 -8 2 2 -4 11 -14 20 -18 15 -21 15 -40 -3z"/>
<path d="M8412 1893 c-19 -19 -14 -22 18 -10 17 6 30 15 30 19 0 11 -35 5 -48
-9z"/>
<path d="M8482 1885 c2 -14 12 -21 33 -22 18 -1 22 1 10 4 -11 3 -25 13 -33
22 -12 14 -13 14 -10 -4z"/>
<path d="M688 1883 c12 -2 30 -2 40 0 9 3 -1 5 -23 4 -22 0 -30 -2 -17 -4z"/>
<path d="M758 1883 c6 -2 18 -2 25 0 6 3 1 5 -13 5 -14 0 -19 -2 -12 -5z"/>
<path d="M1653 1857 c34 -31 50 -56 27 -42 -5 3 -7 0 -4 -8 3 -8 -2 -20 -11
-27 -8 -7 -15 -20 -15 -29 0 -9 11 1 26 22 18 27 31 37 42 32 19 -6 -26 33
-73 66 -23 16 -22 13 8 -14z"/>
<path d="M3275 1880 c-3 -6 1 -7 9 -4 18 7 21 14 7 14 -6 0 -13 -4 -16 -10z"/>
<path d="M545 1865 c-53 -17 -25 -18 50 -1 48 11 53 14 25 14 -19 0 -53 -5
-75 -13z"/>
<path d="M2991 1876 c11 -9 99 -34 94 -26 -3 5 -22 14 -43 20 -38 10 -59 13
-51 6z"/>
<path d="M8340 1853 c0 -22 2 -25 10 -13 13 20 13 40 0 40 -5 0 -10 -12 -10
-27z"/>
<path d="M2771 1844 c-12 -27 -11 -28 4 -12 10 9 16 21 13 28 -2 7 -10 -1 -17
-16z"/>
<path d="M3212 1848 c-18 -11 -31 -23 -28 -25 2 -3 22 7 43 21 44 31 33 34
-15 4z"/>
<path d="M8315 1845 c5 -26 1 -32 -25 -43 -16 -8 -27 -18 -24 -24 4 -6 9 -7
13 0 3 5 16 12 29 16 23 8 27 27 11 61 -7 16 -8 14 -4 -10z"/>
<path d="M1951 1851 c-7 -5 -12 -13 -10 -18 2 -6 13 -2 23 8 20 19 12 26 -13
10z"/>
<path d="M3860 1841 c14 -12 46 -43 73 -68 26 -26 47 -43 47 -37 0 13 -53 63
-105 99 -22 15 -29 18 -15 6z"/>
<path d="M468 1843 c6 -2 18 -2 25 0 6 3 1 5 -13 5 -14 0 -19 -2 -12 -5z"/>
<path d="M1560 1839 c0 -5 5 -7 10 -4 6 3 10 8 10 11 0 2 -4 4 -10 4 -5 0 -10
-5 -10 -11z"/>
<path d="M1610 1840 c0 -5 9 -10 21 -10 11 0 17 5 14 10 -3 6 -13 10 -21 10
-8 0 -14 -4 -14 -10z"/>
<path d="M405 1830 c-13 -5 -14 -9 -5 -9 8 0 24 4 35 9 13 5 14 9 5 9 -8 0
-24 -4 -35 -9z"/>
<path d="M2666 1822 c9 -6 34 -64 34 -78 0 -9 -39 -3 -43 6 -3 6 -4 5 -3 -2 3
-15 36 -21 54 -10 9 6 7 18 -8 50 -11 23 -26 42 -33 42 -8 0 -9 -3 -1 -8z"/>
<path d="M3120 1828 c3 -3 28 -23 55 -43 29 -22 41 -28 28 -14 -12 13 -37 33
-55 43 -18 11 -31 17 -28 14z"/>
<path d="M8527 1823 c-4 -3 -7 -20 -7 -37 0 -17 -7 -56 -15 -86 -18 -65 -17
-60 -6 -60 8 0 21 58 36 153 6 37 4 43 -8 30z"/>
<path d="M1604 1796 c-10 -8 -16 -17 -13 -20 3 -3 16 3 29 14 26 23 14 27 -16
6z"/>
<path d="M2810 1794 c0 -11 40 -47 46 -41 2 2 -7 14 -21 27 -14 13 -25 19 -25
14z"/>
<path d="M3005 1749 c28 -30 54 -53 58 -51 5 2 7 5 5 6 -2 0 -28 24 -58 51
l-54 50 49 -56z"/>
<path d="M4908 1783 c7 -3 16 -2 19 1 4 3 -2 6 -13 5 -11 0 -14 -3 -6 -6z"/>
<path d="M5037 1779 c7 -7 15 -10 18 -7 3 3 -2 9 -12 12 -14 6 -15 5 -6 -5z"/>
<path d="M225 1770 c-3 -5 -2 -10 4 -10 5 0 13 5 16 10 3 6 2 10 -4 10 -5 0
-13 -4 -16 -10z"/>
<path d="M170 1735 c-19 -14 -43 -26 -54 -26 -18 -1 -19 -2 -3 -6 15 -4 97 41
97 53 0 7 -6 4 -40 -21z"/>
<path d="M938 1745 c14 -27 72 -100 72 -89 0 9 -14 28 -60 84 -15 18 -18 19
-12 5z"/>
<path d="M4655 1755 c-80 -23 -95 -30 -95 -37 0 -5 5 -6 11 -2 7 4 37 15 68
25 31 9 49 17 41 17 -8 0 -19 -1 -25 -3z"/>
<path d="M8445 1750 c-18 -7 -18 -8 -2 -14 40 -14 47 -15 47 -7 0 17 -25 28
-45 21z"/>
<path d="M2743 1733 c9 -2 23 -2 30 0 6 3 -1 5 -18 5 -16 0 -22 -2 -12 -5z"/>
<path d="M3231 1720 c14 -31 19 -36 19 -24 0 6 -7 19 -16 30 -14 18 -14 18 -3
-6z"/>
<path d="M5125 1710 c10 -11 20 -20 23 -20 3 0 -3 9 -13 20 -10 11 -20 20 -23
20 -3 0 3 -9 13 -20z"/>
<path d="M8188 1716 c-10 -7 -18 -26 -18 -43 0 -16 -5 -34 -11 -40 -17 -17 2
-21 71 -13 38 5 72 4 82 -1 30 -16 20 2 -19 38 -40 35 -59 42 -50 19 4 -10 0
-12 -14 -9 -10 3 -19 0 -19 -6 0 -6 15 -11 33 -11 24 0 28 -3 17 -10 -16 -10
-80 -11 -80 -1 0 3 4 13 10 21 5 9 5 19 -1 27 -8 9 -4 14 15 19 14 3 23 10 20
15 -7 12 -16 11 -36 -5z"/>
<path d="M1615 1710 c-3 -5 -1 -10 4 -10 6 0 11 5 11 10 0 6 -2 10 -4 10 -3 0
-8 -4 -11 -10z"/>
<path d="M8370 1709 c0 -5 5 -7 10 -4 6 3 10 8 10 11 0 2 -4 4 -10 4 -5 0 -10
-5 -10 -11z"/>
<path d="M4514 1694 c-18 -14 -18 -14 6 -3 31 14 36 19 24 19 -6 0 -19 -7 -30
-16z"/>
<path d="M8320 1680 c0 -5 5 -10 10 -10 6 0 10 5 10 10 0 6 -4 10 -10 10 -5 0
-10 -4 -10 -10z"/>
<path d="M8388 1681 c12 -7 62 -4 62 5 0 2 -17 4 -37 4 -24 0 -33 -3 -25 -9z"/>
<path d="M8692 1665 c-14 -31 -15 -35 -3 -35 5 0 14 14 20 30 12 36 -1 40 -17
5z"/>
<path d="M4460 1665 c-14 -8 -20 -14 -14 -15 5 0 19 7 30 15 24 18 16 19 -16
0z"/>
<path d="M4010 1668 c0 -4 5 -19 11 -35 6 -15 15 -46 20 -68 8 -40 8 -40 4 8
-4 39 -33 120 -35 95z"/>
<path d="M5180 1666 c0 -2 8 -10 18 -17 15 -13 16 -12 3 4 -13 16 -21 21 -21
13z"/>
<path d="M8796 1653 c-6 -14 -5 -15 5 -6 7 7 10 15 7 18 -3 3 -9 -2 -12 -12z"/>
<path d="M1570 1651 c0 -5 -6 -16 -12 -23 -34 -36 -38 -49 -5 -19 37 35 46 51
27 51 -5 0 -10 -4 -10 -9z"/>
<path d="M8343 1653 c9 -2 23 -2 30 0 6 3 -1 5 -18 5 -16 0 -22 -2 -12 -5z"/>
<path d="M8466 1647 c3 -10 9 -15 12 -12 3 3 0 11 -7 18 -10 9 -11 8 -5 -6z"/>
<path d="M4388 1627 c-21 -12 -38 -25 -38 -30 0 -4 18 5 40 19 22 15 40 28 40
30 0 6 -2 5 -42 -19z"/>
<path d="M2880 1636 c0 -2 8 -10 18 -17 15 -13 16 -12 3 4 -13 16 -21 21 -21
13z"/>
<path d="M8373 1632 c-34 -3 -47 -22 -15 -22 35 0 92 13 92 20 0 8 -13 8 -77
2z"/>
<path d="M1040 1611 c5 -11 15 -23 21 -27 6 -3 3 5 -6 20 -20 30 -30 35 -15 7z"/>
<path d="M5235 1610 c21 -24 26 -25 19 -6 -3 8 -13 17 -22 21 -13 5 -13 2 3
-15z"/>
<path d="M980 1540 c0 -34 -5 -37 -26 -15 -9 8 -21 15 -27 15 -11 0 42 -49 54
-50 3 0 6 18 7 40 2 22 0 40 -3 40 -3 0 -5 -13 -5 -30z"/>
<path d="M3285 1536 c10 -14 19 -26 22 -26 7 0 -17 39 -28 46 -6 3 -3 -5 6
-20z"/>
<path d="M4300 1550 c-9 -6 -10 -10 -3 -10 6 0 15 5 18 10 8 12 4 12 -15 0z"/>
<path d="M8454 1538 l-19 -23 23 19 c21 18 27 26 19 26 -2 0 -12 -10 -23 -22z"/>
<path d="M888 1533 c7 -3 16 -2 19 1 4 3 -2 6 -13 5 -11 0 -14 -3 -6 -6z"/>
<path d="M748 1523 c7 -3 16 -2 19 1 4 3 -2 6 -13 5 -11 0 -14 -3 -6 -6z"/>
<path d="M3740 1518 c0 -4 24 -7 53 -7 54 1 49 5 -15 11 -21 2 -38 0 -38 -4z"/>
<path d="M1110 1516 c0 -2 8 -10 18 -17 15 -13 16 -12 3 4 -13 16 -21 21 -21
13z"/>
<path d="M525 1500 c3 -5 12 -7 20 -4 17 7 85 -14 85 -26 0 -4 -17 -23 -38
-42 -21 -19 -52 -52 -68 -74 -16 -21 -33 -42 -37 -45 -5 -3 -2 -9 7 -12 9 -4
15 -3 14 1 -7 24 108 153 162 182 12 6 19 14 17 17 -3 3 -13 0 -23 -5 -12 -7
-28 -5 -50 4 -38 16 -98 19 -89 4z"/>
<path d="M1625 1489 c-4 -6 -5 -12 -2 -15 2 -3 7 2 10 11 7 17 1 20 -8 4z"/>
<path d="M3330 1485 c8 -11 17 -22 20 -25 3 -3 18 -24 34 -47 l28 -42 21 21
c12 11 36 29 52 39 17 10 26 19 22 19 -14 0 -51 -21 -73 -42 l-22 -20 -30 44
c-17 24 -39 51 -49 59 -17 13 -17 13 -3 -6z"/>
<path d="M4034 1465 c33 -14 61 -23 63 -21 5 4 -96 46 -111 46 -6 -1 16 -12
48 -25z"/>
<path d="M3568 1473 c7 -3 16 -2 19 1 4 3 -2 6 -13 5 -11 0 -14 -3 -6 -6z"/>
<path d="M5421 1435 c19 -19 38 -35 43 -35 6 0 -5 16 -24 35 -19 19 -38 35
-43 35 -5 0 6 -16 24 -35z"/>
<path d="M1584 1445 c-10 -8 -14 -15 -8 -15 6 0 17 7 24 15 16 19 9 19 -16 0z"/>
<path d="M100 1420 c-9 -6 -10 -10 -3 -10 6 0 15 5 18 10 8 12 4 12 -15 0z"/>
<path d="M4575 1420 c-28 -7 -28 -8 -5 -9 14 0 32 4 40 9 17 11 8 11 -35 0z"/>
<path d="M4140 1406 c0 -2 8 -10 18 -17 15 -13 16 -12 3 4 -13 16 -21 21 -21
13z"/>
<path d="M4490 1400 c-18 -12 -2 -12 25 0 13 6 15 9 5 9 -8 0 -22 -4 -30 -9z"/>
<path d="M8507 1395 c-4 -8 -3 -16 1 -19 4 -3 9 4 9 15 2 23 -3 25 -10 4z"/>
<path d="M218 1393 c7 -3 16 -2 19 1 4 3 -2 6 -13 5 -11 0 -14 -3 -6 -6z"/>
<path d="M255 1390 c3 -5 8 -10 11 -10 2 0 4 5 4 10 0 6 -5 10 -11 10 -5 0 -7
-4 -4 -10z"/>
<path d="M4392 1357 c-35 -18 -69 -42 -74 -53 -10 -17 -9 -17 13 2 13 12 51
36 84 52 33 17 56 31 50 31 -5 0 -39 -14 -73 -32z"/>
<path d="M7605 1379 c-4 -6 -5 -12 -2 -15 2 -3 7 2 10 11 7 17 1 20 -8 4z"/>
<path d="M390 1355 c7 -8 17 -15 22 -15 6 0 5 7 -2 15 -7 8 -17 15 -22 15 -6
0 -5 -7 2 -15z"/>
<path d="M5521 1344 c32 -36 63 -72 83 -99 11 -14 15 -16 16 -6 0 8 6 22 14
30 7 9 17 27 20 41 6 20 3 18 -15 -10 -13 -19 -24 -37 -26 -39 -3 -5 -63 61
-63 70 0 4 -12 15 -27 24 l-28 18 26 -29z"/>
<path d="M6461 1354 c0 -11 3 -14 6 -6 3 7 2 16 -1 19 -3 4 -6 -2 -5 -13z"/>
<path d="M7621 1343 c-1 -6 -4 -20 -7 -30 -5 -17 -5 -17 6 0 6 10 9 23 6 30
-3 9 -5 9 -5 0z"/>
<path d="M3416 1323 c-6 -14 -5 -15 5 -6 7 7 10 15 7 18 -3 3 -9 -2 -12 -12z"/>
<path d="M3308 1314 c-16 -8 -28 -17 -28 -20 0 -2 12 2 28 9 15 8 34 17 42 20
13 5 13 5 0 6 -8 0 -27 -7 -42 -15z"/>
<path d="M4230 1316 c0 -2 8 -10 18 -17 15 -13 16 -12 3 4 -13 16 -21 21 -21
13z"/>
<path d="M5719 1288 c-16 -18 -29 -37 -29 -43 0 -5 9 1 19 14 10 13 29 32 42
42 13 10 18 19 11 19 -7 0 -26 -15 -43 -32z"/>
<path d="M7366 1311 c-11 -17 15 -76 45 -104 44 -40 25 -58 -28 -28 l-38 22
35 -31 c19 -17 46 -42 60 -55 33 -32 95 -44 233 -47 l114 -3 -51 -28 c-44 -24
-56 -27 -88 -19 -22 6 -38 6 -38 1 0 -5 11 -9 25 -9 14 0 25 -4 25 -9 0 -10
-84 -44 -157 -64 -38 -10 -43 -15 -43 -39 0 -18 5 -28 15 -28 11 0 12 5 5 24
-8 22 -6 25 25 30 19 4 66 20 106 36 39 17 76 30 81 30 16 0 114 67 141 96 26
28 27 55 1 33 -11 -9 -14 -8 -14 5 0 10 -4 15 -8 12 -5 -3 -16 4 -25 15 -16
18 -19 18 -33 4 -18 -18 -30 -19 -40 -4 -4 8 -9 7 -15 -2 -5 -9 -9 -10 -9 -3
0 7 -8 15 -17 18 -15 6 -15 5 1 -13 10 -11 23 -18 28 -15 5 3 21 -4 34 -17 21
-20 24 -21 18 -5 -5 13 -4 17 4 12 8 -5 10 -2 6 9 -4 11 -2 14 9 9 15 -5 31
-33 24 -40 -8 -8 -97 -12 -97 -4 0 4 -7 11 -16 14 -14 5 -15 4 -4 -9 11 -14 3
-15 -78 -10 -96 5 -130 14 -151 39 -11 13 -9 19 13 39 l26 25 -33 15 c-44 21
-69 50 -71 81 -1 26 -10 34 -20 17z"/>
<path d="M8686 1305 c-3 -9 -6 -26 -5 -38 1 -14 4 -9 9 13 9 37 7 52 -4 25z"/>
<path d="M8756 1303 c-6 -14 -5 -15 5 -6 7 7 10 15 7 18 -3 3 -9 -2 -12 -12z"/>
<path d="M1321 1275 c19 -19 35 -35 37 -35 2 0 -9 16 -24 35 -14 19 -31 35
-36 35 -5 0 5 -16 23 -35z"/>
<path d="M6541 1284 c0 -11 3 -14 6 -6 3 7 2 16 -1 19 -3 4 -6 -2 -5 -13z"/>
<path d="M7824 1254 c-8 -20 -13 -38 -11 -40 2 -2 11 14 20 36 19 50 12 53 -9
4z"/>
<path d="M4275 1258 c9 -16 20 -28 23 -28 3 0 2 3 -1 6 -3 4 -1 16 5 28 10 18
9 19 -4 9 -11 -10 -17 -10 -28 0 -7 6 -5 0 5 -15z"/>
<path d="M7500 1273 c0 -4 5 -15 10 -23 8 -13 10 -13 10 2 0 9 -4 20 -10 23
-5 3 -10 3 -10 -2z"/>
<path d="M7541 1269 c-1 -8 6 -24 15 -35 15 -19 15 -19 6 1 -5 11 -12 27 -15
35 -5 13 -6 13 -6 -1z"/>
<path d="M7716 1265 c4 -8 10 -15 15 -15 4 0 6 7 3 15 -4 8 -10 15 -15 15 -4
0 -6 -7 -3 -15z"/>
<path d="M7606 1257 c3 -10 9 -15 12 -12 3 3 0 11 -7 18 -10 9 -11 8 -5 -6z"/>
<path d="M8736 1255 c4 -8 8 -15 10 -15 2 0 4 7 4 15 0 8 -4 15 -10 15 -5 0
-7 -7 -4 -15z"/>
<path d="M328 1253 c7 -3 16 -2 19 1 4 3 -2 6 -13 5 -11 0 -14 -3 -6 -6z"/>
<path d="M245 1240 l-20 -9 20 0 c11 0 29 4 40 9 l20 9 -20 0 c-11 0 -29 -4
-40 -9z"/>
<path d="M1676 1235 c-9 -26 -7 -32 5 -12 6 10 9 21 6 23 -2 3 -7 -2 -11 -11z"/>
<path d="M7480 1241 c0 -6 4 -13 10 -16 6 -3 7 1 4 9 -7 18 -14 21 -14 7z"/>
<path d="M485 1220 c53 -24 70 -24 25 0 -19 11 -42 19 -50 19 -8 0 3 -9 25
-19z"/>
<path d="M3417 1233 c-4 -3 -7 -11 -7 -17 0 -6 5 -5 12 2 6 6 9 14 7 17 -3 3
-9 2 -12 -2z"/>
<path d="M7296 1226 c10 -8 21 -12 24 -10 5 6 -21 24 -34 24 -6 0 -1 -6 10
-14z"/>
<path d="M7676 1227 c3 -10 9 -15 12 -12 3 3 0 11 -7 18 -10 9 -11 8 -5 -6z"/>
<path d="M7750 1215 c-7 -14 -10 -28 -7 -31 4 -4 11 6 17 21 14 36 7 42 -10
10z"/>
<path d="M8671 1224 c0 -11 3 -14 6 -6 3 7 2 16 -1 19 -3 4 -6 -2 -5 -13z"/>
<path d="M171 1219 c-13 -5 -22 -12 -19 -15 3 -3 21 2 39 10 37 16 19 21 -20
5z"/>
<path d="M1370 1226 c0 -2 8 -10 18 -17 15 -13 16 -12 3 4 -13 16 -21 21 -21
13z"/>
<path d="M5676 1214 c-8 -21 -4 -25 14 -14 11 7 12 12 4 20 -8 8 -13 7 -18 -6z"/>
<path d="M5823 1190 c-18 -21 -33 -44 -33 -51 0 -7 14 8 32 32 17 24 36 47 42
51 6 5 7 8 1 8 -5 0 -25 -18 -42 -40z"/>
<path d="M931 1204 c0 -11 3 -14 6 -6 3 7 2 16 -1 19 -3 4 -6 -2 -5 -13z"/>
<path d="M3970 1210 l-25 -8 25 0 c14 0 34 3 45 8 l20 9 -20 -1 c-11 0 -31 -4
-45 -8z"/>
<path d="M4300 1215 c0 -5 5 -17 10 -25 5 -8 10 -10 10 -5 0 6 -5 17 -10 25
-5 8 -10 11 -10 5z"/>
<path d="M5630 1212 c0 -5 29 -48 64 -95 34 -46 66 -92 69 -101 12 -30 48 -15
54 23 1 7 7 19 14 25 9 8 10 6 5 -9 -4 -14 1 -11 19 10 14 17 25 35 25 41 0 6
7 17 15 24 8 7 15 18 15 24 -1 18 -100 -95 -106 -121 -8 -30 -28 -24 -31 8 -3
51 -4 55 -11 36 -6 -14 -14 -8 -47 35 -61 83 -85 110 -85 100z"/>
<path d="M7555 1200 c-3 -5 -1 -10 4 -10 6 0 11 5 11 10 0 6 -2 10 -4 10 -3 0
-8 -4 -11 -10z"/>
<path d="M7846 1188 c-15 -20 -18 -21 -29 -7 -12 16 -37 15 -37 -1 0 -8 62
-44 64 -38 1 2 8 15 16 30 17 36 7 47 -14 16z"/>
<path d="M550 1198 c0 -2 23 -28 50 -56 28 -29 50 -57 50 -63 0 -10 16 -7 69
13 35 13 20 19 -20 8 -28 -9 -36 -7 -49 8 -19 23 -100 96 -100 90z"/>
<path d="M3366 1185 c-11 -8 -15 -15 -10 -15 6 0 19 7 30 15 10 8 15 14 9 14
-5 0 -19 -6 -29 -14z"/>
<path d="M3910 1189 c0 -5 5 -7 10 -4 6 3 10 8 10 11 0 2 -4 4 -10 4 -5 0 -10
-5 -10 -11z"/>
<path d="M4240 1190 c8 -5 20 -10 25 -10 6 0 3 5 -5 10 -8 5 -19 10 -25 10 -5
0 -3 -5 5 -10z"/>
<path d="M7635 1190 c3 -5 10 -10 16 -10 5 0 9 5 9 10 0 6 -7 10 -16 10 -8 0
-12 -4 -9 -10z"/>
<path d="M7710 1190 c0 -5 5 -10 11 -10 5 0 7 5 4 10 -3 6 -8 10 -11 10 -2 0
-4 -4 -4 -10z"/>
<path d="M600 1179 c0 -5 5 -7 10 -4 6 3 10 8 10 11 0 2 -4 4 -10 4 -5 0 -10
-5 -10 -11z"/>
<path d="M3280 1180 c0 -5 5 -10 10 -10 6 0 10 5 10 10 0 6 -4 10 -10 10 -5 0
-10 -4 -10 -10z"/>
<path d="M3860 1183 c-8 -3 -40 -18 -70 -33 -30 -14 -62 -25 -70 -23 -12 4
-12 3 -2 -5 13 -9 143 37 167 59 10 10 -1 11 -25 2z"/>
<path d="M78 1143 c-35 -37 -84 -121 -75 -129 3 -3 14 14 26 37 13 23 38 62
58 86 44 53 39 56 -9 6z"/>
<path d="M3170 1158 c-53 -30 -69 -50 -22 -27 22 11 46 27 53 35 15 18 12 17
-31 -8z"/>
<path d="M7500 1172 c0 -5 10 -17 21 -28 22 -19 22 -19 10 3 -12 24 -31 39
-31 25z"/>
<path d="M4320 1159 c0 -4 23 -30 51 -56 28 -26 60 -64 70 -85 11 -21 24 -38
30 -38 15 0 -46 84 -101 138 -28 27 -50 46 -50 41z"/>
<path d="M7552 1150 c7 -11 16 -20 20 -20 5 0 3 9 -4 20 -7 11 -16 20 -20 20
-5 0 -3 -9 4 -20z"/>
<path d="M7580 1163 c0 -6 8 -17 18 -24 16 -13 16 -13 2 6 -8 11 -16 22 -17
24 -2 2 -3 0 -3 -6z"/>
<path d="M7465 1151 c-3 -5 -2 -12 3 -15 5 -3 9 1 9 9 0 17 -3 19 -12 6z"/>
<path d="M1630 1139 c0 -5 5 -7 10 -4 6 3 10 8 10 11 0 2 -4 4 -10 4 -5 0 -10
-5 -10 -11z"/>
<path d="M3208 1143 c6 -2 18 -2 25 0 6 3 1 5 -13 5 -14 0 -19 -2 -12 -5z"/>
<path d="M5071 1134 c0 -11 3 -14 6 -6 3 7 2 16 -1 19 -3 4 -6 -2 -5 -13z"/>
<path d="M5622 1120 c-11 -18 -9 -20 12 -20 13 0 27 -6 29 -12 4 -10 6 -10 6
0 1 7 -7 21 -17 32 -17 19 -18 19 -30 0z"/>
<path d="M907 1110 c-4 -14 -6 -36 -6 -50 1 -22 2 -20 10 8 6 19 9 41 7 50 -3
12 -6 10 -11 -8z"/>
<path d="M3320 1126 c0 -2 9 -6 20 -9 11 -3 20 -1 20 4 0 5 -9 9 -20 9 -11 0
-20 -2 -20 -4z"/>
<path d="M3375 1110 c3 -5 8 -10 11 -10 2 0 4 5 4 10 0 6 -5 10 -11 10 -5 0
-7 -4 -4 -10z"/>
<path d="M3423 1113 c9 -2 23 -2 30 0 6 3 -1 5 -18 5 -16 0 -22 -2 -12 -5z"/>
<path d="M5376 1098 c9 -31 11 -33 29 -18 12 10 15 10 15 -1 0 -11 2 -11 10 1
10 16 -8 32 -43 37 -15 3 -17 -1 -11 -19z"/>
<path d="M5550 1107 c0 -8 -14 -20 -31 -26 -17 -6 -28 -15 -24 -21 3 -5 -1
-10 -9 -10 -19 0 -20 5 -5 32 14 25 5 35 -15 15 -8 -8 -13 -24 -11 -36 4 -23
-19 -30 -29 -8 -5 10 -7 10 -12 0 -3 -7 -12 -13 -19 -13 -8 0 -16 -3 -18 -7
-3 -5 70 -9 161 -10 98 -1 157 2 142 7 -14 4 -18 8 -10 9 40 3 -37 33 -83 32
-12 0 -17 5 -13 14 2 7 -2 19 -10 25 -11 10 -14 9 -14 -3z m-3 -63 c-3 -3 -12
-4 -19 -1 -8 3 -5 6 6 6 11 1 17 -2 13 -5z"/>
<path d="M850 1097 c27 -15 36 -14 25 2 -3 6 -16 11 -28 11 -21 0 -21 -1 3
-13z"/>
<path d="M3076 1095 c-11 -8 -15 -15 -9 -15 6 0 16 7 23 15 16 19 11 19 -14 0z"/>
<path d="M5086 1085 c8 -37 14 -45 14 -19 0 10 -5 26 -10 34 -8 11 -9 7 -4
-15z"/>
<path d="M7378 1095 c-20 -7 -39 -11 -41 -8 -3 2 -14 -4 -25 -14 -10 -10 -27
-23 -38 -30 -16 -10 -17 -13 -4 -22 11 -7 20 -5 35 9 12 11 28 20 36 20 12 0
12 1 0 9 -11 7 -6 12 20 19 35 9 49 7 49 -7 0 -5 -12 -6 -27 -3 -16 2 -25 2
-22 -2 4 -4 21 -8 38 -8 17 -1 36 -7 42 -15 6 -7 16 -13 22 -13 5 0 -2 9 -17
21 -19 15 -25 27 -21 40 7 22 3 22 -47 4z m-83 -55 c-3 -5 -12 -10 -18 -10 -7
0 -6 4 3 10 19 12 23 12 15 0z"/>
<path d="M3690 1085 c-8 -9 -27 -14 -49 -13 -20 1 -58 0 -86 -2 -38 -2 -26 -5
50 -10 55 -4 109 -10 120 -14 11 -3 9 -1 -5 6 -36 17 -35 17 -14 33 10 8 14
15 8 15 -6 0 -17 -7 -24 -15z"/>
<path d="M7210 1088 c0 -9 5 -20 10 -23 13 -8 13 5 0 25 -8 13 -10 13 -10 -2z"/>
<path d="M3105 1080 c-4 -7 65 -23 72 -16 2 1 -13 7 -32 13 -19 6 -37 8 -40 3z"/>
<path d="M8660 1070 c0 -5 5 -10 11 -10 5 0 7 5 4 10 -3 6 -8 10 -11 10 -2 0
-4 -4 -4 -10z"/>
<path d="M593 1044 c-48 -28 -59 -43 -15 -20 30 16 70 45 62 46 -3 0 -24 -12
-47 -26z"/>
<path d="M3210 1046 c29 -17 40 -20 40 -8 0 5 -6 9 -12 9 -7 0 -22 4 -33 7
-13 5 -12 2 5 -8z"/>
<path d="M3408 1033 c7 -3 16 -2 19 1 4 3 -2 6 -13 5 -11 0 -14 -3 -6 -6z"/>
<path d="M3790 1013 c14 -10 50 -37 80 -61 l55 -43 -49 46 c-27 25 -63 53 -80
61 l-31 14 25 -17z"/>
<path d="M5100 1010 c0 -11 4 -20 9 -20 5 0 7 9 4 20 -3 11 -7 20 -9 20 -2 0
-4 -9 -4 -20z"/>
<path d="M5328 1023 c6 -2 18 -2 25 0 6 3 1 5 -13 5 -14 0 -19 -2 -12 -5z"/>
<path d="M6302 1014 c10 -10 20 -15 24 -12 3 4 -5 12 -18 18 -22 12 -22 12 -6
-6z"/>
<path d="M3267 1009 c7 -7 15 -10 18 -7 3 3 -2 9 -12 12 -14 6 -15 5 -6 -5z"/>
<path d="M5230 1010 c-10 -7 -1 -8 30 -4 56 8 64 14 19 14 -19 0 -41 -5 -49
-10z"/>
<path d="M5718 1013 c6 -2 18 -2 25 0 6 3 1 5 -13 5 -14 0 -19 -2 -12 -5z"/>
<path d="M7528 1013 c7 -3 16 -2 19 1 4 3 -2 6 -13 5 -11 0 -14 -3 -6 -6z"/>
<path d="M5188 993 c7 -3 16 -2 19 1 4 3 -2 6 -13 5 -11 0 -14 -3 -6 -6z"/>
<path d="M3279 973 c-13 -16 -12 -17 4 -4 9 7 17 15 17 17 0 8 -8 3 -21 -13z"/>
<path d="M5120 980 c-11 -8 -7 -9 15 -4 37 8 45 14 19 14 -10 0 -26 -5 -34
-10z"/>
<path d="M7171 964 c-16 -37 -9 -39 11 -3 9 16 14 29 9 29 -4 0 -13 -12 -20
-26z"/>
<path d="M8552 978 c-14 -14 -17 -62 -3 -54 7 4 22 66 16 66 0 0 -6 -5 -13
-12z"/>
<path d="M8645 980 c-3 -5 1 -10 10 -10 9 0 13 5 10 10 -3 6 -8 10 -10 10 -2
0 -7 -4 -10 -10z"/>
<path d="M5810 964 c0 -5 4 -14 9 -19 5 -6 12 -21 16 -35 7 -20 5 -23 -6 -14
-11 9 -112 12 -171 5 -17 -2 -7 -29 13 -34 30 -8 18 -31 -17 -35 -70 -7 -207
-49 -302 -93 -57 -26 -111 -46 -120 -43 -15 5 -15 4 -2 -6 10 -8 11 -13 4 -16
-6 -3 -27 -13 -47 -23 l-37 -19 -24 43 c-14 23 -31 47 -39 53 -12 10 -12 21
-2 70 20 88 26 126 19 120 -3 -3 -14 -46 -24 -94 l-18 -89 28 -35 c15 -19 34
-48 42 -63 l14 -28 91 55 c100 60 213 107 315 131 91 21 287 36 310 24 32 -17
33 18 3 74 -29 55 -55 88 -55 71z m-57 -81 c-7 -2 -19 -2 -25 0 -7 3 -2 5 12
5 14 0 19 -2 13 -5z m117 -46 c0 -5 -4 -5 -10 -2 -5 3 -10 14 -10 23 0 15 2
15 10 2 5 -8 10 -19 10 -23z m-102 12 c-16 -11 -48 -12 -48 -1 0 4 14 7 31 8
20 1 26 -2 17 -7z"/>
<path d="M3206 910 c-25 -27 -46 -52 -46 -57 0 -4 4 -3 8 3 5 5 28 30 52 57
56 62 46 61 -14 -3z"/>
<path d="M6345 950 c-3 -5 -20 -7 -38 -5 l-32 5 30 -10 c17 -5 38 -7 49 -4 11
4 16 2 12 -4 -3 -5 1 -12 9 -16 9 -3 15 0 15 9 0 18 -36 39 -45 25z"/>
<path d="M476 939 c3 -5 0 -18 -6 -29 -6 -11 -8 -20 -6 -20 3 0 12 13 20 28
13 24 13 29 1 29 -8 0 -12 -4 -9 -8z"/>
<path d="M428 933 c6 -2 18 -2 25 0 6 3 1 5 -13 5 -14 0 -19 -2 -12 -5z"/>
<path d="M4491 910 c-1 -21 19 -90 25 -90 3 0 18 8 32 19 15 10 45 23 67 29
25 6 32 10 18 11 -13 1 -45 -8 -73 -18 -27 -11 -50 -15 -50 -10 0 5 6 9 13 9
7 0 8 3 2 8 -6 4 -16 18 -22 32 -6 14 -12 18 -12 10z"/>
<path d="M7610 900 c0 -5 -7 -10 -15 -10 -8 0 -15 -7 -15 -15 0 -8 -4 -15 -9
-15 -5 0 -11 -9 -14 -20 -5 -19 -2 -20 31 -14 43 7 79 30 100 64 13 21 10 20
-19 -7 -20 -19 -43 -31 -57 -30 -27 2 -27 5 0 34 12 13 16 23 10 23 -7 0 -12
-4 -12 -10z"/>
<path d="M5527 883 c-2 -10 -8 -27 -12 -38 -6 -18 -5 -18 5 -2 6 9 18 17 25
17 19 0 19 14 1 29 -11 9 -15 8 -19 -6z"/>
<path d="M3998 883 c7 -3 16 -2 19 1 4 3 -2 6 -13 5 -11 0 -14 -3 -6 -6z"/>
<path d="M4118 883 c7 -3 16 -2 19 1 4 3 -2 6 -13 5 -11 0 -14 -3 -6 -6z"/>
<path d="M4168 883 c6 -2 18 -2 25 0 6 3 1 5 -13 5 -14 0 -19 -2 -12 -5z"/>
<path d="M4703 883 c9 -2 23 -2 30 0 6 3 -1 5 -18 5 -16 0 -22 -2 -12 -5z"/>
<path d="M7630 875 c-8 -9 -8 -15 -2 -15 12 0 26 19 19 26 -2 2 -10 -2 -17
-11z"/>
<path d="M415 866 c36 -18 55 -20 55 -6 0 6 -11 10 -24 10 -13 0 -33 2 -43 5
-10 3 -4 -1 12 -9z"/>
<path d="M4268 873 c7 -3 16 -2 19 1 4 3 -2 6 -13 5 -11 0 -14 -3 -6 -6z"/>
<path d="M4773 873 c9 -2 23 -2 30 0 6 3 -1 5 -18 5 -16 0 -22 -2 -12 -5z"/>
<path d="M5495 870 c3 -5 8 -10 11 -10 2 0 4 5 4 10 0 6 -5 10 -11 10 -5 0 -7
-4 -4 -10z"/>
<path d="M5581 864 c0 -11 3 -14 6 -6 3 7 2 16 -1 19 -3 4 -6 -2 -5 -13z"/>
<path d="M5608 873 c7 -3 16 -2 19 1 4 3 -2 6 -13 5 -11 0 -14 -3 -6 -6z"/>
<path d="M6366 865 c-11 -8 -15 -15 -10 -15 6 0 15 5 22 12 9 9 16 8 30 -5 10
-9 22 -17 27 -17 5 0 -1 9 -13 20 -25 24 -31 24 -56 5z"/>
<path d="M148 863 c7 -3 16 -2 19 1 4 3 -2 6 -13 5 -11 0 -14 -3 -6 -6z"/>
<path d="M54 829 c-58 -37 -59 -38 -52 -44 2 -3 20 7 39 21 19 14 48 32 64 40
17 7 23 13 14 14 -8 0 -37 -14 -65 -31z"/>
<path d="M2884 847 c3 -10 6 -23 6 -28 0 -5 5 -9 10 -9 14 0 12 13 -6 36 -14
17 -15 17 -10 1z"/>
<path d="M3040 850 c0 -5 5 -10 11 -10 5 0 7 5 4 10 -3 6 -8 10 -11 10 -2 0
-4 -4 -4 -10z"/>
<path d="M7453 840 c-8 -11 -37 -26 -70 -36 -32 -9 -87 -35 -123 -58 -36 -24
-87 -50 -115 -59 -27 -9 -86 -28 -130 -43 -44 -15 -118 -33 -165 -39 -47 -7
-75 -13 -62 -14 19 -1 22 -5 17 -31 -3 -17 -2 -38 3 -47 7 -12 10 -8 16 17 13
67 58 86 50 23 l-4 -38 14 31 c24 50 22 49 228 109 70 20 129 50 174 90 21 19
50 35 64 36 42 0 113 34 121 57 10 27 -2 29 -18 2z"/>
<path d="M4898 843 c7 -3 16 -2 19 1 4 3 -2 6 -13 5 -11 0 -14 -3 -6 -6z"/>
<path d="M2925 830 c-8 -13 5 -13 25 0 13 8 13 10 -2 10 -9 0 -20 -4 -23 -10z"/>
<path d="M3755 820 c-3 -6 1 -7 9 -4 18 7 21 14 7 14 -6 0 -13 -4 -16 -10z"/>
<path d="M6427 800 c-10 -15 -17 -32 -17 -37 1 -4 8 5 16 20 14 26 19 28 52
22 43 -8 41 -3 -4 12 -28 10 -32 9 -47 -17z"/>
<path d="M3161 816 c2 -2 15 -9 29 -15 24 -11 24 -11 6 3 -16 13 -49 24 -35
12z"/>
<path d="M630 798 c0 -8 75 -58 85 -58 5 0 1 6 -10 13 -48 33 -75 49 -75 45z"/>
<path d="M3675 790 c-3 -6 1 -7 9 -4 18 7 21 14 7 14 -6 0 -13 -4 -16 -10z"/>
<path d="M6525 790 c3 -5 21 -8 40 -6 32 2 34 0 45 -38 6 -23 14 -47 17 -55 4
-9 1 -12 -9 -9 -7 3 -23 -1 -33 -9 -19 -13 -17 -14 15 -9 19 4 42 2 50 -3 12
-8 12 -13 -5 -30 -31 -35 -11 -37 44 -3 3 1 -5 12 -15 25 -32 35 -54 75 -54
96 0 41 -11 51 -57 51 -25 0 -42 -4 -38 -10z"/>
<path d="M4520 786 c0 -3 9 -10 20 -16 11 -6 20 -8 20 -6 0 3 -9 10 -20 16
-11 6 -20 8 -20 6z"/>
<path d="M3240 777 c0 -3 12 -12 26 -22 15 -9 23 -12 20 -6 -7 11 -46 35 -46
28z"/>
<path d="M3630 770 c-8 -5 -10 -10 -5 -10 6 0 17 5 25 10 8 5 11 10 5 10 -5 0
-17 -5 -25 -10z"/>
<path d="M835 715 c-4 -30 -10 -55 -14 -55 -4 0 -22 16 -41 35 -33 34 -50 43
-50 28 0 -5 16 -19 34 -33 19 -14 32 -28 29 -32 -2 -5 5 -8 16 -8 11 0 23 5
26 10 10 17 23 110 14 110 -4 0 -11 -25 -14 -55z"/>
<path d="M3550 730 c-30 -16 -63 -27 -72 -24 -10 3 -18 0 -18 -6 0 -6 6 -8 13
-4 6 3 -1 -5 -18 -20 -16 -14 -33 -25 -36 -26 -3 0 -20 14 -37 30 -18 17 -37
30 -44 29 -9 0 -10 -2 -1 -5 6 -3 23 -20 37 -39 l26 -34 -47 -46 -48 -47 70
55 c39 30 107 78 153 107 45 29 82 54 82 56 0 6 0 6 -60 -26z"/>
<path d="M6290 739 c-13 -9 -12 -10 2 -5 10 3 20 1 23 -5 9 -14 -4 -67 -22
-84 -13 -13 -13 -15 1 -15 18 0 40 71 31 100 -7 23 -14 24 -35 9z"/>
<path d="M7317 715 c-22 -46 -23 -72 -2 -55 12 10 15 10 15 -4 0 -9 3 -16 8
-16 10 0 39 20 29 20 -4 0 -1 13 8 30 22 42 18 49 -10 15 -30 -36 -42 -28 -20
14 12 25 13 31 2 31 -7 0 -21 -16 -30 -35z"/>
<path d="M8760 740 c0 -5 5 -10 11 -10 5 0 7 5 4 10 -3 6 -8 10 -11 10 -2 0
-4 -4 -4 -10z"/>
<path d="M5936 720 c3 -14 11 -32 16 -40 6 -10 7 -7 2 10 -3 14 -11 32 -16 40
-6 10 -7 7 -2 -10z"/>
<path d="M4634 721 c7 -11 46 -35 46 -28 0 3 -12 12 -26 22 -15 9 -23 12 -20
6z"/>
<path d="M6171 717 c2 -1 13 -9 24 -17 19 -14 19 -14 6 3 -7 9 -18 17 -24 17
-6 0 -8 -1 -6 -3z"/>
<path d="M6260 699 c-7 -11 -10 -23 -7 -25 2 -2 9 7 15 21 14 30 7 33 -8 4z"/>
<path d="M8785 711 c5 -9 1 -19 -10 -28 -11 -7 -14 -13 -8 -13 6 0 16 7 23 15
11 13 11 18 0 28 -10 10 -11 9 -5 -2z"/>
<path d="M5165 670 c-10 -11 -14 -20 -9 -20 12 1 44 25 44 34 0 12 -17 6 -35
-14z"/>
<path d="M8710 686 c0 -3 9 -10 20 -16 11 -6 20 -8 20 -6 0 3 -9 10 -20 16
-11 6 -20 8 -20 6z"/>
<path d="M6226 667 c3 -10 9 -15 12 -12 3 3 0 11 -7 18 -10 9 -11 8 -5 -6z"/>
<path d="M8796 653 c-6 -14 -5 -15 5 -6 7 7 10 15 7 18 -3 3 -9 -2 -12 -12z"/>
<path d="M908 653 c7 -3 16 -2 19 1 4 3 -2 6 -13 5 -11 0 -14 -3 -6 -6z"/>
<path d="M968 643 c7 -3 16 -2 19 1 4 3 -2 6 -13 5 -11 0 -14 -3 -6 -6z"/>
<path d="M1008 633 c6 -2 18 -2 25 0 6 3 1 5 -13 5 -14 0 -19 -2 -12 -5z"/>
<path d="M6125 630 c3 -5 11 -10 16 -10 6 0 7 5 4 10 -3 6 -11 10 -16 10 -6 0
-7 -4 -4 -10z"/>
<path d="M6240 626 c0 -9 5 -16 10 -16 6 0 10 4 10 9 0 6 -4 13 -10 16 -5 3
-10 -1 -10 -9z"/>
<path d="M622 610 c-49 -22 -195 -121 -188 -127 2 -2 28 14 57 37 30 22 86 56
124 75 74 37 80 48 7 15z"/>
<path d="M2643 608 c-20 -26 -26 -41 -15 -34 12 7 36 46 29 46 -3 0 -9 -6 -14
-12z"/>
<path d="M8826 605 c-11 -8 -15 -15 -9 -15 6 0 16 7 23 15 16 19 11 19 -14 0z"/>
<path d="M5991 594 c0 -11 3 -14 6 -6 3 7 2 16 -1 19 -3 4 -6 -2 -5 -13z"/>
<path d="M6110 601 c0 -6 4 -13 10 -16 6 -3 7 1 4 9 -7 18 -14 21 -14 7z"/>
<path d="M6297 588 c11 -13 25 -32 31 -43 11 -20 11 -20 12 1 0 11 -10 30 -23
42 -31 29 -46 28 -20 0z"/>
<path d="M6190 589 c0 -5 5 -7 10 -4 6 3 10 8 10 11 0 2 -4 4 -10 4 -5 0 -10
-5 -10 -11z"/>
<path d="M6222 570 c-7 -11 -8 -20 -3 -20 9 0 24 30 18 36 -1 2 -8 -6 -15 -16z"/>
<path d="M1600 549 l-35 -30 40 27 c22 16 42 29 44 31 2 2 0 3 -5 3 -5 0 -25
-14 -44 -31z"/>
<path d="M6000 565 c0 -5 7 -23 15 -39 14 -27 14 -28 -8 -22 -60 16 -68 15
-23 -4 54 -23 61 -21 53 12 -7 26 -36 69 -37 53z"/>
<path d="M6081 554 c0 -11 3 -14 6 -6 3 7 2 16 -1 19 -3 4 -6 -2 -5 -13z"/>
<path d="M5680 550 c25 -4 49 -4 55 1 5 5 -13 8 -45 8 l-55 -2 45 -7z"/>
<path d="M2813 543 c9 -2 25 -2 35 0 9 3 1 5 -18 5 -19 0 -27 -2 -17 -5z"/>
<path d="M5761 546 c2 -2 33 -6 69 -9 41 -3 54 -2 35 3 -31 8 -112 13 -104 6z"/>
<path d="M6166 540 c-17 -6 -18 -7 -3 -13 9 -3 19 -2 23 4 9 15 2 18 -20 9z"/>
<path d="M2733 533 c9 -2 25 -2 35 0 9 3 1 5 -18 5 -19 0 -27 -2 -17 -5z"/>
<path d="M2948 533 c12 -2 30 -2 40 0 9 3 -1 5 -23 4 -22 0 -30 -2 -17 -4z"/>
<path d="M2593 513 c0 -8 9 -11 26 -6 36 8 36 10 3 15 -19 3 -29 0 -29 -9z"/>
<path d="M2668 523 c6 -2 18 -2 25 0 6 3 1 5 -13 5 -14 0 -19 -2 -12 -5z"/>
<path d="M3272 499 c-22 -28 -25 -28 -52 -14 -16 8 -37 15 -47 15 -12 -1 -5
-7 17 -19 65 -34 73 -34 92 6 10 20 16 38 15 39 -1 1 -12 -11 -25 -27z"/>
<path d="M6105 510 c10 -11 20 -20 23 -20 3 0 -3 9 -13 20 -10 11 -20 20 -23
20 -3 0 3 -9 13 -20z"/>
<path d="M6200 521 c0 -6 4 -13 10 -16 6 -3 7 1 4 9 -7 18 -14 21 -14 7z"/>
<path d="M8034 503 c-7 -16 -14 -36 -17 -45 -7 -20 -37 -14 -37 7 0 14 -18 30
-25 23 -3 -2 5 -23 16 -45 19 -39 19 -43 4 -73 -9 -18 -14 -34 -11 -37 3 -3
11 6 17 21 17 36 26 16 19 -41 l-5 -48 -39 3 -40 4 33 -28 c27 -23 36 -26 52
-16 10 6 25 9 32 6 14 -5 87 61 87 79 0 19 -89 -27 -90 -47 0 -4 11 -1 25 8
19 13 23 13 19 2 -7 -19 -30 -27 -50 -19 -14 5 -15 16 -10 62 4 30 9 57 11 59
2 2 15 -9 29 -24 19 -21 25 -25 26 -13 0 9 -7 22 -15 29 -19 16 -16 60 3 52
10 -3 13 0 10 9 -3 8 -14 13 -26 11 -16 -2 -21 2 -19 20 1 13 7 29 14 36 14
15 17 32 5 32 -4 0 -12 -12 -18 -27z m-4 -93 c0 -5 -5 -10 -11 -10 -5 0 -7 5
-4 10 3 6 8 10 11 10 2 0 4 -4 4 -10z"/>
<path d="M1507 479 c-26 -22 -52 -50 -59 -62 -6 -12 17 5 50 38 57 54 67 65
60 65 -2 0 -24 -18 -51 -41z"/>
<path d="M2530 490 c-8 -5 -10 -10 -5 -10 6 0 17 5 25 10 8 5 11 10 5 10 -5 0
-17 -5 -25 -10z"/>
<path d="M6080 480 c8 -5 20 -10 25 -10 6 0 3 5 -5 10 -8 5 -19 10 -25 10 -5
0 -3 -5 5 -10z"/>
<path d="M6283 454 c-1 -18 3 -31 8 -28 11 7 12 51 1 58 -4 3 -9 -11 -9 -30z"/>
<path d="M4841 470 c0 -8 4 -22 9 -30 12 -18 12 -2 0 25 -6 13 -9 15 -9 5z"/>
<path d="M6226 467 c3 -10 9 -15 12 -12 3 3 0 11 -7 18 -10 9 -11 8 -5 -6z"/>
<path d="M7072 460 c0 -14 2 -19 5 -12 2 6 2 18 0 25 -3 6 -5 1 -5 -13z"/>
<path d="M6120 466 c0 -2 8 -10 18 -17 15 -13 16 -12 3 4 -13 16 -21 21 -21
13z"/>
<path d="M8085 459 c-4 -6 -5 -13 -2 -16 7 -7 27 6 27 18 0 12 -17 12 -25 -2z"/>
<path d="M8830 453 c0 -12 4 -24 9 -28 6 -3 6 -17 1 -34 -4 -15 -4 -35 1 -42
5 -8 9 -26 9 -40 0 -15 7 -43 16 -64 13 -32 13 -37 1 -32 -13 5 -13 0 -5 -31
12 -44 28 -65 28 -36 0 11 -6 26 -12 33 -7 8 -8 11 -2 8 12 -7 31 149 20 161
-3 3 -6 -8 -7 -24 0 -16 -4 -38 -8 -49 -10 -26 -34 103 -26 137 3 13 -1 32 -9
43 -15 20 -15 20 -16 -2z"/>
<path d="M2423 450 c-34 -14 -28 -21 7 -9 17 6 30 13 30 15 0 6 -12 4 -37 -6z"/>
<path d="M350 446 c0 -2 9 -6 20 -9 11 -3 20 -1 20 4 0 5 -9 9 -20 9 -11 0
-20 -2 -20 -4z"/>
<path d="M1350 436 c0 -2 8 -10 18 -17 15 -13 16 -12 3 4 -13 16 -21 21 -21
13z"/>
<path d="M3314 426 c11 -9 24 -16 30 -16 12 0 7 5 -24 19 -24 11 -24 11 -6 -3z"/>
<path d="M8718 434 c-7 -11 8 -149 17 -165 4 -5 10 -7 15 -4 6 3 4 14 -3 26
-10 16 -9 21 3 29 25 16 32 12 29 -17 -1 -16 1 -35 4 -43 3 -8 8 -22 11 -30 4
-8 4 9 2 38 -3 28 -3 52 -1 52 3 0 14 -20 26 -45 12 -25 24 -44 26 -41 2 2 0
12 -6 23 -5 10 -18 35 -27 56 -9 21 -22 36 -29 33 -19 -7 -31 6 -47 54 -8 24
-17 40 -20 34z m19 -96 c-3 -8 -6 -5 -6 6 -1 11 2 17 5 13 3 -3 4 -12 1 -19z"/>
<path d="M355 406 c-8 -9 -62 -82 -70 -94 -1 -1 -15 4 -31 12 -16 7 -42 16
-59 20 -29 5 -29 5 -5 -6 14 -6 41 -19 61 -29 l36 -17 42 60 c23 33 40 62 39
63 -2 2 -7 -2 -13 -9z"/>
<path d="M2313 394 c-59 -35 -54 -41 5 -8 56 33 58 34 46 34 -5 0 -28 -12 -51
-26z"/>
<path d="M3360 406 c0 -2 14 -14 30 -26 17 -12 30 -19 30 -16 0 2 -13 14 -30
26 -16 12 -30 19 -30 16z"/>
<path d="M7938 403 c-10 -2 -18 -8 -18 -12 0 -11 49 -1 56 10 5 9 -8 10 -38 2z"/>
<path d="M1380 388 c0 -16 9 -18 73 -16 l72 2 -65 3 c-35 2 -68 9 -72 16 -5 8
-8 6 -8 -5z"/>
<path d="M7319 398 c0 -2 -2 -10 -4 -18 -13 -57 -103 -262 -113 -256 -8 5 2
174 14 225 5 25 4 32 -5 27 -21 -14 -49 -81 -67 -163 -9 -45 -21 -80 -26 -77
-4 3 -8 -5 -8 -18 0 -14 3 -18 8 -11 4 6 19 14 34 18 24 6 27 3 37 -32 6 -21
11 -47 11 -58 0 -15 3 -16 12 -7 18 18 38 14 38 -8 0 -11 5 -20 11 -20 17 0
-1 43 -27 66 -22 19 -23 25 -13 48 7 14 16 23 22 19 6 -4 7 -1 2 7 -5 7 2 20
17 34 13 11 17 17 9 11 -12 -8 -13 -6 -8 8 4 10 7 21 7 23 0 2 7 4 16 4 12 0
14 3 6 13 -11 14 3 61 16 53 13 -8 -10 -129 -28 -144 -10 -9 -10 -11 -1 -6 11
6 13 0 8 -32 -3 -21 -9 -50 -13 -63 -4 -15 -3 -22 3 -18 10 6 21 50 48 185 17
84 20 178 5 187 -5 3 -10 5 -11 3z m-135 -202 c-1 -12 -3 -26 -3 -32 -1 -13
-31 -28 -38 -20 -3 3 -1 11 3 18 5 7 9 18 9 23 1 6 5 23 10 40 7 25 9 26 15
10 3 -10 5 -28 4 -39z"/>
<path d="M8765 390 c-3 -5 -1 -10 4 -10 6 0 11 5 11 10 0 6 -2 10 -4 10 -3 0
-8 -4 -11 -10z"/>
<path d="M4871 374 c0 -11 3 -14 6 -6 3 7 2 16 -1 19 -3 4 -6 -2 -5 -13z"/>
<path d="M6608 346 c-14 -24 -24 -47 -21 -50 3 -3 15 12 25 34 14 28 27 40 42
40 17 0 18 2 6 10 -22 14 -23 14 -52 -34z"/>
<path d="M1548 373 c7 -3 16 -2 19 1 4 3 -2 6 -13 5 -11 0 -14 -3 -6 -6z"/>
<path d="M1313 363 c9 -2 25 -2 35 0 9 3 1 5 -18 5 -19 0 -27 -2 -17 -5z"/>
<path d="M6722 350 c-6 -11 -12 -28 -11 -37 0 -12 4 -8 11 10 10 27 28 37 28
15 0 -6 2 -9 5 -6 7 6 -5 38 -14 38 -3 0 -12 -9 -19 -20z"/>
<path d="M43 353 c9 -2 23 -2 30 0 6 3 -1 5 -18 5 -16 0 -22 -2 -12 -5z"/>
<path d="M6670 351 c0 -5 5 -13 10 -16 6 -3 10 -2 10 4 0 5 -4 13 -10 16 -5 3
-10 2 -10 -4z"/>
<path d="M1678 343 c7 -3 16 -2 19 1 4 3 -2 6 -13 5 -11 0 -14 -3 -6 -6z"/>
<path d="M5167 331 c-4 -17 -3 -21 5 -13 5 5 8 16 6 23 -3 8 -7 3 -11 -10z"/>
<path d="M6229 332 c6 -12 9 -28 5 -34 -4 -7 -3 -8 4 -4 17 10 15 31 -5 47
-15 13 -15 12 -4 -9z"/>
<path d="M8648 344 c-3 -5 6 -34 20 -64 14 -30 27 -50 29 -44 5 15 -42 119
-49 108z"/>
<path d="M1755 316 c28 -14 55 -25 60 -25 15 0 -56 36 -85 43 -14 3 -2 -5 25
-18z"/>
<path d="M2190 309 l-35 -30 38 26 c33 24 43 35 34 35 -1 0 -18 -14 -37 -31z"/>
<path d="M6772 328 c-7 -7 -12 -17 -12 -22 0 -8 3 -7 8 0 4 6 16 16 27 22 15
8 16 11 5 12 -9 0 -21 -5 -28 -12z"/>
<path d="M9237 334 c-4 -4 -7 -17 -7 -28 1 -19 1 -20 11 -3 11 19 8 43 -4 31z"/>
<path d="M1115 315 c-16 -8 -23 -14 -15 -14 8 0 29 6 45 14 17 7 23 13 15 13
-8 0 -28 -6 -45 -13z"/>
<path d="M6511 303 c0 -25 1 -26 9 -8 12 27 12 35 0 35 -5 0 -10 -12 -9 -27z"/>
<path d="M3485 300 c10 -11 20 -20 23 -20 3 0 -3 9 -13 20 -10 11 -20 20 -23
20 -3 0 3 -9 13 -20z"/>
<path d="M6548 313 c7 -3 16 -2 19 1 4 3 -2 6 -13 5 -11 0 -14 -3 -6 -6z"/>
<path d="M2013 293 c9 -2 25 -2 35 0 9 3 1 5 -18 5 -19 0 -27 -2 -17 -5z"/>
<path d="M2088 293 c7 -3 16 -2 19 1 4 3 -2 6 -13 5 -11 0 -14 -3 -6 -6z"/>
<path d="M1005 269 c-22 -10 -33 -18 -25 -18 8 0 31 8 50 19 45 25 27 24 -25
-1z"/>
<path d="M1830 285 c0 -7 61 -37 66 -33 2 3 -12 12 -31 21 -19 9 -35 15 -35
12z"/>
<path d="M6110 273 c0 -5 4 -14 9 -21 7 -11 9 -11 14 1 3 8 3 18 0 21 -9 8
-23 7 -23 -1z"/>
<path d="M8987 266 c-10 -25 -9 -38 3 -31 6 4 11 -8 11 -27 1 -21 3 -26 6 -12
2 12 0 37 -5 55 -6 27 -10 30 -15 15z"/>
<path d="M257 246 c-9 -13 -19 -36 -23 -50 l-6 -27 -88 7 c-85 7 -140 1 -140
-14 0 -4 56 -7 125 -8 68 0 122 3 119 7 -2 4 5 30 16 58 22 56 21 64 -3 27z"/>
<path d="M2118 243 c-14 -16 -35 -47 -47 -71 l-21 -42 -29 32 c-16 18 -44 41
-63 52 -27 15 -21 7 27 -40 33 -33 77 -79 98 -104 36 -42 36 -42 7 -3 -37 48
-36 55 20 142 22 34 38 61 37 61 -2 0 -15 -12 -29 -27z"/>
<path d="M6457 263 c-3 -5 2 -9 11 -9 9 -1 26 -5 37 -9 14 -5 17 -5 10 2 -14
15 -52 25 -58 16z"/>
<path d="M3544 228 c16 -21 30 -38 33 -38 8 0 -16 36 -38 55 -19 16 -18 13 5
-17z"/>
<path d="M6840 250 c0 -5 5 -10 10 -10 6 0 10 5 10 10 0 6 -4 10 -10 10 -5 0
-10 -4 -10 -10z"/>
<path d="M8765 250 c3 -5 8 -10 11 -10 2 0 4 5 4 10 0 6 -5 10 -11 10 -5 0 -7
-4 -4 -10z"/>
<path d="M6433 229 c-12 -4 -27 -18 -34 -31 -6 -13 -18 -27 -25 -31 -16 -9
-18 -27 -4 -27 6 0 20 16 31 35 25 42 41 46 34 8 -4 -22 -3 -24 3 -8 9 19 9
19 21 -3 15 -27 31 -29 24 -2 -7 28 21 36 53 16 19 -13 23 -23 19 -39 -6 -22
-6 -22 9 -2 30 39 36 44 50 39 7 -3 18 -16 24 -30 7 -13 16 -24 22 -24 13 0
13 8 0 23 -6 7 -19 23 -29 37 l-20 25 -22 -22 -22 -22 -19 25 c-23 28 -53 31
-67 7 -10 -19 -11 -18 -23 23 -2 8 -11 9 -25 3z"/>
<path d="M9196 224 c-9 -24 -2 -26 12 -4 7 11 8 20 3 20 -5 0 -12 -7 -15 -16z"/>
<path d="M8754 190 c3 -25 5 -46 5 -47 1 -2 6 -3 12 -3 6 0 7 5 2 13 -4 6 -6
20 -5 29 2 10 -2 26 -8 35 -8 14 -9 8 -6 -27z"/>
<path d="M140 207 c0 -7 15 -12 34 -13 25 0 31 3 22 11 -15 15 -56 16 -56 2z"/>
<path d="M884 204 c-18 -14 -18 -15 4 -4 12 6 22 13 22 15 0 8 -5 6 -26 -11z"/>
<path d="M3993 213 c9 -2 23 -2 30 0 6 3 -1 5 -18 5 -16 0 -22 -2 -12 -5z"/>
<path d="M6134 206 c4 -10 1 -25 -5 -32 -9 -11 -8 -14 5 -14 18 0 21 28 5 50
-9 12 -10 12 -5 -4z"/>
<path d="M6312 208 c-6 -7 -14 -26 -17 -41 -6 -21 -12 -27 -26 -24 -10 3 -20
-1 -23 -9 -3 -8 1 -14 9 -14 8 0 19 -9 25 -20 6 -11 15 -18 21 -15 5 4 6 13 0
22 -5 11 -3 33 7 62 9 26 18 39 20 29 2 -9 10 -19 18 -22 20 -8 18 8 -5 28
-14 13 -20 14 -29 4z"/>
<path d="M6962 195 c0 -16 2 -22 5 -12 2 9 2 23 0 30 -3 6 -5 -1 -5 -18z"/>
<path d="M8685 210 c3 -5 8 -10 11 -10 2 0 4 5 4 10 0 6 -5 10 -11 10 -5 0 -7
-4 -4 -10z"/>
<path d="M8957 158 c-20 -84 -31 -155 -22 -146 9 8 48 199 42 205 -3 2 -11
-25 -20 -59z"/>
<path d="M2046 183 c-6 -14 -5 -15 5 -6 7 7 10 15 7 18 -3 3 -9 -2 -12 -12z"/>
<path d="M840 180 c-9 -6 -10 -10 -3 -10 6 0 15 5 18 10 8 12 4 12 -15 0z"/>
<path d="M7975 175 c-17 -53 -15 -52 -40 -22 -13 15 -27 27 -30 27 -3 0 2 -12
12 -27 9 -16 18 -29 19 -31 1 -2 13 0 26 3 19 5 25 13 25 36 0 32 -5 37 -12
14z"/>
<path d="M7334 119 c3 -34 6 -75 6 -90 0 -16 5 -29 11 -29 8 0 10 15 6 48 l-5
47 16 -48 c8 -26 20 -47 25 -47 5 0 6 7 3 16 -3 9 -16 49 -29 90 -12 41 -26
74 -31 74 -5 0 -6 -27 -2 -61z"/>
<path d="M8020 159 c-13 -24 -4 -41 10 -19 10 16 13 40 5 40 -2 0 -9 -9 -15
-21z"/>
<path d="M8702 170 c0 -8 4 -26 8 -40 6 -20 8 -21 8 -5 0 11 -3 29 -8 40 -5
12 -8 14 -8 5z"/>
<path d="M7469 168 c-6 -21 -12 -168 -7 -168 5 0 9 24 9 53 l2 52 6 -47 c10
-71 21 -70 21 3 0 71 -8 109 -21 109 -5 0 -9 -1 -10 -2z"/>
<path d="M9012 145 c0 -16 2 -22 5 -12 2 9 2 23 0 30 -3 6 -5 -1 -5 -18z"/>
<path d="M761 125 c-42 -34 -93 -86 -88 -92 2 -1 34 27 72 62 77 72 82 81 16
30z"/>
<path d="M299 125 c24 -14 62 -39 85 -56 l41 -31 -40 37 c-37 34 -104 75 -122
75 -4 0 12 -11 36 -25z"/>
<path d="M4876 135 c-3 -9 -6 -22 -5 -28 0 -7 5 -1 10 12 5 13 8 26 5 28 -2 2
-6 -3 -10 -12z"/>
<path d="M6166 118 c5 -23 3 -26 -15 -21 -16 4 -21 1 -21 -16 0 -12 -6 -21
-14 -21 -8 0 -18 -9 -21 -20 -7 -23 -21 -26 -28 -7 -3 6 -6 2 -6 -10 -1 -29
25 -31 34 -3 7 21 25 28 25 9 0 -5 5 -7 10 -4 6 3 10 1 10 -4 0 -6 5 -11 10
-11 7 0 7 6 0 19 -14 26 -13 31 5 25 8 -4 15 -1 15 6 0 10 3 10 15 0 13 -10
17 -7 31 25 8 20 13 42 10 48 -3 9 -5 8 -5 0 -1 -7 -12 -13 -25 -13 -13 0 -27
6 -30 13 -3 6 -3 0 0 -15z m34 -18 c0 -5 -4 -10 -10 -10 -5 0 -10 5 -10 10 0
6 5 10 10 10 6 0 10 -4 10 -10z"/>
<path d="M6680 120 c-14 -13 -13 -17 4 -37 10 -12 25 -19 32 -16 18 7 18 23 0
23 -8 0 -16 10 -18 23 -3 20 -5 21 -18 7z"/>
<path d="M5538 123 c6 -2 18 -2 25 0 6 3 1 5 -13 5 -14 0 -19 -2 -12 -5z"/>
<path d="M7050 109 c0 -5 5 -7 10 -4 6 3 10 8 10 11 0 2 -4 4 -10 4 -5 0 -10
-5 -10 -11z"/>
<path d="M7240 105 c-11 -13 -10 -14 4 -9 9 3 16 10 16 15 0 13 -6 11 -20 -6z"/>
<path d="M8779 88 c4 -28 6 -29 9 -9 2 13 0 27 -5 32 -6 6 -7 -3 -4 -23z"/>
<path d="M8799 80 c-3 -25 -3 -51 1 -59 12 -22 16 1 10 54 l-6 50 -5 -45z"/>
<path d="M8882 100 c0 -14 2 -19 5 -12 2 6 2 18 0 25 -3 6 -5 1 -5 -13z"/>
<path d="M3756 85 c4 -8 10 -12 15 -9 11 6 2 24 -11 24 -5 0 -7 -7 -4 -15z"/>
<path d="M4260 90 c25 -8 107 -13 99 -6 -2 2 -31 6 -64 9 -37 3 -51 2 -35 -3z"/>
<path d="M9350 75 c-5 -14 -12 -38 -16 -53 -4 -21 -3 -24 5 -12 8 11 11 12 11
2 0 -7 4 -11 10 -7 9 5 12 95 3 95 -2 0 -8 -11 -13 -25z"/>
<path d="M4040 78 c-30 -5 -75 -10 -100 -11 -25 -1 -65 -12 -90 -25 -60 -29
-139 -40 -150 -21 -5 7 -12 10 -17 6 -11 -11 17 -27 49 -27 15 0 80 14 145 31
65 17 170 37 233 44 95 11 104 13 50 13 -36 0 -90 -5 -120 -10z"/>
<path d="M6077 73 c-4 -3 -7 -11 -7 -17 0 -6 5 -5 12 2 6 6 9 14 7 17 -3 3 -9
2 -12 -2z"/>
<path d="M6455 70 c3 -5 8 -10 11 -10 2 0 4 5 4 10 0 6 -5 10 -11 10 -5 0 -7
-4 -4 -10z"/>
<path d="M6800 73 c14 -3 29 -11 33 -19 4 -8 13 -14 19 -14 6 0 3 9 -7 20 -10
11 -29 19 -44 19 l-26 -2 25 -4z"/>
<path d="M9023 40 c0 -25 2 -35 4 -22 2 12 2 32 0 45 -2 12 -4 2 -4 -23z"/>
<path d="M3633 35 c1 -19 8 -31 20 -33 9 -2 17 2 17 9 0 7 -3 9 -7 5 -4 -3
-13 6 -20 21 l-12 28 2 -30z"/>
<path d="M3828 53 c6 -2 18 -2 25 0 6 3 1 5 -13 5 -14 0 -19 -2 -12 -5z"/>
<path d="M8890 44 c0 -10 5 -26 10 -34 8 -11 9 -7 4 15 -8 37 -14 45 -14 19z"/>
<path d="M3770 39 c0 -5 5 -7 10 -4 6 3 10 8 10 11 0 2 -4 4 -10 4 -5 0 -10
-5 -10 -11z"/>
<path d="M6459 33 c-13 -16 -12 -17 4 -4 9 7 17 15 17 17 0 8 -8 3 -21 -13z"/>
<path d="M9222 25 c-1 -14 3 -25 8 -25 6 0 10 11 10 25 0 33 -15 33 -18 0z"/>
<path d="M6558 33 c7 -3 16 -2 19 1 4 3 -2 6 -13 5 -11 0 -14 -3 -6 -6z"/>
<path d="M6646 31 c-3 -5 0 -11 7 -14 8 -3 14 1 14 9 0 16 -13 19 -21 5z"/>
<path d="M430 26 c0 -2 8 -10 18 -17 15 -13 16 -12 3 4 -13 16 -21 21 -21 13z"/>
<path d="M5810 26 c0 -3 9 -10 20 -16 11 -6 20 -8 20 -6 0 3 -9 10 -20 16 -11
6 -20 8 -20 6z"/>
<path d="M6869 17 c17 -17 51 -19 51 -3 0 10 -10 14 -30 14 -21 -1 -28 -4 -21
-11z"/>
<path d="M6948 3 c7 -3 16 -2 19 1 4 3 -2 6 -13 5 -11 0 -14 -3 -6 -6z"/>
</g>
</svg>
