<?xml version="1.0" standalone="no"?>
<!DOCTYPE svg PUBLIC "-//W3C//DTD SVG 20010904//EN"
 "http://www.w3.org/TR/2001/REC-SVG-20010904/DTD/svg10.dtd">
<svg version="1.0" xmlns="http://www.w3.org/2000/svg"
 width="940.000000pt" height="573.000000pt" viewBox="0 0 940.000000 573.000000"
 preserveAspectRatio="xMidYMid meet">

<g transform="translate(0.000000,573.000000) scale(0.100000,-0.100000)"
fill="#000000" stroke="none">
<path d="M780 5724 c-2 -38 -13 -215 -20 -337 -9 -129 -12 -393 -4 -297 12
147 35 632 30 637 -3 4 -6 2 -6 -3z"/>
<path d="M835 5671 c38 -97 66 -138 203 -293 23 -27 42 -59 43 -71 1 -14 5 -9
11 16 7 24 15 36 23 33 7 -2 17 0 23 6 8 8 16 7 27 -2 14 -11 17 -10 22 8 7
28 19 28 27 0 6 -22 7 -22 20 -5 13 16 14 15 19 -10 3 -16 -3 -86 -14 -158
-10 -71 -18 -161 -18 -200 l2 -70 8 95 c5 52 16 146 26 209 17 113 18 114 69
177 52 63 144 222 144 248 0 7 7 19 15 26 8 7 15 21 15 31 0 16 -8 19 -44 19
-46 0 -56 -11 -56 -69 0 -18 -3 -21 -13 -12 -17 13 -24 6 -42 -36 -8 -18 -19
-33 -25 -33 -6 0 -8 -5 -4 -12 5 -8 2 -9 -12 -3 -10 4 -33 10 -51 13 -21 2
-33 11 -36 24 -3 11 -10 17 -16 13 -6 -3 -11 -2 -11 4 0 5 5 13 10 16 6 4 8
15 5 26 -4 11 -2 19 4 19 6 0 11 -7 11 -15 0 -30 18 -14 25 21 6 35 -3 62 -12
37 -3 -10 -10 -10 -24 -2 -11 6 -25 8 -32 5 -7 -2 -4 -5 6 -5 25 -1 21 -16
-10 -40 -16 -12 -20 -18 -10 -15 13 5 17 1 17 -16 0 -11 -4 -18 -10 -15 -5 3
-10 1 -10 -4 0 -6 5 -11 10 -11 6 0 10 -8 9 -17 0 -11 -3 -13 -6 -5 -2 6 -10
12 -18 12 -8 0 -14 19 -17 51 -3 28 -11 55 -18 59 -16 10 -181 10 -175 0 10
-16 28 -66 27 -72 -1 -5 2 -8 8 -8 6 0 10 -9 10 -20 0 -11 5 -20 10 -20 6 0
10 -7 10 -15 0 -8 4 -15 9 -15 4 0 6 -12 3 -26 l-5 -26 -15 33 c-9 18 -29 37
-44 43 -16 6 -34 25 -44 46 -9 19 -23 43 -32 53 -8 9 -13 20 -10 23 3 2 20
-13 37 -34 17 -22 27 -42 24 -46 -8 -8 16 -26 35 -26 6 0 12 5 12 10 0 6 -6
10 -13 10 -7 0 -25 21 -39 48 -28 51 -47 62 -71 38 -13 -14 -16 -14 -21 -1 -3
8 -10 15 -15 15 -5 0 1 -27 14 -59z m255 45 c0 -3 -4 -8 -10 -11 -5 -3 -10 -1
-10 4 0 6 5 11 10 11 6 0 10 -2 10 -4z m-40 -31 c16 -19 11 -19 -31 0 -33 14
-33 14 -8 15 15 0 32 -7 39 -15z m-20 -30 c0 -8 -4 -15 -10 -15 -5 0 -10 7
-10 15 0 8 5 15 10 15 6 0 10 -7 10 -15z m-150 -5 c0 -5 -2 -10 -4 -10 -3 0
-8 5 -11 10 -3 6 -1 10 4 10 6 0 11 -4 11 -10z m230 -24 c0 -4 -7 -6 -15 -2
-9 3 -15 0 -15 -10 0 -8 -4 -12 -10 -9 -17 10 -12 45 5 39 9 -4 15 0 15 7 0
11 3 11 10 -1 5 -8 10 -19 10 -24z m274 5 c3 -5 -1 -14 -8 -20 -12 -10 -13 -8
-9 8 6 23 9 25 17 12z m-479 -31 c8 -16 15 -32 15 -37 0 -10 -25 27 -33 50
-10 27 1 20 18 -13z m50 -20 c3 -5 1 -10 -4 -10 -6 0 -11 5 -11 10 0 6 2 10 4
10 3 0 8 -4 11 -10z m446 -4 c-6 -7 -8 -22 -5 -32 9 -24 0 -16 -16 15 -6 13
-7 21 -2 17 6 -3 13 -2 17 4 3 5 9 10 12 10 3 0 0 -6 -6 -14z m-253 -16 c-7
-11 -15 -15 -17 -9 -2 6 3 15 10 20 20 12 21 11 7 -11z m-178 -34 c-14 -14
-22 -2 -14 18 5 14 9 15 15 4 4 -7 4 -17 -1 -22z m371 -69 c-10 -9 -11 -8 -5
6 3 10 9 15 12 12 3 -3 0 -11 -7 -18z m-286 3 c3 -5 1 -10 -4 -10 -6 0 -11 5
-11 10 0 6 2 10 4 10 3 0 8 -4 11 -10z m125 -5 c0 -8 -4 -15 -10 -15 -5 0 -10
7 -10 15 0 8 5 15 10 15 6 0 10 -7 10 -15z m-100 -61 c0 -2 -9 0 -20 6 -11 6
-20 13 -20 16 0 2 9 0 20 -6 11 -6 20 -13 20 -16z"/>
<path d="M1273 5723 c4 -3 3 -11 -2 -17 -16 -21 -19 -55 -6 -66 10 -8 14 -7
18 2 4 9 6 7 6 -4 1 -9 -3 -19 -9 -23 -12 -8 -1 -35 15 -35 15 0 29 113 15
118 -6 2 -10 10 -10 18 0 8 -7 14 -17 14 -9 0 -13 -3 -10 -7z"/>
<path d="M1381 5721 c-10 -6 -10 -10 -1 -16 13 -8 24 -1 19 14 -3 6 -10 7 -18
2z"/>
<path d="M1810 5713 c0 -35 15 -44 33 -22 27 31 40 19 54 -51 7 -35 16 -66 19
-69 4 -3 3 14 -2 39 -5 25 -9 62 -9 83 l0 37 -47 0 c-39 0 -48 -3 -48 -17z"/>
<path d="M1965 5722 c16 -6 20 -17 23 -64 1 -32 0 -58 -2 -58 -2 0 -14 20 -26
46 -12 25 -24 43 -27 41 -5 -6 45 -114 56 -121 5 -4 9 17 9 46 0 84 1 98 12
98 6 0 11 -28 12 -62 l1 -63 6 59 c5 48 10 60 27 67 18 6 21 4 17 -12 -3 -10
-12 -19 -19 -19 -8 0 -14 -5 -14 -11 0 -6 6 -9 13 -6 6 2 19 -3 27 -12 8 -9
22 -16 30 -16 12 0 14 -11 12 -52 -3 -34 0 -53 7 -53 6 0 11 -7 11 -16 0 -11
-5 -14 -16 -10 -13 5 -14 3 -6 -7 7 -8 7 -18 2 -27 -8 -12 -10 -12 -16 3 -6
17 -25 25 -23 10 3 -19 -2 -33 -12 -33 -6 0 -9 7 -5 15 3 8 1 15 -4 15 -6 0
-10 -16 -10 -37 0 -61 -10 -31 -15 47 -6 77 -14 106 -16 52 0 -18 -1 -47 -1
-65 -2 -45 11 -89 22 -82 6 3 19 8 29 10 21 4 71 44 71 56 0 5 13 27 29 51 16
23 26 49 23 57 -4 11 -1 13 12 8 10 -4 23 -7 31 -7 7 0 26 -14 43 -31 30 -30
30 -30 73 -16 33 11 46 12 52 4 5 -7 6 26 2 73 -3 47 -10 89 -15 94 -6 6 -7
-18 -4 -61 4 -58 2 -71 -10 -76 -9 -4 -16 -3 -16 2 0 4 -13 8 -29 7 -18 -1
-27 -5 -24 -13 4 -10 10 -10 26 -1 20 10 21 10 8 -5 -20 -25 -37 -21 -51 12
-7 18 -17 28 -25 25 -7 -3 -16 -1 -20 5 -7 12 -78 15 -88 4 -4 -3 0 -14 8 -23
14 -15 13 -17 -2 -17 -10 0 -21 5 -25 11 -13 18 -9 36 7 36 20 0 19 17 -2 28
-10 6 -14 16 -10 26 4 9 2 16 -4 16 -6 0 -8 7 -5 17 6 15 5 15 -13 -1 -20 -18
-20 -18 -18 10 l2 29 -75 2 c-41 1 -66 -2 -55 -5z m135 -282 c-8 -5 -19 -10
-25 -10 -5 0 -3 5 5 10 8 5 20 10 25 10 6 0 3 -5 -5 -10z"/>
<path d="M2230 5717 c0 -14 44 -25 62 -16 9 5 21 8 25 8 4 -1 15 1 23 4 8 3
24 8 35 10 11 3 -4 4 -32 4 -29 -1 -53 -5 -53 -9 0 -5 -8 -8 -17 -8 -15 0 -15
2 -4 9 10 7 7 9 -12 8 -15 -1 -27 -6 -27 -10z"/>
<path d="M2470 5723 c0 -2 15 -10 33 -17 30 -13 53 -13 135 0 34 5 45 24 12
21 -11 -1 -20 -4 -20 -7 0 -3 -18 -5 -40 -5 -22 0 -40 2 -40 5 0 3 -18 6 -40
6 -22 1 -40 0 -40 -3z"/>
<path d="M3479 5728 c-5 -19 -8 -50 -4 -46 7 7 15 48 9 48 -2 0 -4 -1 -5 -2z"/>
<path d="M3711 5719 c-1 -23 -26 -41 -56 -41 -14 0 -25 -4 -25 -9 0 -5 9 -9
19 -9 27 0 75 43 68 61 -4 11 -6 11 -6 -2z"/>
<path d="M3787 5693 c-2 -21 -12 -71 -21 -112 -17 -75 -15 -106 4 -57 12 32
40 164 40 189 0 33 -18 17 -23 -20z"/>
<path d="M3821 5643 c-21 -152 -22 -182 -2 -93 26 119 34 180 23 180 -5 0 -15
-39 -21 -87z"/>
<path d="M3872 5668 c-15 -82 -25 -164 -19 -158 4 4 47 202 47 216 0 2 -4 4
-8 4 -5 0 -14 -28 -20 -62z"/>
<path d="M3965 5720 c3 -5 11 -10 16 -10 6 0 7 5 4 10 -3 6 -11 10 -16 10 -6
0 -7 -4 -4 -10z"/>
<path d="M4147 5719 c7 -7 28 -13 48 -15 22 -1 43 -11 56 -26 l20 -23 -11 23
c-11 23 -55 46 -70 37 -5 -3 -11 -1 -15 5 -3 5 -14 10 -23 10 -12 0 -13 -3 -5
-11z"/>
<path d="M4330 5721 c0 -5 10 -15 23 -24 12 -8 18 -18 13 -23 -5 -5 -11 -4
-13 4 -3 6 -12 12 -21 12 -13 0 -10 -6 11 -26 30 -27 28 -44 -4 -44 -15 0 -19
6 -17 20 3 19 1 20 -24 20 -10 0 -10 -2 0 -9 11 -6 10 -11 -3 -25 -9 -9 -21
-14 -26 -11 -5 4 -9 1 -9 -6 0 -7 8 -9 21 -6 12 3 33 1 47 -4 18 -7 28 -7 30
0 5 14 32 14 32 0 0 -23 73 -79 104 -79 17 0 18 5 12 53 -4 28 -11 56 -17 62
-6 5 -9 5 -9 -2 0 -6 -9 -13 -20 -16 -11 -3 -20 -1 -20 4 0 5 7 9 15 9 8 0 15
7 15 16 0 8 5 12 10 9 6 -3 10 -2 10 4 0 20 -22 23 -35 5 -13 -18 -14 -18 -10
1 2 11 4 26 4 33 1 7 11 17 24 22 l22 10 -24 -3 c-15 -1 -30 -14 -41 -35 -11
-20 -20 -28 -23 -20 -4 10 -6 10 -6 1 -2 -22 -27 -14 -27 7 0 15 5 19 21 14
15 -4 16 -3 6 4 -7 5 -10 15 -7 21 5 7 -5 11 -28 11 -20 0 -36 -4 -36 -9z"/>
<path d="M4520 5715 c-9 -11 -9 -23 3 -57 l15 -43 1 58 c1 31 -1 57 -3 57 -2
0 -9 -7 -16 -15z"/>
<path d="M4621 5700 c0 -14 4 -34 8 -45 8 -19 8 -19 19 2 19 35 15 69 -8 69
-15 0 -20 -7 -19 -26z"/>
<path d="M4708 5708 c5 -20 3 -21 -10 -10 -21 17 -25 10 -48 -96 -13 -61 -17
-97 -11 -118 8 -24 9 -19 10 33 1 58 3 63 25 69 14 3 30 3 36 -1 6 -4 31 14
55 41 48 51 46 63 -10 64 -27 1 -28 2 -12 14 24 19 21 26 -12 26 -25 0 -28 -3
-23 -22z"/>
<path d="M4859 5640 c67 -66 97 -88 105 -81 9 7 19 6 34 -5 13 -9 22 -12 21
-7 -3 20 2 25 16 13 9 -7 18 -10 22 -6 3 3 14 -1 24 -10 17 -15 18 -14 25 10
9 37 22 32 29 -11 10 -63 13 -69 14 -38 1 22 11 37 37 55 19 14 56 42 82 63
51 40 58 43 65 25 2 -7 2 -3 0 10 -5 31 31 44 86 30 30 -8 45 -7 56 2 8 6 18
9 24 6 5 -3 21 -2 35 4 17 6 27 6 32 -1 3 -6 19 -8 35 -5 16 3 29 1 29 -4 0
-17 37 -11 77 11 21 12 39 22 41 24 1 1 -11 2 -28 3 -17 0 -28 -4 -25 -9 4 -5
1 -9 -4 -9 -6 0 -11 4 -11 9 0 5 -71 9 -157 9 -147 1 -160 0 -190 -21 -18 -12
-33 -25 -33 -29 0 -5 -6 -8 -12 -8 -7 0 -1 12 15 25 15 13 27 27 27 30 0 3
-127 5 -282 5 l-283 0 94 -90z m232 27 c-10 -9 -11 -8 -5 6 3 10 9 15 12 12 3
-3 0 -11 -7 -18z"/>
<path d="M6991 5658 l2 -73 6 57 c7 65 9 68 53 78 31 8 31 8 -14 9 l-48 1 1
-72z"/>
<path d="M7217 5714 c4 -11 9 -12 19 -3 26 22 32 -46 8 -105 -5 -13 -4 -17 4
-12 6 4 14 29 18 55 6 44 9 50 36 55 17 3 45 6 64 6 18 0 35 4 38 8 3 5 -40 9
-94 10 -84 1 -98 -1 -93 -14z"/>
<path d="M7556 5683 c7 -50 18 -75 59 -131 19 -27 24 -29 22 -13 -1 12 -4 21
-8 21 -19 0 -58 79 -60 123 -2 26 -7 47 -11 47 -5 0 -6 -21 -2 -47z"/>
<path d="M7633 5650 c0 -47 2 -66 4 -42 2 23 2 61 0 85 -2 23 -4 4 -4 -43z"/>
<path d="M8160 5725 c0 -13 35 -75 42 -75 5 0 -1 18 -12 40 -18 35 -30 49 -30
35z"/>
<path d="M3506 5695 c4 -8 10 -15 15 -15 4 0 6 7 3 15 -4 8 -10 15 -15 15 -4
0 -6 -7 -3 -15z"/>
<path d="M3735 5690 c-3 -11 -4 -29 0 -40 3 -11 1 -28 -5 -37 -11 -17 -11 -17
-6 0 3 11 2 15 -4 12 -6 -3 -10 -10 -10 -14 0 -5 -8 -26 -17 -47 l-16 -39 -13
40 c-7 22 -13 34 -13 26 -1 -21 21 -91 29 -91 4 0 12 18 19 40 6 22 16 40 21
40 5 0 7 -8 3 -17 -4 -13 -3 -15 5 -8 10 9 43 121 42 141 -1 5 -7 -4 -16 -21
l-14 -30 5 33 c5 36 0 43 -10 12z"/>
<path d="M3926 5680 c-8 -19 -12 -40 -9 -47 3 -8 -1 -21 -9 -31 -21 -24 -26
-44 -18 -67 5 -15 8 -10 13 22 4 23 12 45 19 49 8 5 9 2 5 -10 -4 -10 -10 -36
-14 -59 -3 -23 -12 -48 -20 -55 -7 -7 -13 -25 -12 -40 l1 -27 8 25 c8 25 8 25
10 -5 2 -30 5 -22 47 170 9 38 17 77 20 85 2 8 -3 3 -12 -12 -20 -35 -28 -36
-14 -2 14 40 2 42 -15 4z"/>
<path d="M4270 5700 c0 -5 5 -10 11 -10 5 0 7 5 4 10 -3 6 -8 10 -11 10 -2 0
-4 -4 -4 -10z"/>
<path d="M7055 5697 c8 -19 42 -29 42 -11 0 7 -4 11 -9 8 -5 -3 -16 0 -24 7
-12 10 -13 9 -9 -4z"/>
<path d="M7530 5673 c-3 -23 -2 -39 3 -34 5 5 7 24 5 42 -3 33 -4 33 -8 -8z"/>
<path d="M7987 5690 c3 -14 12 -41 20 -60 11 -30 12 -31 8 -6 -4 16 -13 43
-20 60 -11 23 -13 25 -8 6z"/>
<path d="M7170 5691 c0 -6 4 -13 10 -16 6 -3 7 1 4 9 -7 18 -14 21 -14 7z"/>
<path d="M8301 5684 c0 -11 3 -14 6 -6 3 7 2 16 -1 19 -3 4 -6 -2 -5 -13z"/>
<path d="M1355 5680 c3 -5 11 -10 16 -10 6 0 7 5 4 10 -3 6 -11 10 -16 10 -6
0 -7 -4 -4 -10z"/>
<path d="M2450 5658 c5 -18 14 -51 21 -73 12 -38 13 -39 20 -15 4 14 7 34 7
45 0 15 -2 14 -7 -5 -7 -24 -8 -23 -19 15 -7 22 -12 46 -12 53 0 6 -4 12 -9
12 -5 0 -5 -14 -1 -32z"/>
<path d="M7120 5686 c0 -2 7 -7 16 -10 8 -3 12 -2 9 4 -6 10 -25 14 -25 6z"/>
<path d="M2161 5657 c-13 -21 -12 -21 5 -5 10 10 16 20 13 22 -3 3 -11 -5 -18
-17z"/>
<path d="M2534 5603 l1 -78 35 2 c80 4 91 17 89 103 l-2 45 -11 -59 c-12 -62
-24 -74 -76 -75 -25 -1 -25 0 -23 69 1 39 -2 70 -6 70 -4 0 -7 -35 -7 -77z"/>
<path d="M7055 5660 c10 -11 20 -20 23 -20 3 0 -3 9 -13 20 -10 11 -20 20 -23
20 -3 0 3 -9 13 -20z"/>
<path d="M7756 5663 c-6 -14 -5 -15 5 -6 7 7 10 15 7 18 -3 3 -9 -2 -12 -12z"/>
<path d="M3575 5653 c11 -7 22 -13 26 -13 4 0 10 -22 14 -50 7 -54 24 -79 18
-27 -11 91 -12 95 -45 99 -28 5 -29 4 -13 -9z"/>
<path d="M7716 5661 c-3 -5 1 -11 9 -15 8 -3 15 -1 15 4 0 13 -18 22 -24 11z"/>
<path d="M491 5644 c0 -11 3 -14 6 -6 3 7 2 16 -1 19 -3 4 -6 -2 -5 -13z"/>
<path d="M5542 5640 c0 -14 2 -19 5 -12 2 6 2 18 0 25 -3 6 -5 1 -5 -13z"/>
<path d="M1475 5619 c-15 -16 -17 -22 -6 -28 7 -5 17 -24 21 -42 7 -29 8 -25
9 29 1 34 0 62 -1 61 -2 0 -12 -9 -23 -20z"/>
<path d="M1811 5624 c0 -11 3 -14 6 -6 3 7 2 16 -1 19 -3 4 -6 -2 -5 -13z"/>
<path d="M7095 5630 c3 -5 8 -10 11 -10 2 0 4 5 4 10 0 6 -5 10 -11 10 -5 0
-7 -4 -4 -10z"/>
<path d="M4622 5610 c0 -14 2 -19 5 -12 2 6 2 18 0 25 -3 6 -5 1 -5 -13z"/>
<path d="M7170 5625 c0 -5 5 -17 10 -25 5 -8 10 -10 10 -5 0 6 -5 17 -10 25
-5 8 -10 11 -10 5z"/>
<path d="M7715 5620 c-3 -5 -1 -10 4 -10 6 0 11 5 11 10 0 6 -2 10 -4 10 -3 0
-8 -4 -11 -10z"/>
<path d="M7744 5590 c-18 -36 -20 -37 -26 -17 -5 15 -6 11 -3 -12 3 -18 5 -71
5 -117 0 -46 4 -84 9 -84 4 0 8 44 7 98 -1 77 3 104 17 130 10 19 17 36 14 38
-2 2 -12 -14 -23 -36z"/>
<path d="M8303 5580 c0 -30 2 -43 4 -27 2 15 2 39 0 55 -2 15 -4 2 -4 -28z"/>
<path d="M7520 5607 c0 -7 7 -22 16 -33 15 -19 16 -19 9 1 -4 11 -8 26 -8 33
0 16 -17 16 -17 -1z"/>
<path d="M1240 5599 c0 -5 5 -7 10 -4 6 3 10 8 10 11 0 2 -4 4 -10 4 -5 0 -10
-5 -10 -11z"/>
<path d="M5361 5578 c5 -18 9 -34 9 -35 0 -2 5 -3 12 -3 9 0 9 3 0 12 -7 7
-12 20 -12 29 0 10 -4 20 -9 24 -6 3 -6 -7 0 -27z"/>
<path d="M6193 5575 c0 -22 2 -30 4 -17 2 12 2 30 0 40 -3 9 -5 -1 -4 -23z"/>
<path d="M481 5584 c0 -11 3 -14 6 -6 3 7 2 16 -1 19 -3 4 -6 -2 -5 -13z"/>
<path d="M6066 5570 c8 -43 14 -51 14 -19 0 13 -5 31 -10 39 -7 11 -8 5 -4
-20z"/>
<path d="M4190 5579 c0 -6 -7 -9 -14 -6 -9 4 -13 1 -10 -6 2 -7 22 -12 44 -11
28 0 37 -3 30 -10 -16 -16 -12 -26 7 -19 26 10 67 57 53 61 -6 2 -17 -3 -23
-11 -13 -17 -67 -13 -67 4 0 5 -4 9 -10 9 -5 0 -10 -5 -10 -11z"/>
<path d="M4551 5584 c0 -5 7 -25 14 -44 12 -31 14 -32 14 -10 0 14 -6 34 -14
44 -8 11 -15 16 -14 10z"/>
<path d="M7112 5565 c0 -16 2 -22 5 -12 2 9 2 23 0 30 -3 6 -5 -1 -5 -18z"/>
<path d="M5551 5564 c0 -11 3 -14 6 -6 3 7 2 16 -1 19 -3 4 -6 -2 -5 -13z"/>
<path d="M7258 5558 c-22 -33 -31 -68 -19 -68 6 0 11 7 11 15 0 9 7 29 15 45
18 35 14 40 -7 8z"/>
<path d="M3486 5514 c8 -93 14 -124 25 -124 6 0 8 8 5 18 -3 9 -10 48 -15 86
-12 85 -21 98 -15 20z"/>
<path d="M7181 5561 c-7 -5 -12 -13 -10 -18 2 -5 12 -1 22 9 18 19 12 24 -12
9z"/>
<path d="M1815 5550 c3 -5 8 -10 11 -10 2 0 4 5 4 10 0 6 -5 10 -11 10 -5 0
-7 -4 -4 -10z"/>
<path d="M1920 5550 c-1 -8 -3 -28 -4 -45 -6 -96 -5 -93 -26 -88 -12 3 -19 12
-18 21 2 10 -4 17 -16 17 -12 0 -20 8 -23 24 -8 56 -18 44 -17 -22 1 -40 -2
-76 -5 -82 -4 -5 -4 -28 0 -50 l6 -40 2 42 c0 23 5 45 11 48 6 3 7 -1 4 -9 -6
-15 24 -17 109 -7 11 1 7 100 -8 156 -7 28 -14 43 -15 35z m0 -170 c0 -5 -4
-10 -10 -10 -5 0 -10 5 -10 10 0 6 5 10 10 10 6 0 10 -4 10 -10z"/>
<path d="M3590 5555 c0 -5 5 -17 10 -25 5 -8 10 -10 10 -5 0 6 -5 17 -10 25
-5 8 -10 11 -10 5z"/>
<path d="M4336 5544 c-4 -9 -4 -19 -1 -22 2 -3 7 3 11 12 4 9 4 19 1 22 -2 3
-7 -3 -11 -12z"/>
<path d="M4381 5544 c0 -11 3 -14 6 -6 3 7 2 16 -1 19 -3 4 -6 -2 -5 -13z"/>
<path d="M5331 5534 c0 -11 3 -14 6 -6 3 7 2 16 -1 19 -3 4 -6 -2 -5 -13z"/>
<path d="M5642 5525 c0 -16 2 -22 5 -12 2 9 2 23 0 30 -3 6 -5 -1 -5 -18z"/>
<path d="M3702 5507 c-11 -32 -11 -40 7 -74 12 -24 17 -49 14 -67 -4 -20 -2
-27 6 -22 17 11 13 56 -9 104 -19 41 -19 42 0 42 10 0 24 -8 29 -17 9 -16 10
-17 11 -1 0 9 -9 19 -19 23 -11 3 -21 16 -23 27 -2 17 -6 14 -16 -15z"/>
<path d="M6993 5480 c0 -36 2 -50 4 -32 2 17 2 47 0 65 -2 17 -4 3 -4 -33z"/>
<path d="M7668 5511 c9 -16 18 -28 20 -27 5 6 -21 56 -29 56 -5 0 0 -13 9 -29z"/>
<path d="M4183 5515 c-12 -9 -29 -12 -39 -8 -16 6 -17 5 -4 -9 13 -13 18 -13
47 5 18 10 33 21 33 23 0 8 -16 3 -37 -11z"/>
<path d="M5003 5470 c0 -36 2 -50 4 -32 2 17 2 47 0 65 -2 17 -4 3 -4 -33z"/>
<path d="M7571 5510 c0 -8 4 -24 9 -35 5 -13 9 -14 9 -5 0 8 -4 24 -9 35 -5
13 -9 14 -9 5z"/>
<path d="M4100 5495 c0 -8 4 -15 10 -15 5 0 7 7 4 15 -4 8 -8 15 -10 15 -2 0
-4 -7 -4 -15z"/>
<path d="M4252 5485 c0 -16 2 -22 5 -12 2 9 2 23 0 30 -3 6 -5 -1 -5 -18z"/>
<path d="M3601 5488 c0 -7 4 -35 8 -61 6 -37 5 -50 -5 -54 -8 -3 -14 -10 -14
-15 0 -6 7 -5 15 2 22 18 38 0 39 -42 1 -36 19 -53 24 -22 3 16 1 16 -7 4 -9
-12 -11 -9 -11 14 0 21 4 27 15 22 19 -7 19 -6 -1 60 -9 33 -21 54 -30 54 -8
0 -14 10 -14 25 0 14 -4 25 -10 25 -5 0 -10 -6 -9 -12z m36 -80 c-3 -8 -6 -5
-6 6 -1 11 2 17 5 13 3 -3 4 -12 1 -19z m17 -34 c3 -8 2 -12 -4 -9 -6 3 -10
10 -10 16 0 14 7 11 14 -7z"/>
<path d="M5340 5491 c0 -6 4 -13 10 -16 6 -3 7 1 4 9 -7 18 -14 21 -14 7z"/>
<path d="M6087 5455 c3 -22 7 -42 9 -44 8 -9 2 45 -6 64 -7 14 -8 8 -3 -20z"/>
<path d="M4371 5464 c0 -11 3 -14 6 -6 3 7 2 16 -1 19 -3 4 -6 -2 -5 -13z"/>
<path d="M4962 5460 c0 -14 2 -19 5 -12 2 6 2 18 0 25 -3 6 -5 1 -5 -13z"/>
<path d="M5551 5464 c0 -11 3 -14 6 -6 3 7 2 16 -1 19 -3 4 -6 -2 -5 -13z"/>
<path d="M7220 5459 c0 -11 5 -17 10 -14 6 3 10 13 10 21 0 8 -4 14 -10 14 -5
0 -10 -9 -10 -21z"/>
<path d="M461 5454 c0 -11 3 -14 6 -6 3 7 2 16 -1 19 -3 4 -6 -2 -5 -13z"/>
<path d="M3841 5470 c-1 -3 -4 -48 -6 -100 -4 -88 -3 -91 6 -35 8 49 8 154 0
135z"/>
<path d="M4078 5444 c-7 -16 -23 -37 -35 -47 -13 -10 -23 -25 -23 -32 0 -7
-19 -30 -42 -50 -40 -34 -41 -35 -13 -25 39 15 72 46 79 76 4 14 16 26 31 30
50 12 75 -19 35 -44 -21 -13 -40 -9 -40 9 0 6 5 7 10 4 6 -3 10 1 10 9 0 21
-10 20 -25 -1 -10 -14 -9 -22 8 -45 23 -30 37 -36 37 -14 0 24 25 25 26 1 1
-16 -7 -25 -30 -33 -24 -10 -28 -14 -17 -21 10 -7 19 -4 26 6 7 10 14 12 18 6
4 -5 -2 -19 -13 -30 -10 -12 -16 -23 -14 -26 3 -3 -3 -14 -12 -26 -13 -15 -20
-17 -26 -8 -5 8 -8 4 -8 -11 0 -13 -4 -20 -10 -17 -6 3 -7 -1 -4 -9 10 -27 78
35 99 90 21 55 15 162 -10 180 -8 6 -15 16 -15 21 0 6 -7 16 -15 23 -12 10
-17 7 -27 -16z m32 -14 c0 -5 -7 -10 -16 -10 -8 0 -12 5 -9 10 3 6 10 10 16
10 5 0 9 -4 9 -10z"/>
<path d="M5812 5445 c0 -16 2 -22 5 -12 2 9 2 23 0 30 -3 6 -5 -1 -5 -18z"/>
<path d="M3780 5383 c0 -42 2 -74 4 -72 10 11 16 149 7 149 -7 0 -11 -29 -11
-77z"/>
<path d="M5125 5328 c-4 -73 -5 -153 -3 -178 1 -25 7 33 11 129 5 95 6 175 4
178 -3 2 -8 -56 -12 -129z"/>
<path d="M5626 5419 c-4 -23 -5 -44 -2 -46 2 -2 7 14 11 37 4 23 5 43 2 46 -2
3 -7 -14 -11 -37z"/>
<path d="M8303 5395 c0 -38 2 -53 4 -32 2 20 2 52 0 70 -2 17 -4 1 -4 -38z"/>
<path d="M203 5405 c0 -27 2 -38 4 -22 2 15 2 37 0 50 -2 12 -4 0 -4 -28z"/>
<path d="M5052 5420 c0 -19 2 -27 5 -17 2 9 2 25 0 35 -3 9 -5 1 -5 -18z"/>
<path d="M7597 5430 c3 -14 10 -41 14 -60 7 -34 7 -34 7 -5 1 17 -5 44 -13 60
-12 24 -14 25 -8 5z"/>
<path d="M5362 5415 c0 -16 2 -22 5 -12 2 9 2 23 0 30 -3 6 -5 -1 -5 -18z"/>
<path d="M6182 5415 c0 -16 2 -22 5 -12 2 9 2 23 0 30 -3 6 -5 -1 -5 -18z"/>
<path d="M7133 5390 c-1 -30 2 -80 7 -110 7 -55 7 -55 7 -10 1 25 -3 74 -7
110 l-7 65 0 -55z"/>
<path d="M456 5408 c-3 -13 -5 -43 -4 -68 1 -39 2 -37 8 20 8 68 7 86 -4 48z"/>
<path d="M4642 5395 c0 -16 2 -22 5 -12 2 9 2 23 0 30 -3 6 -5 -1 -5 -18z"/>
<path d="M4953 5379 c-1 -18 1 -29 4 -25 10 10 15 56 6 56 -4 0 -9 -14 -10
-31z"/>
<path d="M6991 5394 c0 -11 3 -14 6 -6 3 7 2 16 -1 19 -3 4 -6 -2 -5 -13z"/>
<path d="M2431 5384 c0 -11 3 -14 6 -6 3 7 2 16 -1 19 -3 4 -6 -2 -5 -13z"/>
<path d="M5822 5375 c0 -16 2 -22 5 -12 2 9 2 23 0 30 -3 6 -5 -1 -5 -18z"/>
<path d="M6106 5370 c3 -19 9 -64 14 -100 l9 -65 -4 76 c-3 42 -9 87 -15 100
-8 21 -9 19 -4 -11z"/>
<path d="M1483 5340 c0 -25 2 -35 4 -22 2 12 2 32 0 45 -2 12 -4 2 -4 -23z"/>
<path d="M3883 5363 c-3 -10 -8 -22 -11 -27 -3 -5 0 -6 5 -3 11 7 25 47 17 47
-3 0 -7 -8 -11 -17z"/>
<path d="M4992 5350 c0 -14 2 -19 5 -12 2 6 2 18 0 25 -3 6 -5 1 -5 -13z"/>
<path d="M3927 5323 c-32 -22 -40 -25 -47 -13 -5 8 -12 11 -16 7 -4 -4 -3 -12
3 -18 16 -16 67 -2 93 27 31 32 14 31 -33 -3z"/>
<path d="M7002 5325 c0 -16 2 -22 5 -12 2 9 2 23 0 30 -3 6 -5 -1 -5 -18z"/>
<path d="M5832 5310 c0 -19 2 -27 5 -17 2 9 2 25 0 35 -3 9 -5 1 -5 -18z"/>
<path d="M7720 5300 c0 -22 2 -40 4 -40 2 0 6 18 8 40 2 22 0 40 -4 40 -5 0
-8 -18 -8 -40z"/>
<path d="M3721 5314 c0 -11 3 -14 6 -6 3 7 2 16 -1 19 -3 4 -6 -2 -5 -13z"/>
<path d="M4651 5314 c0 -11 3 -14 6 -6 3 7 2 16 -1 19 -3 4 -6 -2 -5 -13z"/>
<path d="M7242 5305 c0 -11 3 -29 8 -40 11 -25 11 1 0 35 -6 20 -8 21 -8 5z"/>
<path d="M4953 5265 c0 -27 2 -38 4 -22 2 15 2 37 0 50 -2 12 -4 0 -4 -28z"/>
<path d="M8082 5280 c0 -19 2 -27 5 -17 2 9 2 25 0 35 -3 9 -5 1 -5 -18z"/>
<path d="M4048 5267 l-26 -22 34 -16 c34 -17 35 -16 28 5 -4 11 -8 29 -8 39 0
9 0 17 -1 17 0 -1 -12 -11 -27 -23z"/>
<path d="M4985 5279 c-4 -6 -5 -12 -2 -15 2 -3 7 2 10 11 7 17 1 20 -8 4z"/>
<path d="M7003 5250 c0 -25 2 -35 4 -22 2 12 2 32 0 45 -2 12 -4 2 -4 -23z"/>
<path d="M8308 5223 c4 -65 8 -81 15 -72 7 7 -5 139 -12 139 -4 0 -5 -30 -3
-67z"/>
<path d="M3771 5264 c0 -11 3 -14 6 -6 3 7 2 16 -1 19 -3 4 -6 -2 -5 -13z"/>
<path d="M3905 5270 c3 -5 11 -10 16 -10 6 0 7 5 4 10 -3 6 -11 10 -16 10 -6
0 -7 -4 -4 -10z"/>
<path d="M4007 5266 c-4 -10 -1 -13 9 -9 15 6 19 23 5 23 -5 0 -11 -7 -14 -14z"/>
<path d="M453 5210 c0 -30 2 -43 4 -27 2 15 2 39 0 55 -2 15 -4 2 -4 -28z"/>
<path d="M3651 5244 c0 -11 3 -14 6 -6 3 7 2 16 -1 19 -3 4 -6 -2 -5 -13z"/>
<path d="M3878 5252 c7 -5 10 -16 7 -24 -5 -11 1 -18 17 -23 13 -4 31 -14 41
-23 15 -14 17 -13 17 1 0 10 5 17 12 17 6 0 3 9 -8 21 -11 12 -20 16 -22 9 -3
-7 -8 -6 -16 3 -6 8 -22 18 -36 22 -16 4 -20 3 -12 -3z"/>
<path d="M7205 5250 c3 -5 8 -10 11 -10 2 0 4 5 4 10 0 6 -5 10 -11 10 -5 0
-7 -4 -4 -10z"/>
<path d="M201 5234 c0 -11 3 -14 6 -6 3 7 2 16 -1 19 -3 4 -6 -2 -5 -13z"/>
<path d="M2442 5230 c0 -14 2 -19 5 -12 2 6 2 18 0 25 -3 6 -5 1 -5 -13z"/>
<path d="M91 5224 c0 -11 3 -14 6 -6 3 7 2 16 -1 19 -3 4 -6 -2 -5 -13z"/>
<path d="M7261 5224 c0 -11 3 -14 6 -6 3 7 2 16 -1 19 -3 4 -6 -2 -5 -13z"/>
<path d="M5082 5200 c0 -19 2 -27 5 -17 2 9 2 25 0 35 -3 9 -5 1 -5 -18z"/>
<path d="M7212 5210 c0 -14 2 -19 5 -12 2 6 2 18 0 25 -3 6 -5 1 -5 -13z"/>
<path d="M7612 5178 c-1 -31 -5 -65 -8 -75 -5 -17 -5 -17 6 0 6 9 9 42 7 75
l-3 57 -2 -57z"/>
<path d="M3987 5201 c-3 -11 -1 -23 3 -26 14 -8 22 13 12 31 -8 14 -10 14 -15
-5z"/>
<path d="M5612 5200 c0 -14 2 -19 5 -12 2 6 2 18 0 25 -3 6 -5 1 -5 -13z"/>
<path d="M3759 5166 c-3 -25 -1 -46 2 -46 10 0 18 74 9 83 -4 5 -9 -12 -11
-37z"/>
<path d="M4662 5185 c0 -16 2 -22 5 -12 2 9 2 23 0 30 -3 6 -5 -1 -5 -18z"/>
<path d="M5030 5200 c0 -5 5 -10 11 -10 5 0 7 5 4 10 -3 6 -8 10 -11 10 -2 0
-4 -4 -4 -10z"/>
<path d="M7153 5175 c0 -22 2 -30 4 -17 2 12 2 30 0 40 -3 9 -5 -1 -4 -23z"/>
<path d="M7720 5199 c0 -5 5 -7 10 -4 6 3 10 8 10 11 0 2 -4 4 -10 4 -5 0 -10
-5 -10 -11z"/>
<path d="M1203 5185 c-3 -9 -3 -18 -1 -21 3 -3 8 4 11 16 6 23 -1 27 -10 5z"/>
<path d="M3706 5185 c-3 -9 -6 -26 -5 -38 1 -14 4 -9 9 13 9 37 7 52 -4 25z"/>
<path d="M4940 5190 c0 -5 5 -10 10 -10 6 0 10 5 10 10 0 6 -4 10 -10 10 -5 0
-10 -4 -10 -10z"/>
<path d="M6132 5170 c0 -19 2 -27 5 -17 2 9 2 25 0 35 -3 9 -5 1 -5 -18z"/>
<path d="M9201 5184 c0 -11 3 -14 6 -6 3 7 2 16 -1 19 -3 4 -6 -2 -5 -13z"/>
<path d="M1792 5160 c0 -19 2 -27 5 -17 2 9 2 25 0 35 -3 9 -5 1 -5 -18z"/>
<path d="M2443 5125 c0 -38 2 -53 4 -32 2 20 2 52 0 70 -2 17 -4 1 -4 -38z"/>
<path d="M7274 5157 c4 -15 16 -87 27 -159 20 -136 36 -190 24 -83 -10 85 -43
257 -51 264 -4 3 -4 -7 0 -22z"/>
<path d="M7722 5150 c0 -19 2 -27 5 -17 2 9 2 25 0 35 -3 9 -5 1 -5 -18z"/>
<path d="M1072 5150 c0 -14 2 -19 5 -12 2 6 2 18 0 25 -3 6 -5 1 -5 -13z"/>
<path d="M1471 5154 c0 -11 3 -14 6 -6 3 7 2 16 -1 19 -3 4 -6 -2 -5 -13z"/>
<path d="M4943 5130 c0 -25 2 -35 4 -22 2 12 2 32 0 45 -2 12 -4 2 -4 -23z"/>
<path d="M7012 5145 c0 -16 2 -22 5 -12 2 9 2 23 0 30 -3 6 -5 -1 -5 -18z"/>
<path d="M3630 5130 c0 -16 2 -30 4 -30 2 0 6 14 8 30 3 17 1 30 -4 30 -4 0
-8 -13 -8 -30z"/>
<path d="M5031 5144 c0 -11 3 -14 6 -6 3 7 2 16 -1 19 -3 4 -6 -2 -5 -13z"/>
<path d="M443 5095 c0 -22 2 -30 4 -17 2 12 2 30 0 40 -3 9 -5 -1 -4 -23z"/>
<path d="M4673 5095 c0 -22 2 -30 4 -17 2 12 2 30 0 40 -3 9 -5 -1 -4 -23z"/>
<path d="M4982 5110 c0 -14 2 -19 5 -12 2 6 2 18 0 25 -3 6 -5 1 -5 -13z"/>
<path d="M8323 5095 c0 -22 2 -30 4 -17 2 12 2 30 0 40 -3 9 -5 -1 -4 -23z"/>
<path d="M1471 5104 c0 -11 3 -14 6 -6 3 7 2 16 -1 19 -3 4 -6 -2 -5 -13z"/>
<path d="M3681 5038 c-15 -99 -19 -134 -26 -196 -3 -26 -12 -89 -20 -139 -15
-91 -19 -161 -11 -152 3 3 10 34 15 69 6 36 13 75 15 87 3 12 7 50 11 85 5 57
11 110 31 276 10 84 -2 60 -15 -30z"/>
<path d="M5031 5104 c0 -11 3 -14 6 -6 3 7 2 16 -1 19 -3 4 -6 -2 -5 -13z"/>
<path d="M1780 5094 c0 -8 5 -12 10 -9 6 4 8 11 5 16 -9 14 -15 11 -15 -7z"/>
<path d="M3745 5027 c-4 -42 -5 -81 -3 -89 3 -7 8 25 12 70 4 46 5 86 3 89 -3
2 -8 -29 -12 -70z"/>
<path d="M6149 5062 c5 -34 6 -35 9 -8 2 16 0 32 -5 37 -5 5 -7 -7 -4 -29z"/>
<path d="M1151 5074 c0 -11 3 -14 6 -6 3 7 2 16 -1 19 -3 4 -6 -2 -5 -13z"/>
<path d="M7162 5075 c0 -11 4 -31 8 -45 6 -20 8 -21 8 -5 0 11 -4 31 -8 45 -6
20 -8 21 -8 5z"/>
<path d="M7720 5052 c0 -17 3 -33 8 -35 4 -3 7 8 7 23 0 16 -3 32 -7 36 -5 4
-8 -7 -8 -24z"/>
<path d="M5115 5060 c-3 -5 -1 -10 4 -10 6 0 11 5 11 10 0 6 -2 10 -4 10 -3 0
-8 -4 -11 -10z"/>
<path d="M3623 5020 c0 -25 2 -35 4 -22 2 12 2 32 0 45 -2 12 -4 2 -4 -23z"/>
<path d="M6735 5035 c-121 -34 -203 -89 -224 -152 -19 -60 -26 -278 -11 -359
11 -60 43 -167 64 -215 7 -15 -26 -24 -159 -45 -63 -9 -210 -61 -294 -103
-122 -62 -291 -168 -364 -229 -68 -57 -163 -131 -212 -165 -14 -11 -25 -21
-23 -23 3 -2 33 -8 69 -13 35 -6 91 -15 124 -21 116 -20 793 -38 970 -24 88 6
94 7 245 23 183 19 299 30 515 46 253 19 422 33 454 40 30 6 61 -11 61 -32 0
-9 3 -14 6 -10 10 10 -7 47 -22 47 -8 0 -54 39 -102 86 -101 100 -172 152
-297 219 -49 27 -91 49 -93 51 -2 1 -7 24 -12 51 l-8 48 -1 -42 c-1 -48 -6
-51 -41 -23 -14 11 -30 20 -36 20 -6 0 -16 10 -22 23 -6 12 -11 16 -11 10 -1
-7 -10 -13 -21 -13 -17 0 -20 7 -20 50 0 28 -3 50 -8 50 -4 0 -5 -21 -3 -46 2
-36 0 -45 -10 -42 -8 3 -13 14 -11 24 2 14 1 16 -6 5 -7 -9 -15 -10 -28 -3
-11 5 -55 15 -99 22 -44 7 -83 14 -87 16 -6 4 13 85 31 129 32 78 55 291 46
420 -6 78 -11 94 -35 126 -16 19 -35 36 -42 37 -7 0 -49 8 -93 16 -96 18 -125
18 -190 1z m265 -1109 c0 -6 -7 -1 -15 10 -8 10 -15 23 -15 28 0 6 7 1 15 -10
8 -10 15 -23 15 -28z"/>
<path d="M7602 5000 c0 -19 2 -27 5 -17 2 9 2 25 0 35 -3 9 -5 1 -5 -18z"/>
<path d="M8102 5010 c0 -14 2 -19 5 -12 2 6 2 18 0 25 -3 6 -5 1 -5 -13z"/>
<path d="M8332 4990 c0 -19 2 -27 5 -17 2 9 2 25 0 35 -3 9 -5 1 -5 -18z"/>
<path d="M753 4955 c0 -33 2 -45 4 -27 2 18 2 45 0 60 -2 15 -4 0 -4 -33z"/>
<path d="M1782 4980 c0 -19 2 -27 5 -17 2 9 2 25 0 35 -3 9 -5 1 -5 -18z"/>
<path d="M101 4984 c0 -11 3 -14 6 -6 3 7 2 16 -1 19 -3 4 -6 -2 -5 -13z"/>
<path d="M7726 4948 c1 -29 3 -106 4 -170 0 -65 5 -118 10 -118 4 0 7 35 6 78
-2 42 -4 119 -4 170 -1 50 -6 92 -11 92 -4 0 -7 -24 -5 -52z"/>
<path d="M8591 4984 c0 -11 3 -14 6 -6 3 7 2 16 -1 19 -3 4 -6 -2 -5 -13z"/>
<path d="M7211 4964 c0 -11 3 -14 6 -6 3 7 2 16 -1 19 -3 4 -6 -2 -5 -13z"/>
<path d="M1462 4950 c0 -14 2 -19 5 -12 2 6 2 18 0 25 -3 6 -5 1 -5 -13z"/>
<path d="M4682 4940 c0 -19 2 -27 5 -17 2 9 2 25 0 35 -3 9 -5 1 -5 -18z"/>
<path d="M101 4944 c0 -11 3 -14 6 -6 3 7 2 16 -1 19 -3 4 -6 -2 -5 -13z"/>
<path d="M3612 4910 c-1 -25 -4 -70 -7 -100 -5 -53 -4 -54 6 -15 5 22 8 67 6
100 -3 50 -3 53 -5 15z"/>
<path d="M5621 4934 c0 -11 3 -14 6 -6 3 7 2 16 -1 19 -3 4 -6 -2 -5 -13z"/>
<path d="M6061 4934 c0 -11 3 -14 6 -6 3 7 2 16 -1 19 -3 4 -6 -2 -5 -13z"/>
<path d="M7603 4910 c0 -25 2 -35 4 -22 2 12 2 32 0 45 -2 12 -4 2 -4 -23z"/>
<path d="M8582 4930 c0 -14 2 -19 5 -12 2 6 2 18 0 25 -3 6 -5 1 -5 -13z"/>
<path d="M3785 4892 c-4 -29 -5 -56 -2 -59 7 -7 20 82 15 99 -3 7 -8 -11 -13
-40z"/>
<path d="M5113 4895 c0 -22 2 -30 4 -17 2 12 2 30 0 40 -3 9 -5 -1 -4 -23z"/>
<path d="M6144 4835 c0 -49 1 -71 3 -48 2 23 2 64 0 90 -2 26 -3 8 -3 -42z"/>
<path d="M101 4894 c0 -11 3 -14 6 -6 3 7 2 16 -1 19 -3 4 -6 -2 -5 -13z"/>
<path d="M1791 4884 c0 -11 3 -14 6 -6 3 7 2 16 -1 19 -3 4 -6 -2 -5 -13z"/>
<path d="M3722 4785 c-7 -66 -15 -137 -18 -157 -2 -22 0 -38 6 -38 5 0 10 22
10 48 0 27 5 85 11 129 6 44 9 93 7 109 -2 16 -9 -25 -16 -91z"/>
<path d="M761 4859 c1 -19 5 -47 10 -64 5 -20 6 -9 2 30 -6 66 -14 88 -12 34z"/>
<path d="M8353 4830 c0 -25 2 -35 4 -22 2 12 2 32 0 45 -2 12 -4 2 -4 -23z"/>
<path d="M4691 4834 c0 -11 3 -14 6 -6 3 7 2 16 -1 19 -3 4 -6 -2 -5 -13z"/>
<path d="M5114 4765 c0 -49 1 -71 3 -48 2 23 2 64 0 90 -2 26 -3 8 -3 -42z"/>
<path d="M7332 4830 c0 -14 2 -19 5 -12 2 6 2 18 0 25 -3 6 -5 1 -5 -13z"/>
<path d="M4970 4824 c0 -8 5 -12 10 -9 6 3 10 10 10 16 0 5 -4 9 -10 9 -5 0
-10 -7 -10 -16z"/>
<path d="M3770 4803 c-1 -31 -10 -163 -21 -293 -12 -143 -14 -173 -29 -440 -5
-107 -12 -229 -15 -270 -2 -41 -11 -194 -20 -340 -8 -146 -20 -310 -25 -365
-6 -55 -10 -128 -10 -162 0 -36 -4 -63 -10 -63 -16 0 -12 -26 17 -100 30 -78
43 -88 18 -13 -20 57 -19 43 -4 223 7 80 13 183 14 230 2 84 5 142 25 435 5
83 14 236 20 340 5 105 15 255 20 335 6 80 13 172 15 205 2 33 7 101 10 150 3
50 8 102 11 118 3 16 1 27 -5 27 -6 0 -11 -8 -11 -17z"/>
<path d="M4969 4763 c0 -21 -2 -50 -3 -65 -1 -16 1 -28 5 -28 4 0 9 29 11 65
1 36 0 65 -4 65 -5 0 -8 -17 -9 -37z"/>
<path d="M4703 4730 c0 -30 2 -43 4 -27 2 15 2 39 0 55 -2 15 -4 2 -4 -28z"/>
<path d="M7202 4760 c0 -14 2 -19 5 -12 2 6 2 18 0 25 -3 6 -5 1 -5 -13z"/>
<path d="M1040 4760 c0 -5 5 -10 10 -10 6 0 10 5 10 10 0 6 -4 10 -10 10 -5 0
-10 -4 -10 -10z"/>
<path d="M1784 4685 c0 -49 1 -71 3 -48 2 23 2 64 0 90 -2 26 -3 8 -3 -42z"/>
<path d="M782 4735 c0 -16 2 -22 5 -12 2 9 2 23 0 30 -3 6 -5 -1 -5 -18z"/>
<path d="M1043 4705 c0 -22 2 -30 4 -17 2 12 2 30 0 40 -3 9 -5 -1 -4 -23z"/>
<path d="M1182 4720 c0 -14 2 -19 5 -12 2 6 2 18 0 25 -3 6 -5 1 -5 -13z"/>
<path d="M4581 4724 c0 -11 3 -14 6 -6 3 7 2 16 -1 19 -3 4 -6 -2 -5 -13z"/>
<path d="M3582 4653 c-6 -38 -14 -88 -16 -113 -9 -74 12 1 25 93 14 96 6 113
-9 20z"/>
<path d="M1175 4637 c-4 -31 -5 -62 -3 -69 3 -7 8 16 12 51 4 35 5 65 2 68 -2
3 -7 -20 -11 -50z"/>
<path d="M1217 4683 c-11 -10 -8 -53 3 -53 6 0 10 14 10 30 0 31 -2 35 -13 23z"/>
<path d="M3812 4670 c0 -14 2 -19 5 -12 2 6 2 18 0 25 -3 6 -5 1 -5 -13z"/>
<path d="M792 4645 c0 -16 2 -22 5 -12 2 9 2 23 0 30 -3 6 -5 -1 -5 -18z"/>
<path d="M7282 4640 c0 -19 2 -27 5 -17 2 9 2 25 0 35 -3 9 -5 1 -5 -18z"/>
<path d="M1041 4644 c0 -11 3 -14 6 -6 3 7 2 16 -1 19 -3 4 -6 -2 -5 -13z"/>
<path d="M4962 4630 c0 -19 2 -27 5 -17 2 9 2 25 0 35 -3 9 -5 1 -5 -18z"/>
<path d="M5102 4630 c0 -14 2 -19 5 -12 2 6 2 18 0 25 -3 6 -5 1 -5 -13z"/>
<path d="M7362 4630 c0 -14 2 -19 5 -12 2 6 2 18 0 25 -3 6 -5 1 -5 -13z"/>
<path d="M4713 4595 c0 -27 2 -38 4 -22 2 15 2 37 0 50 -2 12 -4 0 -4 -28z"/>
<path d="M433 4595 c0 -22 2 -30 4 -17 2 12 2 30 0 40 -3 9 -5 -1 -4 -23z"/>
<path d="M6133 4585 c0 -27 2 -38 4 -22 2 15 2 37 0 50 -2 12 -4 0 -4 -28z"/>
<path d="M7745 4555 c2 -44 13 -147 24 -229 12 -82 21 -156 21 -164 0 -8 2
-13 5 -10 6 6 -17 227 -40 388 l-14 95 4 -80z"/>
<path d="M807 4510 c3 -58 7 -107 9 -109 7 -7 2 101 -6 159 -6 39 -7 24 -3
-50z"/>
<path d="M1212 4573 c2 -24 6 -43 11 -43 10 0 8 52 -3 70 -7 11 -9 3 -8 -27z"/>
<path d="M3802 4575 c0 -16 2 -22 5 -12 2 9 2 23 0 30 -3 6 -5 -1 -5 -18z"/>
<path d="M5101 4584 c0 -11 3 -14 6 -6 3 7 2 16 -1 19 -3 4 -6 -2 -5 -13z"/>
<path d="M7292 4575 c0 -16 2 -22 5 -12 2 9 2 23 0 30 -3 6 -5 -1 -5 -18z"/>
<path d="M1787 4527 c6 -93 11 -101 12 -20 0 39 -3 74 -7 77 -5 3 -7 -23 -5
-57z"/>
<path d="M4992 4565 c0 -16 2 -22 5 -12 2 9 2 23 0 30 -3 6 -5 -1 -5 -18z"/>
<path d="M5042 4560 c0 -19 2 -27 5 -17 2 9 2 25 0 35 -3 9 -5 1 -5 -18z"/>
<path d="M7372 4570 c0 -14 2 -19 5 -12 2 6 2 18 0 25 -3 6 -5 1 -5 -13z"/>
<path d="M3687 4395 c-10 -104 -20 -201 -23 -215 -2 -14 -6 -81 -8 -150 l-4
-125 13 125 c7 69 20 195 29 280 10 85 16 182 14 215 -2 44 -8 9 -21 -130z"/>
<path d="M4952 4560 c0 -14 2 -19 5 -12 2 6 2 18 0 25 -3 6 -5 1 -5 -13z"/>
<path d="M7594 4485 c0 -49 1 -71 3 -48 2 23 2 64 0 90 -2 26 -3 8 -3 -42z"/>
<path d="M2421 4534 c0 -11 3 -14 6 -6 3 7 2 16 -1 19 -3 4 -6 -2 -5 -13z"/>
<path d="M1031 4514 c0 -11 3 -14 6 -6 3 7 2 16 -1 19 -3 4 -6 -2 -5 -13z"/>
<path d="M3606 4498 c-3 -18 -10 -76 -16 -128 -7 -52 -18 -115 -26 -139 -15
-48 -17 -166 -5 -336 7 -87 8 -73 9 103 1 111 6 211 11 220 9 17 23 111 36
250 6 64 0 87 -9 30z"/>
<path d="M8371 4514 c0 -11 3 -14 6 -6 3 7 2 16 -1 19 -3 4 -6 -2 -5 -13z"/>
<path d="M1223 4485 c0 -22 2 -30 4 -17 2 12 2 30 0 40 -3 9 -5 -1 -4 -23z"/>
<path d="M6116 4424 c-4 -53 -5 -98 -3 -101 3 -2 8 33 12 79 3 46 9 91 11 101
3 9 1 17 -4 17 -5 0 -12 -43 -16 -96z"/>
<path d="M2531 4494 c0 -11 3 -14 6 -6 3 7 2 16 -1 19 -3 4 -6 -2 -5 -13z"/>
<path d="M4722 4490 c0 -14 2 -19 5 -12 2 6 2 18 0 25 -3 6 -5 1 -5 -13z"/>
<path d="M1672 4480 c0 -14 2 -19 5 -12 2 6 2 18 0 25 -3 6 -5 1 -5 -13z"/>
<path d="M5083 4384 c-6 -63 -8 -128 -3 -142 4 -18 10 21 15 111 4 76 5 140 3
142 -2 3 -9 -47 -15 -111z"/>
<path d="M7251 4453 c-1 -23 3 -44 7 -47 4 -2 6 12 4 32 -5 56 -10 62 -11 15z"/>
<path d="M3540 4453 c0 -14 3 -23 7 -19 10 10 11 46 1 46 -4 0 -8 -12 -8 -27z"/>
<path d="M4941 4464 c0 -11 3 -14 6 -6 3 7 2 16 -1 19 -3 4 -6 -2 -5 -13z"/>
<path d="M8377 4424 c3 -27 9 -74 14 -104 6 -42 7 -34 2 35 -3 50 -9 97 -13
104 -4 8 -6 -7 -3 -35z"/>
<path d="M7222 4435 c0 -16 2 -22 5 -12 2 9 2 23 0 30 -3 6 -5 -1 -5 -18z"/>
<path d="M1183 4400 c0 -30 2 -43 4 -27 2 15 2 39 0 55 -2 15 -4 2 -4 -28z"/>
<path d="M7392 4430 c0 -14 2 -19 5 -12 2 6 2 18 0 25 -3 6 -5 1 -5 -13z"/>
<path d="M7062 4400 c0 -19 2 -27 5 -17 2 9 2 25 0 35 -3 9 -5 1 -5 -18z"/>
<path d="M4976 4388 c-10 -49 -20 -184 -13 -178 6 6 28 202 23 207 -2 2 -6
-11 -10 -29z"/>
<path d="M3549 4378 c4 -28 6 -29 9 -9 2 13 0 27 -5 32 -6 6 -7 -3 -4 -23z"/>
<path d="M2148 4393 c7 -3 16 -2 19 1 4 3 -2 6 -13 5 -11 0 -14 -3 -6 -6z"/>
<path d="M7353 4355 c0 -27 2 -38 4 -22 2 15 2 37 0 50 -2 12 -4 0 -4 -28z"/>
<path d="M812 4370 c0 -14 2 -19 5 -12 2 6 2 18 0 25 -3 6 -5 1 -5 -13z"/>
<path d="M1023 4350 c0 -25 2 -35 4 -22 2 12 2 32 0 45 -2 12 -4 2 -4 -23z"/>
<path d="M7402 4370 c0 -14 3 -45 7 -70 6 -34 9 -37 9 -15 1 17 -3 48 -7 70
-6 25 -9 31 -9 15z"/>
<path d="M450 4332 l5 -47 3 39 c2 21 0 42 -5 47 -4 4 -6 -13 -3 -39z"/>
<path d="M7255 4350 c-3 -5 -1 -10 4 -10 6 0 11 5 11 10 0 6 -2 10 -4 10 -3 0
-8 -4 -11 -10z"/>
<path d="M5631 4304 c0 -11 3 -14 6 -6 3 7 2 16 -1 19 -3 4 -6 -2 -5 -13z"/>
<path d="M7584 4205 c0 -66 1 -92 3 -57 2 34 2 88 0 120 -2 31 -3 3 -3 -63z"/>
<path d="M272 4280 c0 -19 2 -27 5 -17 2 9 2 25 0 35 -3 9 -5 1 -5 -18z"/>
<path d="M1671 4294 c0 -11 3 -14 6 -6 3 7 2 16 -1 19 -3 4 -6 -2 -5 -13z"/>
<path d="M6102 4280 c0 -19 2 -27 5 -17 2 9 2 25 0 35 -3 9 -5 1 -5 -18z"/>
<path d="M1807 4293 c-2 -5 -1 -19 4 -33 7 -23 7 -23 8 8 1 31 -3 40 -12 25z"/>
<path d="M4929 4293 c-8 -96 -47 -400 -54 -423 -2 -8 -7 -31 -9 -50 -2 -19 -7
-60 -11 -90 -12 -94 4 -49 20 56 17 113 44 287 50 323 9 52 17 191 11 191 -3
0 -6 -3 -7 -7z"/>
<path d="M7352 4280 c0 -14 2 -19 5 -12 2 6 2 18 0 25 -3 6 -5 1 -5 -13z"/>
<path d="M1181 4274 c0 -11 3 -14 6 -6 3 7 2 16 -1 19 -3 4 -6 -2 -5 -13z"/>
<path d="M7393 4240 c0 -25 2 -35 4 -22 2 12 2 32 0 45 -2 12 -4 2 -4 -23z"/>
<path d="M9212 4245 c0 -16 2 -22 5 -12 2 9 2 23 0 30 -3 6 -5 -1 -5 -18z"/>
<path d="M1234 4095 c0 -88 2 -123 3 -77 2 46 2 118 0 160 -1 42 -3 5 -3 -83z"/>
<path d="M8401 4219 c1 -19 5 -45 9 -59 6 -16 7 -6 3 30 -7 63 -13 80 -12 29z"/>
<path d="M283 4205 c0 -22 2 -30 4 -17 2 12 2 30 0 40 -3 9 -5 -1 -4 -23z"/>
<path d="M461 4214 c0 -11 3 -14 6 -6 3 7 2 16 -1 19 -3 4 -6 -2 -5 -13z"/>
<path d="M1812 4145 c0 -49 6 -128 13 -175 l14 -85 -6 95 c-3 52 -9 131 -13
175 l-7 80 -1 -90z"/>
<path d="M6092 4210 c0 -14 2 -19 5 -12 2 6 2 18 0 25 -3 6 -5 1 -5 -13z"/>
<path d="M831 4194 c0 -11 3 -14 6 -6 3 7 2 16 -1 19 -3 4 -6 -2 -5 -13z"/>
<path d="M4941 4077 c-7 -67 -14 -132 -17 -144 -2 -13 -1 -23 4 -23 5 0 14 51
22 113 17 153 18 167 10 172 -4 2 -12 -51 -19 -118z"/>
<path d="M461 4174 c0 -11 3 -14 6 -6 3 7 2 16 -1 19 -3 4 -6 -2 -5 -13z"/>
<path d="M832 4145 c0 -16 2 -22 5 -12 2 9 2 23 0 30 -3 6 -5 -1 -5 -18z"/>
<path d="M5076 4155 c-3 -8 -1 -15 4 -15 6 0 10 7 10 15 0 8 -2 15 -4 15 -2 0
-6 -7 -10 -15z"/>
<path d="M2125 4130 c3 -5 8 -10 11 -10 2 0 4 5 4 10 0 6 -5 10 -11 10 -5 0
-7 -4 -4 -10z"/>
<path d="M7796 4098 c9 -57 14 -61 14 -10 0 22 -5 44 -10 47 -7 4 -8 -8 -4
-37z"/>
<path d="M4040 4101 c0 -5 5 -13 10 -16 6 -3 10 -2 10 4 0 5 -4 13 -10 16 -5
3 -10 2 -10 -4z"/>
<path d="M182 4070 c0 -19 2 -27 5 -17 2 9 2 25 0 35 -3 9 -5 1 -5 -18z"/>
<path d="M2423 4060 c0 -25 2 -35 4 -22 2 12 2 32 0 45 -2 12 -4 2 -4 -23z"/>
<path d="M8422 4075 c0 -16 2 -22 5 -12 2 9 2 23 0 30 -3 6 -5 -1 -5 -18z"/>
<path d="M831 4064 c0 -11 3 -14 6 -6 3 7 2 16 -1 19 -3 4 -6 -2 -5 -13z"/>
<path d="M5651 4064 c0 -11 3 -14 6 -6 3 7 2 16 -1 19 -3 4 -6 -2 -5 -13z"/>
<path d="M1013 4025 c0 -27 2 -38 4 -22 2 15 2 37 0 50 -2 12 -4 0 -4 -28z"/>
<path d="M3987 4019 c-24 -31 -24 -32 -5 -51 11 -11 17 -26 14 -34 -10 -25 10
-15 22 12 9 19 9 24 1 18 -9 -5 -10 5 -6 39 4 26 5 47 3 47 -3 0 -16 -14 -29
-31z m10 -31 c-3 -8 -6 -5 -6 6 -1 11 2 17 5 13 3 -3 4 -12 1 -19z"/>
<path d="M4201 4034 c0 -11 3 -14 6 -6 3 7 2 16 -1 19 -3 4 -6 -2 -5 -13z"/>
<path d="M4041 4033 c-1 -6 -4 -20 -7 -30 -5 -17 -5 -17 6 0 6 10 9 23 6 30
-3 9 -5 9 -5 0z"/>
<path d="M5653 4005 c0 -22 2 -30 4 -17 2 12 2 30 0 40 -3 9 -5 -1 -4 -23z"/>
<path d="M7812 4015 c0 -16 2 -22 5 -12 2 9 2 23 0 30 -3 6 -5 -1 -5 -18z"/>
<path d="M8431 4014 c0 -11 3 -14 6 -6 3 7 2 16 -1 19 -3 4 -6 -2 -5 -13z"/>
<path d="M842 4000 c0 -14 2 -19 5 -12 2 6 2 18 0 25 -3 6 -5 1 -5 -13z"/>
<path d="M3752 3960 c0 -30 3 -46 5 -35 3 11 10 26 16 33 7 9 7 16 0 20 -5 4
-13 14 -16 22 -3 8 -5 -10 -5 -40z"/>
<path d="M3935 4000 c3 -5 8 -10 11 -10 2 0 4 5 4 10 0 6 -5 10 -11 10 -5 0
-7 -4 -4 -10z"/>
<path d="M191 3984 c0 -11 3 -14 6 -6 3 7 2 16 -1 19 -3 4 -6 -2 -5 -13z"/>
<path d="M1109 3943 c-4 -98 -4 -114 3 -130 3 -10 7 24 7 75 1 50 -1 92 -4 92
-3 0 -6 -17 -6 -37z"/>
<path d="M848 3943 c5 -21 7 -23 10 -9 2 10 0 22 -6 28 -6 6 -7 0 -4 -19z"/>
<path d="M1013 3900 c0 -41 2 -58 4 -37 2 20 2 54 0 75 -2 20 -4 3 -4 -38z"/>
<path d="M5063 3925 c0 -22 2 -30 4 -17 2 12 2 30 0 40 -3 9 -5 -1 -4 -23z"/>
<path d="M8442 3940 c0 -14 2 -19 5 -12 2 6 2 18 0 25 -3 6 -5 1 -5 -13z"/>
<path d="M2420 3925 c0 -8 9 -10 25 -7 14 2 25 6 25 7 0 1 -11 5 -25 7 -16 3
-25 1 -25 -7z"/>
<path d="M7820 3931 c0 -6 4 -13 10 -16 6 -3 7 1 4 9 -7 18 -14 21 -14 7z"/>
<path d="M862 3885 c0 -16 2 -22 5 -12 2 9 2 23 0 30 -3 6 -5 -1 -5 -18z"/>
<path d="M8431 3905 c-1 -5 -4 -28 -6 -50 -3 -34 -2 -36 6 -15 6 13 8 36 6 50
-2 14 -5 21 -6 15z"/>
<path d="M2562 3870 c0 -19 2 -27 5 -17 2 9 2 25 0 35 -3 9 -5 1 -5 -18z"/>
<path d="M3746 3892 c-2 -4 -6 -63 -9 -132 -2 -69 -3 -105 -1 -80 9 97 13 101
43 35 15 -33 35 -66 43 -73 12 -9 14 -22 8 -55 -11 -58 -3 -60 12 -3 10 38 15
45 31 40 28 -9 67 4 67 22 0 10 -6 14 -15 10 -9 -3 -15 0 -15 9 0 21 -9 19
-29 -6 -17 -21 -18 -21 -44 -5 -44 29 -98 174 -84 227 5 19 2 25 -7 11z"/>
<path d="M3917 3893 c-10 -9 -9 -23 2 -23 5 0 11 7 15 15 5 15 -5 20 -17 8z"/>
<path d="M51 3874 c0 -11 3 -14 6 -6 3 7 2 16 -1 19 -3 4 -6 -2 -5 -13z"/>
<path d="M3780 3875 c-7 -9 -10 -18 -6 -22 3 -3 6 -1 6 6 0 6 10 16 23 21 15
6 17 9 6 9 -9 1 -22 -6 -29 -14z"/>
<path d="M3838 3883 c6 -2 9 -10 6 -15 -4 -7 -2 -8 5 -4 13 9 5 26 -12 25 -9
0 -8 -2 1 -6z"/>
<path d="M3946 3874 c-5 -12 -2 -15 10 -10 8 3 18 6 20 6 3 0 2 5 -1 10 -9 15
-22 12 -29 -6z"/>
<path d="M1830 3870 c0 -8 5 -22 10 -30 9 -13 10 -13 10 0 0 8 -5 22 -10 30
-9 13 -10 13 -10 0z"/>
<path d="M3805 3860 c-3 -5 1 -10 10 -10 9 0 13 5 10 10 -3 6 -8 10 -10 10 -2
0 -7 -4 -10 -10z"/>
<path d="M3641 3844 c0 -11 3 -14 6 -6 3 7 2 16 -1 19 -3 4 -6 -2 -5 -13z"/>
<path d="M5063 3825 c0 -22 2 -30 4 -17 2 12 2 30 0 40 -3 9 -5 -1 -4 -23z"/>
<path d="M1238 3759 c-2 -45 0 -83 5 -86 4 -2 7 34 7 81 0 47 -2 86 -4 86 -3
0 -6 -36 -8 -81z"/>
<path d="M512 3810 c0 -14 2 -19 5 -12 2 6 2 18 0 25 -3 6 -5 1 -5 -13z"/>
<path d="M3633 3770 c0 -30 2 -43 4 -27 2 15 2 39 0 55 -2 15 -4 2 -4 -28z"/>
<path d="M59 3758 c-2 -13 -1 -43 2 -68 5 -41 6 -39 7 23 2 67 -2 87 -9 45z"/>
<path d="M522 3750 c0 -19 2 -27 5 -17 2 9 2 25 0 35 -3 9 -5 1 -5 -18z"/>
<path d="M1011 3764 c0 -11 3 -14 6 -6 3 7 2 16 -1 19 -3 4 -6 -2 -5 -13z"/>
<path d="M3573 3745 c0 -22 2 -30 4 -17 2 12 2 30 0 40 -3 9 -5 -1 -4 -23z"/>
<path d="M5048 3700 c-2 -44 0 -80 4 -80 9 0 15 151 6 156 -3 2 -8 -32 -10
-76z"/>
<path d="M2421 3744 c0 -11 3 -14 6 -6 3 7 2 16 -1 19 -3 4 -6 -2 -5 -13z"/>
<path d="M4969 3753 c-7 -62 -9 -106 -4 -102 7 7 16 109 10 109 -3 0 -5 -3 -6
-7z"/>
<path d="M8411 3744 c0 -11 3 -14 6 -6 3 7 2 16 -1 19 -3 4 -6 -2 -5 -13z"/>
<path d="M3888 3743 c-21 -5 -23 -24 -6 -41 15 -15 38 3 38 29 0 19 -2 20 -32
12z"/>
<path d="M5012 3725 c0 -16 2 -22 5 -12 2 9 2 23 0 30 -3 6 -5 -1 -5 -18z"/>
<path d="M4927 3725 c-4 -8 -2 -17 3 -20 6 -4 10 3 10 14 0 25 -6 27 -13 6z"/>
<path d="M1846 3670 c4 -30 8 -57 10 -59 9 -10 3 86 -6 99 -7 10 -8 -2 -4 -40z"/>
<path d="M323 3675 c0 -22 2 -30 4 -17 2 12 2 30 0 40 -3 9 -5 -1 -4 -23z"/>
<path d="M533 3670 c0 -25 2 -35 4 -22 2 12 2 32 0 45 -2 12 -4 2 -4 -23z"/>
<path d="M3626 3699 c-8 -23 -12 -139 -4 -139 6 0 17 140 11 149 -1 2 -5 -2
-7 -10z"/>
<path d="M7961 3694 c0 -11 3 -14 6 -6 3 7 2 16 -1 19 -3 4 -6 -2 -5 -13z"/>
<path d="M3570 3680 c0 -11 4 -20 9 -20 5 0 7 9 4 20 -3 11 -7 20 -9 20 -2 0
-4 -9 -4 -20z"/>
<path d="M1192 3670 c0 -14 2 -19 5 -12 2 6 2 18 0 25 -3 6 -5 1 -5 -13z"/>
<path d="M4805 3650 c-4 -17 -5 -34 -2 -36 2 -3 7 10 11 27 8 42 0 50 -9 9z"/>
<path d="M5007 3661 c-4 -17 -3 -21 5 -13 5 5 8 16 6 23 -3 8 -7 3 -11 -10z"/>
<path d="M9391 3664 c0 -11 3 -14 6 -6 3 7 2 16 -1 19 -3 4 -6 -2 -5 -13z"/>
<path d="M911 3654 c0 -11 3 -14 6 -6 3 7 2 16 -1 19 -3 4 -6 -2 -5 -13z"/>
<path d="M1043 3605 c0 -38 2 -53 4 -32 2 20 2 52 0 70 -2 17 -4 1 -4 -38z"/>
<path d="M4836 3639 c-7 -37 -8 -64 -2 -58 9 9 24 89 16 89 -4 0 -10 -14 -14
-31z"/>
<path d="M8392 3630 c0 -19 2 -27 5 -17 2 9 2 25 0 35 -3 9 -5 1 -5 -18z"/>
<path d="M1234 3550 c0 -58 1 -81 3 -52 2 28 2 76 0 105 -2 28 -3 5 -3 -53z"/>
<path d="M3582 3630 c0 -14 2 -19 5 -12 2 6 2 18 0 25 -3 6 -5 1 -5 -13z"/>
<path d="M4905 3640 c-3 -5 -2 -10 4 -10 5 0 13 5 16 10 3 6 2 10 -4 10 -5 0
-13 -4 -16 -10z"/>
<path d="M7961 3630 c0 -14 6 -34 14 -44 18 -24 18 -21 0 29 -11 32 -14 35
-14 15z"/>
<path d="M68 3605 c2 -19 6 -35 8 -35 2 0 4 16 4 35 0 19 -4 35 -8 35 -4 0 -6
-16 -4 -35z"/>
<path d="M1191 3624 c0 -11 3 -14 6 -6 3 7 2 16 -1 19 -3 4 -6 -2 -5 -13z"/>
<path d="M9371 3569 c-7 -38 -11 -72 -9 -75 3 -2 11 27 18 66 7 39 11 72 8 75
-3 3 -10 -27 -17 -66z"/>
<path d="M921 3614 c0 -11 3 -14 6 -6 3 7 2 16 -1 19 -3 4 -6 -2 -5 -13z"/>
<path d="M4951 3614 c3 -21 -9 -204 -17 -269 -3 -27 -2 -35 4 -25 8 13 13 59
27 253 1 26 -1 50 -7 53 -5 3 -8 -2 -7 -12z"/>
<path d="M3726 3604 c-3 -9 -2 -23 3 -32 8 -13 10 -10 9 16 -1 36 -3 39 -12
16z"/>
<path d="M5002 3595 c0 -16 2 -22 5 -12 2 9 2 23 0 30 -3 6 -5 -1 -5 -18z"/>
<path d="M1011 3584 c0 -11 3 -14 6 -6 3 7 2 16 -1 19 -3 4 -6 -2 -5 -13z"/>
<path d="M1192 3575 c0 -16 2 -22 5 -12 2 9 2 23 0 30 -3 6 -5 -1 -5 -18z"/>
<path d="M5043 3540 c0 -36 2 -50 4 -32 2 17 2 47 0 65 -2 17 -4 3 -4 -33z"/>
<path d="M8491 3584 c0 -11 3 -14 6 -6 3 7 2 16 -1 19 -3 4 -6 -2 -5 -13z"/>
<path d="M3586 3375 c3 -239 11 -355 26 -355 6 0 7 7 4 16 -12 30 -17 332 -6
339 6 3 9 42 8 88 -1 54 -3 66 -5 35 -6 -73 -22 -57 -26 25 -2 39 -2 -27 -1
-148z"/>
<path d="M7951 3574 c0 -11 3 -14 6 -6 3 7 2 16 -1 19 -3 4 -6 -2 -5 -13z"/>
<path d="M8382 3560 c0 -19 2 -27 5 -17 2 9 2 25 0 35 -3 9 -5 1 -5 -18z"/>
<path d="M936 3555 c11 -48 25 -76 18 -35 -4 19 -10 42 -15 50 -6 10 -7 5 -3
-15z"/>
<path d="M4820 3533 c0 -43 5 -41 13 5 4 18 2 32 -3 32 -6 0 -10 -16 -10 -37z"/>
<path d="M71 3544 c0 -11 3 -14 6 -6 3 7 2 16 -1 19 -3 4 -6 -2 -5 -13z"/>
<path d="M4992 3535 c0 -16 2 -22 5 -12 2 9 2 23 0 30 -3 6 -5 -1 -5 -18z"/>
<path d="M1013 3505 c0 -27 2 -38 4 -22 2 15 2 37 0 50 -2 12 -4 0 -4 -28z"/>
<path d="M3722 3470 l-1 -85 34 37 c19 21 35 43 35 50 0 7 -12 -5 -27 -27
l-28 -40 -6 75 -5 75 -2 -85z"/>
<path d="M7994 3531 c3 -13 0 -34 -6 -45 -10 -20 -9 -20 7 -4 14 13 15 21 6
45 -9 23 -10 23 -7 4z"/>
<path d="M230 3510 c0 -16 4 -30 8 -30 5 0 7 14 4 30 -2 17 -6 30 -8 30 -2 0
-4 -13 -4 -30z"/>
<path d="M347 3465 c3 -33 7 -62 9 -64 8 -9 2 85 -6 104 -5 12 -6 -4 -3 -40z"/>
<path d="M550 3497 c0 -14 5 -29 10 -32 7 -4 8 3 4 22 -9 38 -14 42 -14 10z"/>
<path d="M4781 3504 c0 -11 3 -14 6 -6 3 7 2 16 -1 19 -3 4 -6 -2 -5 -13z"/>
<path d="M8373 3475 c0 -27 2 -38 4 -22 2 15 2 37 0 50 -2 12 -4 0 -4 -28z"/>
<path d="M1872 3465 c0 -16 2 -22 5 -12 2 9 2 23 0 30 -3 6 -5 -1 -5 -18z"/>
<path d="M4810 3448 c0 -24 -2 -61 -5 -83 l-5 -40 9 35 c15 63 21 130 11 130
-6 0 -10 -19 -10 -42z"/>
<path d="M961 3464 c0 -11 3 -14 6 -6 3 7 2 16 -1 19 -3 4 -6 -2 -5 -13z"/>
<path d="M9345 3448 c-4 -18 -11 -51 -17 -73 -9 -33 -12 -37 -18 -20 -4 11 -7
-14 -8 -60 0 -44 -10 -122 -21 -172 -22 -95 -27 -141 -10 -88 12 38 48 205 59
270 4 28 13 76 20 108 6 33 9 61 7 64 -3 2 -8 -11 -12 -29z"/>
<path d="M235 3460 c3 -5 8 -10 11 -10 2 0 4 5 4 10 0 6 -5 10 -11 10 -5 0 -7
-4 -4 -10z"/>
<path d="M5032 3440 c0 -19 2 -27 5 -17 2 9 2 25 0 35 -3 9 -5 1 -5 -18z"/>
<path d="M7950 3460 c-8 -5 -30 -10 -49 -10 -28 0 -199 -30 -209 -36 -2 -2 12
-31 32 -66 77 -138 130 -299 141 -427 4 -43 13 -80 21 -88 10 -11 14 -11 14
-2 0 22 41 99 53 99 9 0 9 2 0 8 -8 5 -6 23 9 67 24 71 36 233 26 353 -8 94
-16 116 -38 102z m-120 -256 c0 -8 -5 -12 -10 -9 -6 4 -8 11 -5 16 9 14 15 11
15 -7z"/>
<path d="M4501 3444 c0 -11 3 -14 6 -6 3 7 2 16 -1 19 -3 4 -6 -2 -5 -13z"/>
<path d="M5451 3434 c0 -11 3 -14 6 -6 3 7 2 16 -1 19 -3 4 -6 -2 -5 -13z"/>
<path d="M9280 3445 c1 -6 7 -21 16 -35 l15 -25 -7 25 c-7 26 -24 52 -24 35z"/>
<path d="M971 3424 c0 -11 3 -14 6 -6 3 7 2 16 -1 19 -3 4 -6 -2 -5 -13z"/>
<path d="M1001 3420 c0 -14 -4 -36 -7 -50 -5 -22 -4 -23 6 -7 6 9 9 32 7 50
-3 25 -4 26 -6 7z"/>
<path d="M1873 3380 c0 -25 2 -35 4 -22 2 12 2 32 0 45 -2 12 -4 2 -4 -23z"/>
<path d="M8363 3385 c0 -22 2 -30 4 -17 2 12 2 30 0 40 -3 9 -5 -1 -4 -23z"/>
<path d="M1223 3355 c0 -33 2 -45 4 -27 2 18 2 45 0 60 -2 15 -4 0 -4 -33z"/>
<path d="M5023 3360 c0 -25 2 -35 4 -22 2 12 2 32 0 45 -2 12 -4 2 -4 -23z"/>
<path d="M9211 3384 c0 -11 3 -14 6 -6 3 7 2 16 -1 19 -3 4 -6 -2 -5 -13z"/>
<path d="M362 3340 c0 -30 3 -80 8 -110 l7 -55 1 50 c0 28 -4 77 -8 110 l-7
60 -1 -55z"/>
<path d="M2430 3378 c0 -10 49 -9 75 1 14 6 5 8 -27 7 -27 0 -48 -4 -48 -8z"/>
<path d="M4981 3374 c0 -11 3 -14 6 -6 3 7 2 16 -1 19 -3 4 -6 -2 -5 -13z"/>
<path d="M4841 3364 c0 -11 3 -14 6 -6 3 7 2 16 -1 19 -3 4 -6 -2 -5 -13z"/>
<path d="M5444 3313 c-12 -38 -18 -95 -18 -165 -1 -59 -5 -103 -9 -99 -12 12
-47 1 -47 -13 0 -7 5 -17 11 -23 20 -20 1 -32 -31 -20 -20 7 -30 18 -30 32 0
16 -2 17 -10 5 -6 -10 -7 2 -3 38 4 37 2 52 -6 52 -7 0 -12 -10 -11 -22 5 -63
-1 -149 -10 -143 -5 3 -10 -1 -10 -10 0 -11 -6 -15 -18 -11 -14 5 -18 1 -18
-16 1 -13 -4 -22 -11 -20 -7 1 -13 -5 -13 -13 0 -21 -27 -19 -39 3 -9 14 -10
13 -11 -12 0 -20 -4 -27 -14 -23 -19 7 -25 -21 -11 -51 7 -16 16 -21 32 -17
12 3 24 0 27 -8 3 -8 9 -6 20 7 15 19 17 19 35 2 15 -14 24 -15 40 -7 13 7 22
8 26 1 3 -5 2 -10 -3 -10 -13 0 -43 -53 -66 -115 -11 -27 -20 -52 -22 -54 -8
-9 -32 21 -28 34 6 15 -43 71 -54 61 -4 -4 1 -12 11 -17 9 -6 17 -15 17 -21 0
-6 -10 -2 -23 10 -13 12 -27 19 -31 15 -4 -4 -9 3 -13 15 -3 12 -10 22 -15 22
-5 0 -6 5 -2 12 5 7 3 8 -5 3 -8 -4 -24 1 -41 13 -18 14 -31 17 -37 11 -7 -7
-10 18 -9 72 1 50 5 84 12 86 6 2 20 10 30 18 18 13 18 14 -3 8 -33 -8 -29 16
12 77 20 29 34 54 33 56 -2 1 -22 -14 -45 -34 -49 -43 -50 -48 -59 -298 l-7
-161 38 -7 c43 -8 238 -25 243 -21 1 1 7 30 13 65 12 74 36 124 78 164 26 25
39 29 73 27 23 -1 49 -6 57 -11 15 -7 17 2 17 88 0 78 4 110 23 162 30 80 93
189 139 238 6 7 12 17 12 20 0 4 -39 18 -87 31 -49 13 -93 25 -100 28 -8 3
-19 -18 -29 -54z m-24 -294 c0 -6 -4 -7 -10 -4 -5 3 -10 11 -10 16 0 6 5 7 10
4 6 -3 10 -11 10 -16z m-402 -25 c-7 -15 -14 -21 -16 -15 -2 7 2 18 8 26 18
22 21 18 8 -11z m289 -6 c-3 -8 -6 -5 -6 6 -1 11 2 17 5 13 3 -3 4 -12 1 -19z
m29 -27 c-10 -11 -15 -24 -12 -30 4 -5 2 -12 -4 -16 -5 -3 -10 3 -10 14 0 31
11 51 28 51 13 0 13 -3 -2 -19z m14 -11 c0 -5 -5 -10 -11 -10 -5 0 -7 5 -4 10
3 6 8 10 11 10 2 0 4 -4 4 -10z m-63 -28 c-21 -23 -22 -36 -3 -29 10 4 13 1 9
-9 -3 -7 -15 -14 -27 -15 -20 0 -20 -1 3 -10 13 -5 21 -12 18 -15 -3 -4 -21 3
-39 15 -23 14 -28 21 -15 21 10 0 21 8 24 18 9 22 26 41 37 42 5 0 2 -8 -7
-18z m-70 -77 c12 -4 14 -8 5 -17 -9 -9 -15 -9 -23 -1 -6 6 -18 9 -25 6 -10
-3 -12 0 -8 10 3 9 12 14 20 11 8 -2 22 -6 31 -9z m-207 -145 c-12 -8 -11 -10
6 -10 11 0 26 6 34 13 12 10 12 9 1 -6 -19 -25 -5 -34 19 -12 19 18 20 17 20
-4 0 -17 4 -21 18 -17 23 8 57 -27 49 -48 -4 -10 -1 -13 7 -10 7 3 16 -1 19
-10 7 -17 -13 -26 -45 -21 -13 2 -47 6 -77 9 -67 8 -73 12 -71 44 1 15 1 29 0
32 -5 13 -6 66 -2 73 2 5 12 2 21 -7 14 -15 14 -18 1 -26z"/>
<path d="M7323 3363 c9 -2 23 -2 30 0 6 3 -1 5 -18 5 -16 0 -22 -2 -12 -5z"/>
<path d="M1310 3326 c-5 -14 -7 -33 -4 -41 5 -11 -1 -15 -24 -15 -58 0 -50
-26 12 -41 29 -7 29 -7 -11 -8 -41 -1 -55 -12 -32 -27 8 -4 7 -9 -2 -15 -26
-16 -32 -9 -26 29 4 20 2 44 -3 52 -7 11 -10 -2 -10 -41 0 -66 -17 -122 -35
-116 -6 3 -18 1 -26 -4 -11 -7 -11 -9 3 -9 9 0 18 -5 20 -12 5 -13 48 52 48
71 0 7 5 9 10 6 6 -3 7 -17 4 -31 -6 -24 -5 -24 39 -28 6 -1 23 -18 37 -38 13
-21 26 -35 29 -32 2 2 -1 10 -7 16 -19 19 -15 47 6 41 10 -2 29 5 43 16 20 17
21 22 10 30 -12 8 -12 12 -2 25 7 8 10 20 6 25 -3 6 -1 20 5 31 9 16 8 22 -5
26 -9 4 -14 13 -11 21 9 24 -3 34 -26 22 -18 -10 -19 -9 -14 19 5 20 2 33 -8
41 -13 11 -17 9 -26 -13z"/>
<path d="M2458 3343 c6 -2 18 -2 25 0 6 3 1 5 -13 5 -14 0 -19 -2 -12 -5z"/>
<path d="M9248 3316 c-21 -26 -28 -46 -28 -77 0 -51 10 -47 12 5 1 20 4 36 8
36 3 0 14 16 23 35 9 19 16 35 14 35 -1 0 -14 -16 -29 -34z"/>
<path d="M572 3320 c0 -14 2 -19 5 -12 2 6 2 18 0 25 -3 6 -5 1 -5 -13z"/>
<path d="M1001 3304 c5 -22 14 -61 19 -87 5 -27 12 -52 15 -57 3 -4 12 -46 20
-92 18 -98 34 -165 45 -193 15 -36 30 -88 30 -103 0 -11 -7 -12 -27 -7 -16 4
-55 8 -88 10 -52 3 -54 3 -20 -4 88 -18 182 -29 215 -26 19 2 56 4 82 4 85 2
123 68 131 231 4 84 3 97 -5 65 -6 -22 -12 -67 -13 -99 -2 -48 -6 -60 -21 -62
-10 -2 -29 -6 -43 -10 -14 -4 -32 -6 -39 -5 -8 1 -19 -3 -26 -9 -14 -11 -46
-4 -46 11 0 5 -11 16 -25 25 -21 13 -28 14 -41 4 -13 -11 -16 -10 -21 9 -4 16
-11 21 -24 18 -14 -4 -20 1 -24 16 -2 12 -13 67 -25 122 -11 55 -24 116 -29
135 -6 19 -15 55 -22 80 -15 56 -31 77 -18 24z m168 -427 c16 4 22 2 18 -4 -4
-6 0 -16 8 -23 21 -17 19 -36 -7 -60 -16 -14 -24 -17 -29 -8 -5 7 1 16 13 22
12 6 23 18 25 26 4 13 3 13 -9 0 -7 -8 -22 -16 -32 -18 -18 -3 -18 -2 -2 13
18 18 21 35 7 35 -5 0 -11 -8 -13 -17 -3 -14 -8 -9 -21 16 -22 44 -22 62 1 34
13 -17 23 -21 41 -16z m201 -53 c0 -16 -16 -19 -25 -4 -8 13 4 32 16 25 5 -4
9 -13 9 -21z m-46 -10 c9 -22 8 -24 -9 -18 -8 4 -15 12 -15 20 0 19 16 18 24
-2z m-45 -30 c2 -2 -8 -4 -22 -4 -18 0 -27 5 -27 15 0 13 4 14 23 4 12 -6 24
-13 26 -15z"/>
<path d="M4833 3318 c-2 -16 1 -18 10 -9 7 7 8 14 1 21 -6 6 -10 2 -11 -12z"/>
<path d="M8352 3305 c0 -16 2 -22 5 -12 2 9 2 23 0 30 -3 6 -5 -1 -5 -18z"/>
<path d="M1882 3300 c0 -14 2 -19 5 -12 2 6 2 18 0 25 -3 6 -5 1 -5 -13z"/>
<path d="M82 3280 c0 -14 2 -19 5 -12 2 6 2 18 0 25 -3 6 -5 1 -5 -13z"/>
<path d="M4756 3278 c-3 -13 -5 -43 -4 -68 1 -39 2 -37 8 20 8 68 7 86 -4 48z"/>
<path d="M583 3255 c0 -22 2 -30 4 -17 2 12 2 30 0 40 -3 9 -5 -1 -4 -23z"/>
<path d="M4791 3274 c0 -11 3 -14 6 -6 3 7 2 16 -1 19 -3 4 -6 -2 -5 -13z"/>
<path d="M4932 3270 c0 -14 2 -19 5 -12 2 6 2 18 0 25 -3 6 -5 1 -5 -13z"/>
<path d="M1940 3229 l-47 -51 4 -126 c4 -129 17 -192 58 -294 13 -31 21 -59
18 -61 -2 -3 -19 -1 -36 4 -18 4 -54 11 -82 14 -27 3 -59 8 -70 10 -11 3 -6
-2 10 -10 17 -8 42 -14 57 -15 15 0 60 -7 100 -16 84 -17 327 -33 335 -21 3 4
11 3 18 -3 7 -6 28 -10 46 -10 19 1 106 -2 193 -6 109 -5 157 -4 153 3 -4 6
-41 10 -88 9 l-80 -1 7 35 c4 19 8 51 10 70 2 19 5 49 8 65 3 17 8 66 12 111
5 68 4 82 -10 87 -8 3 -18 1 -22 -5 -4 -7 -3 -8 4 -4 9 5 12 -8 12 -44 0 -33
-4 -49 -10 -45 -6 4 -24 10 -41 15 -22 7 -29 6 -26 -3 4 -11 9 -13 49 -16 14
-1 16 -9 14 -48 -2 -27 -4 -50 -5 -53 0 -3 -21 -7 -46 -8 -86 -4 -94 -7 -104
-29 -10 -22 -2 -31 13 -16 11 11 48 14 41 3 -3 -5 -1 -10 4 -10 6 0 11 7 11
15 0 15 35 21 43 8 2 -5 2 -2 0 5 -1 8 3 12 9 10 7 -3 12 -12 12 -21 -1 -9 -2
-25 -3 -35 -1 -23 -30 -25 -54 -4 -9 8 -20 12 -24 9 -3 -4 -12 -2 -20 4 -7 6
-14 8 -14 3 -1 -5 -2 -13 -4 -19 -1 -5 -3 -18 -3 -27 -1 -11 -10 -18 -24 -17
-13 0 -35 -3 -50 -7 -37 -9 -36 8 2 24 18 8 30 21 30 32 0 10 4 21 9 24 5 3 9
17 9 31 0 30 -23 33 -38 6 -5 -11 -19 -23 -30 -26 -11 -3 -20 -13 -20 -21 0
-8 -7 -14 -16 -14 -9 0 -12 -5 -8 -11 4 -7 1 -10 -7 -7 -20 7 -17 34 3 30 12
-2 16 2 12 12 -3 8 -1 23 5 34 8 15 6 23 -9 37 -16 14 -18 15 -16 1 1 -8 5
-19 9 -22 11 -11 8 -26 -3 -19 -5 3 -10 -3 -10 -14 0 -27 -16 -35 -30 -14 -9
15 -10 14 -4 -6 5 -21 3 -23 -15 -18 -11 3 -24 1 -27 -4 -3 -5 0 -9 5 -9 6 0
11 -7 11 -15 0 -15 15 -19 55 -16 14 1 16 -1 7 -7 -19 -13 -93 -6 -103 9 -4 8
-6 24 -2 36 4 17 1 23 -11 23 -9 0 -16 -4 -16 -10 0 -5 5 -10 11 -10 5 0 7 -5
3 -11 -4 -8 -9 -7 -15 2 -6 9 -9 10 -9 2 0 -6 7 -19 16 -27 14 -15 13 -16 -8
-12 -16 2 -22 9 -20 22 1 11 5 36 9 58 7 46 -9 47 -35 1 -9 -17 -18 -32 -19
-34 -2 -2 -5 -2 -8 0 -2 3 2 16 9 30 7 14 10 33 6 44 -6 16 -11 13 -40 -23
l-33 -42 -22 48 c-18 38 -19 48 -7 50 10 3 9 8 -7 19 -17 12 -21 24 -19 66 1
29 -2 89 -6 135 -5 53 -5 82 2 82 5 0 12 11 16 23 3 13 19 41 36 62 16 21 30
39 30 41 0 13 -19 -2 -60 -47z m-12 -45 c-7 -15 -14 -21 -16 -15 -2 7 2 18 8
26 18 22 21 18 8 -11z m97 -411 c-9 -22 -13 -43 -14 -65 -1 -25 -21 -22 -21 2
0 12 7 34 15 50 17 32 32 41 20 13z m40 -52 c-8 -17 -20 -31 -26 -31 -7 0 -6
8 3 23 8 12 18 28 22 35 16 27 17 3 1 -27z"/>
<path d="M2387 3223 c-8 -32 -19 -75 -22 -95 -4 -21 -12 -38 -19 -38 -6 0 -4
-4 4 -10 9 -5 19 -5 26 1 8 6 15 0 24 -21 7 -16 16 -30 21 -30 12 0 11 7 -3
30 -11 17 -10 22 2 30 10 7 12 12 4 18 -6 4 -12 42 -13 87 -1 44 -3 81 -5 82
-1 2 -10 -23 -19 -54z m9 -91 c-12 -11 -16 6 -9 39 l8 34 3 -33 c2 -19 1 -36
-2 -40z"/>
<path d="M2561 3264 c0 -11 3 -14 6 -6 3 7 2 16 -1 19 -3 4 -6 -2 -5 -13z"/>
<path d="M1891 3244 c0 -11 3 -14 6 -6 3 7 2 16 -1 19 -3 4 -6 -2 -5 -13z"/>
<path d="M82 3230 c0 -14 2 -19 5 -12 2 6 2 18 0 25 -3 6 -5 1 -5 -13z"/>
<path d="M4782 3225 c0 -16 2 -22 5 -12 2 9 2 23 0 30 -3 6 -5 -1 -5 -18z"/>
<path d="M4823 3205 c0 -22 2 -30 4 -17 2 12 2 30 0 40 -3 9 -5 -1 -4 -23z"/>
<path d="M2185 3215 c4 -11 8 -38 11 -59 2 -22 8 -44 14 -50 6 -6 6 2 0 24 -6
22 -6 38 0 45 7 9 4 20 -11 36 -18 21 -20 21 -14 4z"/>
<path d="M9255 3200 c-4 -16 -11 -32 -16 -35 -18 -12 -10 -26 9 -16 11 6 19
23 20 45 3 44 -4 47 -13 6z"/>
<path d="M4923 3170 c0 -30 2 -43 4 -27 2 15 2 39 0 55 -2 15 -4 2 -4 -28z"/>
<path d="M80 3155 c0 -25 3 -45 8 -45 4 0 7 20 7 45 0 25 -3 45 -7 45 -5 0 -8
-20 -8 -45z"/>
<path d="M592 3175 c0 -16 2 -22 5 -12 2 9 2 23 0 30 -3 6 -5 -1 -5 -18z"/>
<path d="M2533 3175 c0 -8 4 -12 9 -9 4 3 8 -5 7 -18 0 -13 -3 -17 -6 -10 -2
6 -14 12 -26 11 -12 0 -16 -3 -9 -6 14 -6 16 -43 2 -43 -5 0 -10 5 -10 10 0 6
-8 10 -17 10 -12 0 -14 -3 -6 -8 17 -11 -1 -36 -22 -29 -9 4 -13 3 -10 -2 3
-5 1 -12 -4 -15 -5 -4 -3 -19 6 -36 14 -30 33 -40 33 -19 0 6 7 9 15 5 14 -5
31 15 34 39 1 6 11 9 21 7 17 -3 19 2 16 52 -2 30 -7 59 -10 65 -10 16 -23 14
-23 -4z"/>
<path d="M4569 3173 c-13 -15 -12 -15 9 -4 23 12 28 21 13 21 -5 0 -15 -7 -22
-17z"/>
<path d="M4770 3166 c0 -36 -26 -178 -52 -281 -11 -44 -24 -100 -29 -125 -18
-99 -34 -143 -51 -146 -23 -3 -23 9 2 79 11 31 20 62 20 69 -1 20 -16 -10 -35
-69 -16 -50 -35 -70 -35 -38 0 21 -1 27 -11 53 -5 12 -11 34 -13 48 -3 15 -8
29 -11 32 -10 10 -5 -41 10 -99 9 -33 13 -64 10 -68 -7 -13 13 -18 80 -18 33
-1 50 1 38 4 -27 5 -27 4 -7 68 15 49 45 187 64 295 6 30 16 87 23 127 8 40
10 78 6 85 -6 9 -9 3 -9 -16z"/>
<path d="M7170 3156 c-98 -30 -132 -48 -169 -93 -33 -40 -46 -81 -36 -112 12
-38 42 -35 121 12 195 116 332 165 434 154 l45 -5 -24 19 c-65 53 -240 64
-371 25z"/>
<path d="M381 3150 c0 -14 4 -54 9 -90 7 -47 6 -73 -3 -92 -12 -28 -27 -37
-27 -18 0 23 -20 7 -37 -30 -16 -36 -32 -51 -34 -32 0 4 -2 16 -4 27 -2 11 -5
37 -7 58 -1 20 -6 37 -10 37 -5 0 -7 -37 -6 -82 l3 -83 -35 -17 c-28 -15 -31
-18 -13 -18 12 0 25 5 29 11 3 6 21 9 39 7 24 -3 31 0 28 10 -3 7 -12 11 -19
8 -8 -3 -11 0 -7 10 3 7 11 14 19 14 8 0 14 6 14 13 0 7 7 23 16 36 12 16 19
20 27 12 17 -17 27 -13 27 9 0 10 6 23 14 27 12 7 11 24 -4 108 -10 55 -18 89
-19 75z"/>
<path d="M2222 3139 c6 -16 12 -29 13 -27 6 6 -8 58 -16 58 -4 0 -3 -14 3 -31z"/>
<path d="M4998 3147 c-3 -19 -2 -25 4 -19 6 6 8 18 6 28 -3 14 -5 12 -10 -9z"/>
<path d="M4741 3153 c-1 -6 -10 -15 -21 -18 -11 -4 -18 -10 -16 -14 3 -4 -8
-21 -24 -36 -17 -16 -30 -34 -30 -39 0 -6 18 9 40 34 43 49 45 46 29 -47 -9
-53 -14 -62 -25 -52 -12 10 -13 6 -9 -24 4 -20 0 -49 -8 -69 -8 -19 -11 -42
-7 -53 9 -24 12 -18 34 75 29 126 48 230 43 242 -4 9 -6 9 -6 1z"/>
<path d="M8441 3144 c0 -11 3 -14 6 -6 3 7 2 16 -1 19 -3 4 -6 -2 -5 -13z"/>
<path d="M1074 3135 c3 -21 16 -31 16 -12 0 9 -4 18 -9 21 -5 4 -8 -1 -7 -9z"/>
<path d="M5940 3133 c-85 -16 -114 -33 -58 -33 63 0 172 -49 314 -141 154
-100 178 -106 218 -58 29 34 31 47 15 83 -15 32 -153 123 -216 142 -69 21
-186 24 -273 7z"/>
<path d="M5225 3120 c4 -13 11 -58 15 -100 4 -41 8 -61 9 -45 2 26 3 27 11 10
8 -18 9 -17 9 8 1 15 -3 27 -8 27 -6 0 -10 8 -10 18 1 23 -18 92 -26 100 -4 4
-4 -4 0 -18z"/>
<path d="M9245 3123 c-4 -10 -9 -31 -11 -48 -5 -39 11 -13 19 33 7 35 3 42 -8
15z"/>
<path d="M1115 3110 c-3 -5 -2 -10 4 -10 5 0 13 5 16 10 3 6 2 10 -4 10 -5 0
-13 -4 -16 -10z"/>
<path d="M1950 3105 c0 -8 4 -15 10 -15 5 0 7 7 4 15 -4 8 -8 15 -10 15 -2 0
-4 -7 -4 -15z"/>
<path d="M2440 3111 c0 -5 7 -12 16 -15 14 -5 15 -4 4 9 -14 17 -20 19 -20 6z"/>
<path d="M8173 3085 c0 -22 2 -30 4 -17 2 12 2 30 0 40 -3 9 -5 -1 -4 -23z"/>
<path d="M560 3095 c0 -8 2 -15 4 -15 2 0 6 7 10 15 3 8 1 15 -4 15 -6 0 -10
-7 -10 -15z"/>
<path d="M4637 3089 c-32 -24 -121 -138 -114 -145 3 -3 19 15 36 39 17 25 51
63 77 86 49 43 49 56 1 20z"/>
<path d="M4807 3103 c-4 -3 -6 -25 -6 -47 l2 -41 7 45 c8 48 7 54 -3 43z"/>
<path d="M80 3085 c0 -8 4 -15 8 -15 5 0 9 7 9 15 0 8 -4 15 -9 15 -4 0 -8 -7
-8 -15z"/>
<path d="M2237 3093 c-6 -9 29 -61 36 -53 2 3 -4 18 -13 33 -10 16 -20 25 -23
20z"/>
<path d="M604 3035 c3 -37 0 -52 -12 -62 -16 -11 -16 -12 1 -13 9 0 17 -7 17
-16 0 -13 -3 -14 -15 -4 -8 7 -22 10 -30 6 -17 -6 -21 -36 -5 -36 6 0 10 5 10
10 0 6 7 10 15 10 19 0 19 -13 -1 -51 -8 -16 -12 -39 -9 -49 4 -11 2 -20 -3
-20 -6 0 -12 5 -14 11 -3 9 -13 9 -38 1 -19 -5 -54 -12 -78 -15 -42 -5 -43 -5
-26 14 9 10 23 19 29 19 7 0 15 7 19 15 3 8 12 15 20 15 7 0 29 7 47 15 l34
16 -43 -5 c-39 -4 -41 -3 -25 10 10 7 13 14 6 14 -6 0 -23 -13 -36 -30 -14
-16 -31 -30 -37 -30 -6 0 -13 -7 -16 -15 -4 -8 -12 -15 -20 -15 -8 0 -14 -5
-14 -11 0 -6 -6 -9 -14 -6 -8 3 -16 1 -18 -5 -3 -8 -42 -12 -116 -12 -62 -1
-112 -4 -112 -8 0 -9 139 -12 240 -7 36 2 102 4 146 3 l81 -1 12 51 c19 78 24
177 12 216 -11 34 -11 34 -7 -15z"/>
<path d="M7996 3048 c-9 -34 -7 -45 7 -45 8 0 11 11 9 34 -5 39 -8 41 -16 11z"/>
<path d="M8058 3005 c-2 -54 0 -69 13 -76 21 -11 52 -70 69 -132 7 -27 19 -51
26 -54 7 -2 10 -11 7 -19 -3 -8 -10 -11 -16 -7 -6 4 -8 -3 -4 -19 4 -13 2 -41
-4 -62 -12 -45 0 -66 39 -66 14 0 22 3 18 8 -4 4 -12 7 -17 7 -11 0 -12 5 -4
28 4 9 5 27 2 38 -3 12 -2 31 3 43 4 12 6 34 3 49 -4 22 -8 25 -19 16 -9 -7
-14 -8 -14 -1 0 5 7 13 16 16 11 4 18 -1 21 -14 3 -11 9 -20 14 -20 5 0 3 13
-5 29 -10 18 -14 50 -13 84 2 46 0 57 -15 60 -10 3 -18 14 -18 26 0 12 -4 21
-9 21 -5 0 -7 8 -5 18 3 9 1 35 -5 57 -9 38 -9 37 -10 -27 -1 -42 3 -68 10
-68 6 0 3 -7 -5 -16 -18 -17 -38 -11 -30 10 5 14 -14 72 -21 64 -3 -2 0 -19 5
-37 8 -28 7 -31 -5 -21 -9 8 -14 31 -14 67 1 78 -9 77 -13 -2z m85 -137 c6
-22 5 -22 -8 -4 -17 22 -20 40 -6 32 5 -3 11 -16 14 -28z m29 -3 c3 -13 1 -22
-3 -19 -9 5 -13 44 -5 44 2 0 6 -11 8 -25z m-18 -41 c3 -8 2 -12 -4 -9 -6 3
-10 10 -10 16 0 14 7 11 14 -7z"/>
<path d="M501 3053 c0 -6 -4 -20 -7 -30 -5 -14 -4 -15 5 -7 7 7 11 20 8 30 -3
11 -5 14 -6 7z"/>
<path d="M4014 3025 c-6 -33 -24 -59 -24 -36 0 6 -9 11 -21 11 -18 0 -20 -4
-14 -30 4 -19 3 -30 -4 -30 -6 0 -11 5 -11 10 0 6 -10 0 -22 -12 l-21 -21 26
-19 c16 -11 29 -33 33 -53 3 -19 10 -33 14 -30 9 5 23 -25 16 -33 -3 -2 -13 3
-22 12 -9 9 -18 15 -21 13 -6 -6 -12 -44 -15 -88 -1 -29 -6 -39 -19 -39 -10 0
-20 6 -23 13 -5 10 -7 10 -12 0 -3 -7 -17 -13 -30 -13 -17 0 -23 4 -18 13 6
10 4 10 -7 0 -7 -7 -20 -13 -28 -13 -9 -1 -29 -7 -46 -14 -30 -14 -29 -14 20
-10 62 4 143 4 220 0 33 -2 50 -1 38 1 -26 5 -26 6 -14 51 9 30 -1 47 -12 20
-4 -10 -6 -10 -6 0 -1 6 -6 12 -11 12 -7 0 -8 -13 -4 -36 5 -29 4 -36 -7 -32
-10 3 -15 23 -16 64 -1 32 1 50 5 39 5 -13 18 -21 38 -23 25 -2 33 2 47 30
l17 33 -5 -40 c-3 -22 -8 -53 -10 -70 -3 -22 0 -18 10 12 7 23 15 55 17 70 2
15 14 38 28 50 25 23 25 23 4 29 -15 4 -20 11 -17 25 3 10 9 19 14 19 5 0 9 5
9 11 0 6 -20 -1 -44 -15 -40 -23 -89 -38 -60 -18 6 4 13 15 17 25 4 11 18 17
39 18 18 1 25 3 16 6 -25 6 -22 17 7 33 17 9 21 16 14 21 -7 4 -22 -4 -35 -20
-12 -14 -26 -22 -31 -18 -4 5 1 15 12 24 19 15 19 15 -4 8 -22 -7 -23 -5 -16
27 4 18 13 36 19 40 7 5 5 8 -6 8 -12 0 -19 -11 -24 -35z m-5 -62 c1 -1 0 -6
-3 -12 -10 -16 -36 -1 -36 21 0 18 2 19 18 7 9 -7 19 -14 21 -16z m-15 -39 c9
-3 13 -10 10 -15 -8 -14 -34 -11 -50 6 -14 13 -13 15 4 15 11 0 27 -3 36 -6z
m81 -34 c-3 -5 -11 -10 -16 -10 -6 0 -7 5 -4 10 3 6 11 10 16 10 6 0 7 -4 4
-10z m-85 -10 c0 -5 -4 -10 -10 -10 -5 0 -10 5 -10 10 0 6 5 10 10 10 6 0 10
-4 10 -10z m55 -26 c-10 -8 -25 -14 -32 -14 -7 0 -10 6 -7 14 3 7 17 14 31 14
25 0 26 -1 8 -14z m65 2 c0 -2 -7 -7 -16 -10 -8 -3 -12 -2 -9 4 6 10 25 14 25
6z m-76 -37 c-27 -11 -44 -11 -44 0 0 11 40 20 54 12 5 -2 1 -8 -10 -12z m-4
-23 c0 -2 -7 -9 -15 -16 -12 -10 -15 -10 -15 4 0 9 7 16 15 16 8 0 15 -2 15
-4z"/>
<path d="M4841 3044 c0 -11 3 -14 6 -6 3 7 2 16 -1 19 -3 4 -6 -2 -5 -13z"/>
<path d="M4987 3053 c-4 -3 -7 -13 -7 -22 1 -13 3 -13 11 2 11 19 8 33 -4 20z"/>
<path d="M80 2916 c0 -75 4 -136 9 -136 12 0 25 189 16 229 -15 71 -25 36 -25
-93z"/>
<path d="M1090 3041 c0 -5 5 -13 10 -16 6 -3 10 -2 10 4 0 5 -4 13 -10 16 -5
3 -10 2 -10 -4z"/>
<path d="M2010 3043 c0 -5 -18 -19 -40 -33 -22 -13 -40 -28 -40 -34 0 -5 10 0
23 11 41 37 45 33 16 -23 -53 -101 -29 -125 26 -27 30 54 27 69 -4 21 -11 -18
-21 -30 -21 -25 0 11 47 84 60 92 6 3 8 11 5 16 -7 11 -25 12 -25 2z"/>
<path d="M3753 2985 c-41 -50 -54 -73 -34 -61 5 4 11 1 13 -5 2 -6 19 16 37
50 18 35 31 64 29 66 -1 1 -22 -21 -45 -50z m-3 -36 c-7 -11 -14 -18 -17 -15
-3 3 0 12 7 21 18 21 23 19 10 -6z"/>
<path d="M4040 3021 c-6 -12 -7 -21 -1 -21 10 0 24 30 17 37 -2 3 -9 -5 -16
-16z"/>
<path d="M4510 3030 c0 -5 5 -10 11 -10 5 0 7 5 4 10 -3 6 -8 10 -11 10 -2 0
-4 -4 -4 -10z"/>
<path d="M4627 3023 c-4 -3 -7 -11 -7 -17 0 -6 5 -5 12 2 6 6 9 14 7 17 -3 3
-9 2 -12 -2z"/>
<path d="M4911 3014 c0 -11 3 -14 6 -6 3 7 2 16 -1 19 -3 4 -6 -2 -5 -13z"/>
<path d="M5178 3004 c-4 -74 -3 -92 8 -102 9 -8 10 6 6 56 -5 73 -11 92 -14
46z"/>
<path d="M463 3005 c-3 -9 -3 -18 -1 -21 3 -3 8 4 11 16 6 23 -1 27 -10 5z"/>
<path d="M2234 2999 c-9 -11 -12 -19 -7 -19 6 0 13 6 16 13 5 14 55 15 79 2
11 -7 11 -5 0 6 -19 21 -68 20 -88 -2z"/>
<path d="M8321 3004 c0 -11 3 -14 6 -6 3 7 2 16 -1 19 -3 4 -6 -2 -5 -13z"/>
<path d="M1220 3000 c0 -5 5 -10 10 -10 6 0 10 5 10 10 0 6 -4 10 -10 10 -5 0
-10 -4 -10 -10z"/>
<path d="M2025 2960 c0 -53 11 -66 21 -26 7 31 2 69 -11 73 -6 2 -10 -18 -10
-47z"/>
<path d="M2345 3000 c3 -5 8 -10 11 -10 2 0 4 5 4 10 0 6 -5 10 -11 10 -5 0
-7 -4 -4 -10z"/>
<path d="M4510 2988 c0 -19 2 -20 10 -8 13 19 13 30 0 30 -5 0 -10 -10 -10
-22z"/>
<path d="M4790 2989 c0 -11 4 -18 10 -14 5 3 7 12 3 20 -7 21 -13 19 -13 -6z"/>
<path d="M2190 2974 c-11 -31 -49 -54 -87 -54 -13 0 -26 -7 -29 -15 -4 -10
-14 -13 -30 -9 -15 4 -24 2 -24 -5 0 -6 6 -11 14 -11 8 0 21 -3 29 -6 9 -3 16
3 20 16 4 16 11 20 25 16 30 -10 84 25 94 59 10 39 1 46 -12 9z"/>
<path d="M2375 2990 c-3 -5 -1 -10 4 -10 6 0 11 5 11 10 0 6 -2 10 -4 10 -3 0
-8 -4 -11 -10z"/>
<path d="M3850 2961 c-24 -22 -39 -44 -35 -50 3 -6 1 -10 -5 -9 -6 2 -19 -7
-27 -19 -13 -20 -13 -23 -1 -23 15 0 48 30 48 45 0 4 16 28 36 51 44 54 38 56
-16 5z"/>
<path d="M1105 2980 c-3 -5 -1 -10 4 -10 6 0 11 5 11 10 0 6 -2 10 -4 10 -3 0
-8 -4 -11 -10z"/>
<path d="M4581 2950 c-12 -22 -18 -40 -13 -40 10 0 46 69 40 76 -3 2 -15 -14
-27 -36z"/>
<path d="M7979 2969 c-4 -19 -2 -26 7 -25 17 3 31 16 16 16 -6 0 -12 8 -14 18
-3 12 -6 9 -9 -9z"/>
<path d="M2414 2961 c20 -22 26 -25 26 -13 0 4 -10 13 -22 21 -23 14 -23 14
-4 -8z"/>
<path d="M440 2960 c0 -5 5 -10 10 -10 6 0 10 5 10 10 0 6 -4 10 -10 10 -5 0
-10 -4 -10 -10z"/>
<path d="M4151 2954 c0 -11 3 -14 6 -6 3 7 2 16 -1 19 -3 4 -6 -2 -5 -13z"/>
<path d="M4620 2958 c0 -4 11 -8 25 -8 14 0 25 4 25 10 0 5 -11 9 -25 8 -14
-1 -25 -6 -25 -10z"/>
<path d="M9247 2963 c-10 -9 -9 -53 1 -53 5 0 9 14 10 30 1 32 -1 34 -11 23z"/>
<path d="M3622 2920 c0 -14 2 -19 5 -12 2 6 2 18 0 25 -3 6 -5 1 -5 -13z"/>
<path d="M4525 2910 c3 -14 8 -44 12 -68 5 -38 8 -41 22 -29 19 17 71 28 71
16 0 -5 7 -9 15 -9 24 0 17 28 -7 32 -16 2 -24 11 -26 27 l-4 25 -19 -25 c-11
-13 -17 -16 -13 -7 4 12 1 15 -13 12 -13 -4 -22 3 -31 23 -11 26 -11 26 -7 3z"/>
<path d="M1355 2900 c-3 -5 -1 -10 4 -10 6 0 11 5 11 10 0 6 -2 10 -4 10 -3 0
-8 -4 -11 -10z"/>
<path d="M3717 2899 c7 -7 15 -10 18 -7 3 3 -2 9 -12 12 -14 6 -15 5 -6 -5z"/>
<path d="M4188 2870 c-3 -16 -1 -30 4 -30 4 0 8 14 8 30 0 17 -2 30 -4 30 -2
0 -6 -13 -8 -30z"/>
<path d="M5019 2893 c0 -5 -2 -18 -3 -30 -1 -12 1 -20 5 -18 10 7 17 55 8 55
-5 0 -9 -3 -10 -7z"/>
<path d="M8243 2889 c3 -8 13 -39 23 -69 20 -66 34 -85 33 -44 0 37 -32 117
-49 122 -7 3 -10 -1 -7 -9z"/>
<path d="M1970 2879 c0 -5 5 -7 10 -4 6 3 10 8 10 11 0 2 -4 4 -10 4 -5 0 -10
-5 -10 -11z"/>
<path d="M7478 2883 c7 -3 16 -2 19 1 4 3 -2 6 -13 5 -11 0 -14 -3 -6 -6z"/>
<path d="M2485 2870 c3 -5 8 -10 11 -10 2 0 4 5 4 10 0 6 -5 10 -11 10 -5 0
-7 -4 -4 -10z"/>
<path d="M3915 2870 c-3 -5 1 -10 9 -10 9 0 16 5 16 10 0 6 -4 10 -9 10 -6 0
-13 -4 -16 -10z"/>
<path d="M7546 2865 c-11 -8 -15 -15 -10 -15 6 0 19 7 30 15 10 8 15 14 9 14
-5 0 -19 -6 -29 -14z"/>
<path d="M3890 2860 c0 -6 7 -13 15 -17 24 -9 27 1 5 15 -13 8 -20 8 -20 2z"/>
<path d="M4762 2845 c0 -16 2 -22 5 -12 2 9 2 23 0 30 -3 6 -5 -1 -5 -18z"/>
<path d="M4895 2861 c-3 -5 -1 -12 5 -16 5 -3 10 1 10 9 0 18 -6 21 -15 7z"/>
<path d="M7247 2846 c-43 -13 -82 -27 -87 -32 -4 -5 -3 -25 3 -44 15 -44 32
-46 117 -17 l65 22 3 48 c4 55 6 55 -101 23z"/>
<path d="M9245 2840 c3 -5 8 -10 11 -10 2 0 4 5 4 10 0 6 -5 10 -11 10 -5 0
-7 -4 -4 -10z"/>
<path d="M3706 2768 c-4 -43 -11 -78 -15 -78 -10 0 -11 -39 0 -45 12 -8 26 28
28 73 1 7 5 11 10 8 5 -3 11 1 14 9 4 9 1 12 -9 8 -12 -4 -14 0 -9 18 3 13 1
38 -3 54 -8 26 -10 19 -16 -47z"/>
<path d="M9335 2824 c-11 -8 -19 -18 -18 -22 1 -4 -1 -9 -3 -11 -2 -2 -4 2 -4
9 0 10 -5 9 -18 -3 -24 -22 -30 -21 -36 6 -3 12 -3 -5 0 -38 6 -76 18 -88 40
-41 10 20 21 36 25 36 3 0 12 14 19 30 7 17 16 30 21 30 5 0 9 5 9 10 0 14
-12 12 -35 -6z m-25 -37 c0 -2 -8 -19 -17 -38 -16 -31 -18 -32 -21 -11 -4 23
13 52 29 52 5 0 9 -2 9 -3z"/>
<path d="M8210 2822 c0 -5 7 -26 15 -45 8 -20 12 -43 9 -52 -4 -8 -2 -21 3
-28 5 -6 10 -23 11 -37 1 -14 3 -34 5 -44 4 -37 -22 -28 -29 11 -11 61 -23 74
-24 26 0 -42 22 -83 45 -83 14 0 33 53 39 110 3 25 3 36 0 25 -11 -36 -22 -37
-26 -2 -2 20 0 33 4 31 11 -7 10 -2 -6 38 -15 35 -46 69 -46 50z"/>
<path d="M4202 2795 c0 -16 2 -22 5 -12 2 9 2 23 0 30 -3 6 -5 -1 -5 -18z"/>
<path d="M6050 2790 c-7 -17 -10 -44 -6 -64 7 -37 8 -37 102 -51 40 -6 42 -5
59 31 25 54 11 77 -62 97 -78 22 -79 22 -93 -13z"/>
<path d="M4095 2795 c-5 -11 -10 -24 -13 -30 -3 -5 3 -3 13 7 9 9 15 22 12 30
-3 9 -7 7 -12 -7z"/>
<path d="M4661 2794 c0 -11 3 -14 6 -6 3 7 2 16 -1 19 -3 4 -6 -2 -5 -13z"/>
<path d="M601 2797 c3 -4 68 -8 145 -11 76 -2 155 -7 174 -11 30 -5 32 -5 16
6 -19 12 -346 27 -335 16z"/>
<path d="M7114 2784 c-18 -14 -18 -15 4 -4 12 6 22 13 22 15 0 8 -5 6 -26 -11z"/>
<path d="M2160 2780 c0 -5 5 -10 10 -10 6 0 10 5 10 10 0 6 -4 10 -10 10 -5 0
-10 -4 -10 -10z"/>
<path d="M4746 2759 c-13 -85 -16 -139 -8 -139 5 0 12 37 16 81 7 82 2 120 -8
58z"/>
<path d="M4946 2768 c-29 -136 -31 -158 -16 -158 6 0 10 6 9 13 -2 6 1 30 5
53 9 53 15 114 10 114 -2 0 -6 -10 -8 -22z"/>
<path d="M8010 2786 c0 -2 8 -10 18 -17 15 -13 16 -12 3 4 -13 16 -21 21 -21
13z"/>
<path d="M4814 2766 c-3 -8 -4 -25 -2 -38 3 -17 5 -13 9 15 5 38 2 47 -7 23z"/>
<path d="M4132 2718 l-2 -56 -40 5 c-26 4 -40 2 -40 -6 0 -6 12 -11 28 -12 15
0 36 -3 47 -5 34 -9 85 -10 85 -2 0 3 -15 8 -32 10 -32 3 -33 4 -39 63 l-6 60
-1 -57z"/>
<path d="M7064 2748 l-19 -23 23 19 c12 11 22 21 22 23 0 8 -8 2 -26 -19z"/>
<path d="M4892 2740 c0 -14 2 -19 5 -12 2 6 2 18 0 25 -3 6 -5 1 -5 -13z"/>
<path d="M50 2726 c-15 -41 -31 -108 -27 -112 2 -3 10 17 16 43 9 35 15 43 22
33 6 -11 9 -4 9 23 0 43 -7 47 -20 13z"/>
<path d="M194 2730 c3 -14 6 -33 6 -42 0 -10 5 -18 11 -18 13 0 2 60 -13 75
-7 7 -9 2 -4 -15z"/>
<path d="M1639 2737 c5 -5 26 -7 47 -5 l39 3 -47 5 c-26 3 -43 1 -39 -3z"/>
<path d="M9387 2738 c-2 -7 -26 -41 -51 -75 -46 -60 -51 -83 -20 -83 11 0 12
-4 5 -19 -6 -10 -8 -21 -5 -23 8 -9 54 4 48 13 -3 5 -10 7 -15 4 -5 -4 -9 -2
-9 3 0 6 7 12 15 16 8 3 15 12 15 21 0 8 5 15 10 15 6 0 10 5 10 11 0 8 -5 8
-15 -1 -8 -7 -15 -9 -15 -4 0 5 -7 0 -15 -10 -10 -13 -19 -16 -24 -10 -6 5 2
22 20 44 24 28 29 31 24 13 -5 -18 -3 -22 10 -17 10 4 13 13 9 26 -3 11 -2 18
3 15 4 -3 9 12 9 34 1 41 -1 47 -9 27z"/>
<path d="M1730 2730 c0 -5 7 -10 16 -10 8 0 12 5 9 10 -3 6 -10 10 -16 10 -5
0 -9 -4 -9 -10z"/>
<path d="M2718 2690 c-7 -43 -4 -59 8 -48 3 3 4 26 2 49 l-3 44 -7 -45z"/>
<path d="M4226 2695 c7 -51 11 -65 21 -65 5 0 7 18 5 40 -2 22 -8 38 -12 35
-5 -3 -11 3 -14 12 -2 10 -2 0 0 -22z"/>
<path d="M6600 2716 c0 -8 4 -17 9 -20 5 -4 7 3 4 14 -6 23 -13 26 -13 6z"/>
<path d="M83 2684 c-17 -55 -16 -65 2 -30 9 17 15 39 13 50 -2 15 -7 8 -15
-20z"/>
<path d="M7138 2713 c7 -3 16 -2 19 1 4 3 -2 6 -13 5 -11 0 -14 -3 -6 -6z"/>
<path d="M297 2688 c-4 -12 -4 -24 -2 -27 3 -2 5 1 5 8 0 7 4 10 9 7 5 -4 7 3
4 14 -7 25 -9 25 -16 -2z"/>
<path d="M4770 2681 c0 -40 -18 -84 -30 -76 -5 3 -10 2 -10 -3 0 -5 11 -12 24
-14 23 -5 25 -2 24 34 0 21 2 42 6 45 3 4 6 -16 6 -43 1 -30 7 -57 17 -69 12
-16 14 -16 10 -3 -5 13 2 19 28 24 30 5 35 10 34 33 -2 23 -2 24 -6 4 -5 -24
-23 -32 -24 -10 0 6 -4 3 -9 -8 -8 -19 -9 -19 -9 2 -1 12 2 29 5 38 6 13 9 14
16 3 6 -9 8 -5 6 12 -4 35 -21 28 -32 -14 -15 -55 -30 -44 -22 17 5 36 3 47
-4 37 -8 -13 -10 -13 -10 3 0 9 -4 17 -10 17 -5 0 -10 -13 -10 -29z"/>
<path d="M6823 2630 c0 -41 2 -58 4 -37 2 20 2 54 0 75 -2 20 -4 3 -4 -38z"/>
<path d="M8541 2684 c0 -11 3 -14 6 -6 3 7 2 16 -1 19 -3 4 -6 -2 -5 -13z"/>
<path d="M117 2668 c-3 -12 -1 -29 4 -37 8 -13 9 -13 6 -1 -2 8 0 25 4 38 5
12 5 22 0 22 -5 0 -11 -10 -14 -22z"/>
<path d="M4876 2673 c-6 -14 -5 -15 5 -6 7 7 10 15 7 18 -3 3 -9 -2 -12 -12z"/>
<path d="M9272 2660 c0 -14 2 -19 5 -12 2 6 2 18 0 25 -3 6 -5 1 -5 -13z"/>
<path d="M203 2647 c5 -15 37 -22 37 -9 0 5 -9 12 -21 15 -13 3 -19 1 -16 -6z"/>
<path d="M2744 2648 c-3 -5 31 -8 75 -8 44 0 82 4 85 9 3 5 -30 8 -75 7 -44 0
-83 -4 -85 -8z"/>
<path d="M2920 2650 c0 -5 5 -10 11 -10 5 0 7 5 4 10 -3 6 -8 10 -11 10 -2 0
-4 -4 -4 -10z"/>
<path d="M2968 2653 c7 -3 16 -2 19 1 4 3 -2 6 -13 5 -11 0 -14 -3 -6 -6z"/>
<path d="M3475 2650 c3 -5 10 -10 16 -10 5 0 9 5 9 10 0 6 -7 10 -16 10 -8 0
-12 -4 -9 -10z"/>
<path d="M3193 2643 c9 -2 23 -2 30 0 6 3 -1 5 -18 5 -16 0 -22 -2 -12 -5z"/>
<path d="M3258 2643 c7 -3 16 -2 19 1 4 3 -2 6 -13 5 -11 0 -14 -3 -6 -6z"/>
<path d="M3373 2643 c9 -2 25 -2 35 0 9 3 1 5 -18 5 -19 0 -27 -2 -17 -5z"/>
<path d="M90 2630 c0 -5 5 -10 10 -10 6 0 10 5 10 10 0 6 -4 10 -10 10 -5 0
-10 -4 -10 -10z"/>
<path d="M4417 2628 c-7 -4 9 -8 36 -8 26 0 47 2 47 4 0 8 -71 12 -83 4z"/>
<path d="M8586 2624 c-4 -9 -4 -19 -1 -22 2 -3 7 3 11 12 4 9 4 19 1 22 -2 3
-7 -3 -11 -12z"/>
<path d="M4518 2613 c6 -2 18 -2 25 0 6 3 1 5 -13 5 -14 0 -19 -2 -12 -5z"/>
<path d="M6611 2594 c0 -11 3 -14 6 -6 3 7 2 16 -1 19 -3 4 -6 -2 -5 -13z"/>
<path d="M4915 2580 c3 -5 11 -10 16 -10 6 0 7 5 4 10 -3 6 -11 10 -16 10 -6
0 -7 -4 -4 -10z"/>
<path d="M8567 2577 c-4 -10 -10 -17 -14 -16 -23 4 -32 -2 -26 -18 6 -15 7
-15 14 3 6 15 8 13 9 -11 l1 -30 14 30 c11 24 14 26 15 10 1 -11 4 -15 6 -9 3
6 1 21 -4 34 -7 20 -10 21 -15 7z"/>
<path d="M8620 2578 c0 -7 -7 -26 -15 -42 -18 -34 -13 -45 10 -22 18 18 29 76
15 76 -6 0 -10 -6 -10 -12z"/>
<path d="M9270 2566 c0 -26 16 -43 28 -31 4 4 2 10 -4 12 -7 2 -10 13 -7 23 3
11 0 20 -6 20 -6 0 -11 -11 -11 -24z"/>
<path d="M8338 2563 c7 -3 16 -2 19 1 4 3 -2 6 -13 5 -11 0 -14 -3 -6 -6z"/>
<path d="M6592 2472 c-7 -52 -21 -119 -33 -150 -11 -31 -22 -64 -25 -72 -3 -8
2 -24 11 -35 15 -19 15 -19 4 6 -9 21 -7 33 9 65 25 49 54 191 50 241 -2 27
-7 11 -16 -55z"/>
<path d="M8858 2543 c7 -3 16 -2 19 1 4 3 -2 6 -13 5 -11 0 -14 -3 -6 -6z"/>
<path d="M8898 2543 c7 -3 16 -2 19 1 4 3 -2 6 -13 5 -11 0 -14 -3 -6 -6z"/>
<path d="M169 2510 c-7 -35 -4 -48 7 -38 3 4 4 21 2 40 l-3 33 -6 -35z"/>
<path d="M240 2520 c0 -22 -16 -27 -23 -7 -2 6 -7 9 -11 6 -3 -3 -4 -14 0 -23
8 -21 40 -21 48 0 9 24 7 44 -4 44 -5 0 -10 -9 -10 -20z"/>
<path d="M6823 2520 c-1 -11 2 -22 8 -25 5 -4 9 5 9 19 0 30 -15 35 -17 6z"/>
<path d="M8099 2503 c-12 -21 -32 -49 -43 -63 l-21 -25 26 23 c24 21 76 102
65 102 -2 0 -14 -17 -27 -37z"/>
<path d="M8521 2498 c-1 -22 2 -25 22 -20 17 5 18 7 5 10 -9 2 -19 11 -21 20
-3 10 -5 6 -6 -10z"/>
<path d="M5106 2495 c-9 -26 -7 -32 5 -12 6 10 9 21 6 23 -2 3 -7 -2 -11 -11z"/>
<path d="M5251 2484 c0 -11 3 -14 6 -6 3 7 2 16 -1 19 -3 4 -6 -2 -5 -13z"/>
<path d="M7888 2493 c6 -2 18 -2 25 0 6 3 1 5 -13 5 -14 0 -19 -2 -12 -5z"/>
<path d="M8150 2476 c-15 -42 -24 -106 -13 -106 10 0 37 119 29 127 -3 3 -10
-6 -16 -21z"/>
<path d="M8195 2488 c-2 -7 -8 -30 -14 -51 -9 -35 -8 -37 6 -25 15 12 16 10 9
-15 -7 -31 16 -49 37 -28 8 8 6 11 -8 11 -19 1 -19 1 -2 14 9 7 17 19 17 26 0
10 -3 10 -15 0 -13 -11 -15 -7 -12 29 3 40 -8 66 -18 39z"/>
<path d="M9220 2489 c0 -8 -14 -37 -31 -63 -16 -27 -28 -50 -25 -53 2 -3 10 6
17 19 6 12 18 26 25 31 14 8 29 65 20 74 -3 4 -6 0 -6 -8z"/>
<path d="M8585 2480 c-3 -5 -2 -10 4 -10 5 0 13 5 16 10 3 6 2 10 -4 10 -5 0
-13 -4 -16 -10z"/>
<path d="M6832 2455 c0 -16 2 -22 5 -12 2 9 2 23 0 30 -3 6 -5 -1 -5 -18z"/>
<path d="M9150 2459 c-6 -11 -10 -25 -7 -32 2 -6 9 3 15 21 12 36 8 42 -8 11z"/>
<path d="M9233 2426 c-18 -26 -28 -46 -23 -46 6 0 10 3 10 8 0 4 12 20 26 35
14 15 24 32 22 38 -2 6 -18 -10 -35 -35z"/>
<path d="M5124 2438 l-19 -23 23 19 c12 11 22 21 22 23 0 8 -8 2 -26 -19z"/>
<path d="M5396 2438 c18 -25 53 -53 58 -46 2 2 -16 19 -38 38 -33 29 -37 30
-20 8z"/>
<path d="M5051 2434 c0 -11 3 -14 6 -6 3 7 2 16 -1 19 -3 4 -6 -2 -5 -13z"/>
<path d="M5153 2435 c-3 -9 -3 -18 -1 -21 3 -3 8 4 11 16 6 23 -1 27 -10 5z"/>
<path d="M5171 2410 c-13 -11 -19 -20 -13 -20 5 0 15 7 22 15 7 9 19 14 27 11
7 -3 13 -1 13 4 0 16 -23 11 -49 -10z"/>
<path d="M6841 2399 c-1 -15 13 -53 30 -85 25 -48 28 -63 20 -81 -6 -13 -7
-23 -2 -23 13 0 22 45 14 67 -3 10 -14 30 -25 44 -10 15 -22 44 -27 65 -7 31
-9 34 -10 13z"/>
<path d="M9361 2374 c0 -11 3 -14 6 -6 3 7 2 16 -1 19 -3 4 -6 -2 -5 -13z"/>
<path d="M9296 2365 c-3 -9 -6 -22 -5 -28 0 -7 5 -1 10 12 5 13 8 26 5 28 -2
2 -6 -3 -10 -12z"/>
<path d="M9377 2349 c-9 -17 -17 -36 -17 -42 0 -7 9 6 21 27 24 45 21 58 -4
15z"/>
<path d="M4970 2342 c6 -13 14 -21 18 -18 3 4 -2 14 -12 24 -18 16 -18 16 -6
-6z"/>
<path d="M7010 2355 c0 -5 5 -17 10 -25 5 -8 10 -10 10 -5 0 6 -5 17 -10 25
-5 8 -10 11 -10 5z"/>
<path d="M8047 2318 c11 -13 30 -42 42 -65 12 -24 24 -43 27 -43 3 0 4 3 2 8
-2 4 -10 21 -18 37 -22 47 -50 85 -62 85 -7 0 -2 -10 9 -22z"/>
<path d="M9321 2324 c0 -11 3 -14 6 -6 3 7 2 16 -1 19 -3 4 -6 -2 -5 -13z"/>
<path d="M9385 2320 c-3 -5 -1 -10 4 -10 6 0 11 5 11 10 0 6 -2 10 -4 10 -3 0
-8 -4 -11 -10z"/>
<path d="M7939 2303 c-13 -16 -12 -17 4 -4 16 13 21 21 13 21 -2 0 -10 -8 -17
-17z"/>
<path d="M7892 2270 c0 -14 2 -19 5 -12 2 6 2 18 0 25 -3 6 -5 1 -5 -13z"/>
<path d="M7077 2269 c7 -7 15 -10 18 -7 3 3 -2 9 -12 12 -14 6 -15 5 -6 -5z"/>
<path d="M6615 2230 c-4 -7 2 -9 19 -4 17 4 36 -1 59 -15 44 -27 51 -27 72 7
l18 27 -25 -23 -26 -23 -33 20 c-37 23 -74 27 -84 11z"/>
<path d="M6790 2236 c0 -2 7 -7 16 -10 8 -3 12 -2 9 4 -6 10 -25 14 -25 6z"/>
<path d="M6333 2223 c-7 -2 -13 -16 -13 -29 0 -22 4 -25 27 -22 31 3 44 35 21
49 -14 10 -17 10 -35 2z"/>
<path d="M6838 2213 c7 -3 16 -2 19 1 4 3 -2 6 -13 5 -11 0 -14 -3 -6 -6z"/>
<path d="M9337 2213 c-4 -3 -7 -13 -7 -21 0 -12 3 -12 15 -2 8 7 15 16 15 21
0 11 -14 12 -23 2z"/>
<path d="M9380 2209 c0 -5 5 -7 10 -4 6 3 10 8 10 11 0 2 -4 4 -10 4 -5 0 -10
-5 -10 -11z"/>
<path d="M7316 2198 c-27 -10 -28 -13 -23 -53 4 -29 2 -48 -9 -63 -8 -12 -11
-22 -5 -22 17 0 31 36 31 78 0 47 9 52 86 52 45 0 56 -4 69 -24 9 -13 18 -33
20 -45 3 -18 -1 -21 -35 -21 -43 0 -100 -44 -100 -77 0 -27 25 -101 53 -158
22 -45 23 -51 8 -62 -9 -8 -11 -13 -6 -12 24 3 34 -2 29 -16 -4 -8 -10 -15
-16 -15 -5 0 -7 4 -4 8 13 22 -92 17 -116 -5 -17 -15 -19 -27 -15 -75 5 -53
-3 -73 -18 -48 -7 12 -114 84 -159 107 -29 15 -43 19 -89 22 -10 0 -15 5 -12
11 3 6 -1 7 -9 4 -11 -4 -16 0 -17 12 0 11 -3 14 -6 7 -6 -15 -33 -17 -33 -3
0 6 5 10 10 10 6 0 10 5 10 10 0 16 -27 12 -34 -6 -3 -8 -10 -12 -16 -9 -5 3
-10 1 -10 -4 0 -16 -127 -14 -133 2 -4 9 -8 8 -16 -3 -5 -8 -13 -11 -17 -7 -4
4 -12 3 -19 -3 -7 -6 -24 -5 -47 2 -38 12 -121 2 -99 -11 10 -6 9 -10 -3 -14
-9 -4 -16 -2 -16 2 0 5 -7 11 -14 14 -10 4 -13 1 -9 -9 3 -7 0 -14 -6 -14 -7
0 -31 -9 -55 -19 -23 -11 -48 -21 -56 -23 -8 -2 -18 -7 -22 -13 -5 -6 -12 -4
-18 5 -8 13 -10 13 -10 -2 0 -9 -23 -29 -53 -47 -30 -17 -71 -44 -92 -61 l-39
-31 -9 23 c-10 27 -46 68 -61 68 -5 0 2 -12 16 -27 14 -16 29 -37 32 -49 4
-14 28 -30 72 -48 78 -32 95 -29 25 3 -48 23 -48 24 -30 42 11 11 21 19 24 19
3 0 26 13 52 29 113 70 249 115 370 124 60 5 61 4 54 -17 -5 -11 -6 -27 -3
-35 3 -9 9 -1 16 20 l11 34 83 0 c164 0 273 -29 384 -103 39 -25 50 -52 23
-52 -8 0 -15 -4 -15 -9 0 -14 41 0 47 15 3 8 12 14 20 14 12 0 14 12 10 60 -3
47 -1 63 13 75 27 24 70 19 99 -13 14 -15 23 -24 19 -19 -3 5 3 24 13 42 l20
33 -30 49 c-26 42 -71 143 -71 160 0 3 7 0 16 -7 13 -12 14 -10 2 15 -11 25
-10 29 17 51 23 18 39 23 67 20 21 -3 40 -1 42 3 9 15 -15 81 -36 101 -24 22
-101 26 -152 8z m-679 -414 c-3 -3 -12 -4 -19 -1 -8 3 -5 6 6 6 11 1 17 -2 13
-5z"/>
<path d="M7620 2170 c6 -11 13 -20 16 -20 2 0 0 9 -6 20 -6 11 -13 20 -16 20
-2 0 0 -9 6 -20z"/>
<path d="M5297 2173 c-4 -3 -7 -13 -7 -22 1 -13 3 -13 11 2 11 19 8 33 -4 20z"/>
<path d="M7591 2154 c0 -11 3 -14 6 -6 3 7 2 16 -1 19 -3 4 -6 -2 -5 -13z"/>
<path d="M9286 2161 c-8 -13 4 -42 15 -36 4 3 6 12 3 20 -4 8 3 15 18 18 21 4
21 4 -4 6 -15 0 -29 -3 -32 -8z"/>
<path d="M6750 2154 c0 -6 7 -19 16 -30 14 -18 14 -18 3 6 -14 31 -19 36 -19
24z"/>
<path d="M7932 2135 c0 -16 2 -22 5 -12 2 9 2 23 0 30 -3 6 -5 -1 -5 -18z"/>
<path d="M5347 2120 c-10 -16 -16 -30 -14 -30 2 0 13 14 25 30 13 17 19 30 14
30 -4 0 -16 -13 -25 -30z"/>
<path d="M5276 2115 c-9 -26 -7 -32 5 -12 6 10 9 21 6 23 -2 3 -7 -2 -11 -11z"/>
<path d="M9320 2126 c0 -2 9 -6 20 -9 11 -3 20 -1 20 4 0 5 -9 9 -20 9 -11 0
-20 -2 -20 -4z"/>
<path d="M8710 2110 c0 -5 9 -14 20 -20 23 -12 26 -5 6 16 -17 16 -26 18 -26
4z"/>
<path d="M8777 2096 c-4 -10 -5 -21 -2 -24 9 -9 17 6 13 25 -3 17 -4 17 -11
-1z"/>
<path d="M9240 2095 c0 -8 5 -17 12 -21 8 -5 9 -2 5 10 -6 14 -3 16 13 11 11
-3 27 -2 36 3 13 7 7 10 -24 10 -29 1 -42 -3 -42 -13z"/>
<path d="M5791 2084 c0 -11 3 -14 6 -6 3 7 2 16 -1 19 -3 4 -6 -2 -5 -13z"/>
<path d="M8816 2084 c-9 -24 -2 -26 12 -4 7 11 8 20 3 20 -5 0 -12 -7 -15 -16z"/>
<path d="M6074 2069 c-17 -10 -43 -42 -58 -69 l-27 -50 25 -31 c27 -32 37
-104 15 -111 -6 -2 -11 -16 -11 -30 0 -31 47 -138 61 -138 5 0 -3 25 -20 56
-33 64 -35 76 -13 109 20 31 11 91 -19 123 l-22 23 25 46 c14 26 35 53 48 61
21 14 22 14 22 -25 0 -50 18 -66 88 -83 58 -13 114 -7 132 15 11 13 15 13 29
-4 35 -40 189 -52 236 -17 14 10 27 11 54 2 20 -5 38 -13 41 -17 9 -11 62 -21
55 -9 -3 5 1 10 10 10 9 0 13 -4 10 -10 -3 -5 1 -10 10 -10 10 0 13 5 9 12 -5
8 -2 9 10 5 10 -4 20 -7 22 -7 3 0 2 -4 -1 -10 -3 -6 1 -7 9 -4 21 8 20 20 -1
29 -16 6 -14 9 10 21 15 8 27 19 27 24 0 5 -17 -1 -37 -13 -42 -24 -132 -28
-183 -7 -22 9 -34 9 -56 -3 -16 -8 -45 -17 -65 -21 -42 -7 -135 10 -146 27 -4
7 -10 35 -14 62 l-6 50 -2 -42 c-1 -54 -32 -77 -101 -76 -103 1 -139 30 -128
103 5 35 4 35 -38 9z"/>
<path d="M7942 2070 c0 -14 2 -19 5 -12 2 6 2 18 0 25 -3 6 -5 1 -5 -13z"/>
<path d="M5260 2071 c0 -6 4 -13 10 -16 6 -3 7 1 4 9 -7 18 -14 21 -14 7z"/>
<path d="M7921 2064 c0 -11 3 -14 6 -6 3 7 2 16 -1 19 -3 4 -6 -2 -5 -13z"/>
<path d="M8850 2065 c-7 -9 -10 -18 -7 -21 3 -3 10 4 17 15 13 25 8 27 -10 6z"/>
<path d="M9185 2050 c7 -30 1 -35 -34 -30 -9 1 -12 -4 -8 -14 4 -9 -1 -20 -11
-25 -9 -6 -13 -11 -8 -11 5 0 24 10 43 21 28 17 34 27 30 46 -3 18 1 27 17 33
19 8 18 9 -7 9 -27 1 -28 -1 -22 -29z"/>
<path d="M7516 2057 c3 -10 9 -15 12 -12 3 3 0 11 -7 18 -10 9 -11 8 -5 -6z"/>
<path d="M8170 2061 c0 -6 4 -13 10 -16 6 -3 7 1 4 9 -7 18 -14 21 -14 7z"/>
<path d="M7175 2035 c-48 -14 -69 -24 -53 -24 30 -1 117 26 133 40 11 11 17
12 -80 -16z"/>
<path d="M7480 2040 c6 -11 13 -20 16 -20 2 0 0 9 -6 20 -6 11 -13 20 -16 20
-2 0 0 -9 6 -20z"/>
<path d="M9328 2053 c-10 -2 -18 -9 -18 -15 0 -5 -7 -8 -15 -5 -18 7 -27 -6
-19 -27 8 -20 18 -20 38 0 15 14 16 14 16 -1 0 -12 4 -14 19 -5 26 13 31 13
31 -5 0 -8 3 -15 8 -15 11 0 9 64 -3 72 -11 8 -29 8 -57 1z"/>
<path d="M9222 2031 c-10 -6 -9 -10 7 -14 14 -3 21 0 21 9 0 16 -9 18 -28 5z"/>
<path d="M7070 2021 c0 -5 -8 -17 -17 -27 -12 -12 -13 -16 -4 -13 19 7 47 49
32 49 -6 0 -11 -4 -11 -9z"/>
<path d="M7948 2006 c-3 -14 -2 -30 2 -36 4 -6 7 5 8 25 2 40 -4 46 -10 11z"/>
<path d="M8197 1959 c4 -13 8 -18 11 -10 2 7 -1 18 -6 23 -8 8 -9 4 -5 -13z"/>
<path d="M9302 1964 c-8 -14 -22 -16 -80 -12 -87 6 -116 -7 -36 -16 72 -8 204
-5 210 6 2 4 -5 12 -17 18 -15 8 -19 9 -15 1 4 -6 0 -11 -9 -11 -8 0 -18 7
-21 15 -8 20 -21 19 -32 -1z"/>
<path d="M6880 1960 c34 -11 60 -11 35 0 -11 5 -29 8 -40 8 -16 0 -15 -2 5 -8z"/>
<path d="M7961 1924 c0 -16 4 -38 9 -49 6 -13 7 -5 3 25 -7 53 -13 66 -12 24z"/>
<path d="M6858 1918 c6 -6 18 -8 28 -6 14 3 12 5 -9 10 -19 3 -25 2 -19 -4z"/>
<path d="M6920 1913 c0 -14 -6 -20 -17 -18 -10 1 -12 0 -5 -2 6 -3 12 -15 12
-29 0 -13 4 -24 8 -24 4 0 8 12 7 28 0 23 4 27 25 25 14 -1 18 0 10 3 -8 4
-21 13 -27 22 -12 14 -13 13 -13 -5z"/>
<path d="M9010 1914 c0 -3 7 -18 14 -33 15 -27 14 -28 -10 -23 -26 5 -31 -7
-12 -26 18 -18 33 -15 18 4 -12 13 -10 14 14 2 16 -7 23 -14 16 -16 -18 -6
-60 -44 -60 -54 0 -4 11 -8 25 -8 22 0 24 -3 15 -19 -16 -30 -13 -46 5 -31 8
7 13 16 10 20 -2 4 2 16 11 26 14 18 15 18 4 -3 -6 -14 -7 -23 -1 -23 6 0 6
-12 1 -31 -12 -41 -13 -42 -44 -28 -30 14 -39 9 -30 -14 8 -21 37 -30 74 -22
31 7 42 25 14 25 -8 0 -13 4 -10 9 3 5 9 33 12 61 4 38 2 55 -8 61 -10 7 -7
13 12 28 31 24 39 18 14 -10 -19 -21 -19 -22 3 -15 12 4 24 2 28 -4 4 -7 0
-10 -10 -8 -13 2 -18 -5 -21 -24 -3 -32 12 -38 21 -8 4 13 15 20 31 20 32 0
31 18 -2 31 l-27 10 23 24 23 25 -22 0 c-12 0 -20 -4 -17 -9 4 -5 -3 -7 -14
-4 -18 5 -19 7 -4 17 10 7 14 22 12 37 l-4 24 -14 -28 c-13 -27 -14 -27 -34
-9 -22 19 -56 35 -56 26z m65 -73 c-7 -7 -45 39 -44 54 0 6 11 -3 25 -19 14
-15 22 -31 19 -35z m-35 -61 c-24 -15 -36 -11 -14 4 10 8 21 12 24 10 2 -3 -2
-9 -10 -14z m-16 -125 c16 -12 17 -15 4 -15 -8 0 -21 7 -28 15 -16 19 -1 19
24 0z"/>
<path d="M5146 1873 c-6 -14 -5 -15 5 -6 7 7 10 15 7 18 -3 3 -9 -2 -12 -12z"/>
<path d="M5230 1875 c-7 -9 -10 -18 -7 -21 3 -3 10 4 17 15 13 25 8 27 -10 6z"/>
<path d="M8370 1856 c0 -2 11 -6 25 -8 13 -3 22 -1 19 3 -5 9 -44 13 -44 5z"/>
<path d="M6850 1832 c0 -15 32 -24 44 -12 7 7 7 10 -1 10 -6 0 -18 3 -27 6 -9
3 -16 2 -16 -4z"/>
<path d="M7015 1804 c17 -16 32 -28 34 -27 7 4 -21 34 -43 45 -14 7 -11 2 9
-18z"/>
<path d="M8428 1815 c-3 -11 -9 -29 -13 -40 -3 -11 1 -7 10 8 9 16 15 33 12
40 -2 6 -6 3 -9 -8z"/>
<path d="M6555 1810 c3 -5 8 -10 11 -10 2 0 4 5 4 10 0 6 -5 10 -11 10 -5 0
-7 -4 -4 -10z"/>
<path d="M6808 1803 c7 -3 16 -2 19 1 4 3 -2 6 -13 5 -11 0 -14 -3 -6 -6z"/>
<path d="M9135 1690 c-3 -5 -16 -10 -28 -11 -12 0 -16 -3 -9 -6 6 -2 9 -10 5
-16 -3 -7 6 -1 20 12 15 14 27 26 27 28 0 7 -9 3 -15 -7z"/>
<path d="M5485 1664 l-30 -26 33 22 c17 12 32 23 32 26 0 7 -4 5 -35 -22z"/>
<path d="M7460 1676 c0 -2 8 -10 18 -17 15 -13 16 -12 3 4 -13 16 -21 21 -21
13z"/>
<path d="M8706 1621 c-11 -23 -16 -44 -13 -48 8 -7 39 65 35 79 -2 6 -12 -8
-22 -31z"/>
<path d="M8620 1631 c0 -6 5 -13 10 -16 17 -10 12 -48 -5 -41 -8 3 -15 1 -15
-4 0 -5 -8 -6 -17 -3 -16 6 -16 5 -4 -10 15 -19 36 -24 25 -6 -4 7 -1 10 6 7
7 -2 14 -12 16 -22 2 -11 -2 -16 -11 -12 -7 2 -21 -2 -32 -10 -17 -14 -16 -15
12 -9 34 8 57 24 50 35 -7 12 13 23 26 15 7 -5 4 -15 -9 -29 -11 -11 -23 -32
-26 -46 l-7 -25 15 25 15 25 1 -33 c0 -19 4 -31 10 -27 5 3 6 20 3 38 l-6 32
25 -17 c32 -21 42 -13 21 18 -9 14 -14 26 -12 27 2 2 17 11 32 21 34 21 29 34
-5 15 -38 -21 -47 -19 -75 22 -27 38 -43 49 -43 30z"/>
<path d="M7310 1611 c0 -6 4 -13 10 -16 6 -3 7 1 4 9 -7 18 -14 21 -14 7z"/>
<path d="M6318 1498 c5 -5 16 -8 23 -6 8 3 3 7 -10 11 -17 4 -21 3 -13 -5z"/>
<path d="M9336 1474 c-4 -9 -4 -19 -1 -22 2 -3 7 3 11 12 4 9 4 19 1 22 -2 3
-7 -3 -11 -12z"/>
<path d="M6408 1473 c7 -3 16 -2 19 1 4 3 -2 6 -13 5 -11 0 -14 -3 -6 -6z"/>
<path d="M8724 1450 c-17 -4 -36 -10 -42 -14 -6 -3 -30 -2 -54 3 -23 6 -44 9
-45 7 -2 -1 7 -13 18 -25 15 -16 28 -21 43 -16 19 6 47 12 71 14 13 2 50 30
44 34 -2 2 -18 1 -35 -3z m-74 -30 c0 -13 -11 -13 -30 0 -12 8 -11 10 8 10 12
0 22 -4 22 -10z"/>
<path d="M5635 1439 c-4 -6 -5 -12 -2 -15 2 -3 7 2 10 11 7 17 1 20 -8 4z"/>
<path d="M9220 1446 c0 -2 8 -10 18 -17 15 -13 16 -12 3 4 -13 16 -21 21 -21
13z"/>
<path d="M9300 1440 c-9 -6 -10 -10 -3 -10 6 0 15 5 18 10 8 12 4 12 -15 0z"/>
<path d="M8299 1424 c-6 -7 -14 -42 -16 -76 -5 -58 -3 -68 27 -118 18 -30 47
-76 66 -103 19 -26 34 -49 34 -50 0 -2 -24 -20 -53 -41 -64 -43 -175 -177
-246 -296 -28 -47 -55 -92 -60 -100 -8 -13 -11 -12 -25 5 -9 11 -23 45 -33 75
-22 71 -29 79 -123 134 -90 52 -132 100 -174 200 -16 36 -31 66 -35 66 -4 0
-77 -71 -163 -157 -408 -412 -676 -666 -817 -772 l-73 -55 -64 70 c-35 38 -78
84 -96 103 l-32 34 27 23 c15 13 27 26 27 30 0 4 -13 -4 -28 -19 l-28 -27 -71
77 c-39 43 -115 132 -168 198 -54 66 -101 121 -106 123 -5 2 -9 9 -9 15 0 6
-8 20 -19 31 -10 12 -40 53 -67 92 -27 39 -68 92 -91 117 -39 42 -44 45 -75
37 -60 -14 -137 -62 -432 -273 -44 -32 -98 -70 -120 -84 -21 -14 -71 -58 -110
-99 -40 -41 -77 -74 -82 -74 -5 0 -27 36 -49 80 -72 152 -190 303 -308 397
l-39 31 46 56 c55 68 69 93 62 112 -3 9 -1 12 4 9 6 -4 20 14 31 40 20 44 20
75 1 75 -21 0 -77 -47 -82 -70 -4 -17 -23 -33 -65 -54 -39 -21 -116 -86 -239
-201 -100 -94 -235 -215 -301 -270 -173 -145 -407 -376 -520 -514 -101 -124
-153 -201 -136 -201 5 0 23 22 39 48 109 178 568 632 831 823 20 14 35 31 34
36 -1 6 3 10 10 9 7 0 57 30 113 67 l101 68 48 -32 c55 -37 178 -159 202 -201
10 -15 21 -28 25 -28 4 0 8 -6 8 -13 0 -8 9 -22 20 -32 12 -10 18 -25 16 -32
-3 -7 1 -19 9 -27 8 -8 15 -19 15 -24 0 -6 7 -12 15 -16 8 -3 15 -10 15 -16 0
-6 -5 -8 -10 -5 -6 3 -17 -1 -26 -9 -8 -9 -22 -16 -30 -16 -13 0 -13 -2 0 -21
10 -15 12 -28 6 -44 -5 -13 -6 -26 -2 -31 4 -4 -1 -4 -12 0 -12 4 -17 2 -14
-6 25 -67 31 -89 24 -95 -4 -4 -15 1 -23 12 -14 17 -15 18 -9 2 3 -10 6 -21 6
-23 0 -2 10 -4 23 -5 l22 0 -22 -9 c-13 -5 -23 -14 -23 -20 0 -6 -4 -9 -9 -6
-12 8 -34 -21 -26 -34 3 -5 -6 -15 -22 -21 -16 -7 -23 -13 -15 -16 8 -3 4 -12
-14 -25 -19 -16 -22 -23 -13 -29 11 -6 10 -9 -4 -15 -9 -3 -14 -11 -11 -16 5
-7 -5 -9 -25 -6 -35 5 -39 1 -15 -17 15 -10 11 -14 -25 -28 -46 -19 -55 -32
-16 -25 27 6 28 3 15 -27 -5 -11 -9 -15 -9 -9 -1 7 -10 14 -21 17 -15 4 -20 0
-20 -13 0 -11 -9 -25 -20 -33 -11 -8 -17 -17 -13 -21 4 -4 -3 -9 -15 -13 -12
-3 -22 -9 -22 -14 0 -5 734 -9 1725 -9 949 0 1725 1 1725 3 0 2 -11 39 -24 83
-13 43 -31 128 -41 187 l-18 109 24 51 c13 29 40 79 61 113 21 34 38 68 38 77
0 9 6 22 13 29 8 7 22 30 32 51 9 20 21 34 26 31 5 -3 9 4 9 15 0 12 4 21 9
21 5 0 11 9 14 19 3 11 26 35 51 53 27 18 44 38 42 45 -4 8 3 13 19 13 13 0
27 5 31 11 4 8 0 9 -15 4 -12 -4 -21 -2 -21 4 0 11 15 15 34 12 5 -1 13 4 18
11 7 10 11 10 14 1 4 -8 16 -10 33 -7 22 5 34 0 55 -21 19 -19 32 -25 49 -20
17 5 19 4 7 -4 -11 -8 -12 -11 -2 -11 20 0 39 -23 34 -39 -3 -10 0 -11 9 -5 8
5 20 9 28 11 8 1 18 8 22 15 6 9 9 10 9 1 0 -7 -10 -18 -22 -24 -12 -6 -31
-20 -42 -30 -23 -22 -32 -24 -39 -6 -4 8 -6 7 -6 -4 -1 -16 17 -39 31 -39 4 0
5 6 3 13 -3 7 5 12 22 13 16 1 22 -1 16 -3 -7 -3 -13 -9 -13 -14 0 -5 11 -4
26 1 34 13 37 13 30 -6 -4 -11 3 -19 24 -27 16 -6 30 -15 30 -19 0 -16 29 -7
44 13 8 12 18 19 23 16 4 -2 18 -1 30 4 23 8 22 35 0 50 -6 4 -3 16 7 30 13
19 16 20 16 6 0 -20 16 -23 23 -4 4 7 6 6 6 -5 1 -9 -5 -19 -11 -21 -8 -3 -6
-6 5 -6 9 -1 17 -8 17 -17 0 -8 5 -12 10 -9 6 4 8 11 5 16 -4 5 -1 9 5 9 6 0
10 -8 9 -17 -3 -30 1 -43 10 -40 12 3 64 -73 56 -81 -3 -4 -10 0 -15 8 -6 8
-10 10 -10 4 0 -7 16 -24 36 -39 19 -15 33 -29 31 -31 -2 -3 11 -21 29 -41 40
-43 36 -59 -4 -20 -16 15 -31 27 -35 27 -11 0 -8 -20 6 -35 27 -31 35 -42 41
-61 9 -29 45 -49 60 -33 8 9 7 11 -6 6 -11 -4 -15 -2 -12 7 3 7 -2 16 -10 19
-15 6 -23 37 -10 37 11 0 103 -104 104 -117 0 -6 6 -13 14 -15 12 -3 12 -6 -1
-23 -12 -15 -14 -16 -10 -3 8 23 -41 57 -54 37 -5 -9 -3 -17 6 -22 22 -12 18
-30 -5 -24 -11 3 -20 1 -20 -3 0 -5 17 -10 38 -12 37 -3 40 -7 26 -43 -8 -19
-7 -19 10 -3 22 22 24 22 22 1 -1 -13 7 -19 27 -21 15 -2 27 1 27 7 0 6 -10
11 -22 11 -15 0 -19 3 -10 8 9 6 7 14 -9 31 -12 12 -19 24 -16 27 10 10 33 -8
45 -36 8 -17 20 -30 27 -30 14 0 29 -29 20 -38 -3 -3 -5 0 -5 6 0 17 -22 15
-46 -3 -19 -15 -19 -15 3 -34 16 -14 19 -21 10 -30 -8 -8 -8 -11 1 -11 7 0 12
-4 12 -10 0 -5 -7 -7 -15 -4 -8 4 -15 2 -15 -4 0 -18 35 -72 46 -72 7 0 14 -9
17 -20 6 -24 56 -38 67 -20 6 10 12 10 26 -4 14 -15 15 -19 3 -27 -9 -6 0 -9
29 -9 43 0 51 7 30 28 -9 9 -9 12 0 12 8 0 12 17 12 45 0 29 -4 45 -12 45 -9
0 -10 3 -2 8 6 4 12 49 13 106 2 89 1 98 -13 87 -9 -7 -23 -38 -33 -67 -17
-56 -30 -63 -49 -26 -6 12 -19 31 -29 42 -19 21 -19 21 16 15 22 -4 31 -3 24
4 -5 5 -23 11 -40 13 -28 3 -73 43 -68 60 2 5 -4 8 -12 8 -9 0 -12 6 -9 15 4
8 1 15 -6 15 -7 0 -10 7 -6 15 3 10 -1 15 -12 15 -12 0 -14 2 -4 8 9 6 6 12
-10 21 -13 6 -32 30 -42 51 -10 22 -27 47 -37 56 -16 14 -17 20 -6 32 10 13 9
14 -1 8 -14 -8 -49 11 -83 45 -13 13 -17 27 -13 44 4 15 2 25 -5 25 -6 0 -11
-7 -11 -17 0 -26 -15 -4 -15 23 -1 13 5 26 12 28 16 7 43 -3 43 -15 0 -5 11
-9 24 -9 23 0 51 -22 41 -32 -3 -3 -1 -17 5 -32 11 -30 30 -27 30 5 0 10 4 19
8 19 5 0 6 19 3 43 -5 35 -10 43 -30 45 -19 3 -21 6 -10 13 12 8 12 10 0 18
-7 5 -11 13 -7 19 4 6 -8 8 -32 5 -28 -4 -34 -2 -26 7 6 6 21 11 33 11 11 -1
30 -1 41 -2 19 0 30 -19 11 -19 -5 0 -4 -11 2 -25 7 -14 15 -25 20 -25 11 0 9
18 -3 25 -15 9 8 35 31 35 10 0 21 5 25 11 3 6 20 19 38 30 l31 19 -49 0 c-62
0 -156 -25 -220 -58 -28 -14 -57 -25 -63 -24 -7 2 -13 -2 -13 -8 0 -6 -5 -8
-10 -5 -8 5 -8 11 0 20 8 10 7 14 -2 18 -10 4 -10 6 0 6 14 1 17 31 2 31 -5 0
-10 8 -10 18 0 13 2 14 9 4 6 -10 10 -7 13 12 3 14 1 23 -3 20 -5 -3 -9 0 -9
5 0 6 4 11 10 11 5 0 7 7 4 15 -4 8 -2 15 3 15 5 0 17 16 26 35 9 19 13 35 9
35 -17 0 -53 -63 -75 -131 l-24 -72 -32 46 c-18 26 -37 47 -44 47 -8 0 -9 2
-1 8 6 4 17 25 24 47 14 45 27 65 42 65 6 0 6 -6 -1 -14 -19 -23 4 -27 28 -5
16 15 19 24 12 33 -8 9 -7 13 4 13 8 0 15 -4 15 -9 0 -5 4 -7 10 -3 5 3 6 13
3 22 -4 11 -3 14 6 9 7 -5 22 3 36 18 26 28 23 28 94 -9 22 -12 32 -13 29 -5
-2 7 -32 27 -66 44 -53 26 -63 36 -72 67 -19 69 -46 79 -445 178 -118 29 -152
32 -166 15z m26 -14 c3 -5 1 -10 -4 -10 -6 0 -11 5 -11 10 0 6 2 10 4 10 3 0
8 -4 11 -10z m98 -26 c-7 -19 -10 -18 -16 5 -3 13 -1 18 9 14 7 -2 10 -11 7
-19z m67 2 c0 -11 -19 -15 -25 -6 -3 5 1 10 9 10 9 0 16 -2 16 -4z m60 -26 c0
-5 -4 -10 -10 -10 -5 0 -10 5 -10 10 0 6 5 10 10 10 6 0 10 -4 10 -10z m-3802
-181 c8 -12 9 -18 3 -15 -5 4 -11 -4 -13 -16 -2 -13 -9 -22 -16 -20 -8 1 -11
-2 -7 -8 3 -6 -1 -17 -9 -26 -9 -8 -16 -12 -16 -8 0 5 -5 3 -11 -3 -6 -6 -17
-9 -24 -7 -7 3 -16 1 -20 -5 -3 -6 -16 -11 -29 -11 -12 0 -60 -25 -107 -55
l-84 -56 100 99 c55 54 118 106 140 115 22 10 47 22 55 27 22 13 24 12 38 -11z
m4172 -19 c0 -5 -4 -10 -10 -10 -5 0 -10 5 -10 10 0 6 5 10 10 10 6 0 10 -4
10 -10z m-30 -10 c0 -5 -5 -10 -11 -10 -5 0 -7 5 -4 10 3 6 8 10 11 10 2 0 4
-4 4 -10z m-300 -55 c8 -9 9 -15 2 -15 -6 0 -13 4 -17 10 -3 5 -21 7 -41 4
-22 -2 -33 0 -29 6 10 15 71 12 85 -5z m-116 -21 c3 -8 2 -12 -4 -9 -6 3 -10
10 -10 16 0 14 7 11 14 -7z m-3800 -25 c-19 -18 -22 -18 -34 -5 -8 11 -9 16
-1 17 26 3 30 4 37 12 4 4 10 5 13 2 3 -3 -4 -15 -15 -26z m3886 21 c0 -5 -2
-10 -4 -10 -3 0 -8 5 -11 10 -3 6 -1 10 4 10 6 0 11 -4 11 -10z m57 -33 c-2
-7 3 -21 12 -31 9 -11 10 -16 3 -12 -7 4 -19 2 -27 -4 -11 -9 -15 -9 -15 -1 0
6 4 11 9 11 4 0 6 11 3 25 -2 14 -9 25 -14 25 -5 0 -6 -4 -3 -10 3 -5 1 -18
-5 -27 -11 -16 -11 -16 -6 -1 3 10 1 20 -4 23 -6 4 -5 12 3 19 14 16 51 2 44
-17z m-119 -5 c-10 -2 -18 -13 -19 -25 0 -12 -3 -16 -6 -9 -2 6 -15 12 -29 12
-22 0 -23 1 -8 18 11 13 24 17 47 13 19 -3 25 -6 15 -9z m-93 -42 c3 -5 1 -10
-4 -10 -6 0 -11 5 -11 10 0 6 2 10 4 10 3 0 8 -4 11 -10z m35 -4 c0 -3 -4 -8
-10 -11 -5 -3 -10 -1 -10 4 0 6 5 11 10 11 6 0 10 -2 10 -4z m48 -31 c-8 -8
-48 8 -42 16 3 5 14 4 25 -2 12 -6 19 -12 17 -14z m-88 5 c0 -12 -8 -12 -35 0
-18 8 -17 9 8 9 15 1 27 -3 27 -9z m-648 -54 c-4 -7 -8 -5 -10 7 -2 9 -8 17
-13 17 -5 0 -9 5 -9 12 0 6 8 3 20 -7 11 -10 16 -23 12 -29z m957 6 c12 -12
12 -15 0 -23 -10 -6 -16 -2 -20 14 -3 12 -11 21 -17 20 -7 -2 -12 4 -12 13 0
17 11 12 49 -24z m-152 -38 c-3 -3 -12 -4 -19 -1 -8 3 -5 6 6 6 11 1 17 -2 13
-5z m173 -8 c0 -2 3 -11 6 -20 4 -10 1 -16 -10 -16 -10 0 -13 5 -9 17 4 11 3
14 -5 9 -7 -4 -12 -2 -12 3 0 6 7 11 15 11 8 0 15 -2 15 -4z m250 -81 c0 -9
-5 -13 -10 -10 -6 4 -8 11 -5 16 9 14 -17 10 -38 -5 -11 -9 -15 -20 -11 -32 6
-17 5 -17 -9 1 -22 27 -21 35 3 35 11 0 19 6 18 13 -2 6 3 11 10 10 6 -2 12 2
12 8 0 6 7 4 15 -5 8 -8 15 -22 15 -31z m-285 25 c3 -5 -1 -10 -10 -10 -9 0
-13 5 -10 10 3 6 8 10 10 10 2 0 7 -4 10 -10z m341 -9 c0 -11 -8 -22 -18 -24
-10 -3 -16 -1 -13 3 3 5 0 12 -6 16 -8 4 -7 9 2 15 22 14 35 10 35 -10z
m-1080 -22 c3 -6 -5 -3 -20 6 -14 10 -26 19 -26 22 0 7 39 -17 46 -28z m775
-12 c-10 -9 -11 -8 -5 6 3 10 9 15 12 12 3 -3 0 -11 -7 -18z m-33 -4 c-10 -2
-18 -9 -18 -14 0 -5 -4 -9 -10 -9 -5 0 -10 7 -10 15 0 10 9 15 28 14 16 -1 20
-3 10 -6z m-2748 -93 c0 -5 -2 -10 -4 -10 -3 0 -8 5 -11 10 -3 6 -1 10 4 10 6
0 11 -4 11 -10z m-66 -62 c7 -5 4 -8 -6 -8 -12 0 -18 7 -17 23 0 15 2 17 6 7
3 -8 11 -18 17 -22z m-939 -18 c-3 -5 -12 -10 -18 -10 -7 0 -6 4 3 10 19 12
23 12 15 0z m1141 1 c-4 -5 -1 -12 4 -14 6 -3 5 -4 -2 -3 -15 3 -23 26 -8 26
6 0 9 -4 6 -9z m-141 -11 c3 -5 1 -10 -4 -10 -6 0 -11 5 -11 10 0 6 2 10 4 10
3 0 8 -4 11 -10z m33 -89 c-7 -11 -16 -17 -20 -14 -10 5 10 33 23 33 5 0 4 -9
-3 -19z m-935 -11 c3 -11 1 -18 -4 -14 -5 3 -9 12 -9 20 0 20 7 17 13 -6z
m4028 3 c13 -16 12 -17 -3 -4 -17 13 -22 21 -14 21 2 0 10 -8 17 -17z m-3071
-17 c0 -3 -4 -8 -10 -11 -5 -3 -10 -1 -10 4 0 6 5 11 10 11 6 0 10 -2 10 -4z
m-49 -49 c-6 -8 -9 -16 -7 -18 2 -2 -2 -10 -10 -17 -21 -19 -18 7 3 30 19 21
31 25 14 5z m59 3 c0 -5 -5 -10 -11 -10 -5 0 -7 5 -4 10 3 6 8 10 11 10 2 0 4
-4 4 -10z m355 -41 c11 -16 1 -19 -13 -3 -7 8 -8 14 -3 14 5 0 13 -5 16 -11z
m-417 -75 c6 -12 7 -26 2 -34 -7 -12 -9 -10 -8 5 0 11 -3 29 -7 40 -10 24 -2
18 13 -11z m872 -38 c0 -3 -15 -14 -32 -26 l-33 -22 30 26 c31 27 35 29 35 22z
m2445 -66 c3 -5 2 -10 -4 -10 -5 0 -13 5 -16 10 -3 6 -2 10 4 10 5 0 13 -4 16
-10z m125 0 c0 -5 -4 -10 -10 -10 -5 0 -10 5 -10 10 0 6 5 10 10 10 6 0 10 -4
10 -10z m-105 -31 c11 -17 -1 -21 -15 -4 -8 9 -8 15 -2 15 6 0 14 -5 17 -11z
m-40 -39 c3 -5 2 -10 -4 -10 -5 0 -13 5 -16 10 -3 6 -2 10 4 10 5 0 13 -4 16
-10z m30 -40 c3 -5 1 -10 -4 -10 -6 0 -11 5 -11 10 0 6 2 10 4 10 3 0 8 -4 11
-10z m-4595 -10 c0 -5 -4 -10 -10 -10 -5 0 -10 5 -10 10 0 6 5 10 10 10 6 0
10 -4 10 -10z"/>
<path d="M4715 1170 c-3 -6 1 -7 9 -4 18 7 21 14 7 14 -6 0 -13 -4 -16 -10z"/>
<path d="M7473 1413 c4 -6 26 -26 49 -45 23 -18 39 -28 35 -21 -4 6 -26 26
-49 45 -23 18 -39 28 -35 21z"/>
<path d="M7440 1345 c-13 -14 -22 -27 -19 -29 2 -2 14 10 27 25 29 36 24 38
-8 4z"/>
<path d="M7591 1303 c7 -12 15 -20 18 -17 3 2 -3 12 -13 22 -17 16 -18 16 -5
-5z"/>
<path d="M6105 1218 l-16 -33 20 25 c20 24 26 40 16 40 -2 0 -12 -15 -20 -32z"/>
<path d="M6090 1153 c0 -5 12 -20 28 -34 l27 -24 -25 30 c-14 17 -26 32 -27
34 -2 2 -3 0 -3 -6z"/>
<path d="M9080 1097 c14 -8 51 -28 83 -46 31 -18 57 -30 57 -27 0 8 -137 86
-152 86 -7 0 -2 -6 12 -13z"/>
<path d="M9299 1053 c0 -15 -4 -36 -7 -46 -7 -16 -9 -16 -27 -3 -11 9 -24 16
-30 16 -5 0 28 -25 73 -56 90 -60 124 -69 44 -12 -46 34 -48 37 -43 74 l4 39
13 -44 c17 -54 19 -57 41 -40 15 12 16 12 10 -3 -4 -12 -2 -18 8 -18 9 0 15
10 15 24 0 28 -15 43 -24 24 -3 -7 -4 1 -2 17 l5 30 -12 -27 c-15 -37 -22 -35
-33 9 -11 45 -34 56 -35 16z"/>
<path d="M7074 978 l-29 -33 33 29 c17 17 32 31 32 33 0 8 -8 1 -36 -29z"/>
<path d="M8390 800 c0 -6 7 -10 15 -10 8 0 15 2 15 4 0 2 -7 6 -15 10 -8 3
-15 1 -15 -4z"/>
<path d="M8360 776 c0 -2 7 -7 16 -10 8 -3 12 -2 9 4 -6 10 -25 14 -25 6z"/>
<path d="M8560 739 c0 -5 5 -7 10 -4 6 3 10 8 10 11 0 2 -4 4 -10 4 -5 0 -10
-5 -10 -11z"/>
<path d="M8760 743 c0 -4 10 -17 22 -30 18 -19 19 -23 5 -23 -9 0 -19 5 -22
10 -8 12 -25 13 -25 1 0 -17 54 -28 85 -18 l30 11 -25 6 c-14 4 -24 12 -22 19
1 7 -2 10 -8 6 -5 -3 -10 1 -10 9 0 9 -7 16 -15 16 -8 0 -15 -3 -15 -7z"/>
<path d="M8712 703 c2 -14 10 -28 18 -30 10 -3 11 -2 4 4 -6 4 -10 18 -9 31 1
12 -2 22 -7 22 -5 0 -8 -12 -6 -27z"/>
<path d="M6460 696 c0 -2 8 -10 18 -17 15 -13 16 -12 3 4 -13 16 -21 21 -21
13z"/>
<path d="M8685 690 c-3 -5 -1 -10 4 -10 6 0 11 5 11 10 0 6 -2 10 -4 10 -3 0
-8 -4 -11 -10z"/>
<path d="M8780 660 c-22 -7 -21 -8 13 -9 20 -1 37 4 37 9 0 11 -14 11 -50 0z"/>
<path d="M4890 625 c7 -8 17 -15 22 -15 6 0 5 7 -2 15 -7 8 -17 15 -22 15 -6
0 -5 -7 2 -15z"/>
<path d="M8857 621 c-3 -14 0 -21 9 -21 16 0 18 9 5 28 -6 10 -10 9 -14 -7z"/>
<path d="M8810 620 c0 -5 7 -10 15 -10 8 0 15 5 15 10 0 6 -7 10 -15 10 -8 0
-15 -4 -15 -10z"/>
<path d="M8890 615 c0 -2 10 -10 23 -16 20 -11 21 -11 8 4 -13 16 -31 23 -31
12z"/>
<path d="M9080 595 c-7 -8 -9 -15 -6 -15 4 0 14 7 22 15 9 8 11 15 6 15 -5 0
-15 -7 -22 -15z"/>
<path d="M8865 580 c-3 -5 -1 -10 4 -10 6 0 11 5 11 10 0 6 -2 10 -4 10 -3 0
-8 -4 -11 -10z"/>
<path d="M6570 566 c0 -2 8 -10 18 -17 15 -13 16 -12 3 4 -13 16 -21 21 -21
13z"/>
<path d="M6625 550 c-10 -11 -16 -22 -14 -24 2 -2 12 7 22 20 22 29 17 32 -8
4z"/>
<path d="M8880 551 c0 -5 3 -11 8 -13 4 -1 25 -27 46 -56 21 -29 40 -51 42
-49 8 7 -30 72 -58 99 -31 30 -38 34 -38 19z"/>
<path d="M9050 420 c0 -5 5 -10 11 -10 5 0 7 5 4 10 -3 6 -8 10 -11 10 -2 0
-4 -4 -4 -10z"/>
<path d="M8991 404 c0 -11 3 -14 6 -6 3 7 2 16 -1 19 -3 4 -6 -2 -5 -13z"/>
<path d="M9022 406 c7 -8 15 -12 17 -11 5 6 -10 25 -20 25 -5 0 -4 -6 3 -14z"/>
<path d="M9236 395 c4 -8 8 -15 10 -15 2 0 4 7 4 15 0 8 -4 15 -10 15 -5 0 -7
-7 -4 -15z"/>
<path d="M9050 295 c1 -26 2 -28 11 -12 8 14 8 22 0 30 -8 8 -11 3 -11 -18z"/>
<path d="M9075 280 c-3 -5 -1 -10 4 -10 6 0 11 5 11 10 0 6 -2 10 -4 10 -3 0
-8 -4 -11 -10z"/>
<path d="M9317 261 c-3 -12 -2 -23 3 -26 12 -7 22 27 12 37 -6 6 -12 1 -15
-11z"/>
<path d="M9120 234 c0 -8 5 -12 10 -9 6 3 10 10 10 16 0 5 -4 9 -10 9 -5 0
-10 -7 -10 -16z"/>
<path d="M9150 180 c0 -5 5 -10 11 -10 5 0 7 5 4 10 -3 6 -8 10 -11 10 -2 0
-4 -4 -4 -10z"/>
<path d="M9125 100 c-3 -5 -1 -10 4 -10 6 0 11 5 11 10 0 6 -2 10 -4 10 -3 0
-8 -4 -11 -10z"/>
<path d="M9180 56 c0 -2 7 -6 15 -10 8 -3 15 -1 15 4 0 6 -7 10 -15 10 -8 0
-15 -2 -15 -4z"/>
</g>
</svg>
