<?xml version="1.0" standalone="no"?>
<!DOCTYPE svg PUBLIC "-//W3C//DTD SVG 20010904//EN"
 "http://www.w3.org/TR/2001/REC-SVG-20010904/DTD/svg10.dtd">
<svg version="1.0" xmlns="http://www.w3.org/2000/svg"
 width="940.000000pt" height="572.000000pt" viewBox="0 0 940.000000 572.000000"
 preserveAspectRatio="xMidYMid meet">

<g transform="translate(0.000000,572.000000) scale(0.100000,-0.100000)"
fill="#000000" stroke="none">
<path d="M2390 5365 c-14 -8 -20 -14 -15 -14 6 0 21 6 35 14 14 8 21 14 15 14
-5 0 -21 -6 -35 -14z"/>
<path d="M1880 5325 c-14 -8 -20 -14 -15 -14 6 0 21 6 35 14 14 8 21 14 15 14
-5 0 -21 -6 -35 -14z"/>
<path d="M220 5296 c0 -2 7 -7 16 -10 8 -3 12 -2 9 4 -6 10 -25 14 -25 6z"/>
<path d="M1809 5273 c-13 -16 -12 -17 4 -4 9 7 17 15 17 17 0 8 -8 3 -21 -13z"/>
<path d="M2147 5229 c4 -13 8 -18 11 -10 2 7 -1 18 -6 23 -8 8 -9 4 -5 -13z"/>
<path d="M2160 5180 c0 -5 -12 -21 -27 -35 -15 -14 -23 -25 -16 -25 6 0 22 13
36 29 13 16 37 31 53 34 25 3 24 4 -8 6 -21 0 -38 -3 -38 -9z"/>
<path d="M837 5168 c6 -7 23 -33 37 -56 15 -24 30 -41 33 -38 6 5 -64 106 -74
106 -3 0 -1 -6 4 -12z"/>
<path d="M1800 5165 c7 -9 15 -13 17 -11 7 7 -7 26 -19 26 -6 0 -6 -6 2 -15z"/>
<path d="M488 5153 c-5 -21 17 -42 30 -28 3 3 0 5 -6 5 -6 0 -12 10 -14 23
l-3 22 -7 -22z"/>
<path d="M541 5127 c-8 -10 -7 -18 2 -31 10 -14 12 -13 12 14 0 35 1 34 -14
17z"/>
<path d="M1815 5126 c-22 -23 -26 -36 -11 -30 8 3 17 13 20 21 8 20 4 24 -9 9z"/>
<path d="M2150 5101 c-16 -30 -69 -57 -145 -74 -38 -9 -71 -15 -72 -13 -10 9
27 36 53 39 17 2 47 14 65 26 19 13 25 20 14 16 -11 -4 -39 -13 -61 -21 -23
-8 -69 -18 -102 -22 -55 -8 -63 -6 -82 12 l-21 21 12 -30 c20 -48 31 -55 94
-56 60 -1 122 11 181 37 35 15 84 58 84 74 0 16 -8 12 -20 -9z m-263 -77 c-3
-3 -12 -4 -19 -1 -8 3 -5 6 6 6 11 1 17 -2 13 -5z"/>
<path d="M2460 5116 c0 -3 9 -10 20 -16 11 -6 20 -8 20 -6 0 3 -9 10 -20 16
-11 6 -20 8 -20 6z"/>
<path d="M1521 5074 c0 -11 3 -14 6 -6 3 7 2 16 -1 19 -3 4 -6 -2 -5 -13z"/>
<path d="M2510 5085 c0 -2 10 -10 23 -16 20 -11 21 -11 8 4 -13 16 -31 23 -31
12z"/>
<path d="M986 5067 c3 -10 9 -15 12 -12 3 3 0 11 -7 18 -10 9 -11 8 -5 -6z"/>
<path d="M1367 5063 c-4 -3 -7 -11 -7 -17 0 -6 5 -5 12 2 6 6 9 14 7 17 -3 3
-9 2 -12 -2z"/>
<path d="M928 5044 c6 -11 20 -28 33 -39 l23 -20 -23 32 c-26 38 -49 56 -33
27z"/>
<path d="M1410 5051 c0 -6 4 -13 10 -16 6 -3 7 1 4 9 -7 18 -14 21 -14 7z"/>
<path d="M1754 5034 c-18 -14 -18 -15 4 -4 12 6 22 13 22 15 0 8 -5 6 -26 -11z"/>
<path d="M2409 5004 c-23 -25 -23 -26 -2 -15 23 12 38 29 31 37 -3 2 -15 -8
-29 -22z"/>
<path d="M2455 5010 c3 -5 16 -15 28 -21 22 -12 22 -12 3 10 -19 21 -43 30
-31 11z"/>
<path d="M606 4997 c3 -10 9 -15 12 -12 3 3 0 11 -7 18 -10 9 -11 8 -5 -6z"/>
<path d="M1385 4980 c3 -5 14 -10 23 -10 15 0 15 2 2 10 -20 13 -33 13 -25 0z"/>
<path d="M2329 4943 c-13 -16 -12 -17 4 -4 9 7 17 15 17 17 0 8 -8 3 -21 -13z"/>
<path d="M2530 4947 c0 -2 14 -16 32 -33 l31 -29 -23 33 c-20 27 -40 42 -40
29z"/>
<path d="M2270 4910 c-9 -6 -10 -10 -3 -10 6 0 15 5 18 10 8 12 4 12 -15 0z"/>
<path d="M2462 4897 c-21 -22 -57 -135 -46 -146 6 -6 35 26 85 90 22 29 28 32
42 21 23 -19 32 4 13 33 -21 32 -65 33 -94 2z"/>
<path d="M1596 4872 l-19 -27 24 22 c12 12 21 24 18 27 -2 2 -13 -8 -23 -22z"/>
<path d="M2595 4865 c4 -11 10 -28 12 -37 3 -10 9 -18 14 -18 5 0 3 12 -3 28
-14 33 -35 57 -23 27z"/>
<path d="M1719 4788 c-12 -23 -12 -23 10 -4 23 21 26 26 11 26 -5 0 -15 -10
-21 -22z"/>
<path d="M2445 4729 c-9 -17 -15 -33 -13 -35 3 -2 12 12 21 31 21 43 13 47 -8
4z"/>
<path d="M1855 4733 c-40 -21 -85 -63 -85 -80 0 -23 28 -26 57 -6 65 44 100
48 151 15 12 -8 25 -12 29 -9 10 10 -26 57 -60 77 -38 24 -52 24 -92 3z"/>
<path d="M2484 4718 l-29 -33 35 30 c19 17 37 31 39 33 2 1 0 2 -5 2 -6 0 -23
-15 -40 -32z"/>
<path d="M1686 4723 c-6 -14 -5 -15 5 -6 7 7 10 15 7 18 -3 3 -9 -2 -12 -12z"/>
<path d="M310 4696 c0 -2 8 -10 18 -17 15 -13 16 -12 3 4 -13 16 -21 21 -21
13z"/>
<path d="M2530 4670 c-6 -11 -8 -25 -5 -30 16 -26 80 5 69 34 -9 23 -51 20
-64 -4z"/>
<path d="M743 4653 c-7 -2 -13 -9 -13 -15 0 -7 4 -7 13 0 6 5 21 12 32 15 l20
5 -20 0 c-11 0 -26 -2 -32 -5z"/>
<path d="M2440 4650 c0 -5 9 -14 20 -20 11 -6 20 -9 20 -8 0 2 -9 11 -20 21
-11 9 -20 13 -20 7z"/>
<path d="M598 4628 c10 -13 10 -17 0 -22 -7 -3 -3 -3 9 0 15 3 23 0 26 -13 4
-15 5 -15 6 -2 0 9 -11 25 -26 35 -22 14 -25 14 -15 2z"/>
<path d="M836 4630 c7 -8 14 -24 17 -35 4 -19 5 -19 6 1 0 12 -7 28 -16 35
-16 12 -17 12 -7 -1z"/>
<path d="M2699 4623 c-13 -16 -12 -17 4 -4 16 13 21 21 13 21 -2 0 -10 -8 -17
-17z"/>
<path d="M881 4604 c0 -11 3 -14 6 -6 3 7 2 16 -1 19 -3 4 -6 -2 -5 -13z"/>
<path d="M503 4585 c-3 -9 -3 -18 -1 -21 3 -3 8 4 11 16 6 23 -1 27 -10 5z"/>
<path d="M2301 4564 c-1 -24 34 -74 52 -74 6 0 2 7 -11 15 -12 9 -26 30 -31
48 -6 23 -9 26 -10 11z"/>
<path d="M1990 4532 c-18 -15 -20 -21 -11 -45 10 -26 12 -27 43 -14 38 16 48
45 22 64 -23 17 -27 16 -54 -5z"/>
<path d="M2735 4530 c-3 -5 -1 -10 4 -10 6 0 11 5 11 10 0 6 -2 10 -4 10 -3 0
-8 -4 -11 -10z"/>
<path d="M1661 4504 c0 -11 3 -14 6 -6 3 7 2 16 -1 19 -3 4 -6 -2 -5 -13z"/>
<path d="M1860 4481 c0 -6 4 -13 10 -16 6 -3 7 1 4 9 -7 18 -14 21 -14 7z"/>
<path d="M2388 4480 c18 -8 21 -13 13 -27 -20 -38 -49 -56 -81 -50 -31 7 -43
-9 -12 -15 31 -7 66 12 91 48 21 30 22 37 10 45 -8 5 -21 8 -29 8 -8 0 -5 -4
8 -9z"/>
<path d="M1501 4464 c0 -11 3 -14 6 -6 3 7 2 16 -1 19 -3 4 -6 -2 -5 -13z"/>
<path d="M642 4435 c0 -16 2 -22 5 -12 2 9 2 23 0 30 -3 6 -5 -1 -5 -18z"/>
<path d="M2761 4433 c7 -12 15 -20 18 -17 3 2 -3 12 -13 22 -17 16 -18 16 -5
-5z"/>
<path d="M1570 4415 c-23 -13 -23 -14 -4 -15 11 0 25 5 31 11 8 8 17 8 31 0
11 -6 24 -11 29 -11 11 1 -40 29 -52 29 -5 0 -21 -6 -35 -14z"/>
<path d="M1520 4395 c0 -5 5 -17 10 -25 5 -8 10 -10 10 -5 0 6 -5 17 -10 25
-5 8 -10 11 -10 5z"/>
<path d="M640 4370 c0 -19 3 -21 12 -12 9 9 9 15 0 24 -9 9 -12 7 -12 -12z"/>
<path d="M2759 4363 c-13 -16 -12 -17 4 -4 16 13 21 21 13 21 -2 0 -10 -8 -17
-17z"/>
<path d="M2360 4345 c-13 -14 -22 -27 -19 -29 2 -2 14 10 27 25 29 36 24 38
-8 4z"/>
<path d="M2423 4344 l-28 -26 33 22 c29 20 39 30 28 30 -3 0 -18 -12 -33 -26z"/>
<path d="M2821 4344 c0 -11 3 -14 6 -6 3 7 2 16 -1 19 -3 4 -6 -2 -5 -13z"/>
<path d="M1606 4321 c-4 -5 3 -7 14 -4 23 6 26 13 6 13 -8 0 -17 -4 -20 -9z"/>
<path d="M1522 4290 c0 -14 2 -19 5 -12 2 6 2 18 0 25 -3 6 -5 1 -5 -13z"/>
<path d="M1597 4260 c3 -27 13 -53 26 -65 18 -17 19 -17 6 -1 -8 10 -19 40
-26 65 l-12 46 6 -45z"/>
<path d="M2400 4290 c-20 -6 -21 -8 -5 -8 11 0 31 4 45 8 20 6 21 8 5 8 -11 0
-31 -4 -45 -8z"/>
<path d="M2150 4280 c-13 -9 -13 -10 0 -11 10 0 9 -3 -5 -10 -19 -8 -19 -9 -1
-6 11 1 20 10 22 20 3 20 3 20 -16 7z"/>
<path d="M2504 4275 c58 -21 106 -73 113 -123 3 -26 1 -47 -6 -56 -11 -13 -18
-12 -52 5 -30 16 -53 20 -106 18 -38 -2 -74 1 -82 5 -10 7 -13 5 -9 -5 4 -9
-12 -22 -48 -40 -38 -18 -50 -21 -42 -10 7 9 19 20 26 24 21 14 13 22 -23 23
-34 0 -39 -5 -36 -36 1 -11 -3 -9 -14 5 -8 11 -13 25 -11 32 3 7 1 13 -4 13
-6 0 -10 -7 -10 -15 0 -8 -4 -15 -8 -15 -5 0 -14 -11 -20 -25 -6 -14 -18 -25
-27 -25 -11 0 -15 -11 -15 -46 0 -32 3 -43 12 -38 7 4 8 3 4 -5 -24 -38 -43
54 -21 101 23 48 45 84 45 74 0 -5 9 -1 19 8 11 10 17 24 15 31 -3 7 2 15 11
19 13 5 16 0 13 -21 -2 -19 2 -28 12 -29 8 0 22 -3 30 -6 36 -15 70 -15 82 0
11 13 10 15 -5 9 -14 -5 -20 -2 -24 13 -4 14 -14 20 -32 20 -21 0 -23 2 -11
10 11 8 8 9 -12 4 -21 -5 -28 -2 -28 9 0 9 8 18 18 21 9 4 28 16 42 27 19 15
11 13 -30 -8 -80 -41 -141 -107 -163 -176 -38 -121 11 -156 191 -136 135 15
216 48 280 113 43 45 52 60 52 91 0 44 -13 71 -54 109 -32 30 -66 46 -94 46
-9 -1 1 -7 22 -15z m42 -209 l24 -13 -23 -21 c-40 -37 -122 -55 -102 -21 4 6
14 8 22 5 8 -3 11 -1 8 4 -3 6 -15 10 -26 10 -17 0 -25 -21 -20 -52 2 -12 -17
-10 -24 2 -3 6 -14 10 -23 10 -13 0 -13 -2 4 -14 18 -14 18 -15 -6 -20 -38 -8
-120 -14 -120 -9 0 17 26 45 55 59 34 16 46 16 90 -2 20 -7 20 -7 2 14 -21 24
-15 42 14 42 10 0 18 3 18 8 -1 4 -1 11 0 15 1 11 75 -1 107 -17z m-326 -12
c0 -2 -7 -4 -15 -4 -8 0 -15 4 -15 10 0 5 7 7 15 4 8 -4 15 -8 15 -10z m19
-21 c14 10 14 10 3 -5 -14 -17 -42 -14 -42 5 0 8 4 7 12 -1 9 -9 15 -9 27 1z
m-59 -13 c0 -5 -4 -10 -10 -10 -5 0 -10 5 -10 10 0 6 5 10 10 10 6 0 10 -4 10
-10z m21 -43 c-10 -9 -11 -8 -5 6 3 10 9 15 12 12 3 -3 0 -11 -7 -18z m-11
-29 c0 -4 -4 -8 -9 -8 -6 0 -12 4 -15 8 -3 5 1 9 9 9 8 0 15 -4 15 -9z"/>
<path d="M2515 4051 c-3 -5 -1 -12 5 -16 5 -3 10 1 10 9 0 18 -6 21 -15 7z"/>
<path d="M2338 4273 c7 -3 16 -2 19 1 4 3 -2 6 -13 5 -11 0 -14 -3 -6 -6z"/>
<path d="M2740 4226 c0 -2 8 -10 18 -17 15 -13 16 -12 3 4 -13 16 -21 21 -21
13z"/>
<path d="M2800 4189 c-7 -11 -10 -23 -7 -25 2 -2 9 7 15 21 14 30 7 33 -8 4z"/>
<path d="M1990 4155 c-7 -9 -11 -17 -9 -20 3 -2 10 5 17 15 14 24 10 26 -8 5z"/>
<path d="M1845 4149 c-4 -6 -5 -12 -2 -15 2 -3 7 2 10 11 7 17 1 20 -8 4z"/>
<path d="M2030 4150 c-9 -6 -10 -10 -3 -10 6 0 15 5 18 10 8 12 4 12 -15 0z"/>
<path d="M2734 4137 c20 -16 27 -29 23 -41 -4 -10 2 -38 14 -63 25 -56 35
-139 20 -173 -9 -20 -11 -21 -8 -4 3 12 1 28 -4 35 -15 23 -10 -57 5 -98 8
-21 20 -60 26 -86 l13 -48 19 43 c27 59 58 189 64 268 l5 65 -57 43 c-32 23
-66 42 -75 42 -10 0 -21 4 -24 10 -3 5 -16 15 -28 21 -15 7 -13 3 7 -14z m161
-119 c8 -24 -34 -245 -55 -287 l-16 -33 -18 65 c-16 58 -16 68 -2 100 13 31
13 44 1 103 -8 36 -18 71 -23 78 -5 6 -12 19 -16 30 -5 14 -2 17 9 12 9 -3 15
0 15 9 0 19 96 -52 105 -77z"/>
<path d="M1660 4129 c-26 -15 -29 -18 -10 -13 14 3 32 12 40 20 18 18 13 16
-30 -7z"/>
<path d="M1951 4134 c0 -11 3 -14 6 -6 3 7 2 16 -1 19 -3 4 -6 -2 -5 -13z"/>
<path d="M1711 4124 c0 -11 3 -14 6 -6 3 7 2 16 -1 19 -3 4 -6 -2 -5 -13z"/>
<path d="M1996 4103 c-6 -14 -5 -15 5 -6 7 7 10 15 7 18 -3 3 -9 -2 -12 -12z"/>
<path d="M700 4065 c0 -8 2 -15 4 -15 2 0 6 7 10 15 3 8 1 15 -4 15 -6 0 -10
-7 -10 -15z"/>
<path d="M547 4063 c-4 -3 -7 -11 -7 -17 0 -6 5 -5 12 2 6 6 9 14 7 17 -3 3
-9 2 -12 -2z"/>
<path d="M665 4050 c3 -5 8 -10 11 -10 2 0 4 5 4 10 0 6 -5 10 -11 10 -5 0 -7
-4 -4 -10z"/>
<path d="M685 4030 c-3 -5 -1 -10 4 -10 6 0 11 5 11 10 0 6 -2 10 -4 10 -3 0
-8 -4 -11 -10z"/>
<path d="M603 3941 c1 -12 7 -21 14 -21 17 0 16 15 -1 30 -12 9 -15 8 -13 -9z"/>
<path d="M555 3920 c-8 -13 5 -13 25 0 13 8 13 10 -2 10 -9 0 -20 -4 -23 -10z"/>
<path d="M615 3839 c11 -6 35 -27 54 -47 32 -36 33 -36 12 -5 -23 34 -58 63
-76 63 -5 0 -1 -5 10 -11z"/>
<path d="M1799 3808 c-18 -24 -36 -48 -41 -54 -5 -7 -1 -17 9 -25 15 -12 16
-12 10 4 -9 23 51 110 70 103 7 -3 13 -1 13 4 0 23 -31 7 -61 -32z"/>
<path d="M1880 3833 c8 -2 34 -32 58 -66 50 -73 102 -135 102 -123 0 5 -24 39
-53 75 -29 36 -61 78 -70 94 -10 15 -25 26 -35 26 -13 -1 -14 -2 -2 -6z"/>
<path d="M488 3823 c7 -3 16 -2 19 1 4 3 -2 6 -13 5 -11 0 -14 -3 -6 -6z"/>
<path d="M3640 3737 c0 -2 15 -16 33 -33 l32 -29 -29 33 c-28 30 -36 37 -36
29z"/>
<path d="M580 3726 c0 -2 8 -10 18 -17 15 -13 16 -12 3 4 -13 16 -21 21 -21
13z"/>
<path d="M1786 3698 c52 -91 164 -248 177 -248 4 0 -1 10 -12 22 -12 12 -31
37 -44 57 -13 20 -45 69 -71 109 -26 39 -49 72 -52 72 -3 0 -2 -6 2 -12z"/>
<path d="M2760 3625 c0 -73 11 -97 28 -60 17 38 15 70 -8 96 l-19 24 -1 -60z
m17 3 c-3 -8 -6 -5 -6 6 -1 11 2 17 5 13 3 -3 4 -12 1 -19z"/>
<path d="M650 3665 c0 -5 5 -17 10 -25 5 -8 10 -10 10 -5 0 6 -5 17 -10 25 -5
8 -10 11 -10 5z"/>
<path d="M556 3615 c15 -14 29 -25 32 -25 3 0 -5 11 -18 25 -13 14 -27 25 -32
25 -5 0 3 -11 18 -25z"/>
<path d="M2028 3605 c2 -14 6 -25 8 -25 2 0 4 11 4 25 0 14 -4 25 -9 25 -4 0
-6 -11 -3 -25z"/>
<path d="M445 3609 c-4 -6 -5 -12 -2 -15 2 -3 7 2 10 11 7 17 1 20 -8 4z"/>
<path d="M607 3579 c7 -7 15 -10 18 -7 3 3 -2 9 -12 12 -14 6 -15 5 -6 -5z"/>
<path d="M780 3574 c0 -23 46 -79 68 -82 33 -5 49 -38 56 -112 6 -63 6 -64 -9
-37 -9 15 -18 27 -21 27 -3 0 3 -16 15 -36 23 -39 26 -90 11 -175 -5 -30 -17
-115 -26 -189 -8 -74 -22 -162 -30 -195 -7 -33 -23 -103 -35 -155 -23 -100
-94 -302 -135 -382 -35 -70 -78 -91 -107 -54 -9 11 1 -62 10 -76 2 -5 17 -15
32 -23 32 -16 174 -32 153 -17 -11 8 -9 17 12 51 133 210 190 425 226 856 11
133 4 280 -20 416 -22 120 -65 173 -143 174 -23 0 -45 5 -49 10 -5 6 -8 6 -8
-1z m194 -230 c3 -8 2 -12 -4 -9 -6 3 -10 10 -10 16 0 14 7 11 14 -7z m-3 -31
c13 -16 12 -17 -3 -4 -10 7 -18 15 -18 17 0 8 8 3 21 -13z m9 -59 c0 -19 -5
-24 -27 -24 l-26 0 21 23 c12 13 19 27 15 32 -5 4 -2 5 5 1 6 -4 12 -18 12
-32z m-25 -44 c3 -5 1 -10 -4 -10 -6 0 -11 5 -11 10 0 6 2 10 4 10 3 0 8 -4
11 -10z m25 -40 c0 -12 -7 -18 -19 -17 -19 1 -23 27 -6 39 13 10 25 0 25 -22z
m0 -71 c0 -9 -4 -8 -15 1 -8 7 -15 19 -15 27 0 12 2 12 15 -1 8 -8 15 -20 15
-27z"/>
<path d="M2030 3546 c0 -31 6 -34 13 -6 3 11 1 23 -4 26 -5 3 -9 -6 -9 -20z"/>
<path d="M623 3500 c0 -36 2 -50 4 -32 2 17 2 47 0 65 -2 17 -4 3 -4 -33z"/>
<path d="M2062 3530 c0 -14 2 -19 5 -12 2 6 2 18 0 25 -3 6 -5 1 -5 -13z"/>
<path d="M2027 3488 c-4 -12 -4 -24 -1 -27 6 -7 24 20 24 37 0 21 -17 13 -23
-10z"/>
<path d="M3795 3470 c-3 -6 1 -7 9 -4 18 7 21 14 7 14 -6 0 -13 -4 -16 -10z"/>
<path d="M3710 3460 c-9 -6 -10 -10 -3 -10 6 0 15 5 18 10 8 12 4 12 -15 0z"/>
<path d="M2052 3435 c0 -16 2 -22 5 -12 2 9 2 23 0 30 -3 6 -5 -1 -5 -18z"/>
<path d="M3240 3441 c0 -6 4 -13 10 -16 6 -3 7 1 4 9 -7 18 -14 21 -14 7z"/>
<path d="M622 3400 c0 -14 2 -19 5 -12 2 6 2 18 0 25 -3 6 -5 1 -5 -13z"/>
<path d="M856 3397 c3 -10 9 -15 12 -12 3 3 0 11 -7 18 -10 9 -11 8 -5 -6z"/>
<path d="M1996 3395 c4 -8 11 -15 16 -15 6 0 5 6 -2 15 -7 8 -14 15 -16 15 -2
0 -1 -7 2 -15z"/>
<path d="M3200 3403 c0 -6 8 -17 18 -24 16 -13 16 -13 2 6 -8 11 -16 22 -17
24 -2 2 -3 0 -3 -6z"/>
<path d="M3270 3387 c0 -19 43 -86 86 -132 l46 -50 -41 51 c-22 28 -52 71 -66
95 -13 24 -25 40 -25 36z"/>
<path d="M623 3330 c0 -25 2 -35 4 -22 2 12 2 32 0 45 -2 12 -4 2 -4 -23z"/>
<path d="M2040 3341 c0 -6 5 -13 10 -16 6 -3 10 1 10 9 0 9 -4 16 -10 16 -5 0
-10 -4 -10 -9z"/>
<path d="M4457 3268 c-61 -58 -75 -97 -140 -388 -47 -210 -69 -410 -83 -745
-6 -147 6 -368 22 -410 9 -22 164 -95 202 -95 32 0 39 8 24 26 -5 5 -15 43
-23 84 -14 76 -18 405 -6 540 11 127 16 166 26 215 6 28 12 73 15 101 6 78 38
264 45 264 3 0 7 17 9 37 1 20 9 44 17 53 9 10 13 23 10 31 -3 8 10 39 28 69
25 40 39 54 53 52 16 -2 17 -1 4 8 -13 9 -11 14 13 35 15 14 35 25 43 25 8 0
12 5 9 10 -10 16 -21 12 -56 -17 -29 -25 -31 -25 -25 -6 4 12 2 24 -4 28 -9 5
-14 -7 -11 -27 0 -4 -9 -5 -20 -3 -17 3 -19 1 -9 -10 6 -8 7 -16 2 -19 -6 -3
-15 1 -22 9 -6 7 -18 11 -25 9 -9 -4 -15 5 -18 28 -4 30 -5 31 -12 11 -5 -16
-15 -23 -34 -23 -18 0 -22 -3 -13 -9 11 -7 11 -9 -2 -14 -14 -6 -21 8 -17 35
0 4 -9 5 -20 3 -15 -3 -19 0 -17 13 2 11 11 16 27 14 15 -2 21 0 16 7 -3 6
-11 9 -16 6 -17 -11 -9 14 14 41 21 24 28 26 70 20 26 -4 88 -28 138 -52 50
-25 93 -44 95 -41 12 11 -233 117 -270 117 -2 0 -20 -15 -39 -32z m-17 -138
c0 -5 -4 -10 -10 -10 -5 0 -10 5 -10 10 0 6 5 10 10 10 6 0 10 -4 10 -10z m2
-46 c-2 -5 -9 -7 -15 -5 -7 2 -18 4 -24 4 -14 0 -17 19 -6 30 8 9 49 -18 45
-29z m132 -20 c3 -8 1 -25 -6 -37 l-12 -22 -5 22 -6 21 -18 -24 c-10 -13 -13
-24 -8 -24 6 0 8 -7 4 -16 -4 -12 -8 -11 -18 8 -10 20 -9 25 7 38 12 10 17 22
12 33 -5 13 -1 17 19 17 14 0 28 -7 31 -16z m-204 -554 c0 -5 -4 -10 -10 -10
-5 0 -10 5 -10 10 0 6 5 10 10 10 6 0 10 -4 10 -10z m50 0 c0 -5 -2 -10 -4
-10 -3 0 -8 5 -11 10 -3 6 -1 10 4 10 6 0 11 -4 11 -10z m-10 -30 c0 -5 -5
-10 -11 -10 -5 0 -7 5 -4 10 3 6 8 10 11 10 2 0 4 -4 4 -10z m5 -50 c-3 -5
-12 -10 -18 -10 -7 0 -6 4 3 10 19 12 23 12 15 0z m22 -52 c-3 -7 -5 -2 -5 12
0 14 2 19 5 13 2 -7 2 -19 0 -25z m-87 -19 c0 -5 -4 -8 -9 -4 -5 3 -12 1 -16
-5 -3 -5 -12 -10 -18 -10 -7 0 -3 7 7 15 23 18 36 19 36 4z m0 -29 c0 -5 -4
-10 -10 -10 -5 0 -10 5 -10 10 0 6 5 10 10 10 6 0 10 -4 10 -10z m-13 -40 c-1
-22 -12 -26 -23 -9 -3 6 0 15 7 20 18 12 18 12 16 -11z m33 -20 c0 -5 -5 -10
-11 -10 -5 0 -7 5 -4 10 3 6 8 10 11 10 2 0 4 -4 4 -10z m-36 -37 c-10 -39
-44 -60 -44 -28 0 8 7 15 16 15 13 0 14 3 5 14 -10 11 -8 15 6 19 10 3 19 5
21 6 1 0 -1 -11 -4 -26z m-44 7 c0 -5 -7 -10 -15 -10 -8 0 -15 5 -15 10 0 6 7
10 15 10 8 0 15 -4 15 -10z m35 -59 c3 -5 1 -12 -5 -16 -5 -3 -10 1 -10 9 0
18 6 21 15 7z m-5 -41 c0 -5 -2 -10 -4 -10 -3 0 -8 5 -11 10 -3 6 -1 10 4 10
6 0 11 -4 11 -10z m-24 -57 c-6 -6 -36 9 -36 18 0 5 9 4 20 -3 10 -7 18 -14
16 -15z m64 -69 c11 -12 10 -18 -6 -32 -10 -9 -13 -11 -7 -3 10 12 9 18 -4 33
-9 10 -11 18 -6 18 6 0 16 -7 23 -16z m-80 2 c0 -3 -4 -8 -10 -11 -5 -3 -10
-1 -10 4 0 6 5 11 10 11 6 0 10 -2 10 -4z m50 -50 c0 -11 -19 -15 -25 -6 -3 5
1 10 9 10 9 0 16 -2 16 -4z m-9 -231 c3 2 5 -4 5 -15 0 -28 -31 -8 -33 22 -2
21 -1 21 11 6 7 -10 15 -16 17 -13z m49 -5 c0 -5 -4 -10 -10 -10 -5 0 -10 5
-10 10 0 6 5 10 10 10 6 0 10 -4 10 -10z"/>
<path d="M622 3235 c0 -16 2 -22 5 -12 2 9 2 23 0 30 -3 6 -5 -1 -5 -18z"/>
<path d="M471 3234 c0 -11 3 -14 6 -6 3 7 2 16 -1 19 -3 4 -6 -2 -5 -13z"/>
<path d="M2800 3231 c0 -6 4 -13 10 -16 6 -3 7 1 4 9 -7 18 -14 21 -14 7z"/>
<path d="M338 3223 c6 -2 18 -2 25 0 6 3 1 5 -13 5 -14 0 -19 -2 -12 -5z"/>
<path d="M4477 3210 c3 -10 11 -25 19 -31 11 -9 14 -8 14 5 0 10 -4 14 -10 11
-5 -3 -10 1 -10 9 0 8 -4 17 -9 20 -5 4 -7 -3 -4 -14z"/>
<path d="M461 3194 c0 -11 3 -14 6 -6 3 7 2 16 -1 19 -3 4 -6 -2 -5 -13z"/>
<path d="M437 3179 c4 -13 8 -18 11 -10 2 7 -1 18 -6 23 -8 8 -9 4 -5 -13z"/>
<path d="M3410 3191 c0 -6 4 -10 9 -8 5 1 17 -7 26 -18 17 -19 17 -19 3 4 -16
27 -38 39 -38 22z"/>
<path d="M2830 3170 c0 -5 5 -10 11 -10 5 0 7 5 4 10 -3 6 -8 10 -11 10 -2 0
-4 -4 -4 -10z"/>
<path d="M4781 3134 c0 -11 3 -14 6 -6 3 7 2 16 -1 19 -3 4 -6 -2 -5 -13z"/>
<path d="M515 3103 c-46 -12 -61 -57 -28 -84 15 -13 15 -12 3 7 -17 27 -7 52
25 64 14 5 25 12 25 15 0 3 -1 4 -2 4 -2 -1 -12 -4 -23 -6z"/>
<path d="M2112 3090 c0 -14 2 -19 5 -12 2 6 2 18 0 25 -3 6 -5 1 -5 -13z"/>
<path d="M4791 3094 c0 -11 3 -14 6 -6 3 7 2 16 -1 19 -3 4 -6 -2 -5 -13z"/>
<path d="M589 3084 c15 -11 21 -23 17 -37 -5 -19 -4 -19 12 -3 16 16 16 18 -7
37 -13 10 -28 19 -34 19 -6 0 -1 -7 12 -16z"/>
<path d="M4696 3092 c5 -5 33 -18 62 -30 44 -17 52 -18 52 -6 0 8 -4 12 -10 9
-5 -3 -19 -1 -31 6 -28 15 -85 31 -73 21z"/>
<path d="M503 3055 c-3 -9 -3 -18 -1 -21 3 -3 8 4 11 16 6 23 -1 27 -10 5z"/>
<path d="M2030 2985 c-127 -188 -344 -424 -417 -454 -19 -8 -33 -21 -33 -31 0
-9 22 -60 49 -113 l49 -97 -33 -20 c-40 -25 -42 -28 -50 -127 -8 -93 7 -138
52 -149 37 -10 56 6 74 61 9 26 23 51 31 56 47 26 198 80 293 103 60 15 116
31 125 36 27 14 119 19 124 7 3 -9 5 -9 5 0 1 6 -6 18 -14 27 -8 8 -15 25 -15
38 0 35 -33 158 -43 158 -4 0 -6 -4 -3 -9 4 -5 1 -11 -5 -13 -6 -2 -11 -21
-11 -42 0 -50 -15 -33 -20 22 -3 31 0 41 9 38 7 -3 13 -1 13 4 0 13 -4 13 -64
-5 -28 -8 -100 -28 -161 -46 -60 -17 -135 -44 -165 -61 l-55 -31 110 114 c137
141 275 327 276 373 0 17 2 50 4 74 3 35 1 42 -13 40 -17 -3 -18 1 -21 70 -1
12 -7 22 -15 22 -8 0 -16 8 -18 18 -2 11 -21 -8 -58 -63z m43 15 c-5 -19 -23
-39 -23 -25 0 9 20 45 24 45 2 0 2 -9 -1 -20z m-48 -100 c-3 -5 -11 -10 -16
-10 -6 0 -7 5 -4 10 3 6 11 10 16 10 6 0 7 -4 4 -10z m19 -25 c-4 -8 -10 -15
-15 -15 -4 0 -6 7 -3 15 4 8 10 15 15 15 4 0 6 -7 3 -15z m189 -496 c-6 -6
-10 4 -10 28 -1 38 -1 38 9 10 6 -18 7 -32 1 -38z"/>
<path d="M5091 2903 c7 -12 15 -20 18 -17 3 2 -3 12 -13 22 -17 16 -18 16 -5
-5z"/>
<path d="M760 2906 c0 -9 53 -97 56 -93 5 4 -45 97 -52 97 -2 0 -4 -2 -4 -4z"/>
<path d="M4584 2819 c29 -34 35 -59 9 -38 -9 8 -14 9 -10 3 4 -7 -1 -14 -12
-17 -13 -3 -21 -18 -26 -46 -4 -23 -4 -45 -1 -48 3 -4 6 3 6 15 0 12 4 22 9
22 5 0 7 8 4 19 -5 20 5 30 36 36 13 2 18 -1 15 -10 -3 -7 0 -16 5 -20 6 -3 9
-10 6 -15 -3 -4 2 -10 10 -14 8 -3 15 -1 15 4 0 27 -66 140 -82 140 -5 0 2
-14 16 -31z"/>
<path d="M825 2790 c3 -5 8 -10 11 -10 2 0 4 5 4 10 0 6 -5 10 -11 10 -5 0 -7
-4 -4 -10z"/>
<path d="M1642 2750 c0 -14 2 -19 5 -12 2 6 2 18 0 25 -3 6 -5 1 -5 -13z"/>
<path d="M1240 2755 c0 -5 5 -17 10 -25 5 -8 10 -10 10 -5 0 6 -5 17 -10 25
-5 8 -10 11 -10 5z"/>
<path d="M4900 2739 c0 -5 5 -7 10 -4 6 3 10 8 10 11 0 2 -4 4 -10 4 -5 0 -10
-5 -10 -11z"/>
<path d="M4585 2710 c-3 -5 -2 -10 4 -10 5 0 13 5 16 10 3 6 2 10 -4 10 -5 0
-13 -4 -16 -10z"/>
<path d="M8240 2713 c-43 -7 -80 -25 -90 -44 -6 -10 -7 -48 -4 -87 l7 -69 -83
-7 c-113 -10 -207 -36 -316 -86 -105 -48 -109 -57 -40 -116 45 -40 117 -75
186 -92 185 -47 268 -61 380 -67 69 -4 130 -8 136 -10 22 -6 202 16 254 33 30
9 58 16 63 14 13 -4 7 11 -18 47 -46 66 -103 108 -260 195 l-99 55 3 89 c2 81
1 91 -21 115 -24 26 -56 36 -98 30z"/>
<path d="M4890 2671 c12 -43 25 -63 66 -101 l37 -35 -21 31 c-12 17 -28 37
-36 44 -9 7 -21 30 -26 51 -6 22 -15 39 -20 39 -5 0 -5 -12 0 -29z"/>
<path d="M2837 2669 c4 -13 8 -18 11 -10 2 7 -1 18 -6 23 -8 8 -9 4 -5 -13z"/>
<path d="M4650 2687 c0 -16 33 -73 67 -113 29 -36 31 -43 18 -54 -8 -7 -15
-19 -15 -26 0 -21 80 -104 99 -103 12 0 11 2 -4 9 -27 10 -48 37 -40 49 7 12
-14 56 -22 47 -3 -3 0 -12 7 -21 7 -9 10 -19 6 -23 -9 -8 -36 26 -36 45 0 7 9
17 20 23 19 10 19 12 -13 46 -17 19 -44 56 -59 82 -15 26 -28 43 -28 39z"/>
<path d="M4598 2648 c5 -5 16 -8 23 -6 8 3 3 7 -10 11 -17 4 -21 3 -13 -5z"/>
<path d="M4539 2623 c12 -24 31 -39 31 -25 0 5 -10 17 -21 28 -22 19 -22 19
-10 -3z"/>
<path d="M4647 2623 c-14 -13 -8 -83 7 -83 16 0 41 28 33 37 -4 3 -9 -2 -13
-11 -12 -31 -26 -16 -22 24 2 22 3 40 2 40 0 0 -4 -3 -7 -7z"/>
<path d="M1671 2604 c0 -11 3 -14 6 -6 3 7 2 16 -1 19 -3 4 -6 -2 -5 -13z"/>
<path d="M2191 2594 c0 -11 3 -14 6 -6 3 7 2 16 -1 19 -3 4 -6 -2 -5 -13z"/>
<path d="M4582 2558 c-2 -38 2 -50 20 -62 33 -23 45 -19 15 4 -19 15 -27 32
-30 63 l-4 42 -1 -47z"/>
<path d="M3015 2583 c-27 -2 -74 -5 -102 -9 -53 -5 -53 -6 -53 -40 0 -41 -19
-125 -31 -138 -5 -5 -6 7 -3 26 4 20 2 43 -3 52 -6 11 -9 -6 -10 -50 -1 -37
-3 -67 -5 -69 -2 -1 -15 -5 -29 -9 -27 -6 -27 -6 -17 37 5 23 16 67 25 97 13
45 17 51 24 35 7 -17 8 -16 8 8 1 15 -4 27 -12 27 -13 0 -67 -159 -67 -198 0
-22 3 -22 63 -18 34 3 154 11 265 17 164 10 205 10 212 -1 6 -10 8 -10 12 1 2
7 25 14 56 15 l52 3 16 -39 c18 -45 24 -48 47 -22 12 13 16 34 15 68 l-1 49
-4 -45 c-4 -44 -17 -70 -34 -70 -14 0 -11 17 7 34 14 15 14 17 -3 23 -10 4
-53 8 -96 8 -63 0 -78 3 -82 17 -6 17 -35 33 -35 19 0 -5 8 -12 18 -16 36 -14
-13 -23 -151 -29 -134 -5 -138 -5 -132 14 4 13 2 20 -6 20 -7 0 -9 -3 -6 -7 8
-8 -11 -33 -25 -33 -6 0 -5 7 2 15 10 13 9 15 -8 15 -14 0 -20 -5 -16 -14 3
-8 -3 -16 -15 -19 -15 -3 -18 -1 -14 12 4 13 3 13 -7 -1 -12 -19 -50 -25 -50
-8 0 6 4 10 9 10 12 0 41 74 41 105 0 14 6 25 13 25 9 0 9 2 -1 8 -22 14 -2
41 36 49 45 10 457 10 493 0 27 -7 39 -27 58 -97 l9 -35 1 30 c1 37 -33 115
-51 116 -7 1 -24 3 -38 4 -49 5 -326 11 -375 8z"/>
<path d="M4655 2490 c2 -27 10 -49 21 -57 27 -20 39 -15 14 5 -12 10 -26 36
-31 58 l-8 39 4 -45z"/>
<path d="M4823 2504 c15 -15 27 -31 27 -37 0 -6 3 -8 6 -5 8 9 -24 55 -43 63
-9 3 -4 -6 10 -21z"/>
<path d="M5000 2521 c0 -4 43 -28 95 -54 52 -26 95 -45 95 -42 0 2 -43 26 -95
53 -52 27 -95 46 -95 43z"/>
<path d="M3700 2505 c0 -5 5 -17 10 -25 5 -8 10 -10 10 -5 0 6 -5 17 -10 25
-5 8 -10 11 -10 5z"/>
<path d="M4970 2496 c0 -2 8 -10 18 -17 15 -13 16 -12 3 4 -13 16 -21 21 -21
13z"/>
<path d="M2950 2480 c-12 -8 -10 -9 7 -7 12 2 26 6 29 10 11 11 -19 8 -36 -3z"/>
<path d="M2995 2470 c-3 -5 1 -10 10 -10 9 0 13 5 10 10 -3 6 -8 10 -10 10 -2
0 -7 -4 -10 -10z"/>
<path d="M5014 2469 c-3 -6 -1 -16 4 -21 8 -8 11 -5 9 11 -1 24 -3 25 -13 10z"/>
<path d="M3079 2454 c-10 -13 -10 -17 1 -24 20 -12 29 -4 23 20 -6 24 -7 24
-24 4z"/>
<path d="M4913 2440 c26 -17 50 -37 53 -45 4 -8 11 -15 16 -15 6 0 4 8 -3 17
-19 23 -90 73 -103 73 -6 0 11 -14 37 -30z"/>
<path d="M6005 2454 c-72 -37 -143 -158 -190 -319 -35 -123 -68 -201 -182
-430 -19 -38 -30 -65 -25 -60 11 10 107 201 167 330 19 42 42 101 51 133 24
89 75 212 85 206 5 -3 6 1 3 9 -7 20 72 117 96 117 10 0 22 5 25 10 9 14 27
12 71 -7 22 -9 41 -17 44 -17 12 -2 312 -139 425 -195 66 -33 111 -53 100 -44
-53 41 -583 283 -621 283 -10 0 -32 -7 -49 -16z"/>
<path d="M2876 2444 c-3 -7 5 -9 20 -6 13 2 24 8 24 13 0 12 -39 6 -44 -7z"/>
<path d="M3287 2436 c4 -20 2 -27 -5 -22 -8 5 -10 1 -5 -10 6 -15 7 -15 15 0
8 14 13 15 24 5 11 -9 14 -8 14 5 0 9 -5 16 -11 16 -7 0 -17 8 -24 17 -11 15
-12 14 -8 -11z"/>
<path d="M3341 2450 c0 -21 27 -55 36 -46 4 4 3 10 -3 14 -6 4 -16 16 -22 27
-8 14 -11 15 -11 5z"/>
<path d="M3721 2455 c0 -5 8 -26 19 -45 11 -19 19 -30 19 -25 0 6 -8 26 -19
45 -11 19 -19 31 -19 25z"/>
<path d="M3240 2440 c0 -5 5 -10 10 -10 6 0 10 5 10 10 0 6 -4 10 -10 10 -5 0
-10 -4 -10 -10z"/>
<path d="M3030 2419 c0 -5 5 -7 10 -4 6 3 10 8 10 11 0 2 -4 4 -10 4 -5 0 -10
-5 -10 -11z"/>
<path d="M2865 2409 c-11 -17 1 -21 15 -4 8 9 8 15 2 15 -6 0 -14 -5 -17 -11z"/>
<path d="M3052 2395 c-11 -13 -10 -15 6 -15 10 0 19 7 19 15 0 19 -8 19 -25 0z"/>
<path d="M3180 2400 c0 -5 4 -10 9 -10 6 0 13 5 16 10 3 6 -1 10 -9 10 -9 0
-16 -4 -16 -10z"/>
<path d="M6020 2375 c-7 -8 -8 -15 -2 -15 5 0 15 7 22 15 7 8 8 15 2 15 -5 0
-15 -7 -22 -15z"/>
<path d="M532 2345 c0 -16 2 -22 5 -12 2 9 2 23 0 30 -3 6 -5 -1 -5 -18z"/>
<path d="M5950 2360 c0 -5 5 -10 11 -10 5 0 7 5 4 10 -3 6 -8 10 -11 10 -2 0
-4 -4 -4 -10z"/>
<path d="M6055 2359 c-4 -6 -5 -12 -2 -15 2 -3 7 2 10 11 7 17 1 20 -8 4z"/>
<path d="M3780 2321 c0 -6 4 -13 10 -16 6 -3 7 1 4 9 -7 18 -14 21 -14 7z"/>
<path d="M6000 2271 c-21 -42 -26 -62 -18 -67 7 -5 8 -3 3 6 -6 10 -4 12 8 7
12 -4 14 -2 10 10 -4 11 -3 14 6 9 19 -12 50 34 41 60 -5 12 -6 25 -3 28 4 3
1 6 -5 6 -7 0 -25 -27 -42 -59z m36 3 c-3 -9 -6 -18 -6 -20 0 -2 -5 -4 -11 -4
-8 0 -9 4 0 13 6 8 8 17 4 20 -3 4 -1 7 6 7 8 0 11 -6 7 -16z"/>
<path d="M6137 2313 c-10 -9 -9 -23 2 -23 5 0 11 7 15 15 5 15 -5 20 -17 8z"/>
<path d="M542 2280 c0 -14 2 -19 5 -12 2 6 2 18 0 25 -3 6 -5 1 -5 -13z"/>
<path d="M2310 2287 c0 -17 60 -95 77 -101 14 -5 14 -3 -3 11 -12 10 -33 36
-48 58 -14 22 -26 36 -26 32z"/>
<path d="M5470 2276 c0 -2 7 -7 16 -10 8 -3 12 -2 9 4 -6 10 -25 14 -25 6z"/>
<path d="M6236 2271 c-4 -7 -5 -15 -2 -18 9 -9 19 4 14 18 -4 11 -6 11 -12 0z"/>
<path d="M6265 2240 c4 -6 11 -8 16 -5 14 9 11 15 -7 15 -8 0 -12 -5 -9 -10z"/>
<path d="M552 2220 c0 -14 2 -19 5 -12 2 6 2 18 0 25 -3 6 -5 1 -5 -13z"/>
<path d="M7547 2168 c-63 -179 -81 -287 -74 -442 3 -65 10 -123 16 -129 8 -8
11 -3 11 17 0 16 7 49 15 75 8 25 22 72 31 104 14 48 21 58 35 54 17 -5 18 2
14 94 -4 84 -2 107 15 147 10 26 21 66 23 88 3 36 1 41 -15 37 -10 -3 -20 1
-24 11 -11 29 -21 17 -47 -56z"/>
<path d="M7810 2204 c0 -8 5 -12 10 -9 6 4 8 11 5 16 -9 14 -15 11 -15 -7z"/>
<path d="M7656 2195 c4 -8 11 -15 16 -15 6 0 5 6 -2 15 -7 8 -14 15 -16 15 -2
0 -1 -7 2 -15z"/>
<path d="M2730 2186 c0 -8 4 -17 9 -20 5 -4 7 3 4 14 -6 23 -13 26 -13 6z"/>
<path d="M6131 2184 c0 -11 3 -14 6 -6 3 7 2 16 -1 19 -3 4 -6 -2 -5 -13z"/>
<path d="M2433 2131 c20 -24 43 -62 51 -85 8 -22 15 -33 15 -23 1 28 -34 89
-70 122 -33 30 -33 30 4 -14z"/>
<path d="M3870 2150 c6 -11 13 -20 16 -20 2 0 0 9 -6 20 -6 11 -13 20 -16 20
-2 0 0 -9 6 -20z"/>
<path d="M6410 2160 c0 -5 5 -10 10 -10 6 0 10 5 10 10 0 6 -4 10 -10 10 -5 0
-10 -4 -10 -10z"/>
<path d="M6700 2167 c0 -2 22 -19 49 -37 31 -21 47 -39 44 -48 -4 -9 0 -12 13
-10 13 2 18 -2 16 -13 -1 -10 6 -19 18 -22 12 -3 20 -13 20 -26 0 -24 -3 -25
-29 -9 -16 9 -28 8 -62 -8 -37 -16 -89 -57 -89 -69 0 -2 24 12 53 31 51 34 71
37 118 19 23 -9 29 15 14 59 -14 40 -20 45 -102 101 -48 33 -63 40 -63 32z"/>
<path d="M1200 2150 c-9 -6 -10 -10 -3 -10 6 0 15 5 18 10 8 12 4 12 -15 0z"/>
<path d="M6389 2123 c-13 -16 -12 -17 4 -4 13 10 20 11 30 2 14 -11 27 -6 27
11 0 15 -47 8 -61 -9z"/>
<path d="M7699 2123 c-13 -16 -12 -17 4 -4 16 13 21 21 13 21 -2 0 -10 -8 -17
-17z"/>
<path d="M6105 2120 c3 -5 8 -10 11 -10 2 0 4 5 4 10 0 6 -5 10 -11 10 -5 0
-7 -4 -4 -10z"/>
<path d="M6467 2123 c-4 -3 -7 -11 -7 -17 0 -6 5 -5 12 2 6 6 9 14 7 17 -3 3
-9 2 -12 -2z"/>
<path d="M6514 2105 c11 -8 22 -12 25 -9 6 6 -19 24 -34 24 -5 -1 -1 -7 9 -15z"/>
<path d="M7670 2080 c-6 -11 -8 -20 -6 -20 3 0 10 9 16 20 6 11 8 20 6 20 -3
0 -10 -9 -16 -20z"/>
<path d="M6640 2081 c0 -5 -11 -12 -25 -15 -14 -4 -25 -11 -25 -17 0 -6 5 -7
11 -3 6 3 14 2 18 -4 4 -6 13 2 23 19 9 16 13 29 8 29 -6 0 -10 -4 -10 -9z"/>
<path d="M6343 2054 c-12 -13 -18 -24 -14 -24 5 0 6 -11 3 -25 -5 -30 13 -34
21 -5 3 12 14 20 27 20 12 0 18 4 15 10 -4 6 -11 8 -16 5 -5 -4 -9 -2 -9 4 0
5 7 11 15 13 13 2 13 5 -3 14 -15 10 -22 7 -39 -12z"/>
<path d="M7849 2044 l-34 -37 32 23 c18 13 34 29 37 37 8 20 3 17 -35 -23z"/>
<path d="M838 2063 c7 -3 16 -2 19 1 4 3 -2 6 -13 5 -11 0 -14 -3 -6 -6z"/>
<path d="M2635 2059 c-4 -6 -5 -12 -2 -15 2 -3 7 2 10 11 7 17 1 20 -8 4z"/>
<path d="M6556 2043 c-6 -14 -5 -15 5 -6 7 7 10 15 7 18 -3 3 -9 -2 -12 -12z"/>
<path d="M6737 2032 c-19 -20 -23 -29 -13 -29 8 0 13 4 10 8 -9 15 17 21 33 7
10 -8 14 -8 10 -1 -4 7 1 14 13 18 11 4 18 11 14 16 -4 6 -11 6 -19 -1 -9 -8
-14 -8 -17 0 -2 6 -16 -2 -31 -18z"/>
<path d="M2595 2039 c-4 -6 -5 -12 -2 -15 2 -3 7 2 10 11 7 17 1 20 -8 4z"/>
<path d="M2627 2011 c-4 -17 -3 -21 5 -13 5 5 8 16 6 23 -3 8 -7 3 -11 -10z"/>
<path d="M8688 2023 c-10 -2 -18 -12 -17 -21 1 -26 15 -57 21 -46 7 11 21 74
16 73 -2 -1 -11 -3 -20 -6z"/>
<path d="M6440 2009 c0 -5 5 -7 10 -4 6 3 10 8 10 11 0 2 -4 4 -10 4 -5 0 -10
-5 -10 -11z"/>
<path d="M6535 2010 c-3 -5 -1 -10 4 -10 6 0 11 5 11 10 0 6 -2 10 -4 10 -3 0
-8 -4 -11 -10z"/>
<path d="M6560 2010 c0 -5 5 -10 11 -10 5 0 7 5 4 10 -3 6 -8 10 -11 10 -2 0
-4 -4 -4 -10z"/>
<path d="M6678 2001 c-8 -12 -17 -18 -20 -15 -3 3 -9 0 -14 -7 -4 -8 -3 -10 4
-5 19 12 14 -9 -9 -35 -23 -25 -56 -92 -62 -125 -2 -10 -18 -48 -34 -84 -34
-73 -63 -153 -63 -175 0 -8 -4 -15 -10 -15 -5 0 -10 -7 -10 -16 0 -11 8 -14
28 -12 21 2 27 8 25 26 -2 17 3 22 20 23 17 1 18 2 4 6 -13 3 -16 10 -11 25 3
11 6 35 6 53 0 24 4 32 13 29 8 -4 16 6 20 25 4 17 11 33 16 36 13 9 11 -7 -6
-49 -12 -27 -13 -42 -5 -56 6 -11 7 -20 1 -20 -5 0 -12 -7 -15 -16 -3 -8 -2
-12 4 -9 14 8 13 -12 -2 -38 -13 -24 -15 -29 -24 -72 -4 -16 -14 -39 -24 -50
-9 -11 -22 -29 -28 -40 -11 -19 -11 -18 -12 7 0 15 5 30 10 33 7 4 7 13 0 26
-6 10 -7 19 -2 19 5 0 9 7 9 15 0 20 -33 19 -41 -2 -4 -9 -1 -20 6 -25 10 -6
8 -8 -4 -8 -13 0 -18 -9 -19 -32 -2 -41 -2 -43 -18 -97 -7 -25 -14 -63 -16
-85 -2 -23 -11 -68 -19 -100 -17 -62 -16 -72 6 -63 15 5 78 128 78 152 0 8 4
15 9 15 15 0 73 99 65 111 -4 7 -3 9 4 5 6 -3 16 2 21 13 14 26 14 34 -1 25
-8 -4 -10 -3 -5 2 5 5 14 9 20 9 20 0 18 23 -3 43 l-22 20 25 -2 c17 -1 23 -6
20 -16 -6 -20 27 21 79 98 42 61 48 64 91 47 10 -4 17 -3 17 4 0 6 -10 11 -21
11 -13 0 -43 21 -72 50 l-49 49 6 58 c10 85 11 92 24 105 7 7 12 18 12 26 0
12 -3 12 -15 2 -8 -7 -15 -9 -15 -4 0 5 -7 0 -15 -10 -17 -23 -20 -14 -4 15 5
11 14 17 19 14 6 -3 7 1 4 9 -3 9 -1 16 5 16 6 0 10 3 9 8 -1 4 6 20 16 35 22
32 15 49 -6 18z m-43 -173 c-10 -35 -28 -68 -37 -68 -11 0 -10 28 2 35 6 4 8
11 4 16 -6 11 13 39 28 39 5 0 7 -10 3 -22z m60 -224 c-8 -9 -15 -20 -15 -26
0 -6 -2 -9 -5 -6 -9 8 17 58 27 52 4 -3 1 -12 -7 -20z m-225 -260 c0 -8 -5
-14 -11 -14 -5 0 -7 -4 -4 -10 3 -6 -1 -7 -9 -4 -18 7 -22 24 -6 24 6 0 10 7
10 16 0 8 5 12 10 9 6 -3 10 -13 10 -21z m21 -63 c-7 -12 -17 -18 -26 -15 -10
4 -15 0 -15 -11 0 -9 -4 -13 -10 -10 -21 13 -10 41 18 43 15 1 29 7 31 13 1 6
5 8 8 5 2 -2 0 -14 -6 -25z m-47 -66 c3 -8 1 -15 -4 -15 -6 0 -10 7 -10 15 0
8 2 15 4 15 2 0 6 -7 10 -15z m-26 -55 c-12 -36 -28 -50 -21 -18 6 22 21 48
29 48 1 0 -2 -14 -8 -30z"/>
<path d="M7884 1979 c-20 -22 -23 -28 -8 -19 18 11 50 50 41 50 -2 0 -16 -14
-33 -31z"/>
<path d="M2503 1960 c0 -25 2 -35 4 -22 2 12 2 32 0 45 -2 12 -4 2 -4 -23z"/>
<path d="M4020 1945 c13 -14 26 -25 28 -25 3 0 -5 11 -18 25 -13 14 -26 25
-28 25 -3 0 5 -11 18 -25z"/>
<path d="M6887 1959 c7 -7 15 -10 18 -7 3 3 -2 9 -12 12 -14 6 -15 5 -6 -5z"/>
<path d="M2534 1938 l-19 -23 23 19 c21 18 27 26 19 26 -2 0 -12 -10 -23 -22z"/>
<path d="M6350 1950 c-8 -5 -12 -11 -9 -14 2 -3 11 -1 19 4 8 5 12 11 9 14 -2
3 -11 1 -19 -4z"/>
<path d="M6537 1953 c-4 -3 -7 -11 -7 -17 0 -6 5 -5 12 2 6 6 9 14 7 17 -3 3
-9 2 -12 -2z"/>
<path d="M6920 1946 c0 -2 7 -7 16 -10 8 -3 12 -2 9 4 -6 10 -25 14 -25 6z"/>
<path d="M6390 1935 c0 -5 5 -17 10 -25 5 -8 10 -10 10 -5 0 6 -5 17 -10 25
-5 8 -10 11 -10 5z"/>
<path d="M6935 1909 c-32 -20 -27 -26 7 -8 16 9 23 8 29 -2 7 -11 9 -10 9 3 0
25 -12 27 -45 7z"/>
<path d="M7967 1905 c-62 -29 -63 -31 -14 -27 39 3 45 0 75 -37 27 -34 39 -41
67 -41 19 0 35 2 35 4 0 14 -56 99 -73 111 -27 19 -32 18 -90 -10z"/>
<path d="M8560 1919 c-38 -15 -80 -60 -80 -86 0 -32 23 -29 70 8 32 26 44 30
70 24 l32 -7 -16 30 c-12 23 -38 45 -49 41 -1 0 -13 -5 -27 -10z"/>
<path d="M2485 1900 c-3 -5 -2 -10 4 -10 5 0 13 5 16 10 3 6 2 10 -4 10 -5 0
-13 -4 -16 -10z"/>
<path d="M4100 1858 c24 -27 45 -48 47 -48 8 0 0 9 -44 50 l-48 45 45 -47z"/>
<path d="M7841 1884 c0 -11 3 -14 6 -6 3 7 2 16 -1 19 -3 4 -6 -2 -5 -13z"/>
<path d="M7570 1835 c0 -4 15 -28 33 -54 18 -25 32 -54 29 -63 -2 -10 4 -32
12 -50 20 -38 20 -42 2 -35 -9 4 -16 -4 -20 -25 -10 -49 -7 -178 4 -199 8 -14
7 -19 -2 -19 -7 -1 -2 -10 11 -20 13 -11 18 -20 12 -20 -6 0 -11 -11 -11 -24
0 -14 -4 -28 -10 -31 -5 -3 -10 -11 -10 -16 0 -6 5 -7 10 -4 6 3 13 -1 16 -10
5 -11 10 -13 19 -5 9 8 14 4 18 -17 6 -34 5 -36 -32 -37 -28 -1 -50 -29 -32
-41 9 -5 8 -35 -1 -50 -3 -6 5 -41 17 -80 12 -38 30 -105 40 -147 14 -61 20
-75 33 -71 10 4 13 2 8 -5 -3 -6 -1 -14 5 -18 9 -5 7 -11 -6 -20 -25 -18 -59
1 -119 67 -81 89 -116 186 -116 323 0 48 0 49 -20 31 -51 -47 -74 -183 -45
-277 18 -61 3 -62 -20 -2 -17 45 -15 100 8 226 5 24 50 88 63 88 6 0 11 20 11
48 1 33 -2 41 -7 27 -5 -11 -9 -30 -9 -43 -1 -18 -5 -21 -25 -16 -29 7 -94
-52 -77 -69 15 -15 14 -27 -4 -27 -8 0 -14 -3 -14 -7 3 -21 -3 -31 -21 -36
-11 -3 -20 -1 -20 5 0 5 -5 6 -10 3 -6 -4 -26 -8 -45 -10 -29 -2 -35 0 -35 16
0 10 5 19 11 19 6 0 9 7 6 14 -5 13 17 73 32 86 3 3 12 19 20 35 8 17 31 45
50 63 20 18 29 30 20 27 -10 -4 -20 -1 -25 6 -4 8 -3 10 4 5 7 -4 17 -4 24 0
7 4 28 9 48 11 19 2 37 8 38 13 6 18 22 10 22 -10 0 -11 5 -20 10 -20 15 0 12
93 -5 134 -8 19 -20 58 -26 86 -7 32 -16 50 -25 50 -39 0 -206 -112 -369 -247
-210 -174 -332 -314 -536 -612 l-82 -119 13 -49 c20 -76 110 -257 141 -283 3
-3 21 -28 40 -57 42 -63 112 -138 165 -177 21 -17 41 -33 44 -36 3 -4 23 -19
45 -33 l40 -27 412 0 413 0 67 102 c36 56 86 139 110 185 25 46 53 88 63 93
10 5 28 31 41 57 12 27 42 67 66 90 23 24 43 52 43 63 0 13 12 26 34 36 23 11
41 32 56 63 13 25 24 48 26 50 2 2 40 -21 86 -51 124 -82 145 -93 238 -126
123 -44 136 -45 238 -23 118 26 153 43 205 101 52 58 61 86 83 261 17 129 17
146 1 286 -19 172 -36 244 -78 331 -26 53 -34 62 -58 62 -15 0 -45 -9 -66 -21
-22 -12 -53 -28 -70 -37 -16 -9 -56 -42 -87 -73 -43 -43 -58 -65 -58 -86 0
-15 -7 -53 -15 -83 -8 -30 -12 -56 -10 -58 2 -2 8 14 14 37 6 23 16 59 21 81
8 30 14 38 27 33 10 -4 22 3 34 18 10 13 19 18 19 11 0 -10 4 -10 16 2 27 27
33 18 14 -21 -13 -28 -15 -40 -7 -46 9 -5 5 -13 -10 -26 -15 -13 -20 -25 -16
-40 4 -17 0 -24 -16 -28 -11 -3 -21 -9 -21 -14 0 -5 7 -6 15 -3 9 4 15 0 15
-10 0 -9 -7 -16 -15 -16 -12 0 -21 -30 -13 -42 1 -2 -4 -13 -10 -25 -7 -13 -8
-23 -2 -25 6 -2 5 -20 -2 -47 -10 -39 -9 -45 7 -57 18 -13 18 -14 -2 -14 -12
0 -23 -8 -26 -20 -3 -11 -1 -20 4 -20 5 0 9 7 9 15 0 21 29 19 69 -6 27 -16
39 -19 57 -11 12 6 39 9 61 8 21 -2 32 -2 25 1 -21 8 -4 21 22 16 28 -6 28
-10 -12 -95 -15 -32 -33 -58 -40 -58 -7 0 -10 5 -6 12 5 7 3 8 -5 4 -7 -5 -10
-15 -7 -23 3 -8 -1 -24 -9 -36 -8 -12 -15 -16 -15 -9 0 6 -4 12 -10 12 -5 0
-10 -7 -10 -15 0 -8 -9 -20 -20 -27 -11 -7 -20 -19 -20 -26 0 -9 -6 -12 -16
-8 -9 3 -20 6 -25 6 -5 0 -9 5 -9 10 0 6 11 10 25 10 18 0 25 5 25 20 0 11 5
20 10 20 6 0 10 5 10 10 0 13 -50 33 -59 24 -3 -4 0 -9 7 -11 22 -8 12 -20
-13 -15 -21 4 -24 1 -18 -14 5 -13 3 -16 -10 -11 -9 3 -17 2 -17 -3 0 -6 5
-10 11 -10 6 0 9 -7 6 -15 -4 -8 -2 -17 4 -21 6 -3 8 -13 5 -21 -5 -11 -2 -13
11 -8 10 4 27 9 38 12 17 4 18 3 5 -7 -13 -10 -13 -11 0 -6 8 3 23 9 33 12 10
4 16 13 13 20 -3 7 4 16 15 19 10 4 19 11 19 16 0 5 6 9 14 9 8 0 17 6 19 13
4 9 6 9 6 -1 1 -7 -17 -37 -39 -67 -39 -53 -62 -66 -75 -45 -10 16 -35 12 -29
-5 4 -8 15 -15 26 -15 15 0 18 -4 13 -18 -5 -14 -4 -15 6 -4 15 14 29 16 29 4
0 -15 -50 -32 -76 -26 -14 4 -31 1 -39 -6 -13 -11 -19 -7 -17 11 1 4 -7 5 -18
2 -54 -14 -106 145 -101 307 2 66 19 167 33 193 16 31 1 32 -54 4 -52 -25
-109 -70 -196 -154 -57 -55 -82 -64 -82 -29 0 13 6 31 13 38 6 7 12 19 13 26
2 27 4 32 15 32 8 0 7 -6 -2 -17 -10 -14 -8 -13 10 2 l23 20 -24 6 c-17 5 -18
7 -5 8 10 1 15 6 12 11 -3 5 -3 15 1 21 4 8 12 3 20 -12 9 -17 13 -19 14 -8 0
9 -7 22 -15 29 -19 16 -19 30 1 30 8 0 12 5 9 10 -3 6 -3 16 2 23 4 6 8 19 8
27 0 23 105 91 129 84 16 -4 18 -3 6 5 -12 8 -11 13 8 34 12 13 22 34 22 48 0
29 -35 89 -52 90 -34 3 -95 -4 -109 -12 -9 -4 -29 -11 -45 -13 -160 -29 -186
-41 -203 -96 -17 -58 -13 -107 12 -146 21 -33 24 -35 64 -30 l42 6 -30 -53
c-39 -66 -162 -239 -182 -256 -13 -10 -18 -8 -32 13 -14 21 -16 39 -9 113 4
48 7 111 6 140 -1 29 2 54 6 57 5 3 4 40 0 83 -5 43 -7 95 -5 116 3 20 2 35
-2 33 -10 -7 -33 83 -25 96 5 7 0 9 -14 6 -12 -4 -20 -2 -17 2 3 5 -4 34 -16
65 -35 95 -129 249 -129 213 0 -9 7 -21 16 -28 22 -19 61 -89 89 -161 14 -34
25 -65 25 -68 0 -3 -16 10 -35 29 -19 18 -33 36 -30 38 8 9 -26 63 -36 56 -6
-4 -3 -14 8 -27 l18 -22 -23 19 c-12 11 -20 21 -17 24 3 3 -7 20 -20 38 -21
27 -24 38 -15 53 16 31 11 38 -9 14 -11 -13 -17 -31 -14 -43 10 -36 -15 -21
-87 53 -44 45 -68 77 -65 87 4 8 3 11 -1 7 -4 -4 -13 -2 -21 4 -7 6 -13 8 -13
4z m170 -192 c84 -72 104 -92 94 -93 -5 0 -20 9 -32 20 -26 25 -41 26 -19 2
11 -12 13 -22 7 -32 -8 -13 -12 -12 -25 5 -9 11 -13 13 -9 5 4 -8 3 -11 -1 -7
-5 4 -11 20 -13 35 -2 16 -24 48 -53 77 -55 57 -69 98 -16 48 17 -16 48 -44
67 -60z m-407 -119 c-3 -9 2 -14 13 -15 17 -1 17 -2 2 -6 -10 -2 -18 -11 -18
-19 0 -8 -5 -14 -12 -14 -6 0 -8 -3 -5 -6 4 -4 17 1 31 9 16 11 26 13 28 6 2
-6 15 -9 28 -6 25 4 25 5 3 12 -12 4 -24 14 -28 22 -5 14 -3 14 11 2 16 -13
17 -11 11 16 -7 28 -6 29 8 11 8 -11 15 -26 15 -33 0 -8 7 -27 15 -43 16 -30
16 -30 -14 -30 -17 0 -55 -11 -85 -24 -30 -13 -57 -22 -60 -20 -3 2 -4 1 -1
-2 2 -4 -15 -20 -38 -37 -23 -17 -43 -34 -45 -39 -2 -4 -15 -8 -28 -8 -13 0
-24 -5 -24 -11 0 -5 -4 -7 -10 -4 -5 3 -10 1 -10 -4 0 -15 23 -14 40 2 12 10
12 9 0 -6 -8 -11 -21 -16 -32 -14 -20 6 -25 -8 -5 -16 6 -3 -4 -3 -23 0 -19 3
-46 15 -59 25 -16 12 -27 15 -31 8 -4 -7 -18 -8 -33 -4 -20 5 -27 2 -27 -9 0
-11 7 -13 23 -10 l22 6 -22 -25 c-26 -27 -29 -48 -10 -67 10 -11 8 -11 -10 -2
-30 15 -33 14 -33 -10 0 -18 -2 -19 -15 -9 -12 10 -16 8 -24 -11 -5 -13 -10
-18 -10 -11 -1 6 -9 12 -18 13 -17 0 -17 1 0 8 10 4 17 10 15 14 -2 4 7 14 20
23 17 12 20 19 12 29 -8 9 -8 15 0 20 5 3 10 1 10 -4 0 -6 6 -11 14 -11 8 0
14 10 14 25 0 22 -3 24 -17 13 -9 -6 -3 1 12 16 16 16 34 25 43 22 12 -4 14
-1 9 14 -4 13 -2 20 7 20 7 0 19 9 26 20 7 11 18 20 25 19 9 0 9 -2 0 -6 -23
-9 -14 -25 9 -17 20 6 21 5 9 -9 -7 -9 -17 -15 -21 -12 -5 3 -11 1 -15 -5 -8
-13 16 -37 50 -50 22 -8 27 -7 34 13 7 18 5 23 -11 25 -13 2 -18 9 -14 19 3 8
6 17 6 19 0 2 9 4 20 4 11 0 20 5 20 11 0 5 -5 7 -12 3 -7 -4 -8 -3 -4 4 4 7
19 12 34 13 l27 1 -25 7 c-17 5 -31 3 -42 -7 -10 -8 -25 -12 -35 -7 -15 6 -12
11 22 41 22 19 50 37 63 40 12 3 22 13 22 21 0 13 3 13 15 3 12 -10 15 -10 15
4 0 20 13 20 51 1 26 -14 30 -14 35 0 9 24 -4 48 -22 41 -14 -5 -15 -4 -5 8 7
8 19 12 27 9 8 -3 14 0 14 7 0 10 3 10 14 0 8 -6 12 -18 9 -26z m393 8 c-4 -3
-14 2 -24 12 -16 18 -16 18 6 6 13 -6 21 -14 18 -18z m-13 -63 c-3 -10 -10
-19 -15 -19 -6 0 -7 7 -4 16 3 9 6 23 6 32 0 14 2 14 9 3 5 -7 6 -22 4 -32z
m155 16 c-3 -3 -9 2 -12 12 -6 14 -5 15 5 6 7 -7 10 -15 7 -18z m-83 5 c-3 -5
-10 -10 -16 -10 -5 0 -9 5 -9 10 0 6 7 10 16 10 8 0 12 -4 9 -10z m55 -5 c0
-8 5 -15 11 -15 7 0 9 -10 7 -25 -3 -14 -2 -25 2 -25 13 0 5 -45 -10 -57 -12
-10 -16 -6 -23 20 -5 18 -9 43 -10 56 -1 13 -8 26 -15 29 -10 3 -10 7 -1 18
15 19 39 18 39 -1z m-40 -44 c0 -6 -9 -9 -20 -8 -11 1 -20 5 -20 9 0 4 9 8 20
8 11 0 20 -4 20 -9z m-86 -17 c21 -8 21 -24 0 -24 -8 0 -13 4 -9 9 3 5 -3 12
-12 14 -10 3 -13 5 -6 6 6 0 18 -2 27 -5z m81 -14 c3 -5 1 -10 -4 -10 -6 0
-11 5 -11 10 0 6 2 10 4 10 3 0 8 -4 11 -10z m699 -6 c23 -9 40 -68 26 -94
-13 -25 -9 -25 -60 4 -27 15 -37 26 -28 29 7 3 -16 3 -51 0 -54 -4 -63 -3 -58
10 5 12 0 13 -26 5 -18 -6 -40 -15 -49 -19 -25 -12 -51 -11 -43 2 4 6 13 8 20
5 8 -3 15 -1 17 4 3 9 176 56 215 59 12 0 28 -2 37 -5z m-809 -24 c3 -5 1 -10
-4 -10 -6 0 -11 5 -11 10 0 6 2 10 4 10 3 0 8 -4 11 -10z m70 -10 c3 -5 2 -10
-4 -10 -5 0 -13 5 -16 10 -3 6 -2 10 4 10 5 0 13 -4 16 -10z m45 -10 c0 -5 -4
-10 -10 -10 -5 0 -10 5 -10 10 0 6 5 10 10 10 6 0 10 -4 10 -10z m70 -35 c0
-8 -5 -17 -11 -20 -5 -4 -8 -12 -6 -18 2 -7 -2 -30 -9 -53 -7 -23 -8 -47 -4
-55 5 -9 4 -21 -2 -29 -8 -12 -9 -11 -4 3 4 12 2 17 -6 15 -21 -7 -21 -29 1
-35 12 -3 21 -10 21 -15 0 -6 -7 -8 -15 -5 -21 9 -28 -9 -9 -27 8 -9 11 -16 5
-16 -5 0 -16 7 -25 15 -8 8 -22 15 -30 15 -23 0 -20 17 4 23 13 3 18 10 14 21
-3 9 -1 16 6 16 6 0 8 5 5 11 -4 5 -1 24 6 41 10 25 10 31 -2 39 -12 8 -12 10
0 18 12 8 12 12 2 24 -8 11 -9 17 -1 22 6 3 8 10 5 15 -6 10 24 18 43 12 6 -2
12 -10 12 -17z m480 -20 c0 -8 5 -15 11 -15 6 0 8 7 5 16 -4 11 -1 14 12 11 9
-3 33 -8 53 -11 66 -11 67 -30 2 -69 -36 -23 -62 -32 -67 -26 -16 15 -28 10
-22 -9 10 -29 -94 -69 -164 -63 -13 1 -13 2 0 11 13 8 13 10 -2 10 -26 0 -28
13 -11 62 13 34 24 48 47 56 16 7 32 8 35 4 6 -7 57 -32 66 -32 2 0 2 7 -1 15
-4 8 -12 15 -20 15 -14 0 -19 22 -7 33 13 14 63 7 63 -8z m540 -25 c0 -5 -7
-10 -15 -10 -8 0 -15 5 -15 10 0 6 7 10 15 10 8 0 15 -4 15 -10z m-1849 -31
c10 -19 8 -20 -10 -14 -16 5 -21 2 -21 -13 0 -11 -7 -23 -16 -26 -12 -5 -14
-1 -9 15 6 18 35 59 42 59 1 0 7 -9 14 -21z m1840 -35 c6 -8 5 -14 -4 -17 -8
-3 -20 -26 -28 -51 -7 -25 -17 -46 -22 -46 -5 0 -6 8 -2 18 3 9 9 31 12 47 3
17 10 35 15 42 13 16 0 36 -18 29 -7 -3 -16 -1 -19 4 -3 5 7 10 22 12 19 2 29
-2 32 -12 2 -8 7 -20 12 -26z m-1781 -4 c0 -5 -2 -10 -4 -10 -3 0 -8 5 -11 10
-3 6 -1 10 4 10 6 0 11 -4 11 -10z m685 0 c3 -5 1 -10 -4 -10 -6 0 -11 5 -11
10 0 6 2 10 4 10 3 0 8 -4 11 -10z m-905 -10 c0 -5 -2 -10 -4 -10 -3 0 -8 5
-11 10 -3 6 -1 10 4 10 6 0 11 -4 11 -10z m174 -32 c-10 -12 -14 -18 -7 -15 6
4 15 3 18 -3 4 -6 1 -9 -6 -8 -6 2 -14 -3 -17 -11 -3 -10 0 -11 9 -5 12 6 12
5 0 -9 -17 -21 -17 -21 -24 24 -4 31 -2 38 16 47 30 13 34 6 11 -20z m616 18
c0 -2 -7 -6 -15 -10 -8 -3 -15 -1 -15 4 0 6 7 10 15 10 8 0 15 -2 15 -4z
m-834 -46 c1 -32 -10 -40 -20 -14 -4 9 -1 23 5 30 15 18 14 19 15 -16z m169
-50 c0 -39 -3 -70 -7 -70 -10 0 -10 1 -12 70 -1 30 3 58 9 62 5 4 10 8 10 8 0
0 0 -32 0 -70z m165 60 c0 -5 -4 -10 -10 -10 -5 0 -10 5 -10 10 0 6 5 10 10
10 6 0 10 -4 10 -10z m1792 -47 c-31 -17 -30 -17 -24 12 2 14 8 22 13 19 5 -3
9 3 9 13 0 14 3 12 13 -7 11 -23 10 -26 -11 -37z m-2155 7 c-1 -12 -13 -25
-29 -33 -30 -13 -35 -22 -15 -31 6 -3 1 -3 -12 0 -19 5 -23 3 -18 -10 3 -8 1
-19 -6 -23 -17 -11 -17 -52 0 -46 7 3 11 15 10 26 -1 16 4 23 21 25 16 3 22
-2 22 -15 0 -13 -3 -14 -8 -6 -5 9 -12 1 -21 -22 -7 -19 -19 -35 -27 -35 -8 0
-14 -7 -14 -15 0 -8 -2 -15 -4 -15 -2 0 -11 -3 -20 -6 -11 -4 -16 -1 -16 10 0
18 -25 22 -35 6 -3 -5 1 -10 9 -10 9 0 16 -4 16 -10 0 -5 7 -10 15 -10 8 0 17
-11 21 -25 l6 -25 22 23 c11 13 34 40 51 60 37 46 51 48 27 5 -14 -26 -16 -39
-8 -60 5 -16 16 -28 23 -28 7 0 13 -6 13 -14 0 -8 12 -24 26 -35 15 -12 22
-21 17 -21 -6 0 -17 7 -24 16 -15 18 -59 37 -67 30 -3 -3 8 -11 24 -17 l29
-12 -53 -11 c-42 -9 -50 -14 -41 -23 16 -16 -5 -43 -33 -43 -13 0 -18 -5 -15
-14 3 -7 0 -19 -6 -25 -16 -16 -2 -24 22 -12 17 10 20 9 14 -5 -4 -12 -3 -15
5 -10 7 4 12 2 12 -4 0 -6 -6 -10 -14 -8 -8 2 -15 0 -15 -4 -2 -24 1 -28 20
-28 13 0 18 4 14 13 -4 6 2 1 13 -13 12 -13 17 -27 13 -30 -16 -12 -52 -71
-47 -78 3 -5 -8 -22 -24 -37 -17 -16 -30 -33 -30 -38 0 -16 -69 -79 -80 -72
-6 3 -10 18 -10 32 0 17 -4 24 -14 20 -9 -4 -22 13 -40 54 -15 32 -27 61 -27
64 1 3 -8 21 -20 41 -11 20 -18 39 -15 41 3 3 0 16 -5 30 -7 20 -6 30 8 46 12
14 13 18 3 12 -12 -7 -12 -4 2 15 9 14 21 24 27 23 6 -2 8 3 5 11 -9 22 13 32
100 45 4 0 6 8 2 16 -7 18 15 20 32 3 9 -9 12 -9 12 0 0 7 -5 12 -11 12 -5 0
-8 4 -5 9 7 10 -28 44 -37 35 -3 -3 -4 1 -3 10 4 29 154 227 171 226 22 -1 26
2 22 14 -6 14 1 26 14 26 4 0 7 -9 6 -20z m851 -9 c-7 -11 -16 -17 -20 -15
-14 9 -9 22 10 27 9 3 18 5 20 6 1 0 -3 -8 -10 -18z m-768 1 c0 -15 -11 -21
-27 -15 -12 5 -12 7 -1 14 17 11 28 11 28 1z m75 -2 c3 -6 -1 -7 -9 -4 -18 7
-21 14 -7 14 6 0 13 -4 16 -10z m1608 -51 c-23 -44 -28 -67 -30 -139 -2 -47
-3 -87 -4 -90 -1 -3 0 -18 0 -35 2 -23 0 -27 -8 -15 -6 8 -11 10 -11 5 0 -6 4
-15 10 -21 12 -12 1 -86 -11 -78 -5 3 -9 14 -9 24 0 11 -9 24 -21 30 -25 14
-41 3 -16 -11 9 -6 17 -18 17 -27 0 -14 -2 -15 -10 -2 -7 12 -9 10 -7 -7 0
-12 4 -21 7 -21 3 0 19 0 35 -1 26 -1 27 -3 12 -12 -9 -6 -15 -14 -12 -19 3
-5 1 -11 -5 -15 -6 -3 -13 1 -16 10 -5 12 -9 13 -21 4 -11 -10 -15 -8 -20 9
-3 12 -9 22 -14 22 -5 0 -9 4 -9 10 0 5 7 7 16 3 12 -4 15 -1 12 13 -4 23 -37
21 -55 -3 -17 -21 -28 -10 -14 14 6 10 11 14 11 10 0 -4 6 -2 14 5 9 9 11 17
4 25 -11 14 -5 92 9 102 5 3 15 26 22 51 18 63 69 149 110 187 19 18 36 31 38
29 2 -2 -9 -27 -24 -57z m-1520 31 c-3 -11 -9 -20 -14 -20 -14 0 -11 28 4 33
6 3 13 6 14 6 0 1 -1 -8 -4 -19z m-119 -16 c4 -15 5 -29 2 -31 -8 -9 -33 21
-33 40 0 27 24 20 31 -9z m334 14 c-16 -5 -28 -14 -28 -19 0 -5 -5 -9 -12 -9
-6 0 -3 9 7 20 10 11 28 20 39 19 18 0 16 -2 -6 -11z m-433 -8 c3 -5 1 -10 -4
-10 -6 0 -11 5 -11 10 0 6 2 10 4 10 3 0 8 -4 11 -10z m2120 -7 c-2 -10 -4
-22 -4 -27 -1 -6 -5 -6 -11 0 -11 11 -3 44 10 44 5 0 7 -8 5 -17z m-1829 -41
c17 -16 18 -32 3 -32 -6 0 -8 -13 -5 -30 2 -17 0 -30 -6 -30 -6 0 -8 7 -5 15
4 8 2 17 -3 20 -5 3 -7 11 -4 19 3 7 0 25 -6 40 -5 15 -7 33 -3 39 5 8 9 5 11
-7 2 -11 10 -26 18 -34z m689 38 c15 -7 10 -9 -22 -9 -24 -1 -43 4 -43 9 0 12
37 12 65 0z m-912 -24 c7 3 3 -2 -7 -10 -28 -23 -36 -20 -23 9 8 17 13 20 15
10 2 -8 9 -13 15 -9z m377 14 c0 -5 -2 -10 -4 -10 -3 0 -8 5 -11 10 -3 6 -1
10 4 10 6 0 11 -4 11 -10z m1537 -37 c-3 -10 -5 -2 -5 17 0 19 2 27 5 18 2
-10 2 -26 0 -35z m-1770 15 c-3 -8 -6 -5 -6 6 -1 11 2 17 5 13 3 -3 4 -12 1
-19z m1708 12 c3 -5 -1 -10 -9 -10 -9 0 -16 5 -16 10 0 6 4 10 9 10 6 0 13 -4
16 -10z m-916 -16 c2 -2 -12 -4 -33 -4 -22 0 -35 4 -31 10 5 9 52 4 64 -6z
m-407 -16 c-7 -7 -12 -8 -12 -2 0 14 12 26 19 19 2 -3 -1 -11 -7 -17z m1368 2
c0 -5 -8 -10 -17 -10 -15 0 -16 2 -3 10 19 12 20 12 20 0z m-1870 -10 c0 -5
-2 -10 -4 -10 -3 0 -8 5 -11 10 -3 6 -1 10 4 10 6 0 11 -4 11 -10z m355 0 c3
-5 1 -10 -4 -10 -6 0 -11 5 -11 10 0 6 2 10 4 10 3 0 8 -4 11 -10z m518 -6
c-4 -10 -9 -12 -16 -5 -5 5 -17 7 -26 4 -14 -4 -14 -3 -1 6 23 17 50 14 43 -5z
m-951 -22 c-6 -2 -8 -11 -5 -20 5 -13 3 -14 -6 -6 -10 9 -10 16 1 33 8 13 14
17 17 9 2 -7 -1 -14 -7 -16z m988 18 c0 -5 -5 -10 -11 -10 -5 0 -7 5 -4 10 3
6 8 10 11 10 2 0 4 -4 4 -10z m-473 -20 c-1 -11 -5 -20 -9 -20 -10 0 -10 4 -2
24 8 22 13 20 11 -4z m1451 9 c-2 -6 -8 -10 -13 -10 -5 0 -11 4 -13 10 -2 6 4
11 13 11 9 0 15 -5 13 -11z m-1664 -32 c4 -19 3 -26 -4 -22 -5 3 -10 18 -10
32 0 32 5 28 14 -10z m40 25 c3 -5 -1 -9 -9 -9 -8 0 -12 4 -9 9 3 4 7 8 9 8 2
0 6 -4 9 -8z m613 -49 c15 -11 15 -13 0 -18 -8 -4 -18 -18 -22 -32 -4 -17 -10
-23 -22 -19 -13 5 -14 4 -4 -8 10 -12 9 -13 -8 -9 -23 6 -28 29 -8 36 9 3 9 7
-1 19 -10 13 -9 17 5 23 10 5 22 7 26 6 5 -1 6 3 2 9 -4 6 -3 19 1 28 6 15 8
15 11 -3 3 -11 12 -26 20 -32z m15 15 c-9 -9 -12 -7 -12 12 0 19 3 21 12 12 9
-9 9 -15 0 -24z m-385 -15 c-3 -10 -5 -4 -5 12 0 17 2 24 5 18 2 -7 2 -21 0
-30z m-178 5 c6 10 10 10 21 -3 11 -13 10 -14 -5 -9 -15 6 -16 4 -6 -15 7 -12
9 -26 6 -31 -3 -6 5 -10 20 -10 14 0 24 4 21 8 -3 5 6 15 19 22 14 7 25 19 25
27 0 28 20 11 30 -27 6 -22 15 -40 20 -40 6 0 10 -8 10 -17 0 -14 -3 -14 -22
4 -29 25 -63 20 -48 -7 8 -15 5 -19 -16 -23 -21 -4 -25 -1 -21 14 5 17 0 18
-56 10 -16 -2 28 -63 52 -72 13 -5 21 -12 18 -15 -17 -17 -106 82 -107 118 0
7 -7 22 -15 32 -21 27 -2 50 26 33 16 -9 21 -9 28 1z m-402 -24 c-3 -3 -12 -4
-19 -1 -8 3 -5 6 6 6 11 1 17 -2 13 -5z m-137 -14 c0 -5 -4 -10 -10 -10 -5 0
-10 5 -10 10 0 6 5 10 10 10 6 0 10 -4 10 -10z m141 -59 c25 -41 11 -40 -22 2
-41 52 -46 63 -20 44 13 -8 32 -29 42 -46z m1565 33 c-4 -9 -9 -15 -11 -12 -3
3 -3 13 1 22 4 9 9 15 11 12 3 -3 3 -13 -1 -22z m-966 -35 c0 -6 -4 -7 -10 -4
-5 3 -10 11 -10 16 0 6 5 7 10 4 6 -3 10 -11 10 -16z m-852 -1 c9 3 6 -4 -7
-17 -14 -14 -30 -21 -42 -18 -10 3 -19 0 -19 -6 0 -6 -3 -7 -6 -4 -9 9 16 38
27 31 5 -3 9 3 9 12 0 13 3 15 11 7 6 -6 18 -9 27 -5z m412 -22 c0 -2 -8 -10
-17 -17 -16 -13 -17 -12 -4 4 13 16 21 21 21 13z m141 -38 c16 -29 2 -21 -22
15 -17 23 -18 28 -6 18 10 -8 23 -23 28 -33z m808 -109 c-23 -68 -44 -126 -48
-129 -3 -3 -7 -10 -8 -16 -3 -18 -174 -327 -201 -364 -39 -52 -39 -53 -67 -85
l-26 -30 21 36 c11 20 29 44 40 54 11 10 20 24 20 31 0 7 3 14 8 16 4 1 25 37
46 78 22 41 56 102 75 135 32 53 65 121 106 220 7 17 19 46 27 65 9 19 19 51
22 70 13 60 19 77 23 59 2 -9 -15 -72 -38 -140z m-600 97 c0 -7 -2 -6 -6 2 -2
6 -9 10 -14 6 -5 -3 -9 2 -9 12 0 13 3 14 15 4 8 -7 15 -18 14 -24z m-341 -1
c-3 -3 -9 2 -12 12 -6 14 -5 15 5 6 7 -7 10 -15 7 -18z m-168 -5 c21 -21 25
-30 13 -30 -9 1 -47 50 -38 50 3 0 14 -9 25 -20z m136 -43 c11 -24 11 -27 1
-15 -8 10 -17 15 -20 11 -4 -3 -7 1 -7 11 0 9 -4 14 -10 11 -6 -3 -7 1 -4 9 8
21 21 12 40 -27z m-234 1 c-7 -7 -12 -8 -12 -2 0 14 12 26 19 19 2 -3 -1 -11
-7 -17z m328 -32 c0 -12 -5 -7 -19 24 -11 24 -11 24 3 6 9 -11 16 -24 16 -30z
m-270 12 c0 -6 -6 -5 -15 2 -8 7 -15 14 -15 16 0 2 7 1 15 -2 8 -4 15 -11 15
-16z m1362 -8 c2 -16 -1 -31 -7 -33 -7 -3 -9 7 -7 29 5 42 8 43 14 4z m-637
10 c3 -5 1 -10 -4 -10 -6 0 -11 5 -11 10 0 6 2 10 4 10 3 0 8 -4 11 -10z
m-755 -10 c0 -5 -2 -10 -4 -10 -3 0 -8 5 -11 10 -3 6 -1 10 4 10 6 0 11 -4 11
-10z m83 -4 c3 -8 -1 -20 -9 -27 -8 -7 -13 -18 -10 -26 3 -8 1 -11 -4 -8 -14
9 -12 21 6 39 8 9 11 16 5 16 -6 0 -11 5 -11 10 0 15 17 12 23 -4z m523 5 c-3
-4 6 -19 20 -32 17 -16 24 -19 22 -9 -2 8 -9 20 -17 26 -11 9 -11 11 3 11 9 0
17 -4 17 -9 1 -4 2 -13 3 -19 2 -18 38 -27 64 -18 32 12 36 11 18 -6 -8 -8
-19 -15 -25 -15 -6 0 -7 -7 -4 -17 5 -12 3 -14 -8 -7 -8 4 -20 9 -28 11 -7 1
-29 16 -47 34 -34 33 -44 59 -23 59 5 0 8 -4 5 -9z m-631 -11 c3 -5 2 -10 -4
-10 -5 0 -13 5 -16 10 -3 6 -2 10 4 10 5 0 13 -4 16 -10z m855 -13 c9 -3 4 -6
-11 -6 -15 -1 -29 6 -33 14 -4 12 -2 13 12 7 9 -5 24 -12 32 -15z m-585 -7
c10 -11 16 -20 13 -20 -3 0 -13 9 -23 20 -10 11 -16 20 -13 20 3 0 13 -9 23
-20z m1041 -7 c-4 -16 -9 -41 -12 -56 -6 -37 -54 -159 -67 -172 -7 -7 -8 -4
-3 8 3 11 9 31 12 45 9 39 66 202 71 202 3 0 2 -12 -1 -27z m-1271 -7 c0 -13
-2 -27 -5 -30 -5 -4 -6 43 -1 52 4 8 7 -1 6 -22z m865 5 c0 -5 -7 -11 -14 -14
-10 -4 -13 -1 -9 9 6 15 23 19 23 5z m174 -23 c-11 -39 -34 -58 -63 -53 -21 4
-22 4 -6 -3 18 -8 17 -10 -12 -26 -51 -26 -85 -37 -78 -26 3 6 -1 10 -10 10
-15 0 -15 2 -1 15 8 8 20 15 26 15 6 0 13 7 16 15 4 8 10 12 15 9 6 -3 16 0
24 6 8 7 26 9 40 6 37 -9 30 2 -7 13 l-33 9 38 1 c24 1 40 7 43 16 9 24 16 17
8 -7z m286 18 c0 -14 -40 -95 -50 -101 -6 -4 -2 11 9 34 12 22 21 47 21 56 0
8 5 15 10 15 6 0 10 -2 10 -4z m-570 -31 c-7 -8 -16 -13 -20 -10 -5 3 -11 -1
-13 -7 -4 -10 -6 -10 -6 0 -1 7 9 17 22 22 30 12 31 12 17 -5z m-745 -55 c10
-11 13 -20 7 -20 -6 0 -16 9 -22 20 -6 11 -9 20 -7 20 2 0 12 -9 22 -20z m-60
-40 c-3 -5 -11 -10 -16 -10 -6 0 -7 5 -4 10 3 6 11 10 16 10 6 0 7 -4 4 -10z
m1180 -167 c-62 -119 -93 -150 -40 -41 14 28 23 54 20 56 -3 3 3 11 13 19 11
9 11 12 2 7 -8 -4 -5 3 7 15 13 12 26 34 30 49 7 24 8 25 11 5 2 -12 -18 -61
-43 -110z m-135 27 c-6 -11 -13 -20 -16 -20 -2 0 0 9 6 20 6 11 13 20 16 20 2
0 0 -9 -6 -20z m52 -132 c-7 -7 -12 -8 -12 -2 0 14 12 26 19 19 2 -3 -1 -11
-7 -17z m-22 -42 c0 -2 -7 -7 -16 -10 -8 -3 -12 -2 -9 4 6 10 25 14 25 6z m-2
-36 c-7 -10 -14 -17 -17 -15 -4 4 18 35 25 35 2 0 -1 -9 -8 -20z"/>
<path d="M7238 1473 c8 -3 11 -11 8 -19 -6 -16 3 -18 24 -4 18 11 13 17 -20
23 -14 2 -19 2 -12 0z"/>
<path d="M7355 1451 c-3 -5 0 -13 6 -17 7 -4 9 -3 5 4 -3 5 0 13 6 15 9 4 10
6 1 6 -6 1 -14 -3 -18 -8z"/>
<path d="M7150 1426 c7 -7 13 -7 20 0 6 6 3 10 -10 10 -13 0 -16 -4 -10 -10z"/>
<path d="M7095 1330 c-3 -5 -2 -10 4 -10 5 0 13 5 16 10 3 6 2 10 -4 10 -5 0
-13 -4 -16 -10z"/>
<path d="M6673 973 c-4 -10 -11 -22 -17 -26 -7 -6 -4 -7 6 -4 9 3 18 1 21 -6
2 -6 6 -3 10 7 4 10 3 15 -3 11 -6 -3 -10 0 -10 9 0 8 6 17 13 19 9 4 9 6 -1
6 -7 1 -16 -7 -19 -16z"/>
<path d="M6617 894 c-14 -14 -7 -30 15 -31 13 -1 18 1 12 5 -6 4 -13 13 -15
20 -3 7 -8 10 -12 6z"/>
<path d="M6762 869 c2 -7 10 -15 17 -17 8 -3 12 1 9 9 -2 7 -10 15 -17 17 -8
3 -12 -1 -9 -9z"/>
<path d="M6670 860 c0 -5 -7 -10 -16 -10 -23 0 -11 -24 14 -28 25 -4 27 -12
10 -31 -11 -11 -10 -13 1 -9 8 2 18 14 22 26 7 18 5 22 -10 22 -14 0 -18 5
-14 20 3 11 3 20 -1 20 -3 0 -6 -4 -6 -10z"/>
<path d="M6500 665 c0 -8 5 -15 10 -15 6 0 10 7 10 15 0 8 -4 15 -10 15 -5 0
-10 -7 -10 -15z"/>
<path d="M6532 620 c0 -14 2 -19 5 -12 2 6 2 18 0 25 -3 6 -5 1 -5 -13z"/>
<path d="M6665 630 c-3 -5 1 -10 10 -10 9 0 13 5 10 10 -3 6 -8 10 -10 10 -2
0 -7 -4 -10 -10z"/>
<path d="M6510 570 c16 -16 25 -18 38 -11 15 9 14 10 -5 11 -13 0 -23 5 -23
10 0 6 -7 10 -15 10 -12 0 -10 -5 5 -20z"/>
<path d="M6723 565 c-12 -14 -18 -27 -14 -30 4 -2 18 9 30 25 26 36 15 40 -16
5z"/>
<path d="M6656 473 c-6 -14 -5 -15 5 -6 7 7 10 15 7 18 -3 3 -9 -2 -12 -12z"/>
<path d="M6540 476 c0 -2 8 -10 18 -17 15 -13 16 -12 3 4 -13 16 -21 21 -21
13z"/>
<path d="M6610 410 l-25 -8 28 -1 c15 -1 27 4 27 9 0 6 -1 10 -2 9 -2 -1 -14
-5 -28 -9z"/>
<path d="M8472 780 c0 -14 2 -19 5 -12 2 6 2 18 0 25 -3 6 -5 1 -5 -13z"/>
<path d="M7230 879 c0 -22 16 -42 29 -38 8 3 5 13 -8 28 -13 15 -21 19 -21 10z"/>
<path d="M7330 870 c0 -5 9 -10 21 -10 11 0 17 5 14 10 -3 6 -13 10 -21 10 -8
0 -14 -4 -14 -10z"/>
<path d="M7706 535 c-11 -8 -16 -15 -10 -15 5 0 18 7 28 15 11 8 16 15 10 15
-5 0 -18 -7 -28 -15z"/>
<path d="M4180 1775 c13 -14 26 -25 28 -25 3 0 -5 11 -18 25 -13 14 -26 25
-28 25 -3 0 5 -11 18 -25z"/>
<path d="M6807 1783 c-4 -3 -7 -11 -7 -17 0 -6 5 -5 12 2 6 6 9 14 7 17 -3 3
-9 2 -12 -2z"/>
<path d="M7941 1752 c2 -5 32 -34 65 -66 45 -41 63 -52 67 -42 8 21 -51 83
-97 101 -21 9 -36 12 -35 7z"/>
<path d="M8641 1744 c0 -11 3 -14 6 -6 3 7 2 16 -1 19 -3 4 -6 -2 -5 -13z"/>
<path d="M1631 1724 c0 -11 3 -14 6 -6 3 7 2 16 -1 19 -3 4 -6 -2 -5 -13z"/>
<path d="M8523 1708 c-21 -18 -40 -34 -42 -35 -3 -2 1 -9 7 -15 9 -9 21 -4 50
24 20 19 43 33 51 31 8 -4 12 0 9 8 -8 25 -36 21 -75 -13z"/>
<path d="M8395 1668 c-10 -40 -10 -162 -1 -192 8 -25 7 -28 -7 -23 -9 3 -23 0
-31 -9 -10 -10 -17 -11 -21 -3 -4 6 -18 8 -31 5 l-23 -6 24 54 c23 52 36 158
22 173 -4 3 -7 -17 -7 -47 0 -35 -9 -72 -26 -111 -29 -64 -27 -97 5 -80 14 8
22 7 31 -4 10 -12 16 -13 27 -3 8 6 23 12 34 13 28 2 31 9 18 41 -11 30 -14
162 -4 195 4 10 4 19 1 19 -3 0 -8 -10 -11 -22z"/>
<path d="M8519 1623 c-13 -16 -12 -17 4 -4 16 13 21 21 13 21 -2 0 -10 -8 -17
-17z"/>
<path d="M5569 1589 c-11 -23 -16 -38 -10 -35 5 4 28 -3 51 -15 22 -12 43 -19
45 -17 3 2 -13 12 -35 22 -41 18 -48 33 -30 67 6 10 8 19 6 19 -3 0 -15 -18
-27 -41z"/>
<path d="M1601 1584 c0 -11 3 -14 6 -6 3 7 2 16 -1 19 -3 4 -6 -2 -5 -13z"/>
<path d="M1591 1544 c0 -11 3 -14 6 -6 3 7 2 16 -1 19 -3 4 -6 -2 -5 -13z"/>
<path d="M7481 1544 c0 -11 3 -14 6 -6 3 7 2 16 -1 19 -3 4 -6 -2 -5 -13z"/>
<path d="M5511 1493 c-19 -27 -25 -40 -15 -31 18 16 59 78 51 78 -2 0 -18 -21
-36 -47z"/>
<path d="M5678 1513 c6 -2 18 -2 25 0 6 3 1 5 -13 5 -14 0 -19 -2 -12 -5z"/>
<path d="M5754 1485 c8 -8 18 -15 22 -15 3 0 1 7 -6 15 -7 8 -17 15 -22 15 -5
0 -3 -7 6 -15z"/>
<path d="M8551 1423 c7 -12 15 -20 18 -17 3 2 -3 12 -13 22 -17 16 -18 16 -5
-5z"/>
<path d="M5925 1400 c21 -16 41 -30 44 -30 9 1 -63 59 -73 60 -5 0 8 -13 29
-30z"/>
<path d="M8012 1410 c0 -14 2 -19 5 -12 2 6 2 18 0 25 -3 6 -5 1 -5 -13z"/>
<path d="M8169 1413 c-13 -16 -12 -17 4 -4 16 13 21 21 13 21 -2 0 -10 -8 -17
-17z"/>
<path d="M8185 1401 c-6 -11 9 -23 19 -14 9 9 7 23 -3 23 -6 0 -12 -4 -16 -9z"/>
<path d="M5982 1366 c9 -11 100 -37 94 -27 -3 5 -18 11 -33 14 -16 3 -37 9
-48 13 -11 4 -17 4 -13 0z"/>
<path d="M7460 1345 c0 -8 4 -15 10 -15 5 0 7 7 4 15 -4 8 -8 15 -10 15 -2 0
-4 -7 -4 -15z"/>
<path d="M8066 1334 c-10 -14 -16 -32 -14 -39 2 -8 11 3 20 25 19 46 17 51 -6
14z"/>
<path d="M8750 1346 c-6 -9 -10 -21 -8 -28 3 -8 9 -4 17 10 15 28 9 39 -9 18z"/>
<path d="M5450 1326 c0 -2 8 -10 18 -17 15 -13 16 -12 3 4 -13 16 -21 21 -21
13z"/>
<path d="M6090 1326 c0 -5 78 -56 87 -56 9 0 -70 59 -79 60 -5 0 -8 -2 -8 -4z"/>
<path d="M8736 1271 c-4 -7 -5 -15 -2 -18 9 -9 19 4 14 18 -4 11 -6 11 -12 0z"/>
<path d="M6200 1260 c20 -13 33 -13 25 0 -3 6 -14 10 -23 10 -15 0 -15 -2 -2
-10z"/>
<path d="M6274 1242 c3 -6 21 -14 39 -17 17 -4 38 -12 46 -19 12 -8 13 -8 7 2
-8 13 -25 21 -75 37 -15 5 -21 4 -17 -3z"/>
<path d="M7625 1230 c3 -5 18 -10 33 -9 24 0 25 1 7 9 -28 12 -47 12 -40 0z"/>
<path d="M8530 1235 c0 -6 76 -45 87 -45 4 0 -12 11 -36 25 -44 26 -51 28 -51
20z"/>
<path d="M8637 1203 c-4 -3 -7 -11 -7 -17 0 -6 5 -5 12 2 6 6 9 14 7 17 -3 3
-9 2 -12 -2z"/>
<path d="M8620 1160 c0 -5 -9 -10 -19 -10 -11 0 -22 -3 -24 -7 -3 -5 8 -8 23
-8 19 0 31 6 34 18 2 9 0 17 -5 17 -5 0 -9 -4 -9 -10z"/>
<path d="M7245 1141 c-3 -5 -1 -12 5 -16 5 -3 10 1 10 9 0 18 -6 21 -15 7z"/>
<path d="M1479 1094 c-9 -36 -15 -44 -28 -38 -9 3 -42 13 -73 21 -35 9 -55 20
-51 26 3 6 1 7 -5 3 -22 -14 -12 -21 56 -40 37 -10 74 -25 84 -33 17 -15 15
-21 34 77 9 47 -4 35 -17 -16z"/>
<path d="M8472 1085 c-48 -45 -36 -45 18 0 23 19 37 35 31 35 -6 0 -28 -16
-49 -35z"/>
<path d="M3766 1040 c4 -19 11 -44 15 -55 6 -14 7 -9 3 15 -4 19 -11 44 -15
55 -6 14 -7 9 -3 -15z"/>
<path d="M843 993 c9 -2 25 -2 35 0 9 3 1 5 -18 5 -19 0 -27 -2 -17 -5z"/>
<path d="M6341 978 c0 -9 -4 -25 -7 -35 -5 -17 -5 -17 6 0 6 10 9 25 7 35 -4
15 -5 15 -6 0z"/>
<path d="M536 971 c-4 -5 3 -7 14 -4 23 6 26 13 6 13 -8 0 -17 -4 -20 -9z"/>
<path d="M1451 965 c-1 -11 -4 -31 -6 -45 l-6 -25 11 25 c6 13 9 33 7 45 -4
19 -4 19 -6 0z"/>
<path d="M8059 963 c-13 -16 -12 -17 4 -4 9 7 17 15 17 17 0 8 -8 3 -21 -13z"/>
<path d="M694 951 c-18 -11 -35 -24 -39 -30 -3 -6 -11 -9 -16 -5 -5 3 -9 2 -7
-3 2 -10 -35 -73 -43 -73 -3 0 -5 12 -3 28 2 15 1 20 -2 12 -4 -8 -12 -18 -18
-22 -17 -12 -68 -10 -61 2 9 15 -7 12 -29 -5 -11 -8 -34 -15 -50 -16 -17 0
-39 -3 -48 -7 -10 -4 38 -6 105 -5 130 3 152 7 142 24 -8 13 25 51 79 90 44
33 37 39 -10 10z"/>
<path d="M917 940 c-32 -37 -67 -130 -66 -173 1 -38 4 -30 19 46 7 34 25 78
45 107 38 57 39 64 2 20z"/>
<path d="M3860 939 l-35 -30 40 27 c22 16 42 29 44 31 2 2 0 3 -5 3 -5 0 -25
-14 -44 -31z"/>
<path d="M8724 954 c3 -9 6 -20 6 -25 0 -6 6 -9 13 -8 24 3 37 -1 37 -12 0 -6
-9 -8 -20 -4 -11 3 -20 2 -20 -3 0 -5 12 -12 28 -14 26 -4 27 -2 24 29 -3 24
-9 33 -23 33 -10 0 -21 5 -24 10 -10 16 -28 11 -21 -6z"/>
<path d="M490 953 c-51 -20 -189 -133 -162 -133 7 0 12 4 12 9 0 12 99 87 146
111 36 18 39 26 4 13z"/>
<path d="M8027 939 c7 -7 15 -10 18 -7 3 3 -2 9 -12 12 -14 6 -15 5 -6 -5z"/>
<path d="M8829 927 c-11 -8 -14 -19 -9 -32 4 -11 3 -23 -4 -27 -8 -5 -8 -10 1
-19 8 -8 15 -4 27 20 12 22 21 28 33 24 13 -5 15 -2 10 11 -6 15 -3 17 18 12
14 -4 25 -2 25 3 0 21 -76 27 -101 8z"/>
<path d="M3800 916 c0 -8 4 -17 9 -20 5 -4 7 3 4 14 -6 23 -13 26 -13 6z"/>
<path d="M8695 920 c3 -5 11 -10 16 -10 6 0 7 5 4 10 -3 6 -11 10 -16 10 -6 0
-7 -4 -4 -10z"/>
<path d="M6268 893 c12 -2 32 -2 45 0 12 2 2 4 -23 4 -25 0 -35 -2 -22 -4z"/>
<path d="M4418 883 c6 -2 18 -2 25 0 6 3 1 5 -13 5 -14 0 -19 -2 -12 -5z"/>
<path d="M8730 870 c0 -5 5 -10 11 -10 5 0 7 5 4 10 -3 6 -8 10 -11 10 -2 0
-4 -4 -4 -10z"/>
<path d="M642 824 c4 -3 41 -14 84 -25 43 -11 83 -24 88 -29 15 -15 22 -12 23
12 2 16 0 19 -6 9 -5 -8 -14 -10 -21 -6 -12 8 -147 45 -164 45 -5 0 -7 -3 -4
-6z"/>
<path d="M8785 820 c3 -5 8 -10 11 -10 2 0 4 5 4 10 0 6 -5 10 -11 10 -5 0 -7
-4 -4 -10z"/>
<path d="M1411 784 c0 -11 3 -14 6 -6 3 7 2 16 -1 19 -3 4 -6 -2 -5 -13z"/>
<path d="M1188 783 c7 -3 16 -2 19 1 4 3 -2 6 -13 5 -11 0 -14 -3 -6 -6z"/>
<path d="M1138 773 c7 -3 16 -2 19 1 4 3 -2 6 -13 5 -11 0 -14 -3 -6 -6z"/>
<path d="M1310 776 c0 -2 9 -6 20 -9 11 -3 18 -1 14 4 -5 9 -34 13 -34 5z"/>
<path d="M3997 708 l-62 -61 65 58 c36 33 67 60 69 62 2 2 1 3 -3 3 -5 0 -36
-28 -69 -62z"/>
<path d="M4870 737 c0 -2 15 -16 33 -33 l32 -29 -29 33 c-28 30 -36 37 -36 29z"/>
<path d="M8680 699 c0 -5 5 -7 10 -4 6 3 10 8 10 11 0 2 -4 4 -10 4 -5 0 -10
-5 -10 -11z"/>
<path d="M1381 644 c0 -11 3 -14 6 -6 3 7 2 16 -1 19 -3 4 -6 -2 -5 -13z"/>
<path d="M879 613 l-34 -38 38 34 c34 33 42 41 34 41 -2 0 -19 -17 -38 -37z"/>
<path d="M4061 571 c-8 -5 5 -7 35 -4 68 6 77 11 24 12 -25 0 -51 -3 -59 -8z"/>
<path d="M4018 563 c7 -3 16 -2 19 1 4 3 -2 6 -13 5 -11 0 -14 -3 -6 -6z"/>
<path d="M4240 550 c35 -24 54 -31 30 -11 -14 11 -29 21 -35 21 -5 0 -3 -5 5
-10z"/>
<path d="M3935 540 c-3 -6 1 -7 9 -4 18 7 21 14 7 14 -6 0 -13 -4 -16 -10z"/>
<path d="M3923 500 c24 -82 60 -194 72 -223 l15 -36 52 53 c60 59 151 114 218
132 37 10 40 13 17 13 -45 1 -168 -63 -227 -118 -30 -28 -55 -49 -56 -48 -2 1
-17 45 -35 97 -25 78 -71 183 -56 130z"/>
<path d="M1308 493 c7 -3 16 -2 19 1 4 3 -2 6 -13 5 -11 0 -14 -3 -6 -6z"/>
<path d="M968 463 c7 -3 16 -2 19 1 4 3 -2 6 -13 5 -11 0 -14 -3 -6 -6z"/>
<path d="M1122 447 l-31 -23 37 -15 c55 -21 60 -22 27 -3 -42 24 -42 23 -15
44 36 28 20 25 -18 -3z"/>
<path d="M4360 450 c0 -5 5 -10 11 -10 5 0 7 5 4 10 -3 6 -8 10 -11 10 -2 0
-4 -4 -4 -10z"/>
<path d="M4408 443 c12 -2 32 -2 45 0 12 2 2 4 -23 4 -25 0 -35 -2 -22 -4z"/>
<path d="M3168 433 c7 -3 16 -2 19 1 4 3 -2 6 -13 5 -11 0 -14 -3 -6 -6z"/>
<path d="M3208 433 c7 -3 16 -2 19 1 4 3 -2 6 -13 5 -11 0 -14 -3 -6 -6z"/>
<path d="M4618 433 c7 -3 16 -2 19 1 4 3 -2 6 -13 5 -11 0 -14 -3 -6 -6z"/>
<path d="M1328 345 c-9 -49 -19 -99 -23 -110 -6 -15 -5 -17 3 -10 13 12 45
168 40 193 -2 10 -11 -23 -20 -73z"/>
<path d="M3093 423 c9 -2 25 -2 35 0 9 3 1 5 -18 5 -19 0 -27 -2 -17 -5z"/>
<path d="M5052 410 c0 -14 2 -19 5 -12 2 6 2 18 0 25 -3 6 -5 1 -5 -13z"/>
<path d="M3038 413 c6 -2 18 -2 25 0 6 3 1 5 -13 5 -14 0 -19 -2 -12 -5z"/>
<path d="M3990 390 c0 -5 5 -10 11 -10 5 0 7 5 4 10 -3 6 -8 10 -11 10 -2 0
-4 -4 -4 -10z"/>
<path d="M1190 387 c0 -3 19 -20 43 -38 23 -19 36 -26 28 -16 -16 20 -71 61
-71 54z"/>
<path d="M2880 365 c-14 -8 -20 -14 -15 -14 6 0 21 6 35 14 14 8 21 14 15 14
-5 0 -21 -6 -35 -14z"/>
<path d="M3990 366 c0 -2 7 -9 15 -16 9 -7 15 -8 15 -2 0 5 -7 12 -15 16 -8 3
-15 4 -15 2z"/>
<path d="M4820 366 c0 -2 7 -7 16 -10 8 -3 12 -2 9 4 -6 10 -25 14 -25 6z"/>
<path d="M2090 337 c9 -9 150 -66 150 -61 0 3 -24 16 -52 29 -55 24 -107 41
-98 32z"/>
<path d="M2591 330 c37 -5 81 -16 99 -25 17 -9 34 -15 36 -12 13 12 -99 47
-148 46 l-53 -2 66 -7z"/>
<path d="M145 274 l-30 -26 33 22 c17 12 32 23 32 26 0 7 -4 5 -35 -22z"/>
<path d="M2377 265 c-35 -34 -35 -46 1 -14 15 13 31 27 37 31 5 5 5 8 -1 8 -5
0 -22 -11 -37 -25z"/>
<path d="M2672 245 c-19 -16 -37 -23 -49 -19 -14 4 -15 4 -4 -4 14 -10 7 -32
-10 -32 -6 0 -7 5 -4 10 3 6 1 10 -5 10 -6 0 -9 -8 -6 -17 7 -22 -62 -105 -70
-86 -4 9 -11 10 -25 3 -15 -8 -17 -7 -13 4 3 8 0 17 -5 21 -6 3 -8 11 -5 17 4
7 2 8 -5 4 -9 -6 -9 -12 1 -24 7 -9 -6 -1 -29 18 -23 19 -40 37 -37 39 2 2 15
-6 29 -19 19 -18 25 -20 25 -8 0 22 -21 36 -50 33 -14 -1 -31 2 -38 8 -7 5
-14 8 -17 5 -2 -2 20 -23 51 -47 57 -44 99 -110 91 -142 -10 -38 11 -17 28 28
13 33 45 74 105 135 84 85 104 115 42 63z m-152 -157 c0 -7 -5 -20 -11 -28 -9
-13 -10 -12 -5 3 3 9 1 17 -5 17 -6 0 -7 5 -4 10 9 14 25 12 25 -2z"/>
<path d="M6510 263 c0 -5 10 -18 23 -29 l22 -19 -20 25 c-11 14 -21 27 -22 29
-2 2 -3 0 -3 -6z"/>
<path d="M2290 246 c0 -3 9 -10 20 -16 11 -6 20 -8 20 -6 0 3 -9 10 -20 16
-11 6 -20 8 -20 6z"/>
<path d="M1264 198 l-19 -23 23 19 c12 11 22 21 22 23 0 8 -8 2 -26 -19z"/>
<path d="M2536 174 c-4 -9 -4 -19 -1 -22 2 -3 7 3 11 12 4 9 4 19 1 22 -2 3
-7 -3 -11 -12z"/>
<path d="M6613 163 c9 -14 87 -77 87 -70 0 3 -21 22 -47 43 -26 21 -44 33 -40
27z"/>
<path d="M6732 64 c10 -10 20 -16 22 -13 3 3 -5 11 -17 18 -21 13 -21 12 -5
-5z"/>
<path d="M6800 30 c19 -11 42 -19 50 -19 8 0 -5 8 -29 19 -55 25 -67 25 -21 0z"/>
</g>
</svg>
