<?xml version="1.0" standalone="no"?>
<!DOCTYPE svg PUBLIC "-//W3C//DTD SVG 20010904//EN"
 "http://www.w3.org/TR/2001/REC-SVG-20010904/DTD/svg10.dtd">
<svg version="1.0" xmlns="http://www.w3.org/2000/svg"
 width="940.000000pt" height="570.000000pt" viewBox="0 0 940.000000 570.000000"
 preserveAspectRatio="xMidYMid meet">

<g transform="translate(0.000000,570.000000) scale(0.100000,-0.100000)"
fill="#000000" stroke="none">
<path d="M8250 5529 c0 -5 9 -9 20 -9 11 0 20 2 20 4 0 2 -9 6 -20 9 -11 3
-20 1 -20 -4z"/>
<path d="M8902 5500 c0 -14 2 -19 5 -12 2 6 2 18 0 25 -3 6 -5 1 -5 -13z"/>
<path d="M9287 5503 c-4 -3 -7 -13 -7 -22 1 -13 3 -13 11 2 11 19 8 33 -4 20z"/>
<path d="M8790 5471 c0 -5 5 -13 10 -16 6 -3 10 -2 10 4 0 5 -4 13 -10 16 -5
3 -10 2 -10 -4z"/>
<path d="M8490 5445 c0 -16 65 -58 92 -60 21 -2 26 0 17 6 -8 5 -24 9 -36 9
-13 0 -23 4 -23 9 0 5 -11 16 -25 25 -14 9 -25 14 -25 11z"/>
<path d="M9280 5441 c0 -6 4 -13 10 -16 6 -3 7 1 4 9 -7 18 -14 21 -14 7z"/>
<path d="M7228 5423 c7 -3 16 -2 19 1 4 3 -2 6 -13 5 -11 0 -14 -3 -6 -6z"/>
<path d="M8083 5416 c-24 -11 -30 -41 -13 -66 7 -11 8 -6 4 18 -6 28 -4 32 15
32 12 0 21 6 21 15 0 8 -1 14 -2 14 -2 -1 -13 -6 -25 -13z"/>
<path d="M9343 5419 c-12 -5 -6 -8 20 -8 20 -1 37 3 37 7 0 10 -33 10 -57 1z"/>
<path d="M8778 5403 c-14 -2 -32 -11 -40 -20 -11 -14 -10 -15 7 -10 11 3 32 9
48 13 15 3 27 10 27 15 0 5 -3 8 -7 8 -5 -1 -20 -4 -35 -6z"/>
<path d="M8658 5363 c7 -3 16 -2 19 1 4 3 -2 6 -13 5 -11 0 -14 -3 -6 -6z"/>
<path d="M8837 5350 c3 -11 9 -22 13 -25 5 -3 6 4 3 15 -3 11 -9 22 -13 25 -5
3 -6 -4 -3 -15z"/>
<path d="M8870 5281 c0 -5 5 -13 10 -16 6 -3 10 -2 10 4 0 5 -4 13 -10 16 -5
3 -10 2 -10 -4z"/>
<path d="M7190 5153 c5 -2 8 -9 4 -14 -3 -5 0 -9 6 -9 15 0 7 23 -8 26 -7 1
-8 0 -2 -3z"/>
<path d="M9360 5140 c8 -5 20 -10 25 -10 6 0 3 5 -5 10 -8 5 -19 10 -25 10 -5
0 -3 -5 5 -10z"/>
<path d="M9281 5094 c0 -11 3 -14 6 -6 3 7 2 16 -1 19 -3 4 -6 -2 -5 -13z"/>
<path d="M9335 5030 c4 -19 9 -51 11 -70 11 -74 13 -78 34 -73 23 6 26 19 6
26 -8 3 -19 27 -24 54 -6 26 -16 59 -22 73 -10 23 -10 22 -5 -10z"/>
<path d="M7505 5010 c-3 -5 -1 -10 4 -10 6 0 11 5 11 10 0 6 -2 10 -4 10 -3 0
-8 -4 -11 -10z"/>
<path d="M9270 4958 c0 -49 5 -47 14 5 4 23 3 37 -4 37 -5 0 -10 -19 -10 -42z"/>
<path d="M7452 4956 c-20 -19 -35 -36 -32 -39 3 -3 23 13 45 34 49 48 39 52
-13 5z"/>
<path d="M9321 4950 c-1 -50 22 -133 39 -138 10 -2 11 -1 4 5 -6 4 -14 26 -18
48 -5 22 -11 58 -16 80 l-7 40 -2 -35z"/>
<path d="M8631 4873 c-1 -28 4 -55 9 -58 12 -8 12 61 0 90 -6 15 -9 6 -9 -32z"/>
<path d="M7390 4901 c0 -5 -10 -11 -22 -14 -12 -4 -20 -9 -16 -12 7 -7 58 16
58 27 0 4 -4 8 -10 8 -5 0 -10 -4 -10 -9z"/>
<path d="M9286 4891 c-3 -5 1 -14 9 -21 12 -10 15 -10 15 3 0 19 -16 31 -24
18z"/>
<path d="M9370 4859 c0 -8 7 -24 15 -35 11 -14 14 -15 14 -4 0 8 -6 24 -14 34
-11 15 -15 16 -15 5z"/>
<path d="M8643 4765 c0 -22 2 -30 4 -17 2 12 2 30 0 40 -3 9 -5 -1 -4 -23z"/>
<path d="M6390 4787 c0 -11 30 -67 35 -67 6 0 -16 52 -27 65 -4 5 -8 6 -8 2z"/>
<path d="M9353 4750 c0 -25 2 -35 4 -22 2 12 2 32 0 45 -2 12 -4 2 -4 -23z"/>
<path d="M6311 4758 c2 -2 18 -14 34 -28 l30 -25 -24 28 c-14 15 -29 27 -34
27 -6 0 -8 -1 -6 -2z"/>
<path d="M6381 4733 c-1 -12 4 -25 9 -28 12 -7 12 2 0 30 -8 19 -9 19 -9 -2z"/>
<path d="M7414 4731 c20 -22 26 -25 26 -13 0 4 -10 13 -22 21 -23 14 -23 14
-4 -8z"/>
<path d="M6400 4681 c0 -5 5 -13 10 -16 6 -3 10 -2 10 4 0 5 -4 13 -10 16 -5
3 -10 2 -10 -4z"/>
<path d="M7494 4656 c0 -30 2 -32 18 -22 18 11 21 38 4 36 -5 -1 -12 3 -15 9
-4 6 -7 -4 -7 -23z"/>
<path d="M9332 4595 c0 -16 2 -22 5 -12 2 9 2 23 0 30 -3 6 -5 -1 -5 -18z"/>
<path d="M6491 4554 c0 -11 3 -14 6 -6 3 7 2 16 -1 19 -3 4 -6 -2 -5 -13z"/>
<path d="M9322 4530 c0 -19 2 -27 5 -17 2 9 2 25 0 35 -3 9 -5 1 -5 -18z"/>
<path d="M9310 4418 c0 -7 -3 -30 -7 -52 -5 -30 -3 -38 8 -34 8 3 14 19 14 39
1 19 4 40 9 47 4 7 1 12 -8 12 -9 0 -16 -6 -16 -12z"/>
<path d="M8523 4315 c0 -22 2 -30 4 -17 2 12 2 30 0 40 -3 9 -5 -1 -4 -23z"/>
<path d="M9291 4313 c0 -4 4 -17 9 -28 8 -19 9 -19 9 2 1 12 -3 25 -9 28 -5 3
-10 3 -9 -2z"/>
<path d="M8732 4235 c0 -16 2 -22 5 -12 2 9 2 23 0 30 -3 6 -5 -1 -5 -18z"/>
<path d="M7402 4200 c0 -14 2 -19 5 -12 2 6 2 18 0 25 -3 6 -5 1 -5 -13z"/>
<path d="M9273 4125 c0 -27 2 -38 4 -22 2 15 2 37 0 50 -2 12 -4 0 -4 -28z"/>
<path d="M9276 4013 c-6 -14 -5 -15 5 -6 7 7 10 15 7 18 -3 3 -9 -2 -12 -12z"/>
<path d="M9373 3934 c-12 -38 -36 -121 -54 -184 -17 -63 -36 -120 -41 -127
-10 -13 -1 -59 10 -48 3 3 7 18 8 33 2 15 14 65 27 112 14 47 28 100 32 118 4
19 11 30 17 26 7 -4 8 -2 4 5 -4 6 0 34 9 61 9 28 15 55 13 61 -2 6 -13 -20
-25 -57z"/>
<path d="M9271 3884 c0 -11 3 -14 6 -6 3 7 2 16 -1 19 -3 4 -6 -2 -5 -13z"/>
<path d="M9272 3735 l1 -100 7 90 c4 50 3 94 -2 100 -4 5 -7 -36 -6 -90z"/>
<path d="M8901 3794 c0 -11 3 -14 6 -6 3 7 2 16 -1 19 -3 4 -6 -2 -5 -13z"/>
<path d="M360 3720 c-9 -6 -10 -10 -3 -10 6 0 15 5 18 10 8 12 4 12 -15 0z"/>
<path d="M7221 3704 c0 -11 3 -14 6 -6 3 7 2 16 -1 19 -3 4 -6 -2 -5 -13z"/>
<path d="M550 3606 c0 -2 7 -9 15 -16 9 -7 15 -8 15 -2 0 5 -7 12 -15 16 -8 3
-15 4 -15 2z"/>
<path d="M525 3570 c3 -5 8 -10 11 -10 2 0 4 5 4 10 0 6 -5 10 -11 10 -5 0 -7
-4 -4 -10z"/>
<path d="M596 3565 c7 -18 -7 -20 -24 -3 -20 20 -23 2 -4 -22 17 -21 21 -22
40 -8 12 8 19 18 15 22 -4 4 -1 11 7 16 11 7 8 10 -12 10 -20 0 -26 -4 -22
-15z"/>
<path d="M545 3490 c-3 -5 -1 -10 4 -10 6 0 11 5 11 10 0 6 -2 10 -4 10 -3 0
-8 -4 -11 -10z"/>
<path d="M1417 3493 c-2 -4 -7 -21 -10 -38 -6 -30 -6 -30 9 4 8 18 13 35 11
38 -3 2 -7 1 -10 -4z"/>
<path d="M8793 3455 c0 -27 2 -38 4 -22 2 15 2 37 0 50 -2 12 -4 0 -4 -28z"/>
<path d="M9250 3438 c-6 -35 -14 -69 -16 -75 -2 -7 0 -13 5 -13 4 0 15 34 23
75 8 41 11 75 7 75 -3 0 -12 -28 -19 -62z"/>
<path d="M858 3474 c14 -26 59 -37 66 -17 4 11 1 13 -15 8 -13 -4 -28 0 -41
12 -21 18 -21 18 -10 -3z"/>
<path d="M1186 3431 c-10 -11 -16 -25 -14 -32 2 -7 12 0 22 16 21 32 16 43 -8
16z"/>
<path d="M8532 3425 c0 -16 2 -22 5 -12 2 9 2 23 0 30 -3 6 -5 -1 -5 -18z"/>
<path d="M865 3420 c3 -5 8 -10 11 -10 2 0 4 5 4 10 0 6 -5 10 -11 10 -5 0 -7
-4 -4 -10z"/>
<path d="M830 3410 c-13 -8 -12 -10 3 -10 9 0 17 5 17 10 0 12 -1 12 -20 0z"/>
<path d="M900 3402 c6 -13 14 -21 18 -18 3 4 -2 14 -12 24 -18 16 -18 16 -6
-6z"/>
<path d="M8793 3360 c0 -25 2 -35 4 -22 2 12 2 32 0 45 -2 12 -4 2 -4 -23z"/>
<path d="M1289 3368 c-1 -13 -1 -27 0 -31 1 -5 -7 -20 -17 -35 -10 -15 -25
-49 -34 -77 -30 -91 -31 -95 -14 -95 9 0 16 7 16 16 0 8 5 12 10 9 6 -4 8 -11
5 -16 -4 -5 -1 -9 4 -9 6 0 11 10 11 23 0 13 4 27 9 33 10 10 26 204 17 204
-3 0 -7 -10 -7 -22z"/>
<path d="M1127 3341 c-9 -22 -21 -42 -26 -46 -6 -3 -15 -23 -21 -43 -14 -52
-33 -73 -69 -77 -23 -3 -33 1 -41 15 -11 21 -40 28 -40 10 0 -5 -7 -10 -15
-10 -9 0 -20 -10 -25 -22 -5 -14 -9 -17 -9 -7 -1 25 -22 39 -43 28 -12 -7 -18
-6 -18 1 0 6 -4 9 -8 6 -13 -8 -37 12 -37 30 0 23 -21 29 -29 8 -4 -11 3 -24
21 -40 16 -13 31 -24 35 -24 4 0 12 -16 19 -35 9 -24 18 -34 29 -30 15 5 173
15 238 15 36 0 43 15 11 25 -15 5 -18 10 -10 18 6 6 11 21 11 33 0 13 4 25 9
28 5 3 9 17 9 30 0 14 9 43 21 66 23 44 26 60 12 60 -5 0 -16 -18 -24 -39z"/>
<path d="M1392 3350 c0 -19 3 -44 7 -54 7 -18 8 -18 14 -3 4 10 1 17 -6 18 -7
0 -3 4 8 9 16 7 17 9 3 9 -10 1 -18 11 -21 29 -3 23 -4 21 -5 -8z"/>
<path d="M1728 3358 c-3 -7 -6 -17 -7 -23 -2 -5 -10 -19 -19 -29 -16 -18 -16
-18 4 -8 12 6 25 23 28 38 7 28 2 44 -6 22z"/>
<path d="M298 3353 c7 -3 16 -2 19 1 4 3 -2 6 -13 5 -11 0 -14 -3 -6 -6z"/>
<path d="M391 3347 c2 -1 13 -9 24 -17 19 -14 19 -14 6 3 -7 9 -18 17 -24 17
-6 0 -8 -1 -6 -3z"/>
<path d="M9227 3323 c-11 -11 -8 -33 5 -33 6 0 8 3 5 7 -4 3 -2 12 4 20 11 13
-2 19 -14 6z"/>
<path d="M445 3300 c3 -5 8 -10 11 -10 2 0 4 5 4 10 0 6 -5 10 -11 10 -5 0 -7
-4 -4 -10z"/>
<path d="M8792 3290 c0 -14 2 -19 5 -12 2 6 2 18 0 25 -3 6 -5 1 -5 -13z"/>
<path d="M2770 3289 c0 -5 5 -7 10 -4 6 3 10 8 10 11 0 2 -4 4 -10 4 -5 0 -10
-5 -10 -11z"/>
<path d="M6582 3278 c-1 -14 -5 -35 -8 -45 -5 -14 -4 -15 5 -7 7 7 11 26 8 45
-3 28 -4 29 -5 7z"/>
<path d="M2745 3265 c-4 -17 -10 -24 -12 -17 -8 20 -26 14 -20 -8 6 -25 -8
-26 -22 -2 -6 9 -11 13 -11 9 0 -5 9 -21 20 -37 17 -24 18 -29 5 -40 -8 -7
-15 -17 -15 -23 0 -5 9 -2 20 8 11 10 20 29 20 42 0 12 4 23 10 23 15 0 28 33
20 55 -6 17 -8 16 -15 -10z"/>
<path d="M6621 3243 c0 -25 1 -26 9 -8 12 27 12 35 0 35 -5 0 -10 -12 -9 -27z"/>
<path d="M1387 3253 c-4 -3 -7 -14 -7 -23 0 -28 -24 -70 -37 -65 -7 2 -13 -2
-13 -10 0 -8 9 -15 20 -15 13 0 20 7 20 18 0 10 5 23 11 29 6 6 13 24 15 42 5
31 3 37 -9 24z"/>
<path d="M2790 3240 c0 -5 5 -10 10 -10 6 0 10 5 10 10 0 6 -4 10 -10 10 -5 0
-10 -4 -10 -10z"/>
<path d="M8792 3230 c0 -14 2 -19 5 -12 2 6 2 18 0 25 -3 6 -5 1 -5 -13z"/>
<path d="M1417 3234 c-4 -4 -7 -14 -7 -23 0 -11 3 -12 11 -4 6 6 10 16 7 23
-2 6 -7 8 -11 4z"/>
<path d="M1550 3220 c-6 -11 -7 -20 -2 -20 6 0 12 9 15 20 3 11 3 20 1 20 -2
0 -8 -9 -14 -20z"/>
<path d="M1719 3214 c-13 -14 -33 -34 -43 -45 -20 -19 -20 -19 2 -19 12 0 22
5 22 12 0 7 14 27 32 45 18 18 27 33 21 33 -6 0 -21 -12 -34 -26z"/>
<path d="M9207 3223 c-10 -34 -18 -93 -13 -93 6 0 27 102 22 107 -2 3 -6 -4
-9 -14z"/>
<path d="M521 3210 c9 -14 47 -49 85 -77 38 -29 73 -63 78 -75 6 -13 11 -24
12 -26 1 -1 23 6 50 17 49 20 48 30 -1 11 -28 -11 -36 -5 -189 130 -35 31 -46
37 -35 20z"/>
<path d="M2030 3220 c0 -5 7 -10 15 -10 8 0 15 5 15 10 0 6 -7 10 -15 10 -8 0
-15 -4 -15 -10z"/>
<path d="M7331 3214 c0 -11 3 -14 6 -6 3 7 2 16 -1 19 -3 4 -6 -2 -5 -13z"/>
<path d="M250 3201 c0 -6 17 -11 38 -11 20 -1 52 -9 70 -18 30 -16 135 -127
143 -151 3 -6 19 -8 43 -4 29 5 35 8 22 15 -9 5 -16 14 -16 20 0 22 -74 76
-90 66 -3 -2 -4 -7 -3 -13 2 -5 -5 1 -15 15 -16 23 -34 42 -64 66 -20 16 -128
28 -128 15z"/>
<path d="M183 3193 c9 -2 23 -2 30 0 6 3 -1 5 -18 5 -16 0 -22 -2 -12 -5z"/>
<path d="M7263 3181 c-6 -10 -8 -24 -3 -31 6 -10 10 -8 18 7 14 26 0 49 -15
24z"/>
<path d="M8572 3175 c0 -16 2 -22 5 -12 2 9 2 23 0 30 -3 6 -5 -1 -5 -18z"/>
<path d="M8648 3194 c-5 -4 -8 -22 -8 -40 0 -25 7 -38 29 -53 33 -24 48 -26
54 -8 9 27 -5 49 -28 43 -20 -5 -24 -1 -32 30 -4 20 -11 32 -15 28z"/>
<path d="M2760 3169 c0 -5 5 -7 10 -4 6 3 10 8 10 11 0 2 -4 4 -10 4 -5 0 -10
-5 -10 -11z"/>
<path d="M7340 3171 c0 -6 4 -13 10 -16 6 -3 7 1 4 9 -7 18 -14 21 -14 7z"/>
<path d="M1390 3155 c-10 -13 -9 -15 9 -15 11 0 21 4 21 9 0 18 -18 21 -30 6z"/>
<path d="M1595 3160 c-3 -5 -1 -10 4 -10 6 0 11 5 11 10 0 6 -2 10 -4 10 -3 0
-8 -4 -11 -10z"/>
<path d="M2655 3150 c3 -5 8 -10 11 -10 2 0 4 5 4 10 0 6 -5 10 -11 10 -5 0
-7 -4 -4 -10z"/>
<path d="M1985 3130 c-13 -6 -15 -9 -5 -9 8 0 22 4 30 9 18 12 2 12 -25 0z"/>
<path d="M1723 3123 c9 -2 23 -2 30 0 6 3 -1 5 -18 5 -16 0 -22 -2 -12 -5z"/>
<path d="M1780 3120 c8 -5 26 -9 40 -9 23 0 23 1 5 9 -11 5 -29 9 -40 9 -17 1
-17 -1 -5 -9z"/>
<path d="M2286 3123 c-1 -1 -33 -3 -71 -4 -65 -2 -209 -30 -223 -43 -12 -13
58 -5 94 10 25 11 82 18 161 22 68 3 123 8 123 13 0 6 -77 8 -84 2z"/>
<path d="M1560 3108 c0 -9 15 -9 50 2 22 7 20 8 -12 7 -21 0 -38 -4 -38 -9z"/>
<path d="M2395 3111 c-2 -5 4 -11 15 -14 11 -3 20 -2 20 3 0 12 -28 21 -35 11z"/>
<path d="M1148 3093 c7 -3 16 -2 19 1 4 3 -2 6 -13 5 -11 0 -14 -3 -6 -6z"/>
<path d="M810 3080 c0 -5 6 -10 14 -10 8 0 16 -5 18 -11 3 -9 22 -6 64 9 l59
20 -77 1 c-46 1 -78 -3 -78 -9z"/>
<path d="M1235 3080 c-51 -9 -36 -11 105 -11 63 0 125 3 137 8 27 10 -185 12
-242 3z"/>
<path d="M1737 3070 c-27 -5 -66 -15 -86 -24 -24 -9 -43 -11 -52 -5 -8 5 -23
9 -34 8 -15 0 -12 -4 14 -18 31 -17 36 -17 65 -2 17 8 69 23 116 32 86 17 67
24 -23 9z"/>
<path d="M2118 3049 c13 -13 62 -22 62 -11 0 5 -16 12 -35 14 -19 2 -32 1 -27
-3z"/>
<path d="M1016 3038 c-70 -9 -85 -18 -30 -18 21 0 55 -4 74 -10 18 -5 36 -6
39 -1 4 4 20 15 36 24 l30 16 -45 -1 c-25 -1 -72 -6 -104 -10z"/>
<path d="M785 3024 l-40 -13 40 5 c40 6 52 11 44 18 -2 2 -22 -3 -44 -10z"/>
<path d="M2670 3030 c-22 -6 -21 -7 15 -13 22 -4 57 -7 78 -7 21 0 57 -5 81
-11 32 -8 54 -7 87 2 l44 13 -95 7 c-52 4 -115 10 -140 12 -25 2 -56 1 -70 -3z"/>
<path d="M8680 2986 c0 -26 4 -45 9 -42 10 7 8 73 -3 83 -3 3 -6 -15 -6 -41z"/>
<path d="M60 3000 l-65 -7 80 -1 c56 -1 88 -7 104 -18 17 -12 26 -13 34 -5 8
8 5 11 -11 11 -12 0 -22 5 -22 10 0 6 11 10 25 10 14 0 25 -5 25 -11 0 -6 5
-7 13 -2 6 4 44 11 82 14 51 4 34 6 -65 6 -74 0 -164 -3 -200 -7z"/>
<path d="M664 2991 c1 -14 -12 -16 -84 -14 l-85 1 78 -10 c67 -9 80 -8 95 5
10 9 29 20 42 26 23 9 22 9 -11 9 -27 -1 -36 -5 -35 -17z"/>
<path d="M2005 3003 c-16 -3 -36 -9 -42 -15 -9 -7 -13 -7 -13 1 0 8 -6 7 -16
-3 -19 -20 -40 -21 -47 -2 -6 15 -57 10 -57 -5 0 -8 -83 -4 -137 7 -13 2 -23
0 -23 -6 0 -5 21 -10 48 -10 26 0 70 -6 98 -14 48 -13 56 -12 139 15 52 17 99
26 114 23 20 -4 23 -3 11 5 -15 11 -23 11 -75 4z"/>
<path d="M2240 2985 c23 -8 30 -14 20 -17 -8 -3 1 -5 21 -5 26 1 35 5 32 14
-6 16 52 19 62 3 4 -6 -5 -10 -19 -10 -14 0 -26 -4 -26 -10 0 -17 63 -10 125
15 l60 24 -155 -1 c-133 -1 -150 -3 -120 -13z"/>
<path d="M6885 2990 c-3 -5 -1 -10 4 -10 6 0 11 5 11 10 0 6 -2 10 -4 10 -3 0
-8 -4 -11 -10z"/>
<path d="M3115 2981 c-3 -6 -32 -11 -63 -11 -31 -1 -84 -7 -117 -14 l-60 -14
43 -1 c24 -1 64 -6 89 -12 37 -10 57 -9 119 7 77 19 90 28 52 37 -13 2 -30 8
-39 11 -10 4 -20 3 -24 -3z"/>
<path d="M368 2973 c6 -2 18 -2 25 0 6 3 1 5 -13 5 -14 0 -19 -2 -12 -5z"/>
<path d="M438 2973 c12 -2 30 -2 40 0 9 3 -1 5 -23 4 -22 0 -30 -2 -17 -4z"/>
<path d="M1300 2970 c0 -5 5 -10 10 -10 6 0 10 5 10 10 0 6 -4 10 -10 10 -5 0
-10 -4 -10 -10z"/>
<path d="M273 2957 c-51 -19 -49 -27 3 -11 26 8 50 16 52 19 9 9 -22 4 -55 -8z"/>
<path d="M860 2961 c-22 -6 -23 -8 -7 -14 10 -4 16 -11 12 -16 -3 -6 -18 -3
-35 7 -27 15 -32 15 -40 2 -9 -13 -14 -7 -11 13 1 9 -12 9 -34 1 -13 -5 -7
-12 26 -27 24 -10 52 -26 61 -34 16 -14 20 -14 42 1 14 9 39 16 55 16 16 0 32
4 35 9 3 5 39 12 78 17 71 7 72 8 33 15 -63 12 -187 18 -215 10z m100 -15 c0
-11 -19 -15 -25 -6 -3 5 1 10 9 10 9 0 16 -2 16 -4z m-62 -23 c-10 -2 -18 -9
-18 -15 0 -6 -3 -9 -6 -5 -10 10 6 27 24 26 15 -1 15 -2 0 -6z"/>
<path d="M2675 2964 c-11 -3 -29 -7 -41 -9 -11 -3 -21 -12 -21 -21 0 -13 7
-14 36 -8 20 4 68 12 106 19 52 9 61 13 34 14 -20 0 -49 3 -65 5 -16 2 -38 2
-49 0z"/>
<path d="M8770 2955 c0 -8 4 -15 10 -15 5 0 7 7 4 15 -4 8 -8 15 -10 15 -2 0
-4 -7 -4 -15z"/>
<path d="M1470 2950 c-20 -6 -21 -8 -5 -8 11 0 31 4 45 8 20 6 21 8 5 8 -11 0
-31 -4 -45 -8z"/>
<path d="M8711 2944 c0 -11 3 -14 6 -6 3 7 2 16 -1 19 -3 4 -6 -2 -5 -13z"/>
<path d="M80 2935 c80 -17 87 -18 74 -5 -5 5 -39 12 -74 15 l-65 5 65 -15z"/>
<path d="M2485 2941 c-26 -5 -21 -8 43 -25 40 -10 76 -16 79 -12 3 3 -1 6 -11
6 -10 0 -16 6 -14 16 2 10 -4 19 -12 21 -12 4 -12 3 -2 -5 11 -7 11 -10 -3
-15 -9 -4 -18 -1 -21 8 -6 16 -12 16 -59 6z"/>
<path d="M1340 2929 c0 -14 27 -16 65 -4 l40 11 -52 0 c-29 -1 -53 -4 -53 -7z"/>
<path d="M2090 2926 c-44 -12 -90 -33 -90 -40 0 -5 142 43 149 49 7 7 -9 5
-59 -9z"/>
<path d="M190 2920 c-8 -5 -10 -10 -5 -10 6 0 17 5 25 10 8 5 11 10 5 10 -5 0
-17 -5 -25 -10z"/>
<path d="M3276 2921 c-3 -5 -21 -13 -38 -17 -43 -9 -68 -25 -68 -44 0 -10 -3
-11 -8 -3 -4 6 -19 9 -35 6 -23 -5 -26 -9 -21 -27 6 -20 6 -21 -14 -3 -11 10
-23 14 -26 9 -8 -13 -69 -13 -77 0 -4 7 -14 6 -30 -3 -22 -12 -17 -14 60 -21
46 -4 85 -9 88 -12 2 -2 28 6 56 19 49 23 198 55 256 55 22 1 23 2 9 10 -9 6
-38 14 -65 19 -26 5 -55 12 -64 16 -10 3 -20 2 -23 -4z"/>
<path d="M8690 2901 c0 -25 6 -27 13 -6 4 8 2 17 -3 20 -6 4 -10 -3 -10 -14z"/>
<path d="M2180 2894 c-19 -7 -49 -13 -66 -13 -45 -1 -50 -14 -12 -27 30 -10
36 -9 61 14 22 21 27 23 27 9 0 -9 -9 -22 -19 -29 -10 -6 -17 -17 -15 -23 4
-11 -34 -40 -93 -73 -12 -6 -30 -9 -39 -5 -11 4 -15 3 -10 -5 4 -7 -2 -9 -19
-6 -26 5 -37 -19 -12 -29 6 -3 -3 -3 -21 0 -29 5 -118 -14 -228 -48 -17 -5
-41 -9 -55 -9 -19 -1 -17 -4 14 -14 20 -8 43 -18 50 -24 7 -6 31 -7 62 -2 63
11 166 12 181 2 7 -4 19 -24 28 -46 11 -25 12 -35 4 -28 -7 5 -39 13 -70 16
-45 6 -62 4 -82 -10 -20 -13 -29 -14 -40 -5 -10 8 -16 9 -21 1 -3 -5 -17 -10
-31 -10 -14 0 -35 -5 -47 -12 -21 -11 -21 -11 -2 -19 13 -5 -2 -8 -42 -8 -40
-1 -63 -5 -63 -12 0 -8 -14 -10 -42 -6 -27 4 -37 2 -27 -4 7 -5 36 -9 62 -9
26 0 81 -7 122 -15 73 -15 75 -15 137 10 34 14 91 31 126 37 l64 12 34 -37
c25 -26 44 -37 64 -37 22 0 28 -4 24 -15 -4 -9 0 -15 7 -16 8 0 -4 -7 -25 -15
-31 -11 -41 -12 -47 -2 -5 7 -3 16 4 21 7 5 3 7 -12 3 -14 -3 -31 0 -38 5 -13
12 -33 4 -33 -12 0 -6 8 -9 18 -8 33 3 40 -1 35 -21 -8 -32 -42 -46 -58 -24
-11 16 -15 16 -29 4 -10 -7 -16 -9 -15 -4 4 25 -3 44 -17 44 -14 0 -14 -3 -4
-15 7 -8 9 -15 5 -15 -5 0 -1 -8 8 -18 10 -10 14 -21 11 -24 -13 -14 77 0 93
14 15 13 89 42 140 54 9 2 9 10 0 33 -6 17 -15 31 -19 31 -4 0 -8 4 -8 9 0 5
7 8 16 7 9 0 19 5 21 12 3 6 -2 12 -11 12 -9 0 -16 8 -16 20 0 22 15 27 23 8
4 -10 8 -9 15 2 46 68 166 180 206 190 11 3 21 11 24 18 3 10 -6 9 -34 -4 -22
-9 -47 -18 -57 -21 -21 -6 -62 32 -86 79 -9 18 -26 37 -38 43 -13 5 -23 18
-23 27 0 10 -4 18 -9 18 -5 0 -11 8 -13 19 -3 16 -6 17 -38 5z m70 -94 c-7 -5
-6 -11 4 -20 16 -12 13 -30 -4 -30 -5 0 -7 7 -4 15 4 8 1 15 -5 15 -6 0 -11 7
-11 16 0 10 -6 14 -15 10 -8 -3 -15 -2 -15 3 0 16 13 19 36 9 15 -7 20 -14 14
-18z m84 -96 c3 -8 2 -12 -4 -9 -6 3 -10 10 -10 16 0 14 7 11 14 -7z m-569
-74 c3 -5 1 -10 -4 -10 -6 0 -11 5 -11 10 0 6 2 10 4 10 3 0 8 -4 11 -10z
m519 -32 c-10 -18 -19 -27 -21 -21 -3 8 -22 -2 -53 -28 -53 -45 -67 -68 -48
-80 7 -4 9 -11 6 -14 -10 -11 -28 4 -28 23 0 31 38 75 97 113 32 21 59 38 61
38 1 1 -5 -14 -14 -31z m-204 -68 c0 -5 -2 -10 -4 -10 -3 0 -8 5 -11 10 -3 6
-1 10 4 10 6 0 11 -4 11 -10z m-350 -60 c0 -5 -14 -7 -32 -3 -46 8 -48 13 -5
13 21 0 37 -4 37 -10z"/>
<path d="M2391 2897 c9 -7 14 -17 12 -24 -5 -13 74 3 92 18 12 12 -1 11 -43 0
-23 -7 -32 -6 -32 3 0 6 -10 12 -22 13 -20 2 -21 0 -7 -10z"/>
<path d="M225 2890 c3 -5 12 -10 18 -10 7 0 28 -11 47 -23 42 -28 86 -41 95
-27 3 5 -1 10 -10 10 -9 0 -13 4 -10 10 3 5 0 7 -9 4 -8 -3 -36 6 -63 20 -49
27 -79 34 -68 16z"/>
<path d="M555 2890 c-16 -5 -39 -7 -50 -4 -14 4 -17 3 -10 -5 7 -7 46 -8 125
-2 63 4 94 9 69 10 -26 0 -59 3 -75 6 -16 2 -42 0 -59 -5z"/>
<path d="M1320 2890 c-9 -6 -10 -10 -3 -10 6 0 15 5 18 10 8 12 4 12 -15 0z"/>
<path d="M23 2872 c-33 -5 -28 -19 5 -17 15 1 19 0 10 -2 -10 -2 -18 -8 -18
-13 0 -11 130 -11 185 0 l40 8 -40 2 c-22 1 -57 1 -79 0 -29 -1 -36 1 -31 12
5 7 5 10 1 6 -5 -4 -18 -3 -30 1 -11 4 -31 5 -43 3z"/>
<path d="M1115 2868 c-17 -5 -40 -6 -52 -3 -12 3 -23 0 -26 -8 -3 -9 -7 -9
-20 2 -11 9 -17 10 -17 2 0 -6 -7 -11 -15 -11 -8 0 -15 -5 -15 -11 0 -7 -12
-8 -32 -4 -27 6 -31 5 -20 -6 14 -15 154 -31 162 -19 11 17 93 51 142 59 l53
9 -65 -1 c-36 0 -79 -4 -95 -9z m-35 -33 c-14 -17 -30 -20 -30 -6 0 5 8 12 18
14 9 3 19 5 21 6 2 0 -2 -6 -9 -14z"/>
<path d="M2878 2828 c8 -8 17 -8 34 0 22 10 21 11 -11 11 -27 1 -32 -2 -23
-11z"/>
<path d="M2838 2823 c7 -3 16 -2 19 1 4 3 -2 6 -13 5 -11 0 -14 -3 -6 -6z"/>
<path d="M725 2810 c-3 -5 -23 -9 -43 -8 -73 4 -163 -2 -158 -11 4 -5 -12 -7
-36 -4 -26 4 -39 2 -35 -4 4 -6 27 -13 52 -16 24 -4 54 -12 65 -19 16 -10 22
-10 32 0 11 11 9 16 -6 28 -19 14 -19 14 2 14 12 0 26 -9 33 -21 9 -17 17 -20
42 -15 18 4 43 7 55 6 13 0 33 7 45 15 12 8 29 15 39 15 9 0 20 5 23 10 4 7
-6 10 -27 9 -18 -1 -43 1 -55 5 -12 4 -24 2 -28 -4z m-64 -35 c1 -17 -18 -17
-25 0 -4 11 -1 15 10 13 8 -2 15 -7 15 -13z m79 6 c0 -5 -9 -7 -20 -4 -11 3
-20 7 -20 9 0 2 9 4 20 4 11 0 20 -4 20 -9z"/>
<path d="M2590 2809 c0 -5 7 -9 15 -9 8 0 15 -4 15 -10 0 -5 7 -10 15 -10 23
0 6 27 -21 33 -13 2 -24 0 -24 -4z"/>
<path d="M8671 2797 c-1 -17 8 -37 23 -52 18 -18 20 -25 10 -29 -11 -4 -11
-12 2 -43 20 -48 16 -46 49 -29 16 8 33 12 39 9 7 -4 8 -2 1 5 -5 6 -23 12
-40 14 -28 3 -30 6 -28 40 2 29 -2 38 -17 43 -11 3 -24 21 -29 38 l-9 32 -1
-28z"/>
<path d="M2011 2785 c-13 -14 -20 -29 -16 -33 3 -4 15 3 25 16 10 12 23 22 30
22 6 0 8 5 5 10 -9 15 -18 12 -44 -15z"/>
<path d="M5939 2788 c-7 -12 -9 -41 -6 -69 6 -45 4 -48 -23 -59 -16 -7 -51
-36 -78 -65 l-50 -53 30 -6 c53 -10 191 -6 250 8 31 8 81 25 111 39 l55 25 10
-22 c6 -11 11 -15 11 -8 2 39 -106 92 -190 92 l-37 0 -7 57 c-4 31 -9 62 -12
70 -8 21 -51 16 -64 -9z m7 -234 c-4 -9 -9 -15 -11 -12 -3 3 -3 13 1 22 4 9 9
15 11 12 3 -3 3 -13 -1 -22z"/>
<path d="M285 2785 c-23 -10 -25 -14 -10 -14 21 -1 52 15 45 23 -3 2 -18 -2
-35 -9z"/>
<path d="M3665 2780 c3 -5 11 -10 16 -10 6 0 7 5 4 10 -3 6 -11 10 -16 10 -6
0 -7 -4 -4 -10z"/>
<path d="M185 2775 c-5 -2 -49 -7 -97 -10 -51 -4 -88 -11 -88 -17 0 -7 18 -8
52 -4 29 4 79 10 110 13 32 3 55 10 52 14 -5 9 -12 10 -29 4z"/>
<path d="M1383 2750 c-18 -11 -33 -22 -33 -25 0 -2 16 5 35 16 19 12 35 23 35
25 0 6 -3 5 -37 -16z"/>
<path d="M2924 2758 c-3 -4 21 -7 53 -7 60 1 56 5 -10 11 -21 2 -40 0 -43 -4z"/>
<path d="M1190 2748 c0 -4 18 -8 39 -8 22 0 48 -3 58 -6 13 -5 15 -4 7 5 -12
14 -104 22 -104 9z"/>
<path d="M2810 2750 c0 -5 -14 -13 -31 -19 -42 -15 -46 -14 -23 4 18 15 16 15
-25 10 -44 -5 -91 -28 -91 -44 0 -5 11 -12 24 -15 21 -5 53 4 121 34 11 5 34
13 50 18 l30 9 -27 5 c-16 3 -28 2 -28 -2z m-95 -40 c-26 -11 -45 -12 -45 -2
0 4 15 8 33 9 26 1 28 0 12 -7z"/>
<path d="M2890 2750 c0 -5 5 -10 10 -10 6 0 10 5 10 10 0 6 -4 10 -10 10 -5 0
-10 -4 -10 -10z"/>
<path d="M840 2742 c0 -5 11 -14 25 -20 29 -14 34 2 6 18 -24 12 -31 13 -31 2z"/>
<path d="M900 2741 c0 -6 10 -11 23 -12 l22 0 -22 -9 c-13 -5 -23 -14 -23 -20
0 -5 17 -1 37 10 21 11 47 20 58 21 11 0 29 4 40 9 15 6 7 9 -27 8 -27 -1 -48
-5 -48 -11 0 -5 -7 -6 -15 -3 -8 3 -22 9 -30 12 -8 3 -15 1 -15 -5z"/>
<path d="M1568 2732 c-16 -2 -28 -8 -28 -14 0 -6 -12 -8 -27 -5 -16 3 -53 -3
-83 -13 l-55 -19 42 0 c23 -1 45 4 48 9 3 6 13 10 21 10 8 0 12 -5 9 -10 -7
-12 4 -16 63 -24 41 -6 42 -5 36 17 -4 20 -1 26 18 31 13 3 30 6 38 6 13 0 13
-2 0 -11 -12 -9 -11 -10 5 -4 11 3 32 9 48 12 15 3 29 8 31 12 4 6 -118 8
-166 3z"/>
<path d="M57 2703 c-22 -11 -31 -12 -43 -3 -11 10 -14 9 -14 -9 0 -29 34 -27
68 4 30 28 29 29 -11 8z"/>
<path d="M2510 2710 c0 -5 5 -10 10 -10 6 0 10 5 10 10 0 6 -4 10 -10 10 -5 0
-10 -4 -10 -10z"/>
<path d="M8818 2695 c-3 -14 -1 -25 3 -25 5 0 9 4 9 9 0 5 3 16 6 25 3 9 2 16
-4 16 -5 0 -12 -11 -14 -25z"/>
<path d="M420 2698 c-37 -15 -73 -18 -87 -6 -9 7 -13 7 -13 -1 0 -6 -17 -11
-40 -11 -22 0 -40 4 -40 9 0 8 -88 -4 -97 -13 -3 -2 22 -9 54 -16 32 -6 80
-18 106 -26 l48 -15 55 46 c57 46 59 52 14 33z m-65 -37 c3 -5 1 -12 -5 -16
-5 -3 -10 -1 -10 5 0 6 -4 9 -8 6 -4 -2 -14 -1 -22 5 -11 6 -8 9 12 9 15 0 29
-4 33 -9z"/>
<path d="M650 2674 c-25 -13 -25 -14 -2 -14 13 0 22 -6 22 -15 0 -9 -9 -15
-24 -15 -13 0 -39 -7 -57 -15 l-34 -16 30 6 c87 16 155 25 193 25 41 0 102 25
102 41 0 10 -43 -2 -57 -17 -9 -8 -24 -9 -55 -2 -24 5 -55 12 -70 15 -15 3
-25 9 -22 14 6 11 5 11 -26 -7z"/>
<path d="M3543 2684 c-7 -3 -9 -12 -6 -20 5 -12 -7 -19 -29 -15 -5 0 -8 -3 -8
-8 0 -11 -48 -21 -52 -11 -5 13 -48 22 -48 11 0 -12 -82 -12 -90 0 -5 7 -145
-12 -154 -22 -2 -2 41 -5 97 -5 56 -1 136 -8 177 -17 88 -18 229 -13 246 9 16
20 78 44 115 44 48 0 30 9 -47 26 -66 13 -176 18 -201 8z m88 -34 c-13 -11
-30 -20 -37 -20 -8 0 -25 -6 -37 -14 -13 -8 -30 -11 -42 -6 -17 6 -16 8 12 14
18 4 36 12 39 17 8 13 44 28 69 28 19 0 19 -1 -4 -19z"/>
<path d="M3498 2673 c7 -3 16 -2 19 1 4 3 -2 6 -13 5 -11 0 -14 -3 -6 -6z"/>
<path d="M3380 2660 c-8 -5 -11 -12 -7 -17 5 -4 12 -1 16 6 6 9 21 12 45 9 20
-2 36 0 36 4 0 11 -72 10 -90 -2z"/>
<path d="M1206 2651 c-4 -5 3 -7 14 -4 23 6 26 13 6 13 -8 0 -17 -4 -20 -9z"/>
<path d="M2850 2650 c42 -4 84 -10 95 -13 11 -4 26 -3 33 2 16 10 -69 21 -148
20 -52 -2 -51 -2 20 -9z"/>
<path d="M1150 2640 c-9 -6 -10 -10 -3 -10 6 0 15 5 18 10 8 12 4 12 -15 0z"/>
<path d="M2590 2635 c-7 -8 -20 -15 -30 -15 -9 0 -28 -8 -41 -18 -31 -24 -59
-35 -84 -34 -19 2 -19 1 1 -9 16 -8 30 -5 67 15 25 14 52 26 60 26 7 0 24 11
37 25 13 14 19 25 13 25 -6 0 -16 -7 -23 -15z"/>
<path d="M3850 2615 c0 -19 -42 -43 -48 -26 -4 12 -40 15 -66 5 -12 -5 -7 -11
21 -25 36 -19 37 -19 67 4 17 13 51 29 76 36 25 7 50 15 55 16 6 2 -16 4 -47
4 -45 1 -58 -2 -58 -14z"/>
<path d="M7481 2614 c0 -11 3 -14 6 -6 3 7 2 16 -1 19 -3 4 -6 -2 -5 -13z"/>
<path d="M114 2595 c-3 -7 -12 -11 -20 -8 -8 3 -20 1 -27 -5 -6 -5 -24 -9 -39
-7 -27 3 -28 2 -28 -51 0 -54 0 -54 31 -54 16 0 49 9 72 19 23 11 78 29 122
41 109 30 115 33 88 37 -13 3 -23 8 -23 13 0 23 -168 38 -176 15z"/>
<path d="M495 2594 c-31 -16 -54 -34 -43 -34 3 0 19 7 34 15 16 8 37 15 47 15
9 0 17 5 17 10 0 14 -20 12 -55 -6z"/>
<path d="M1155 2576 l-40 -12 65 -7 c100 -11 190 -27 246 -45 48 -14 53 -14
69 1 23 24 52 38 114 57 l55 17 -235 1 c-158 0 -247 -4 -274 -12z m365 -15 c0
-5 -7 -12 -16 -15 -14 -5 -15 -4 -4 9 14 17 20 19 20 6z"/>
<path d="M758 2562 c-16 -2 -28 -7 -28 -12 0 -4 -17 -4 -37 1 -21 5 -66 6
-100 2 l-63 -6 53 -24 c28 -13 56 -31 60 -39 8 -13 11 -13 32 0 13 8 44 20 69
27 25 6 46 14 46 18 0 3 15 7 33 8 17 1 64 6 102 11 l70 9 -60 3 c-79 5 -144
6 -177 2z"/>
<path d="M2985 2559 c-4 -6 -13 -8 -21 -5 -9 4 -18 -4 -24 -20 -10 -24 -14
-26 -53 -20 -23 3 -47 3 -54 -2 -6 -4 15 -8 48 -10 32 -1 59 2 59 6 0 5 18 18
40 31 22 12 40 24 40 27 0 9 -29 4 -35 -7z"/>
<path d="M4060 2559 c0 -6 -15 -8 -44 -4 -26 4 -46 3 -50 -3 -6 -9 -83 -49
-126 -65 -8 -3 37 -3 100 -1 62 3 116 7 120 8 8 5 173 -11 195 -19 11 -4 -15
16 -58 45 -67 44 -80 50 -94 38 -13 -10 -17 -10 -20 0 -6 15 -23 16 -23 1z"/>
<path d="M6185 2534 c-27 -13 -54 -25 -59 -27 -5 -2 -3 -13 3 -26 7 -12 13
-35 13 -52 1 -32 12 -38 26 -13 14 25 47 13 50 -19 3 -23 -1 -28 -27 -33 -17
-4 -31 -8 -31 -10 0 -2 9 -26 20 -53 l19 -50 -24 -30 c-14 -16 -49 -44 -78
-62 -28 -18 -54 -34 -57 -36 -6 -5 22 -23 35 -23 6 0 4 4 -3 9 -11 6 -10 10 3
15 15 5 17 2 12 -26 -3 -18 -3 -27 0 -20 2 6 8 10 12 8 4 -3 13 -1 21 4 12 7
12 11 0 25 -12 14 -12 18 1 26 20 13 32 6 48 -25 9 -20 16 -25 21 -16 9 15 15
5 25 -40 14 -62 11 -98 -7 -109 -12 -7 -18 -8 -18 -1 0 5 -5 10 -11 10 -5 0
-8 -4 -4 -9 3 -6 -4 -15 -15 -21 -11 -6 -18 -15 -15 -21 4 -5 -3 -9 -14 -9
-12 0 -21 -7 -21 -15 0 -16 -29 -34 -47 -28 -6 2 -28 -5 -49 -16 -21 -12 -47
-21 -56 -21 -10 0 -18 -4 -18 -10 0 -5 12 -10 26 -10 16 0 23 -4 18 -11 -4 -7
-22 -9 -45 -6 -26 3 -37 2 -32 -6 4 -7 -12 -8 -51 -3 -108 12 -148 28 -198 78
-27 26 -48 43 -48 39 0 -4 9 -16 20 -26 16 -15 18 -21 7 -33 -9 -13 -9 -14 0
-8 8 4 27 -3 45 -17 18 -14 53 -31 78 -40 28 -10 37 -16 23 -16 -33 -1 -53
-12 -53 -27 0 -8 -4 -14 -9 -14 -11 0 -51 38 -78 75 l-22 30 9 -35 c9 -33 34
-62 63 -73 9 -4 8 -8 -3 -16 -9 -7 -10 -11 -3 -11 6 0 14 4 17 9 3 4 21 11 40
14 18 3 52 17 75 31 l41 26 10 -25 c12 -33 13 -45 1 -45 -5 0 -12 10 -14 23
-2 12 -5 2 -6 -23 -1 -43 -16 -154 -27 -195 -4 -16 -1 -15 11 5 14 23 15 23
10 3 -5 -18 2 -27 32 -46 34 -22 40 -23 55 -10 16 14 20 14 43 -1 24 -16 31
-16 108 -1 208 42 345 96 455 179 79 60 91 80 64 109 -11 12 -47 78 -81 147
-74 149 -164 283 -243 361 -41 41 -54 59 -43 62 23 9 45 99 35 144 -5 21 -12
55 -15 76 -3 20 -9 37 -13 36 -4 0 -29 -11 -57 -25z m-2 -624 c-23 -22 -28
-18 -13 9 6 12 16 19 21 15 6 -4 3 -13 -8 -24z m117 -89 c0 -4 -28 -8 -62 -8
-61 0 -61 0 -18 7 68 11 80 11 80 1z m-275 -11 c-3 -5 -12 -10 -18 -10 -7 0
-6 4 3 10 19 12 23 12 15 0z m365 -5 c9 -10 9 -15 1 -15 -6 0 -11 4 -11 9 0 5
-9 7 -19 4 -11 -3 -28 0 -38 6 -15 9 -12 10 18 11 21 0 42 -7 49 -15z m-434
-50 c-4 -12 0 -14 22 -8 42 11 75 9 79 -5 3 -7 -3 -11 -14 -10 -41 3 -55 -2
-49 -18 4 -11 -1 -18 -14 -21 -11 -3 -20 -10 -20 -15 0 -6 7 -7 16 -4 8 3 12
2 9 -3 -3 -5 -1 -13 5 -16 6 -4 8 -15 5 -26 -4 -11 -2 -19 5 -19 6 0 8 5 5 10
-3 6 -4 10 -1 10 2 0 11 -13 19 -29 13 -27 13 -30 -4 -34 -11 -3 -17 -13 -16
-26 1 -14 5 -17 11 -11 13 13 46 13 46 0 0 -6 -12 -15 -26 -20 -14 -6 -32 -17
-41 -25 -30 -31 -48 5 -63 132 -6 49 -13 100 -16 115 -4 20 -1 27 13 31 32 8
35 7 29 -8z m327 -12 c11 -11 17 -12 17 -4 0 16 36 5 68 -20 l23 -18 -35 -6
c-30 -6 -41 -2 -78 28 -24 19 -50 37 -58 41 -8 3 -1 3 15 0 17 -3 38 -13 48
-21z m-258 -91 c-8 -8 -25 10 -25 26 0 13 2 13 14 -4 8 -10 13 -21 11 -22z
m-158 -4 c-3 -7 -5 -2 -5 12 0 14 2 19 5 13 2 -7 2 -19 0 -25z m7 -33 c-4 -8
-8 -15 -10 -15 -2 0 -4 7 -4 15 0 8 4 15 10 15 5 0 7 -7 4 -15z m1 -65 c3 -5
-1 -10 -9 -10 -9 0 -16 5 -16 10 0 6 4 10 9 10 6 0 13 -4 16 -10z"/>
<path d="M3395 2515 c-38 -29 -53 -35 -88 -33 -23 2 -45 7 -49 13 -5 6 -11 6
-18 -1 -7 -7 -24 -9 -45 -4 -18 4 -39 4 -45 0 -18 -11 10 -17 115 -24 l90 -6
50 45 c60 53 55 59 -10 10z"/>
<path d="M2900 2529 c0 -5 5 -7 10 -4 6 3 10 8 10 11 0 2 -4 4 -10 4 -5 0 -10
-5 -10 -11z"/>
<path d="M5771 2493 c-1 -49 10 -61 26 -27 9 19 8 24 -2 24 -8 0 -16 10 -18
23 -2 12 -5 3 -6 -20z"/>
<path d="M8770 2519 c0 -5 5 -7 10 -4 6 3 10 8 10 11 0 2 -4 4 -10 4 -5 0 -10
-5 -10 -11z"/>
<path d="M2378 2513 c7 -3 16 -2 19 1 4 3 -2 6 -13 5 -11 0 -14 -3 -6 -6z"/>
<path d="M2510 2500 c20 -13 50 -13 50 0 0 6 -15 10 -32 10 -25 0 -29 -3 -18
-10z"/>
<path d="M2615 2503 c-16 -3 -34 -9 -40 -15 -12 -12 50 -1 75 13 16 9 14 9
-35 2z"/>
<path d="M3715 2500 c-3 -5 -2 -10 4 -10 5 0 13 5 16 10 3 6 2 10 -4 10 -5 0
-13 -4 -16 -10z"/>
<path d="M7446 2493 c-6 -14 -5 -15 5 -6 7 7 10 15 7 18 -3 3 -9 -2 -12 -12z"/>
<path d="M1110 2493 c-8 -1 -71 -7 -140 -13 -69 -6 -136 -13 -150 -14 -14 -2
-36 -4 -50 -6 -15 -1 -1 -7 35 -15 33 -7 81 -20 106 -29 42 -14 51 -14 90 -1
59 21 199 29 288 17 45 -7 80 -7 90 -1 9 5 43 12 76 17 l60 8 -105 7 c-58 4
-134 12 -170 18 -74 13 -108 16 -130 12z"/>
<path d="M265 2484 c-44 -10 -101 -28 -109 -35 -5 -4 -20 -3 -35 2 -14 6 -21
7 -16 2 6 -4 24 -21 42 -37 l32 -28 73 25 c45 16 121 30 198 38 124 13 125 14
70 22 -66 10 -227 17 -255 11z m-49 -59 c-22 -17 -36 -19 -36 -7 0 14 12 22
34 22 21 -1 21 -1 2 -15z"/>
<path d="M3013 2483 c20 -2 54 -2 75 0 20 2 3 4 -38 4 -41 0 -58 -2 -37 -4z"/>
<path d="M5828 2473 c6 -2 18 -2 25 0 6 3 1 5 -13 5 -14 0 -19 -2 -12 -5z"/>
<path d="M6028 2473 c7 -3 16 -2 19 1 4 3 -2 6 -13 5 -11 0 -14 -3 -6 -6z"/>
<path d="M5928 2463 c18 -2 45 -2 60 0 15 2 0 4 -33 4 -33 0 -45 -2 -27 -4z"/>
<path d="M2256 2447 c3 -10 9 -15 12 -12 3 3 0 11 -7 18 -10 9 -11 8 -5 -6z"/>
<path d="M2888 2453 c6 -2 18 -2 25 0 6 3 1 5 -13 5 -14 0 -19 -2 -12 -5z"/>
<path d="M2486 2435 c-16 -12 -17 -15 -4 -15 9 0 18 7 22 15 7 18 6 18 -18 0z"/>
<path d="M2796 2435 c-10 -8 -39 -17 -65 -21 -35 -5 -41 -9 -26 -14 18 -7 35
-2 135 36 l35 13 -30 0 c-16 0 -38 -6 -49 -14z"/>
<path d="M8763 2435 c-8 -22 6 -33 17 -15 13 20 12 30 0 30 -6 0 -13 -7 -17
-15z"/>
<path d="M2240 2438 c0 -17 24 -57 31 -52 5 2 25 -18 46 -45 51 -68 64 -64 16
4 -21 30 -43 55 -50 55 -6 0 -19 10 -27 22 -9 12 -16 19 -16 16z"/>
<path d="M2328 2418 c6 -6 18 -8 28 -6 14 3 12 5 -9 10 -19 3 -25 2 -19 -4z"/>
<path d="M2398 2423 c6 -2 18 -2 25 0 6 3 1 5 -13 5 -14 0 -19 -2 -12 -5z"/>
<path d="M2660 2420 c-13 -8 -13 -10 2 -10 9 0 20 5 23 10 8 13 -5 13 -25 0z"/>
<path d="M5954 2416 c-29 -22 -13 -24 26 -4 26 13 30 18 14 18 -11 0 -29 -6
-40 -14z"/>
<path d="M7 2400 c-6 -22 4 -24 68 -11 l40 9 -37 1 c-20 0 -40 6 -43 11 -10
16 -22 12 -28 -10z"/>
<path d="M5796 2412 c-3 -6 3 -12 15 -15 12 -3 19 -1 16 6 -5 15 -24 20 -31 9z"/>
<path d="M2150 2400 c-9 -6 -10 -10 -3 -10 6 0 15 5 18 10 8 12 4 12 -15 0z"/>
<path d="M8562 2383 c-9 -28 -9 -31 9 -30 20 1 22 10 10 41 -7 18 -9 16 -19
-11z"/>
<path d="M8735 2400 c3 -5 8 -10 11 -10 2 0 4 5 4 10 0 6 -5 10 -11 10 -5 0
-7 -4 -4 -10z"/>
<path d="M8510 2378 c0 -13 -7 -45 -15 -72 -17 -57 -19 -96 -5 -96 6 0 10 7
10 15 0 8 4 15 9 15 5 0 12 7 15 16 3 8 2 12 -3 9 -18 -11 -20 13 -6 69 18 68
18 66 5 66 -5 0 -10 -10 -10 -22z"/>
<path d="M640 2369 c-19 -10 -30 -19 -25 -20 6 0 0 -4 -13 -9 -12 -5 -28 -7
-36 -4 -8 3 -17 0 -22 -7 -5 -9 -2 -10 10 -6 14 5 16 3 11 -12 -5 -17 3 -19
89 -26 92 -7 122 -3 111 15 -3 5 8 18 24 29 32 23 46 27 36 10 -4 -6 2 -5 14
3 30 19 26 28 -9 18 -18 -5 -32 -5 -35 1 -4 5 -28 9 -54 9 -26 0 -51 4 -56 9
-6 5 -24 1 -45 -10z"/>
<path d="M1705 2380 c-3 -5 -2 -10 4 -10 5 0 13 5 16 10 3 6 2 10 -4 10 -5 0
-13 -4 -16 -10z"/>
<path d="M5989 2373 c-13 -16 -12 -17 4 -4 9 7 17 15 17 17 0 8 -8 3 -21 -13z"/>
<path d="M2050 2376 c0 -2 7 -6 15 -10 8 -3 15 -1 15 4 0 6 -7 10 -15 10 -8 0
-15 -2 -15 -4z"/>
<path d="M5790 2365 c0 -18 26 -20 36 -3 4 7 3 8 -4 4 -7 -4 -12 -2 -12 3 0 6
-4 11 -10 11 -5 0 -10 -7 -10 -15z"/>
<path d="M5955 2371 c-3 -5 -1 -12 5 -16 5 -3 10 1 10 9 0 18 -6 21 -15 7z"/>
<path d="M290 2360 c-25 -4 -36 -8 -25 -9 19 -1 49 -18 103 -57 21 -15 22 -15
16 0 -4 12 0 16 15 16 12 0 21 -4 21 -10 0 -18 50 -11 57 8 4 9 11 21 17 25 8
6 7 10 -2 14 -6 2 -10 9 -6 14 9 15 -1 10 -27 -12 -19 -16 -21 -22 -9 -29 8
-5 11 -13 6 -17 -5 -4 -11 -2 -13 5 -3 6 -11 12 -19 12 -19 0 -18 19 1 26 48
19 -43 28 -135 14z m90 -14 c0 -2 -7 -7 -16 -10 -8 -3 -12 -2 -9 4 6 10 25 14
25 6z"/>
<path d="M2260 2360 c0 -5 5 -10 10 -10 6 0 10 5 10 10 0 6 -4 10 -10 10 -5 0
-10 -4 -10 -10z"/>
<path d="M2820 2365 c0 -8 104 -65 118 -65 21 0 13 15 -15 27 -70 30 -103 42
-103 38z"/>
<path d="M1220 2340 c0 -4 -21 -6 -47 -5 -52 2 -84 -12 -61 -26 21 -13 5 -17
-37 -9 -22 4 -30 8 -17 9 27 1 30 21 3 21 -33 0 -71 -19 -71 -34 0 -24 -17
-28 -48 -12 -21 11 -32 12 -47 3 -11 -6 -24 -12 -30 -13 -5 0 -17 -2 -25 -3
-8 -1 23 -15 70 -31 92 -32 104 -34 96 -21 -3 4 6 13 20 20 14 6 22 15 19 21
-3 5 3 14 14 19 28 16 39 13 17 -4 -17 -13 -16 -15 19 -29 42 -18 59 -20 33
-5 -27 16 -22 32 9 26 15 -3 37 1 49 10 20 13 23 12 29 -7 8 -25 5 -25 119 19
106 41 112 51 15 26 -19 -4 -28 -2 -32 8 -4 11 0 13 16 9 13 -3 18 -1 14 4
-10 10 -127 14 -127 4z m-60 -35 c0 -8 -4 -15 -10 -15 -5 0 -10 7 -10 15 0 8
5 15 10 15 6 0 10 -7 10 -15z m126 0 c14 -13 14 -15 0 -15 -9 0 -16 4 -16 9 0
5 -12 12 -27 14 l-28 4 28 2 c16 0 35 -6 43 -14z m-29 -21 c-3 -3 -12 -4 -19
-1 -8 3 -5 6 6 6 11 1 17 -2 13 -5z m-322 -24 c19 -8 19 -9 -2 -9 -12 -1 -25
4 -28 9 -7 12 2 12 30 0z"/>
<path d="M5836 2334 c-12 -32 -6 -44 22 -44 16 0 31 3 35 6 8 8 -3 34 -14 34
-4 0 -6 -7 -2 -16 4 -12 1 -15 -13 -12 -13 2 -18 10 -16 26 4 26 -3 29 -12 6z"/>
<path d="M4205 2320 c-4 -6 8 -10 28 -10 22 0 37 -6 41 -15 3 -8 1 -15 -5 -15
-6 0 -4 -6 4 -14 12 -13 21 -13 66 0 53 16 70 30 26 22 -14 -3 -29 0 -33 6
-18 29 -113 48 -127 26z"/>
<path d="M6039 2313 c-13 -16 -12 -17 4 -4 9 7 17 15 17 17 0 8 -8 3 -21 -13z"/>
<path d="M6083 2299 c-6 -16 -7 -27 -2 -24 15 10 30 43 21 49 -4 3 -13 -8 -19
-25z"/>
<path d="M2300 2307 c0 -8 7 -20 15 -27 26 -21 17 -29 -37 -33 l-53 -3 50 -2
c73 -2 85 9 52 48 -16 18 -27 25 -27 17z"/>
<path d="M2970 2310 c0 -5 14 -10 32 -10 36 0 35 4 -4 14 -17 4 -28 2 -28 -4z"/>
<path d="M4150 2310 c0 -13 11 -13 30 0 12 8 11 10 -7 10 -13 0 -23 -4 -23
-10z"/>
<path d="M5781 2304 c0 -11 3 -14 6 -6 3 7 2 16 -1 19 -3 4 -6 -2 -5 -13z"/>
<path d="M8431 2283 c-1 -43 12 -65 23 -37 10 25 7 81 -3 65 -7 -11 -9 -11
-14 0 -3 8 -6 -5 -6 -28z"/>
<path d="M8520 2308 c0 -4 16 -8 35 -8 19 0 35 4 35 9 0 5 -16 9 -35 8 -19 -1
-35 -5 -35 -9z"/>
<path d="M515 2300 c3 -5 11 -10 16 -10 6 0 7 5 4 10 -3 6 -11 10 -16 10 -6 0
-7 -4 -4 -10z"/>
<path d="M5910 2306 c0 -4 11 -18 25 -32 14 -14 25 -21 25 -16 0 5 -11 19 -25
32 -14 13 -25 20 -25 16z"/>
<path d="M4035 2291 c-3 -5 -1 -12 5 -16 5 -3 10 -1 10 6 0 6 8 9 20 6 11 -3
20 -1 20 4 0 12 -47 12 -55 0z"/>
<path d="M6161 2284 c0 -11 3 -14 6 -6 3 7 2 16 -1 19 -3 4 -6 -2 -5 -13z"/>
<path d="M105 2280 c-3 -5 -1 -10 4 -10 6 0 11 5 11 10 0 6 -2 10 -4 10 -3 0
-8 -4 -11 -10z"/>
<path d="M3765 2272 c-16 -9 -31 -20 -33 -24 -2 -5 -8 -8 -13 -8 -6 0 -8 3 -6
8 3 4 -18 8 -45 9 -63 1 -50 -12 19 -21 47 -6 54 -4 84 24 38 34 37 37 -6 12z"/>
<path d="M3980 2283 c-8 -3 -18 -12 -23 -19 -4 -7 -14 -11 -23 -7 -8 3 -25 1
-37 -5 -12 -5 -31 -14 -42 -18 -41 -15 10 -15 68 0 35 9 77 13 107 9 29 -3 50
-2 50 4 0 5 -14 8 -32 7 -41 -3 -58 4 -51 22 6 15 5 15 -17 7z"/>
<path d="M6030 2281 c0 -5 7 -12 16 -15 14 -5 15 -4 4 9 -14 17 -20 19 -20 6z"/>
<path d="M3240 2271 c-22 -6 -23 -8 -7 -14 10 -4 34 -7 54 -7 31 0 33 2 19 15
-16 16 -27 17 -66 6z"/>
<path d="M3420 2269 l-65 -6 78 -1 c42 -1 77 0 77 2 0 9 -29 11 -90 5z"/>
<path d="M3543 2273 c-28 -10 -10 -23 30 -22 23 1 33 4 22 6 -11 3 -24 9 -30
13 -5 4 -16 5 -22 3z"/>
<path d="M5790 2274 c0 -6 7 -19 15 -30 8 -10 14 -14 14 -9 0 6 -6 19 -14 29
-8 11 -15 15 -15 10z"/>
<path d="M5820 2272 c0 -5 11 -18 23 -31 26 -24 51 -20 68 10 11 22 9 22 -25
9 -28 -10 -59 -3 -50 11 3 5 0 9 -5 9 -6 0 -11 -4 -11 -8z"/>
<path d="M8746 2255 c-9 -26 -7 -32 5 -12 6 10 9 21 6 23 -2 3 -7 -2 -11 -11z"/>
<path d="M233 2247 c-17 -7 -35 -15 -39 -19 -14 -15 21 -7 56 12 39 21 31 25
-17 7z"/>
<path d="M2144 2246 c30 -17 62 -21 69 -8 3 4 -7 8 -21 8 -15 1 -38 5 -52 9
-23 6 -22 5 4 -9z"/>
<path d="M6113 2238 c-18 -11 -33 -24 -33 -30 0 -10 55 26 65 42 8 13 6 12
-32 -12z"/>
<path d="M2775 2239 c22 -5 58 -11 80 -14 38 -5 38 -4 -10 10 -27 8 -63 14
-80 14 -27 -1 -26 -2 10 -10z"/>
<path d="M4145 2235 c28 -8 60 -17 73 -21 12 -3 22 -2 22 2 0 13 -73 34 -112
33 -30 0 -28 -2 17 -14z"/>
<path d="M108 2233 c7 -3 16 -2 19 1 4 3 -2 6 -13 5 -11 0 -14 -3 -6 -6z"/>
<path d="M145 2230 c3 -5 13 -10 21 -10 8 0 12 5 9 10 -3 6 -13 10 -21 10 -8
0 -12 -4 -9 -10z"/>
<path d="M1505 2213 c39 -14 76 -30 83 -36 7 -5 16 -6 20 -2 4 4 1 10 -5 12
-7 3 -13 11 -13 20 0 9 -6 12 -18 9 -10 -4 -38 1 -62 9 -23 8 -50 15 -59 14
-9 0 16 -12 54 -26z"/>
<path d="M2370 2226 c0 -2 8 -10 18 -17 15 -13 16 -12 3 4 -13 16 -21 21 -21
13z"/>
<path d="M8440 2210 c0 -5 5 -10 11 -10 5 0 7 5 4 10 -3 6 -8 10 -11 10 -2 0
-4 -4 -4 -10z"/>
<path d="M355 2200 l-40 -5 65 -19 c63 -17 131 -51 138 -68 6 -14 62 -39 62
-28 0 5 -4 10 -10 10 -5 0 -10 9 -10 21 0 14 5 19 18 17 10 -2 16 -11 14 -21
-3 -20 6 -22 27 -4 23 20 117 46 181 51 61 5 90 14 90 27 0 5 -10 9 -22 10
-13 0 -32 3 -43 6 -56 14 -88 15 -96 2 -7 -11 -11 -11 -17 -1 -6 9 -47 12
-163 10 -85 -2 -172 -5 -194 -8z m279 -49 c-18 -31 -34 -40 -34 -21 0 6 -10
10 -22 10 -21 0 -21 0 -2 15 10 8 29 15 42 15 12 0 22 5 22 12 0 6 3 9 6 5 3
-3 -2 -19 -12 -36z m-99 10 c3 -5 1 -13 -5 -16 -15 -9 -43 3 -35 15 8 13 32
13 40 1z m155 -10 c0 -5 -11 -11 -25 -13 -14 -3 -25 -3 -25 -1 0 3 34 19 48
22 1 1 2 -3 2 -8z"/>
<path d="M5826 2190 c-15 -15 -17 -27 -11 -67 6 -46 5 -50 -25 -72 -17 -12
-29 -25 -26 -28 3 -3 25 11 50 31 47 38 61 44 53 22 -3 -7 0 -19 6 -25 9 -9 8
-11 -6 -5 -13 5 -17 1 -15 -16 2 -13 -3 -25 -11 -28 -9 -3 -11 0 -6 9 5 8 4
11 -1 6 -5 -5 -9 -14 -9 -20 0 -7 -22 -27 -49 -44 -26 -18 -42 -33 -34 -33 16
0 46 20 109 72 25 20 49 35 53 33 3 -3 4 -2 2 1 -2 3 0 19 4 36 8 26 7 28 -6
17 -8 -6 -16 -10 -17 -8 -9 13 -27 79 -27 97 0 28 30 29 37 1 4 -16 8 -17 14
-7 13 20 11 25 -15 32 -13 3 -30 8 -38 10 -7 3 -21 -4 -32 -14z"/>
<path d="M3088 2193 c7 -3 16 -2 19 1 4 3 -2 6 -13 5 -11 0 -14 -3 -6 -6z"/>
<path d="M4405 2190 c-4 -6 7 -10 27 -9 27 0 30 2 13 9 -27 12 -33 12 -40 0z"/>
<path d="M5466 2191 c-3 -5 1 -11 9 -14 9 -4 12 -1 8 9 -6 16 -10 17 -17 5z"/>
<path d="M5500 2197 c0 -2 15 -16 33 -33 l32 -29 -29 33 c-28 30 -36 37 -36
29z"/>
<path d="M1635 2185 c23 -8 83 -10 79 -3 -3 4 -24 8 -47 7 -23 0 -37 -2 -32
-4z"/>
<path d="M2400 2185 c0 -18 19 -40 26 -32 4 4 0 15 -9 24 -9 10 -17 13 -17 8z"/>
<path d="M3008 2177 c15 -7 29 -7 45 0 19 9 15 10 -23 10 -38 0 -42 -1 -22
-10z"/>
<path d="M5930 2180 c0 -5 5 -10 10 -10 6 0 10 5 10 10 0 6 -4 10 -10 10 -5 0
-10 -4 -10 -10z"/>
<path d="M5968 2183 c7 -3 16 -2 19 1 4 3 -2 6 -13 5 -11 0 -14 -3 -6 -6z"/>
<path d="M1751 2176 c2 -2 24 -6 48 -9 29 -4 40 -2 30 4 -13 8 -88 14 -78 5z"/>
<path d="M3516 2172 c-3 -6 -1 -14 5 -17 15 -10 25 3 12 16 -7 7 -13 7 -17 1z"/>
<path d="M6024 2164 c-18 -14 -18 -15 4 -4 12 6 22 13 22 15 0 8 -5 6 -26 -11z"/>
<path d="M8451 2161 c-1 -27 18 -101 31 -116 4 -5 2 13 -6 40 -8 28 -17 61
-19 75 l-4 25 -2 -24z"/>
<path d="M1223 2155 c-11 -8 -2 -10 33 -9 27 1 50 6 51 11 5 13 -66 11 -84 -2z"/>
<path d="M1470 2163 c-38 -6 -82 -24 -110 -45 -20 -16 -26 -17 -35 -5 -7 10
-31 13 -86 12 -69 -2 -76 0 -71 17 3 12 -1 18 -12 18 -9 0 -16 -4 -16 -10 0
-5 -7 -10 -16 -10 -8 0 -12 -4 -9 -10 9 -14 -8 -13 -23 2 -9 9 -12 8 -12 -5 0
-20 -4 -21 -33 -5 -23 12 -67 20 -67 12 0 -3 17 -12 38 -21 28 -12 72 -15 182
-15 126 0 151 3 192 21 25 12 67 24 92 27 25 4 46 11 46 15 0 9 -15 10 -60 2z"/>
<path d="M2440 2161 c0 -5 7 -11 14 -14 10 -4 13 -1 9 9 -6 15 -23 19 -23 5z"/>
<path d="M3665 2159 c-4 -6 -16 -9 -26 -6 -23 6 -24 1 -4 -19 13 -13 17 -13
36 4 12 12 16 22 10 26 -5 4 -13 1 -16 -5z"/>
<path d="M4120 2159 c0 -5 5 -7 10 -4 6 3 10 8 10 11 0 2 -4 4 -10 4 -5 0 -10
-5 -10 -11z"/>
<path d="M4365 2149 c-16 -10 -25 -19 -20 -19 6 0 24 9 40 20 17 11 26 20 20
19 -5 0 -23 -9 -40 -20z"/>
<path d="M3306 2153 c-16 -16 -2 -23 49 -23 33 0 55 4 55 11 0 6 -16 9 -38 8
-21 -2 -42 0 -48 4 -6 3 -14 4 -18 0z"/>
<path d="M3566 2145 c-15 -8 -34 -15 -41 -15 -7 0 -18 -7 -25 -15 -7 -8 -16
-13 -20 -10 -5 3 -12 0 -15 -6 -4 -5 -13 -8 -21 -5 -7 3 -16 1 -19 -3 -3 -5
-14 -7 -26 -4 -12 4 -25 0 -31 -8 -8 -11 -9 -11 -5 3 4 10 -1 18 -13 21 -11 3
-20 1 -22 -5 -2 -5 -28 -10 -57 -10 -30 -1 -70 -7 -90 -14 -33 -11 -26 -12 72
-12 59 -1 117 -4 128 -7 11 -4 25 -2 32 3 11 9 147 53 202 65 17 4 17 5 -4 6
-20 1 -21 3 -11 16 16 19 3 19 -34 0z"/>
<path d="M3275 2140 c3 -5 8 -10 11 -10 2 0 4 5 4 10 0 6 -5 10 -11 10 -5 0
-7 -4 -4 -10z"/>
<path d="M5420 2140 c0 -5 12 -10 28 -9 24 0 25 1 7 9 -27 12 -35 12 -35 0z"/>
<path d="M2430 2130 c0 -6 7 -10 15 -10 8 0 15 2 15 4 0 2 -7 6 -15 10 -8 3
-15 1 -15 -4z"/>
<path d="M2945 2130 c-3 -5 -2 -10 4 -10 5 0 13 5 16 10 3 6 2 10 -4 10 -5 0
-13 -4 -16 -10z"/>
<path d="M3240 2130 c0 -5 5 -10 11 -10 5 0 7 5 4 10 -3 6 -8 10 -11 10 -2 0
-4 -4 -4 -10z"/>
<path d="M3865 2130 c3 -5 8 -10 11 -10 2 0 4 5 4 10 0 6 -5 10 -11 10 -5 0
-7 -4 -4 -10z"/>
<path d="M4058 2132 c-44 -5 -32 -18 12 -14 22 2 40 7 40 11 0 8 -8 8 -52 3z"/>
<path d="M4200 2130 c8 -5 28 -10 44 -10 39 0 30 6 -19 13 -27 4 -35 3 -25 -3z"/>
<path d="M2470 2117 c0 -9 4 -18 9 -21 5 -4 8 1 7 9 -3 21 -16 31 -16 12z"/>
<path d="M3768 2123 c7 -3 16 -2 19 1 4 3 -2 6 -13 5 -11 0 -14 -3 -6 -6z"/>
<path d="M3800 2122 c0 -4 20 -14 45 -21 25 -7 45 -17 45 -22 0 -5 5 -9 10 -9
25 0 5 19 -39 39 -55 23 -61 25 -61 13z"/>
<path d="M4447 2120 c-20 -4 -40 -9 -42 -12 -10 -10 149 -17 166 -7 12 6 19 5
22 -4 2 -6 8 -9 12 -5 4 4 2 15 -5 23 -10 12 -15 13 -21 4 -6 -10 -13 -10 -34
-1 -28 13 -41 13 -98 2z"/>
<path d="M5582 2114 c10 -10 20 -16 22 -13 3 3 -5 11 -17 18 -21 13 -21 12 -5
-5z"/>
<path d="M4295 2110 c27 -12 35 -12 35 0 0 6 -12 10 -27 9 -25 0 -26 -1 -8 -9z"/>
<path d="M5664 2108 c-28 -16 -30 -18 -15 -27 9 -6 11 -21 6 -55 -6 -40 -10
-46 -26 -41 -12 4 -19 1 -20 -7 0 -7 -2 -25 -3 -40 -1 -16 1 -28 4 -28 8 0 61
87 59 97 -1 4 -1 27 0 51 1 29 5 42 15 42 8 0 16 -5 18 -11 2 -7 9 -10 15 -8
6 2 1 11 -11 20 -17 13 -27 14 -42 7z"/>
<path d="M5987 2109 c-14 -8 -16 -14 -6 -25 15 -18 33 -18 25 1 -3 8 2 19 12
24 14 8 14 10 2 10 -8 0 -23 -4 -33 -10z"/>
<path d="M3940 2100 c-20 -6 -21 -8 -5 -8 11 0 29 3 40 8 25 11 -1 11 -35 0z"/>
<path d="M5356 2098 c3 -4 21 -8 40 -8 19 0 34 -4 34 -10 0 -5 7 -7 15 -3 9 3
14 7 12 10 -9 8 -106 20 -101 11z"/>
<path d="M2325 2090 c-3 -5 -36 -11 -73 -11 l-67 -2 65 -7 c36 -4 67 -4 70 0
3 3 14 12 25 18 17 10 17 11 3 12 -9 0 -20 -4 -23 -10z"/>
<path d="M3021 2093 c-22 -4 -20 -7 19 -24 46 -21 90 -25 90 -8 0 5 -5 7 -11
4 -14 -9 -70 15 -63 26 3 5 2 8 -3 8 -4 -1 -19 -4 -32 -6z"/>
<path d="M5785 2084 c9 -9 19 -13 23 -10 3 4 0 11 -8 16 -24 15 -33 11 -15 -6z"/>
<path d="M244 2067 c3 -10 6 -21 6 -23 0 -10 57 -2 85 11 29 14 17 14 -35 -1
-12 -3 -20 -1 -20 6 0 6 -5 8 -11 4 -6 -3 -16 0 -21 7 -8 11 -8 10 -4 -4z"/>
<path d="M1495 2069 c-14 -21 19 -29 122 -29 75 0 128 -6 199 -24 l96 -25 31
21 c31 19 17 21 -27 2 -15 -5 -17 -4 -11 6 5 9 4 11 -4 6 -6 -4 -14 0 -17 9
-5 12 -10 13 -20 4 -9 -7 -28 -9 -51 -4 -21 3 -94 9 -163 11 -95 4 -128 9
-137 20 -8 11 -13 12 -18 3z"/>
<path d="M2507 2043 c17 -26 17 -27 0 -20 -24 9 -21 0 4 -14 13 -6 19 -7 15
-1 -3 6 0 12 6 15 10 3 8 10 -6 26 -27 30 -40 26 -19 -6z"/>
<path d="M2620 2063 c0 -14 71 -74 85 -71 5 1 44 -2 85 -6 69 -7 80 -5 130 18
30 14 49 26 42 26 -7 0 -30 -8 -50 -18 -30 -14 -51 -17 -102 -12 -36 4 -75 5
-87 4 -13 -1 -23 3 -23 9 0 5 -3 7 -7 3 -4 -3 -22 8 -40 26 -18 17 -33 27 -33
21z"/>
<path d="M5380 2061 c0 -16 51 -32 68 -20 15 9 15 10 1 6 -9 -3 -28 1 -43 8
-14 8 -26 10 -26 6z"/>
<path d="M28 2053 c6 -2 18 -2 25 0 6 3 1 5 -13 5 -14 0 -19 -2 -12 -5z"/>
<path d="M98 2053 c12 -2 32 -2 45 0 12 2 2 4 -23 4 -25 0 -35 -2 -22 -4z"/>
<path d="M881 2019 c-34 -23 -60 -44 -57 -46 4 -5 88 50 121 79 24 21 -8 4
-64 -33z"/>
<path d="M2408 2053 c6 -2 18 -2 25 0 6 3 1 5 -13 5 -14 0 -19 -2 -12 -5z"/>
<path d="M3835 2051 c-3 -5 -21 -7 -40 -4 -42 7 -86 -3 -82 -20 1 -7 -13 -13
-36 -15 -32 -3 -39 0 -44 17 -7 27 -28 27 -47 -1 -14 -19 -16 -19 -22 -5 -3 9
-10 17 -16 17 -5 0 -6 -4 -3 -10 3 -5 1 -10 -4 -10 -6 0 -11 4 -11 9 0 5 -9 7
-21 4 -16 -5 -9 -10 33 -25 73 -26 233 -18 284 15 33 22 43 37 25 37 -6 0 -12
-4 -16 -9z"/>
<path d="M4213 2036 c-16 -14 -45 -26 -64 -29 l-34 -4 37 -1 c29 -2 45 5 70
28 39 35 32 40 -9 6z"/>
<path d="M754 2019 c32 -16 61 -27 63 -25 3 2 -6 10 -19 17 -12 6 -25 15 -28
19 -3 4 -21 10 -40 13 -30 6 -27 2 24 -24z"/>
<path d="M2455 2040 c3 -5 11 -10 16 -10 6 0 7 5 4 10 -3 6 -11 10 -16 10 -6
0 -7 -4 -4 -10z"/>
<path d="M4631 2032 c-1 -7 4 -22 9 -33 8 -15 7 -19 -4 -19 -15 0 -29 27 -20
41 3 5 -13 9 -35 9 -30 0 -41 -4 -41 -15 0 -8 -7 -15 -16 -15 -10 0 -14 6 -10
15 4 10 -1 15 -14 15 -11 0 -20 -4 -20 -9 0 -6 -12 -6 -30 -1 -21 6 -34 5 -43
-5 -9 -8 -19 -10 -28 -4 -19 12 -32 11 -24 -1 4 -7 -9 -9 -37 -5 -42 5 -41 4
17 -16 50 -18 84 -22 202 -23 120 -1 139 1 130 13 -7 8 -17 26 -24 40 -6 14
-12 20 -12 13z"/>
<path d="M6090 2019 c0 -11 5 -17 10 -14 6 3 10 13 10 21 0 8 -4 14 -10 14 -5
0 -10 -9 -10 -21z"/>
<path d="M6175 2015 c-16 -49 -16 -51 0 -31 15 19 20 46 10 46 -3 0 -8 -7 -10
-15z"/>
<path d="M1245 2011 c-11 -4 -33 -6 -50 -5 -64 4 -248 -33 -239 -48 3 -5 -4
-12 -16 -16 -16 -6 -2 -12 62 -27 46 -10 86 -22 89 -27 3 -5 29 4 56 21 61 37
177 91 197 91 8 0 18 5 21 10 7 12 -89 13 -120 1z m-95 -31 c0 -5 -4 -10 -10
-10 -5 0 -10 5 -10 10 0 6 5 10 10 10 6 0 10 -4 10 -10z m-35 -21 c11 -17 -1
-21 -15 -4 -8 9 -8 15 -2 15 6 0 14 -5 17 -11z m-20 -19 c3 -5 2 -10 -4 -10
-5 0 -13 5 -16 10 -3 6 -2 10 4 10 5 0 13 -4 16 -10z m-82 -7 c-7 -2 -19 -2
-25 0 -7 3 -2 5 12 5 14 0 19 -2 13 -5z"/>
<path d="M5405 2010 c3 -5 16 -10 28 -9 21 0 21 1 2 9 -28 12 -37 12 -30 0z"/>
<path d="M5534 2009 c-3 -5 6 -9 20 -9 31 0 34 6 6 13 -11 3 -23 1 -26 -4z"/>
<path d="M5715 2010 c-3 -6 1 -7 9 -4 18 7 21 14 7 14 -6 0 -13 -4 -16 -10z"/>
<path d="M8656 2005 c-9 -26 -7 -32 5 -12 6 10 9 21 6 23 -2 3 -7 -2 -11 -11z"/>
<path d="M2545 2001 c-3 -6 2 -14 12 -18 25 -9 53 -43 53 -63 0 -9 5 -21 12
-28 9 -9 9 -12 0 -12 -7 0 -15 7 -18 15 -4 8 -12 15 -19 15 -7 0 -15 -7 -19
-15 -3 -8 -15 -15 -26 -15 -11 0 -20 -4 -20 -9 0 -4 -17 -7 -37 -4 -21 2 -58
6 -83 8 -33 3 -21 -2 45 -21 129 -36 147 -38 189 -20 51 21 50 21 69 -19 15
-32 18 -34 45 -24 18 6 35 23 46 46 17 36 17 36 -10 62 l-27 26 17 -28 c18
-30 14 -47 -11 -47 -13 0 -14 2 -2 18 13 15 12 16 -3 4 -14 -11 -18 -10 -28 8
-6 12 -18 19 -25 16 -7 -2 -19 2 -25 9 -7 8 -16 12 -21 9 -5 -3 -9 0 -9 5 0
12 -35 50 -47 52 -5 1 -6 6 -5 13 2 6 0 8 -4 3 -4 -4 -15 0 -25 9 -11 10 -19
12 -24 5z m182 -178 c-13 -13 -14 -12 -10 11 3 16 1 26 -6 26 -7 0 -9 5 -6 11
5 6 13 2 22 -11 14 -19 14 -24 0 -37z"/>
<path d="M5468 2003 c6 -2 18 -2 25 0 6 3 1 5 -13 5 -14 0 -19 -2 -12 -5z"/>
<path d="M5875 1974 c-8 -20 -15 -39 -15 -42 0 -3 -7 -14 -17 -24 -14 -16 -14
-18 -1 -18 9 0 19 7 22 16 3 8 10 13 15 9 9 -5 61 39 61 50 0 11 -25 4 -43
-12 -19 -17 -19 -17 -12 7 4 14 10 31 12 38 3 6 2 12 -1 12 -3 0 -13 -16 -21
-36z"/>
<path d="M3920 1991 c8 -5 35 -11 60 -14 l45 -5 -40 13 c-47 16 -89 20 -65 6z"/>
<path d="M450 1973 c13 -10 39 -30 56 -45 31 -28 32 -28 75 -12 24 8 70 16
102 17 31 1 57 5 57 8 0 7 -98 3 -141 -6 -19 -3 -29 0 -33 11 -3 8 -10 13 -15
10 -5 -3 -14 1 -21 10 -9 10 -15 11 -20 4 -4 -7 -19 -6 -46 5 -38 15 -38 15
-14 -2z"/>
<path d="M8491 1960 c-1 -28 28 -53 48 -40 9 5 5 9 -12 14 -16 4 -27 15 -30
29 -4 21 -4 20 -6 -3z"/>
<path d="M2378 1953 c7 -3 16 -2 19 1 4 3 -2 6 -13 5 -11 0 -14 -3 -6 -6z"/>
<path d="M4265 1939 c-22 -6 -62 -12 -89 -14 -27 -3 -52 -8 -55 -11 -3 -4 4
-4 17 -1 12 3 22 1 22 -4 0 -8 -17 -13 -46 -12 -6 0 -9 -8 -7 -18 5 -17 6 -17
36 0 18 10 57 26 87 36 103 33 115 42 35 24z"/>
<path d="M2195 1930 c-3 -5 -1 -10 4 -10 6 0 11 5 11 10 0 6 -2 10 -4 10 -3 0
-8 -4 -11 -10z"/>
<path d="M2280 1933 c-53 -20 -82 -34 -78 -38 3 -3 34 6 69 19 35 14 55 25 44
25 -11 0 -27 -3 -35 -6z"/>
<path d="M3095 1915 c17 -8 37 -14 45 -14 8 0 0 6 -19 14 -42 19 -66 18 -26 0z"/>
<path d="M3180 1920 c-24 -8 -24 -8 5 -8 17 0 39 3 50 8 18 8 18 9 -5 8 -14 0
-36 -4 -50 -8z"/>
<path d="M3306 1910 c41 -20 41 -20 80 1 23 12 29 17 14 13 -32 -8 -56 -8
-100 0 l-35 6 41 -20z"/>
<path d="M8570 1920 c0 -5 5 -10 10 -10 6 0 10 5 10 10 0 6 -4 10 -10 10 -5 0
-10 -4 -10 -10z"/>
<path d="M8611 1914 c0 -11 3 -14 6 -6 3 7 2 16 -1 19 -3 4 -6 -2 -5 -13z"/>
<path d="M270 1905 c0 -8 -8 -15 -17 -16 -10 0 -13 -3 -7 -5 17 -7 66 15 59
26 -10 15 -35 12 -35 -5z"/>
<path d="M332 1900 c10 -6 55 -12 100 -15 l83 -4 -73 9 c-40 4 -85 11 -100 14
-21 5 -24 4 -10 -4z"/>
<path d="M3820 1895 c0 -14 -6 -16 -30 -13 -18 3 -30 0 -30 -6 0 -14 -141 -59
-161 -51 -11 4 -15 0 -15 -17 1 -14 -6 -24 -17 -26 -13 -3 -17 1 -15 15 3 15
-3 18 -37 15 -30 -2 -36 0 -25 8 13 8 13 10 -2 10 -10 0 -18 4 -18 8 0 5 -16
9 -35 10 -19 1 -35 -2 -35 -6 1 -9 105 -62 124 -62 8 0 19 -7 23 -15 7 -12 24
-7 99 31 50 26 110 48 134 51 29 3 57 15 78 33 33 27 33 28 9 26 -14 0 -22 -5
-19 -11 3 -5 -2 -4 -11 4 -15 12 -17 11 -17 -4z"/>
<path d="M4015 1891 c-6 -11 9 -23 19 -14 9 9 7 23 -3 23 -6 0 -12 -4 -16 -9z"/>
<path d="M4424 1887 c-20 -4 -43 -12 -50 -18 -16 -13 -6 -47 17 -54 22 -7 26
-25 5 -25 -8 0 -22 -3 -32 -7 -14 -5 -16 -3 -11 11 5 13 1 19 -13 23 -25 7
-26 20 -2 26 9 2 -5 3 -33 2 -27 -2 -62 -6 -78 -10 -26 -7 -23 -9 48 -43 l75
-35 78 31 c115 46 174 58 209 43 29 -12 113 -13 113 -2 0 4 -10 20 -21 36 -19
27 -20 22 -3 -21 5 -12 1 -14 -22 -8 -37 8 -55 24 -28 24 10 1 1 7 -21 15 -48
16 -178 23 -231 12z"/>
<path d="M118 1883 c6 -2 18 -2 25 0 6 3 1 5 -13 5 -14 0 -19 -2 -12 -5z"/>
<path d="M3625 1880 c-3 -5 -1 -10 4 -10 6 0 11 5 11 10 0 6 -2 10 -4 10 -3 0
-8 -4 -11 -10z"/>
<path d="M4065 1881 l20 -8 -20 -6 -20 -6 20 2 c24 3 23 21 -2 24 -15 2 -14 1
2 -6z"/>
<path d="M3275 1860 c-8 -13 5 -13 25 0 13 8 13 10 -2 10 -9 0 -20 -4 -23 -10z"/>
<path d="M3918 1863 c6 -2 18 -2 25 0 6 3 1 5 -13 5 -14 0 -19 -2 -12 -5z"/>
<path d="M1855 1845 c-39 -17 -21 -18 25 0 19 7 28 14 20 14 -8 0 -28 -6 -45
-14z"/>
<path d="M3215 1850 c-3 -5 -2 -10 4 -10 5 0 13 5 16 10 3 6 2 10 -4 10 -5 0
-13 -4 -16 -10z"/>
<path d="M5530 1853 c0 -6 8 -17 18 -24 16 -13 16 -13 2 6 -8 11 -16 22 -17
24 -2 2 -3 0 -3 -6z"/>
<path d="M1725 1840 c27 -12 43 -12 25 0 -8 5 -22 9 -30 9 -10 0 -8 -3 5 -9z"/>
<path d="M3168 1843 c7 -3 16 -2 19 1 4 3 -2 6 -13 5 -11 0 -14 -3 -6 -6z"/>
<path d="M5566 1836 c3 -8 13 -17 21 -20 25 -10 23 -3 -3 17 -18 13 -22 14
-18 3z"/>
<path d="M1788 1823 c6 -2 18 -2 25 0 6 3 1 5 -13 5 -14 0 -19 -2 -12 -5z"/>
<path d="M736 1805 c10 -8 26 -14 34 -14 9 0 4 6 -10 14 -33 19 -49 19 -24 0z"/>
<path d="M4776 1775 c4 -8 8 -15 10 -15 2 0 4 7 4 15 0 8 -4 15 -10 15 -5 0
-7 -7 -4 -15z"/>
<path d="M2888 1750 c-27 -17 -56 -30 -65 -30 -17 -1 -17 -1 0 -11 14 -8 28
-3 67 26 43 32 58 46 48 45 -2 0 -24 -14 -50 -30z"/>
<path d="M5524 1765 c-8 -20 2 -45 18 -45 9 0 9 3 0 12 -21 21 -15 40 11 33
17 -5 19 -4 7 4 -21 15 -30 14 -36 -4z"/>
<path d="M5702 1746 c7 -8 15 -12 17 -11 5 6 -10 25 -20 25 -5 0 -4 -6 3 -14z"/>
<path d="M4790 1740 c0 -5 5 -10 10 -10 6 0 10 5 10 10 0 6 -4 10 -10 10 -5 0
-10 -4 -10 -10z"/>
<path d="M438 1733 c12 -2 30 -2 40 0 9 3 -1 5 -23 4 -22 0 -30 -2 -17 -4z"/>
<path d="M666 1711 c-20 -16 -33 -32 -29 -34 4 -3 26 10 47 29 48 42 33 45
-18 5z"/>
<path d="M4079 1726 c-36 -7 -85 -22 -109 -34 -38 -19 -45 -19 -64 -6 -11 7
-27 14 -36 14 -11 -1 -9 -4 5 -12 11 -6 26 -18 32 -26 12 -14 17 -13 55 8 24
14 86 34 138 46 101 24 89 30 -21 10z"/>
<path d="M4889 1719 c-17 -17 -15 -69 2 -69 5 0 6 7 3 15 -4 9 0 15 10 15 9 0
16 -8 16 -20 0 -12 7 -20 18 -20 11 0 13 3 6 8 -7 4 -18 25 -25 47 -13 37 -15
39 -30 24z"/>
<path d="M540 1720 c0 -9 70 -33 78 -26 4 5 -57 36 -70 36 -4 0 -8 -4 -8 -10z"/>
<path d="M2230 1705 c-47 -11 -50 -13 -20 -13 19 0 53 5 75 13 50 16 18 16
-55 0z"/>
<path d="M3810 1716 c0 -2 9 -6 20 -9 11 -3 20 -1 20 4 0 5 -9 9 -20 9 -11 0
-20 -2 -20 -4z"/>
<path d="M4610 1715 c0 -7 73 -45 85 -45 27 0 -29 45 -57 46 -16 1 -28 0 -28
-1z"/>
<path d="M4945 1710 c-3 -5 -1 -10 4 -10 6 0 11 5 11 10 0 6 -2 10 -4 10 -3 0
-8 -4 -11 -10z"/>
<path d="M5611 1702 c24 -19 59 -35 59 -28 0 6 -66 46 -75 46 -4 0 3 -8 16
-18z"/>
<path d="M160 1700 c0 -5 5 -10 11 -10 5 0 7 5 4 10 -3 6 -8 10 -11 10 -2 0
-4 -4 -4 -10z"/>
<path d="M2757 1699 c7 -7 15 -10 18 -7 3 3 -2 9 -12 12 -14 6 -15 5 -6 -5z"/>
<path d="M0 1640 c0 -38 4 -50 15 -50 18 0 85 61 85 77 0 12 -33 23 -72 23
-27 0 -28 -2 -28 -50z"/>
<path d="M4743 1683 c9 -2 23 -2 30 0 6 3 -1 5 -18 5 -16 0 -22 -2 -12 -5z"/>
<path d="M3038 1673 c6 -2 18 -2 25 0 6 3 1 5 -13 5 -14 0 -19 -2 -12 -5z"/>
<path d="M4575 1630 c-33 -16 -52 -29 -42 -29 18 -1 117 45 117 54 0 9 -15 4
-75 -25z"/>
<path d="M2899 1605 c-37 -19 -69 -31 -73 -28 -3 3 -6 -4 -6 -16 0 -21 1 -21
16 -6 9 9 43 29 75 46 33 16 59 31 59 34 0 7 0 7 -71 -30z"/>
<path d="M4125 1619 c39 -11 79 -22 90 -25 26 -7 53 31 29 40 -8 3 -13 2 -10
-2 2 -4 1 -13 -3 -20 -5 -9 -16 -9 -44 0 -20 6 -37 15 -37 20 0 4 -21 8 -47 7
l-48 0 70 -20z"/>
<path d="M4840 1624 c0 -27 -11 -31 -75 -27 -27 1 -75 -3 -106 -9 l-57 -12 67
-24 c65 -25 132 -31 184 -18 33 8 35 32 7 78 -17 28 -20 30 -20 12z"/>
<path d="M3430 1627 c0 -3 26 -15 58 -28 31 -12 60 -27 63 -32 4 -5 9 -5 12 0
3 5 -15 19 -41 30 -56 24 -92 36 -92 30z"/>
<path d="M205 1610 c-3 -5 1 -10 10 -10 9 0 13 5 10 10 -3 6 -8 10 -10 10 -2
0 -7 -4 -10 -10z"/>
<path d="M500 1609 c0 -7 -40 -9 -127 -5 l-128 5 130 -14 c72 -8 159 -19 195
-24 55 -9 67 -8 80 6 13 14 13 15 -5 9 -31 -11 -125 4 -125 20 0 8 -4 14 -10
14 -5 0 -10 -5 -10 -11z"/>
<path d="M8576 1598 c12 -40 34 -87 41 -91 5 -2 36 3 71 11 55 13 62 18 62 39
0 16 -4 22 -12 17 -7 -4 -32 -9 -57 -10 -32 -2 -48 2 -58 14 -13 15 -13 14 -7
-8 3 -14 12 -31 18 -39 8 -11 8 -13 -2 -7 -6 4 -21 27 -32 52 -21 46 -36 60
-24 22z"/>
<path d="M1288 1593 c7 -3 16 -2 19 1 4 3 -2 6 -13 5 -11 0 -14 -3 -6 -6z"/>
<path d="M2680 1586 c0 -2 9 -6 20 -9 11 -3 20 -1 20 4 0 5 -9 9 -20 9 -11 0
-20 -2 -20 -4z"/>
<path d="M4383 1583 c9 -2 23 -2 30 0 6 3 -1 5 -18 5 -16 0 -22 -2 -12 -5z"/>
<path d="M4453 1583 c15 -2 37 -2 50 0 12 2 0 4 -28 4 -27 0 -38 -2 -22 -4z"/>
<path d="M6581 1574 c0 -11 3 -14 6 -6 3 7 2 16 -1 19 -3 4 -6 -2 -5 -13z"/>
<path d="M1192 1543 c-18 -8 -31 -18 -28 -20 5 -5 66 25 66 32 0 7 -1 7 -38
-12z"/>
<path d="M2633 1553 c9 -2 23 -2 30 0 6 3 -1 5 -18 5 -16 0 -22 -2 -12 -5z"/>
<path d="M2778 1553 c6 -2 18 -2 25 0 6 3 1 5 -13 5 -14 0 -19 -2 -12 -5z"/>
<path d="M4979 1533 c-13 -16 -12 -17 4 -4 9 7 17 15 17 17 0 8 -8 3 -21 -13z"/>
<path d="M7958 1536 c-19 -14 -25 -32 -8 -21 13 8 13 2 -1 -29 -6 -13 -20 -25
-30 -25 -11 -1 -28 -1 -39 -2 -25 0 -27 -19 -2 -20 12 0 10 -3 -8 -11 l-25
-10 23 -9 c12 -4 29 -6 37 -3 11 4 13 2 9 -9 -4 -12 -12 -13 -37 -6 -20 6 -33
5 -35 -1 -2 -5 -22 -15 -45 -21 -57 -15 -30 -28 53 -26 l65 2 13 40 c7 22 22
60 33 84 25 53 23 86 -3 67z m-71 -162 c-3 -3 -12 -4 -19 -1 -8 3 -5 6 6 6 11
1 17 -2 13 -5z"/>
<path d="M3465 1529 c-4 -6 -13 -8 -21 -5 -7 3 -16 0 -20 -6 -5 -8 3 -9 27 -4
37 7 64 26 37 26 -9 0 -20 -5 -23 -11z"/>
<path d="M4120 1530 c-13 -8 -13 -10 2 -10 9 0 20 5 23 10 8 13 -5 13 -25 0z"/>
<path d="M1038 1513 c6 -2 18 -2 25 0 6 3 1 5 -13 5 -14 0 -19 -2 -12 -5z"/>
<path d="M1618 1513 c-21 -5 -22 -12 -4 -35 18 -24 25 -23 19 3 -5 19 -4 20
16 8 28 -18 27 -25 -10 -38 -38 -13 -40 -13 -36 -3 1 4 -2 7 -8 7 -5 0 -9 -6
-7 -12 5 -21 -16 -14 -23 7 -6 20 -16 25 -28 13 -4 -3 1 -12 11 -19 16 -12 16
-13 -2 -20 -10 -4 -50 -3 -88 2 -38 6 -71 7 -74 3 -2 -4 26 -10 62 -14 36 -4
78 -10 94 -15 22 -6 35 -4 52 9 30 24 120 49 210 60 58 7 65 9 33 11 -39 3
-45 3 -82 -2 -10 -2 -18 3 -18 11 0 8 -9 15 -20 16 -11 1 -33 4 -50 7 -16 3
-38 4 -47 1z"/>
<path d="M2960 1516 c0 -6 64 -42 117 -66 66 -29 36 -1 -42 39 -56 29 -75 36
-75 27z"/>
<path d="M7901 1499 c-25 -21 -24 -34 2 -24 11 5 34 47 24 45 -1 -1 -13 -10
-26 -21z"/>
<path d="M2086 1486 c11 -14 25 -26 33 -26 11 0 11 3 1 16 -8 8 -22 20 -33 26
-19 10 -19 10 -1 -16z"/>
<path d="M4996 1493 c-6 -14 -5 -15 5 -6 7 7 10 15 7 18 -3 3 -9 -2 -12 -12z"/>
<path d="M3130 1490 c0 -5 5 -10 10 -10 6 0 10 5 10 10 0 6 -4 10 -10 10 -5 0
-10 -4 -10 -10z"/>
<path d="M3348 1489 c-7 -4 -7 -9 1 -13 12 -8 111 4 111 13 0 8 -99 8 -112 0z"/>
<path d="M6613 1470 c6 -16 13 -27 15 -25 7 7 -8 55 -17 55 -5 0 -4 -13 2 -30z"/>
<path d="M7780 1484 c0 -8 5 -12 10 -9 6 3 10 10 10 16 0 5 -4 9 -10 9 -5 0
-10 -7 -10 -16z"/>
<path d="M3230 1480 c0 -5 7 -7 15 -4 8 4 15 8 15 10 0 2 -7 4 -15 4 -8 0 -15
-4 -15 -10z"/>
<path d="M1971 1476 c2 -2 24 -6 48 -9 29 -4 40 -2 30 4 -13 8 -88 14 -78 5z"/>
<path d="M4000 1470 c-9 -6 -10 -10 -3 -10 6 0 15 5 18 10 8 12 4 12 -15 0z"/>
<path d="M4906 1457 c3 -10 9 -15 12 -12 3 3 0 11 -7 18 -10 9 -11 8 -5 -6z"/>
<path d="M1304 1445 c22 -17 40 -20 32 -6 -3 5 -16 11 -28 14 -22 6 -22 5 -4
-8z"/>
<path d="M2877 1446 c4 -5 -11 -7 -34 -4 -46 7 -69 -3 -60 -26 7 -16 15 -16
132 5 39 7 63 14 55 16 -8 3 -22 7 -30 10 -24 10 -69 9 -63 -1z"/>
<path d="M3958 1443 c-10 -2 -18 -9 -18 -14 0 -14 16 -11 30 6 7 8 11 14 9 14
-2 -1 -12 -3 -21 -6z"/>
<path d="M1090 1430 c-34 -7 -34 -7 -5 -8 17 0 44 4 60 8 27 7 27 8 5 8 -14
-1 -41 -4 -60 -8z"/>
<path d="M4499 1419 c-15 -15 -24 -18 -32 -10 -6 6 -31 11 -56 10 l-46 -1 50
-13 c28 -7 58 -16 68 -20 12 -5 17 -2 17 8 0 9 10 23 22 31 12 9 17 16 10 16
-6 0 -21 -9 -33 -21z"/>
<path d="M4268 1423 c17 -2 47 -2 65 0 17 2 3 4 -33 4 -36 0 -50 -2 -32 -4z"/>
<path d="M4680 1420 c8 -5 22 -10 30 -10 13 0 13 1 0 10 -8 5 -22 10 -30 10
-13 0 -13 -1 0 -10z"/>
<path d="M4904 1416 c-5 -13 -15 -15 -43 -11 -29 4 -31 3 -11 -4 39 -14 57
-12 64 5 4 9 4 19 1 22 -2 3 -7 -3 -11 -12z"/>
<path d="M4768 1413 c7 -3 16 -2 19 1 4 3 -2 6 -13 5 -11 0 -14 -3 -6 -6z"/>
<path d="M6042 1411 c2 -8 15 -21 29 -30 19 -11 21 -12 9 0 -8 8 -21 21 -29
29 -11 12 -12 12 -9 1z"/>
<path d="M7737 1405 c-4 -11 -10 -27 -13 -35 -3 -8 1 -5 11 8 9 12 15 28 13
34 -3 7 -7 4 -11 -7z"/>
<path d="M815 1400 c-3 -5 -1 -10 4 -10 6 0 11 5 11 10 0 6 -2 10 -4 10 -3 0
-8 -4 -11 -10z"/>
<path d="M865 1400 c-3 -5 -1 -10 4 -10 6 0 11 5 11 10 0 6 -2 10 -4 10 -3 0
-8 -4 -11 -10z"/>
<path d="M3511 1396 c15 -7 51 -22 80 -31 30 -10 69 -26 87 -37 53 -29 145
-19 95 11 -14 8 -15 13 -5 19 25 16 -12 32 -89 37 -41 3 -83 8 -93 11 -15 5
-18 3 -13 -10 6 -14 3 -16 -16 -10 -12 4 -23 11 -25 15 -2 5 -13 9 -25 9 -20
0 -20 -1 4 -14z m183 -21 c-5 -11 -11 -12 -25 -4 -26 13 -24 19 6 19 17 0 23
-4 19 -15z"/>
<path d="M4018 1403 c7 -3 16 -2 19 1 4 3 -2 6 -13 5 -11 0 -14 -3 -6 -6z"/>
<path d="M4980 1401 c-23 -6 -23 -8 -6 -14 13 -5 25 -2 35 8 16 16 11 17 -29
6z"/>
<path d="M2495 1390 c3 -5 16 -10 28 -9 21 0 21 1 2 9 -28 12 -37 12 -30 0z"/>
<path d="M6636 1385 c4 -8 11 -15 16 -15 6 0 5 6 -2 15 -7 8 -14 15 -16 15 -2
0 -1 -7 2 -15z"/>
<path d="M3847 1374 c2 -7 -1 -15 -6 -19 -18 -10 -2 -25 27 -25 21 0 24 2 12
10 -13 9 -13 11 0 19 10 7 17 6 22 -2 5 -9 10 -8 20 2 10 10 10 12 1 7 -7 -4
-13 -3 -13 2 0 6 -15 12 -34 14 -23 2 -32 0 -29 -8z"/>
<path d="M828 1358 c-21 -12 -38 -26 -38 -31 0 -4 12 0 28 11 15 10 36 24 47
30 11 6 16 11 10 11 -5 1 -27 -9 -47 -21z"/>
<path d="M3790 1371 c0 -6 9 -9 20 -8 11 1 20 5 20 9 0 4 -9 8 -20 8 -11 0
-20 -4 -20 -9z"/>
<path d="M6691 1323 c0 -28 -5 -55 -11 -58 -5 -3 -10 -12 -10 -18 0 -7 6 -3
12 8 12 19 12 19 19 -5 6 -20 7 -16 6 15 l-2 40 55 6 55 6 -57 1 c-54 2 -57 3
-61 30 -2 15 -5 4 -6 -25z"/>
<path d="M550 1350 c20 -13 33 -13 25 0 -3 6 -14 10 -23 10 -15 0 -15 -2 -2
-10z"/>
<path d="M4325 1353 c-67 -5 -85 -14 -66 -37 13 -15 69 -12 81 4 3 4 19 14 35
23 17 9 26 16 20 15 -5 -1 -37 -3 -70 -5z"/>
<path d="M4825 1343 c-83 -8 -96 -13 -90 -34 4 -11 2 -26 -5 -33 -9 -12 -5
-12 27 0 21 7 72 13 114 14 91 0 120 18 69 43 -16 9 -30 12 -30 7 0 -5 -12 -5
-27 -2 -16 4 -41 6 -58 5z"/>
<path d="M4140 1330 c0 -5 5 -10 10 -10 6 0 10 5 10 10 0 6 -4 10 -10 10 -5 0
-10 -4 -10 -10z"/>
<path d="M688 1323 c7 -3 16 -2 19 1 4 3 -2 6 -13 5 -11 0 -14 -3 -6 -6z"/>
<path d="M2436 1314 c-9 -6 -13 -14 -9 -17 3 -4 1 -7 -6 -7 -6 0 -14 7 -18 16
-5 13 -18 15 -87 9 -45 -4 -111 -13 -148 -21 -37 -7 -82 -13 -101 -12 -50 2
-66 -12 -33 -29 18 -9 71 -15 169 -17 119 -2 147 0 172 15 16 9 62 24 100 34
39 9 84 20 100 25 l30 8 -30 2 c-80 6 -125 5 -139 -6z"/>
<path d="M4060 1320 c0 -13 11 -13 30 0 12 8 11 10 -7 10 -13 0 -23 -4 -23
-10z"/>
<path d="M6889 1322 c-14 -6 -14 -10 -1 -42 15 -34 15 -35 22 -10 3 14 3 26
-1 28 -4 2 -5 10 -2 18 6 15 5 16 -18 6z"/>
<path d="M4490 1310 c-46 -7 -49 -10 -15 -14 55 -7 94 -21 133 -47 51 -34 54
-35 77 -9 18 20 11 27 -13 11 -15 -9 -72 38 -72 59 0 11 -39 11 -110 0z"/>
<path d="M4698 1313 c7 -3 16 -2 19 1 4 3 -2 6 -13 5 -11 0 -14 -3 -6 -6z"/>
<path d="M6934 1305 c8 -8 17 -37 21 -63 3 -26 9 -70 13 -98 10 -64 -16 -134
-51 -134 -20 -1 -20 -2 -5 -11 26 -15 53 4 71 49 14 35 14 52 3 141 -14 101
-26 131 -53 131 -12 0 -12 -2 1 -15z"/>
<path d="M1480 1299 c-97 -7 -164 -19 -212 -38 -19 -7 -28 -7 -30 1 -3 7 -9 8
-19 3 -8 -5 -22 -8 -31 -7 -10 2 -27 -2 -39 -9 -18 -9 -25 -9 -34 5 -7 8 -14
13 -18 10 -3 -3 -15 1 -27 8 -18 11 -23 11 -34 -4 -17 -23 -108 -24 -159 -3
-54 22 -64 18 -24 -9 28 -19 54 -26 123 -31 48 -4 112 -11 143 -15 50 -7 65
-4 146 28 74 28 112 37 213 45 67 6 122 15 122 19 0 4 -6 7 -12 6 -7 -1 -56
-5 -108 -9z"/>
<path d="M1936 1301 c-4 -5 3 -7 14 -4 23 6 26 13 6 13 -8 0 -17 -4 -20 -9z"/>
<path d="M3990 1302 c0 -2 6 -9 13 -17 11 -11 15 -10 24 4 8 13 6 16 -13 16
-13 0 -24 -1 -24 -3z"/>
<path d="M4180 1294 l-35 -14 35 6 c19 3 39 10 45 15 13 13 -3 10 -45 -7z"/>
<path d="M3595 1278 c-23 -14 -49 -38 -40 -38 3 0 23 11 43 25 37 25 35 35 -3
13z"/>
<path d="M1130 1270 c0 -5 5 -10 10 -10 6 0 10 5 10 10 0 6 -4 10 -10 10 -5 0
-10 -4 -10 -10z"/>
<path d="M3970 1272 c0 -2 11 -15 25 -27 18 -18 26 -20 34 -11 8 9 1 16 -24
28 -19 8 -35 13 -35 10z"/>
<path d="M4080 1270 c-12 -8 -12 -10 5 -10 11 0 27 5 35 10 12 8 12 10 -5 10
-11 0 -27 -5 -35 -10z"/>
<path d="M88 1242 c-26 -15 -58 -38 -70 -51 -20 -21 -17 -20 22 6 25 17 61 40
80 51 50 31 24 25 -32 -6z"/>
<path d="M8605 1260 c-3 -5 -1 -10 4 -10 6 0 11 5 11 10 0 6 -2 10 -4 10 -3 0
-8 -4 -11 -10z"/>
<path d="M2961 1244 c13 -16 29 -19 29 -5 0 5 -9 11 -21 14 -16 4 -18 3 -8 -9z"/>
<path d="M8536 1238 c-9 -12 -16 -29 -15 -38 0 -8 5 -4 11 10 10 24 10 24 18
5 7 -17 9 -14 9 13 1 38 -3 40 -23 10z"/>
<path d="M616 1241 c5 -5 18 -11 29 -13 19 -5 19 -5 1 -13 -11 -5 -26 -3 -38
4 -21 13 -38 7 -38 -15 0 -8 -8 -14 -17 -15 -10 0 -13 -3 -8 -5 6 -2 51 5 100
15 50 11 81 20 70 20 -11 1 -33 8 -49 16 -31 17 -66 21 -50 6z m-16 -31 c0 -5
-5 -10 -11 -10 -5 0 -7 5 -4 10 3 6 8 10 11 10 2 0 4 -4 4 -10z"/>
<path d="M541 1231 c-8 -5 -9 -11 -3 -15 5 -3 15 1 22 9 14 16 3 20 -19 6z"/>
<path d="M4996 1224 c-4 -10 -1 -14 6 -12 15 5 23 28 10 28 -5 0 -13 -7 -16
-16z"/>
<path d="M5048 1233 c7 -3 16 -2 19 1 4 3 -2 6 -13 5 -11 0 -14 -3 -6 -6z"/>
<path d="M803 1223 c9 -2 23 -2 30 0 6 3 -1 5 -18 5 -16 0 -22 -2 -12 -5z"/>
<path d="M6656 1213 c-6 -14 -5 -15 5 -6 7 7 10 15 7 18 -3 3 -9 -2 -12 -12z"/>
<path d="M8570 1200 c-10 -19 -10 -20 9 -8 22 13 28 28 11 28 -5 0 -14 -9 -20
-20z"/>
<path d="M6922 1185 c0 -16 2 -22 5 -12 2 9 2 23 0 30 -3 6 -5 -1 -5 -18z"/>
<path d="M8475 1190 c-4 -12 -5 -24 -2 -27 3 -2 8 5 12 17 4 12 5 24 2 27 -3
2 -8 -5 -12 -17z"/>
<path d="M4222 1188 c-9 -4 24 -6 73 -6 92 1 91 5 -3 10 -29 2 -61 0 -70 -4z"/>
<path d="M4980 1180 c0 -5 5 -10 10 -10 6 0 10 5 10 10 0 6 -4 10 -10 10 -5 0
-10 -4 -10 -10z"/>
<path d="M4130 1171 c-14 -4 -20 -9 -15 -13 6 -3 28 0 50 7 30 10 34 13 15 13
-14 0 -36 -3 -50 -7z"/>
<path d="M4450 1170 c-12 -8 -12 -10 5 -10 11 0 27 5 35 10 12 8 12 10 -5 10
-11 0 -27 -5 -35 -10z"/>
<path d="M6285 1160 c10 -11 20 -20 23 -20 3 0 -3 9 -13 20 -10 11 -20 20 -23
20 -3 0 3 -9 13 -20z"/>
<path d="M3168 1163 c7 -3 16 -2 19 1 4 3 -2 6 -13 5 -11 0 -14 -3 -6 -6z"/>
<path d="M5000 1157 c0 -10 39 -47 48 -47 6 0 1 11 -12 25 -21 22 -36 31 -36
22z"/>
<path d="M5195 1129 c-12 -18 3 -22 20 -5 14 14 14 16 1 16 -8 0 -18 -5 -21
-11z"/>
<path d="M113 1123 c9 -2 23 -2 30 0 6 3 -1 5 -18 5 -16 0 -22 -2 -12 -5z"/>
<path d="M4260 1094 c0 -12 27 -31 59 -42 41 -15 44 -15 36 -2 -3 6 -15 10
-26 10 -10 0 -19 4 -19 8 0 5 -11 14 -25 20 -14 6 -25 9 -25 6z"/>
<path d="M6943 1085 c-3 -9 -3 -18 -1 -21 3 -3 8 4 11 16 6 23 -1 27 -10 5z"/>
<path d="M8802 1079 c3 -8 13 -39 23 -69 10 -30 20 -50 22 -44 6 19 -24 118
-37 122 -8 3 -11 -1 -8 -9z"/>
<path d="M4808 1061 c30 -19 38 -20 103 -10 39 6 89 9 110 7 22 -2 38 1 36 6
-3 9 -177 9 -186 0 -2 -2 -10 1 -18 7 -10 9 -13 8 -13 -1 0 -7 -7 -10 -15 -6
-42 17 -47 16 -17 -3z"/>
<path d="M6289 1077 c-1 -4 -3 -11 -4 -17 -1 -5 -3 -15 -4 -20 0 -6 -17 -20
-36 -32 -20 -11 -34 -23 -31 -25 3 -3 20 4 39 16 32 19 56 65 42 79 -3 3 -6 2
-6 -1z"/>
<path d="M4384 1043 c-28 -21 4 -25 81 -10 l70 14 -67 4 c-44 3 -74 0 -84 -8z"/>
<path d="M6495 1050 c3 -5 8 -10 11 -10 2 0 4 5 4 10 0 6 -5 10 -11 10 -5 0
-7 -4 -4 -10z"/>
<path d="M6548 1053 c6 -2 18 -2 25 0 6 3 1 5 -13 5 -14 0 -19 -2 -12 -5z"/>
<path d="M1359 1033 c-13 -17 -13 -17 6 -3 11 8 22 16 24 17 2 2 0 3 -6 3 -6
0 -17 -8 -24 -17z"/>
<path d="M888 1013 c7 -3 16 -2 19 1 4 3 -2 6 -13 5 -11 0 -14 -3 -6 -6z"/>
<path d="M1290 1000 c-19 -11 -30 -19 -25 -19 6 0 26 8 45 19 19 11 31 19 25
19 -5 0 -26 -8 -45 -19z"/>
<path d="M5050 1012 c0 -4 5 -13 12 -20 12 -12 3 -16 -32 -13 -12 1 -12 0 -2
-7 7 -5 24 -7 36 -5 21 4 22 8 12 29 -11 23 -26 33 -26 16z"/>
<path d="M5240 1009 c0 -5 5 -7 10 -4 6 3 10 8 10 11 0 2 -4 4 -10 4 -5 0 -10
-5 -10 -11z"/>
<path d="M5781 1013 c0 -6 -4 -20 -7 -30 -5 -14 -4 -15 5 -7 7 7 11 20 8 30
-3 11 -5 14 -6 7z"/>
<path d="M938 1003 c6 -2 18 -2 25 0 6 3 1 5 -13 5 -14 0 -19 -2 -12 -5z"/>
<path d="M988 993 c7 -3 16 -2 19 1 4 3 -2 6 -13 5 -11 0 -14 -3 -6 -6z"/>
<path d="M4975 990 c27 -12 43 -12 25 0 -8 5 -22 9 -30 9 -10 0 -8 -3 5 -9z"/>
<path d="M6157 979 c7 -7 15 -10 18 -7 3 3 -2 9 -12 12 -14 6 -15 5 -6 -5z"/>
<path d="M1085 970 c27 -12 43 -12 25 0 -8 5 -22 9 -30 9 -10 0 -8 -3 5 -9z"/>
<path d="M6080 970 l-25 -8 25 -1 c14 0 32 4 40 9 13 9 13 10 0 9 -8 -1 -26
-5 -40 -9z"/>
<path d="M6003 963 c9 -2 25 -2 35 0 9 3 1 5 -18 5 -19 0 -27 -2 -17 -5z"/>
<path d="M5740 951 c0 -5 5 -13 10 -16 6 -3 10 -2 10 4 0 5 -4 13 -10 16 -5 3
-10 2 -10 -4z"/>
<path d="M7830 944 c0 -8 5 -12 10 -9 6 4 8 11 5 16 -9 14 -15 11 -15 -7z"/>
<path d="M5200 946 c0 -2 7 -7 16 -10 8 -3 12 -2 9 4 -6 10 -25 14 -25 6z"/>
<path d="M5051 931 c-8 -6 -9 -11 -3 -15 6 -3 14 -1 17 5 9 14 2 20 -14 10z"/>
<path d="M4865 910 c-3 -5 -2 -10 4 -10 5 0 13 5 16 10 3 6 2 10 -4 10 -5 0
-13 -4 -16 -10z"/>
<path d="M4546 901 c9 -9 83 -27 74 -18 -3 3 -23 10 -44 16 -22 5 -35 6 -30 2z"/>
<path d="M5082 894 c10 -10 20 -16 22 -13 3 3 -5 11 -17 18 -21 13 -21 12 -5
-5z"/>
<path d="M2733 883 c-7 -2 -13 -11 -13 -19 0 -8 -4 -14 -9 -14 -5 0 -18 -3
-28 -7 -15 -6 -16 -4 -5 9 11 14 8 17 -25 22 -21 3 -54 2 -73 -3 -39 -9 -42
-6 52 -42 l47 -19 51 32 c36 22 47 34 38 40 -14 9 -17 9 -35 1z"/>
<path d="M4635 881 c-2 -5 6 -12 19 -15 19 -5 88 -34 129 -54 4 -2 7 2 7 10 0
14 -39 43 -47 34 -3 -3 -27 4 -54 14 -26 11 -51 16 -54 11z"/>
<path d="M4825 880 c-3 -5 -2 -10 4 -10 5 0 13 5 16 10 3 6 2 10 -4 10 -5 0
-13 -4 -16 -10z"/>
<path d="M6212 828 c1 -37 -3 -73 -9 -80 -6 -9 -4 -24 7 -47 11 -23 19 -30 24
-22 5 7 1 20 -8 30 -12 13 -14 25 -7 48 5 17 5 55 1 85 l-8 53 0 -67z"/>
<path d="M5043 864 c-17 -17 -16 -24 2 -24 22 0 18 -23 -5 -38 -13 -8 -20 -8
-20 -1 0 5 -4 7 -10 4 -10 -6 -69 22 -82 39 -4 6 -21 2 -42 -9 -19 -11 -34
-21 -32 -23 2 -2 37 -8 78 -14 40 -5 78 -14 84 -19 7 -6 29 0 63 18 42 23 50
31 45 48 -10 31 -14 32 -34 5 -19 -25 -20 -25 -32 17 -2 8 -7 7 -15 -3z"/>
<path d="M7882 860 c0 -14 2 -19 5 -12 2 6 2 18 0 25 -3 6 -5 1 -5 -13z"/>
<path d="M8856 838 c-17 -135 -17 -137 -31 -132 -7 3 -23 1 -34 -6 -17 -9 -21
-8 -21 5 0 8 -5 15 -11 15 -7 0 -9 -9 -6 -21 4 -15 2 -19 -9 -15 -8 3 -17 -1
-20 -9 -4 -8 -11 -12 -17 -8 -5 3 -7 1 -4 -4 4 -6 -2 -18 -13 -28 -11 -10 -20
-24 -20 -32 0 -8 -9 -13 -22 -12 -39 3 -59 -1 -54 -10 4 -5 -4 -7 -16 -3 -14
3 -19 2 -14 -6 4 -7 1 -15 -8 -18 -8 -3 -12 -12 -9 -20 3 -8 0 -14 -6 -14 -6
0 -11 -8 -11 -17 0 -13 -3 -14 -11 -6 -7 7 -8 19 -4 30 5 10 7 24 6 31 -1 6 5
12 14 12 16 0 21 35 5 45 -12 7 -72 -23 -66 -34 3 -4 -11 -14 -30 -21 -22 -9
-33 -19 -29 -28 2 -7 1 -11 -4 -8 -5 3 -14 -1 -21 -9 -6 -7 -18 -11 -26 -8 -8
3 -14 -1 -14 -10 0 -8 -11 -18 -25 -21 -21 -5 -24 -10 -19 -33 6 -22 4 -25 -9
-20 -9 3 -19 2 -22 -3 -9 -15 -25 -12 -19 4 3 7 -2 16 -10 19 -14 6 -21 -4
-17 -25 0 -5 -4 -8 -11 -8 -6 0 -8 -3 -5 -7 4 -3 2 -12 -4 -19 -7 -9 -5 -14
10 -19 31 -10 71 5 71 26 0 10 7 19 15 19 19 0 19 -11 1 -36 -10 -13 -11 -23
-4 -31 7 -9 2 -10 -24 -3 -18 6 -44 10 -57 10 -21 0 -23 -4 -19 -35 3 -23 -1
-36 -9 -40 -8 -2 -21 -21 -29 -41 -8 -20 -16 -35 -18 -33 -1 2 -10 17 -20 33
-18 29 -18 29 3 23 11 -3 19 -1 15 4 -3 5 -14 9 -26 9 -15 0 -18 -4 -13 -17
18 -45 18 -53 -4 -53 -22 0 -23 -3 -23 -60 1 -54 -7 -69 -41 -84 l-32 -14 32
-1 c17 -1 35 4 38 9 3 6 10 10 16 10 5 0 9 -4 9 -10 0 -5 -7 -10 -16 -10 -8 0
-12 -4 -9 -10 3 -6 -1 -7 -9 -4 -9 3 -16 1 -16 -4 0 -19 81 -23 425 -20 l340
3 7 65 c3 36 11 157 17 270 7 113 13 221 16 240 8 74 18 300 12 300 -3 0 -8
-19 -11 -42z m-31 -178 c-3 -5 -10 -10 -16 -10 -5 0 -9 5 -9 10 0 6 7 10 16
10 8 0 12 -4 9 -10z m-10 -50 c-3 -5 -10 -10 -16 -10 -5 0 -9 5 -9 10 0 6 7
10 16 10 8 0 12 -4 9 -10z m-285 -16 c0 -8 -5 -12 -10 -9 -6 4 -8 11 -5 16 9
14 15 11 15 -7z m-47 -151 c-6 -36 -23 -45 -23 -13 0 17 21 53 26 46 1 0 -1
-16 -3 -33z m-74 -34 c-16 -10 -23 -4 -14 10 3 6 11 8 17 5 6 -4 5 -9 -3 -15z
m-30 -25 c18 -9 30 -18 27 -21 -6 -6 -76 25 -76 32 0 9 17 5 49 -11z m376 -66
c6 -4 2 -8 -7 -8 -10 0 -18 7 -18 17 0 9 3 12 8 7 4 -5 12 -12 17 -16z m-377
-63 c3 -11 0 -15 -7 -10 -6 3 -9 10 -6 15 3 4 0 11 -5 13 -6 3 -5 4 2 3 7 -1
15 -11 16 -21z m-38 5 c10 -6 11 -10 3 -10 -7 0 -13 -9 -13 -20 0 -11 -5 -20
-10 -20 -6 0 -9 14 -8 30 2 33 5 35 28 20z m-106 -48 c-3 -33 -4 -34 -19 -22
-8 6 -19 9 -25 5 -13 -8 -13 8 1 22 14 14 44 10 43 -5z m-99 -32 c4 -6 -3 -25
-14 -43 -14 -21 -21 -26 -21 -15 0 9 5 20 10 23 16 10 12 28 -5 21 -9 -3 -15
0 -15 9 0 17 35 20 45 5z"/>
<path d="M8815 840 c-3 -6 1 -7 9 -4 18 7 21 14 7 14 -6 0 -13 -4 -16 -10z"/>
<path d="M3384 828 c-3 -4 6 -8 20 -8 14 0 26 4 26 8 0 4 -9 8 -21 8 -11 0
-23 -4 -25 -8z"/>
<path d="M3453 833 c9 -2 25 -2 35 0 9 3 1 5 -18 5 -19 0 -27 -2 -17 -5z"/>
<path d="M3538 833 c7 -3 16 -2 19 1 4 3 -2 6 -13 5 -11 0 -14 -3 -6 -6z"/>
<path d="M3325 819 c-4 -6 -14 -8 -22 -5 -14 6 -79 -21 -71 -29 2 -3 28 3 58
11 30 9 61 16 68 16 6 1 12 5 12 10 0 12 -38 10 -45 -3z"/>
<path d="M4106 788 c-5 -22 -26 -24 -26 -3 0 12 -13 13 -72 9 -40 -3 -76 -9
-80 -13 -5 -4 17 -24 47 -44 l55 -37 188 -9 c149 -8 190 -7 202 4 23 20 90 51
143 66 48 14 48 16 -3 34 -3 1 -13 5 -22 9 -17 8 -58 -8 -58 -23 0 -16 -39
-19 -52 -4 -10 12 -9 14 3 13 7 -1 21 -2 29 -1 13 1 13 2 0 11 -22 14 -56 12
-70 -5 -13 -16 -83 -11 -107 7 -6 5 -47 8 -92 6 -66 -2 -81 -6 -85 -20z m84
-23 c11 -13 10 -18 -6 -30 -23 -17 -31 -18 -39 -5 -3 6 1 10 9 10 9 0 16 5 16
10 0 6 -11 8 -27 4 -25 -7 -27 -6 -14 9 17 21 45 22 61 2z m200 -15 c0 -5 -4
-10 -10 -10 -5 0 -10 5 -10 10 0 6 5 10 10 10 6 0 10 -4 10 -10z m-280 -15 c0
-16 -9 -19 -36 -8 -16 6 -16 7 2 14 29 11 34 10 34 -6z"/>
<path d="M2905 790 c11 -5 29 -8 40 -8 16 0 15 2 -5 8 -34 11 -60 11 -35 0z"/>
<path d="M2995 790 c3 -5 -2 -10 -12 -11 -18 0 103 -49 122 -49 6 0 -6 10 -25
22 -19 13 -41 28 -48 35 -16 15 -46 18 -37 3z"/>
<path d="M3166 777 c-22 -7 -41 -18 -43 -24 -3 -8 13 -5 44 9 72 31 72 37 -1
15z"/>
<path d="M8580 771 c0 -5 9 -7 20 -4 11 3 20 7 20 9 0 2 -9 4 -20 4 -11 0 -20
-4 -20 -9z"/>
<path d="M5320 741 c11 -22 -2 -37 -22 -24 -7 4 -20 6 -30 5 -9 -2 -19 2 -23
8 -3 5 -13 10 -21 10 -11 0 -13 -6 -9 -20 5 -15 3 -18 -8 -14 -19 7 -151 -57
-136 -66 15 -10 -13 -62 -45 -83 -14 -9 -32 -34 -41 -54 -21 -47 -28 -62 -46
-90 -11 -19 -12 -27 -1 -43 14 -23 7 -44 -12 -37 -9 4 -11 -2 -9 -17 3 -13 -3
-30 -12 -40 -26 -25 -10 -32 30 -13 32 15 35 15 35 1 0 -9 -9 -18 -19 -21 -11
-3 -18 -10 -17 -16 2 -7 1 -9 -1 -4 -3 4 -16 7 -29 7 -17 0 -24 -6 -24 -19 0
-11 4 -22 10 -26 5 -3 0 -21 -12 -43 -27 -48 -34 -145 -9 -140 15 3 17 8 20
55 0 12 22 52 47 90 66 98 69 106 103 246 33 138 77 237 115 262 32 21 141 38
194 30 92 -14 161 -120 186 -285 27 -176 46 -285 55 -315 5 -16 12 -42 15 -57
6 -27 9 -28 71 -28 56 0 65 2 65 18 0 10 -7 27 -15 38 -8 10 -15 31 -15 47 0
15 -4 27 -8 27 -15 0 -49 92 -57 150 -2 17 -9 38 -16 46 -9 11 -8 14 2 14 8 1
4 9 -11 21 -14 12 -26 33 -27 47 -1 14 -6 28 -12 31 -8 5 -22 59 -26 101 -1 8
-20 34 -43 58 -27 29 -39 48 -35 59 5 12 2 15 -9 10 -9 -3 -25 3 -37 14 -23
22 -29 38 -8 20 8 -6 17 -8 20 -4 4 3 7 1 7 -5 0 -7 5 -12 12 -12 24 0 -24 37
-65 49 -23 7 -52 17 -65 22 -20 8 -22 7 -12 -10z m70 -25 c0 -3 -4 -8 -10 -11
-5 -3 -10 -1 -10 4 0 6 5 11 10 11 6 0 10 -2 10 -4z m-387 -306 c-3 -12 -8
-19 -11 -16 -5 6 5 36 12 36 2 0 2 -9 -1 -20z m-33 -74 c0 -3 -4 -8 -10 -11
-5 -3 -10 -1 -10 4 0 6 5 11 10 11 6 0 10 -2 10 -4z m0 -36 c0 -5 -5 -10 -11
-10 -5 0 -7 5 -4 10 3 6 8 10 11 10 2 0 4 -4 4 -10z"/>
<path d="M4940 733 c-8 -3 -26 -17 -40 -31 l-25 -24 33 18 c19 11 38 25 44 32
11 13 10 13 -12 5z"/>
<path d="M6133 723 c9 -2 25 -2 35 0 9 3 1 5 -18 5 -19 0 -27 -2 -17 -5z"/>
<path d="M6257 696 c-34 -44 -88 -69 -142 -64 -24 1 -41 0 -38 -4 6 -12 -165
-13 -177 -2 -2 3 9 16 25 29 17 13 25 24 18 25 -17 0 -75 -62 -66 -71 19 -19
230 -30 308 -15 37 6 43 12 72 71 18 36 31 65 29 65 -2 0 -15 -15 -29 -34z"/>
<path d="M8426 684 c-4 -9 -4 -19 -1 -22 2 -3 7 3 11 12 4 9 4 19 1 22 -2 3
-7 -3 -11 -12z"/>
<path d="M3215 680 c-3 -5 -2 -10 4 -10 5 0 13 5 16 10 3 6 2 10 -4 10 -5 0
-13 -4 -16 -10z"/>
<path d="M3838 685 c-2 -3 -30 -7 -60 -9 -31 -2 -64 -8 -74 -14 -13 -6 -35 -5
-69 4 -67 17 -185 8 -185 -15 0 -13 -2 -13 -9 -2 -6 10 -14 11 -26 3 -12 -6
-30 -6 -49 -1 -17 5 -42 9 -56 9 -22 -1 -20 -3 10 -14 20 -6 62 -27 95 -44 32
-18 70 -32 83 -32 14 0 75 20 136 44 61 24 132 47 158 50 26 4 50 11 53 17 7
10 2 12 -7 4z"/>
<path d="M3873 683 c9 -2 23 -2 30 0 6 3 -1 5 -18 5 -16 0 -22 -2 -12 -5z"/>
<path d="M6133 675 c-34 -5 -65 -13 -69 -17 -11 -12 -26 -10 -19 2 4 6 -9 10
-32 10 l-38 -1 36 -13 c26 -9 55 -11 95 -5 32 4 61 6 65 4 7 -5 35 23 28 28
-2 1 -32 -2 -66 -8z"/>
<path d="M6282 658 c-15 -23 -18 -36 -10 -45 8 -10 16 -9 39 7 15 11 31 30 34
41 11 35 -1 32 -23 -6 -12 -19 -26 -35 -32 -35 -7 0 -2 16 10 35 12 19 17 35
12 35 -6 0 -19 -14 -30 -32z"/>
<path d="M8475 680 c3 -5 8 -10 11 -10 2 0 4 5 4 10 0 6 -5 10 -11 10 -5 0 -7
-4 -4 -10z"/>
<path d="M4803 653 c9 -2 25 -2 35 0 9 3 1 5 -18 5 -19 0 -27 -2 -17 -5z"/>
<path d="M5495 650 c3 -5 11 -10 16 -10 6 0 7 5 4 10 -3 6 -11 10 -16 10 -6 0
-7 -4 -4 -10z"/>
<path d="M5960 656 c0 -2 8 -10 18 -17 15 -13 16 -12 3 4 -13 16 -21 21 -21
13z"/>
<path d="M2678 643 c6 -2 18 -2 25 0 6 3 1 5 -13 5 -14 0 -19 -2 -12 -5z"/>
<path d="M4555 635 c17 -8 37 -14 45 -14 8 0 2 7 -15 14 -16 8 -37 14 -45 14
-8 0 -1 -7 15 -14z"/>
<path d="M498 633 c7 -3 16 -2 19 1 4 3 -2 6 -13 5 -11 0 -14 -3 -6 -6z"/>
<path d="M345 610 c-3 -5 -1 -10 4 -10 6 0 11 5 11 10 0 6 -2 10 -4 10 -3 0
-8 -4 -11 -10z"/>
<path d="M2556 605 c4 -8 11 -15 16 -15 6 0 5 6 -2 15 -7 8 -14 15 -16 15 -2
0 -1 -7 2 -15z"/>
<path d="M4635 610 c3 -5 8 -10 11 -10 2 0 4 5 4 10 0 6 -5 10 -11 10 -5 0 -7
-4 -4 -10z"/>
<path d="M8270 574 c0 -14 3 -14 15 -4 8 7 15 14 15 16 0 2 -7 4 -15 4 -8 0
-15 -7 -15 -16z"/>
<path d="M2928 573 c6 -2 18 -2 25 0 6 3 1 5 -13 5 -14 0 -19 -2 -12 -5z"/>
<path d="M4148 573 c7 -3 16 -2 19 1 4 3 -2 6 -13 5 -11 0 -14 -3 -6 -6z"/>
<path d="M28 563 c7 -3 16 -2 19 1 4 3 -2 6 -13 5 -11 0 -14 -3 -6 -6z"/>
<path d="M3017 559 c4 -4 42 -18 83 -32 65 -22 78 -23 100 -12 14 7 42 16 63
20 37 7 46 18 27 30 -6 4 -17 1 -26 -5 -8 -8 -30 -11 -54 -7 -26 3 -40 1 -40
-6 0 -8 -3 -8 -11 0 -6 6 -17 9 -23 7 -7 -3 -38 -1 -70 4 -31 5 -54 6 -49 1z"/>
<path d="M4548 563 c7 -3 16 -2 19 1 4 3 -2 6 -13 5 -11 0 -14 -3 -6 -6z"/>
<path d="M78 553 c12 -2 30 -2 40 0 9 3 -1 5 -23 4 -22 0 -30 -2 -17 -4z"/>
<path d="M4070 550 c-18 -12 -2 -12 25 0 13 6 15 9 5 9 -8 0 -22 -4 -30 -9z"/>
<path d="M4685 534 c17 -7 35 -13 41 -14 5 0 25 -14 42 -31 18 -18 35 -29 39
-25 11 11 -51 65 -74 66 -13 0 -23 3 -23 8 0 4 -12 8 -28 8 l-27 1 30 -13z"/>
<path d="M4812 520 c0 -19 2 -27 5 -17 2 9 2 25 0 35 -3 9 -5 1 -5 -18z"/>
<path d="M8202 520 c-6 -16 -7 -32 -2 -35 5 -3 10 7 12 22 2 23 7 28 28 25 19
-2 22 0 10 8 -25 16 -38 11 -48 -20z"/>
<path d="M724 518 l-19 -21 28 18 c28 18 33 25 19 25 -5 0 -17 -10 -28 -22z"/>
<path d="M3968 517 c-32 -11 -56 -22 -54 -25 5 -5 136 37 136 44 0 7 -24 2
-82 -19z"/>
<path d="M5284 484 c-3 -12 -13 -21 -21 -20 -20 1 -37 -52 -22 -70 7 -9 4 -19
-10 -33 -12 -12 -21 -25 -21 -30 0 -6 -8 -8 -19 -6 -14 3 -18 -3 -19 -27 0
-17 -7 -35 -14 -39 -7 -5 -9 -9 -3 -9 5 0 4 -5 -3 -12 -7 -7 -12 -20 -12 -29
0 -9 -7 -22 -15 -29 -9 -7 -13 -20 -11 -27 3 -8 -8 -29 -24 -46 -16 -18 -30
-38 -30 -44 0 -7 -6 -13 -12 -13 -9 0 -8 -4 2 -10 13 -9 12 -12 -4 -25 -19
-14 -17 -15 21 -15 35 0 42 3 47 25 3 13 17 40 30 59 12 19 33 67 45 108 26
85 52 139 98 202 62 86 98 56 119 -98 7 -59 18 -114 23 -124 5 -9 15 -52 22
-94 14 -83 18 -87 77 -72 25 7 31 48 8 57 -7 3 -16 24 -20 47 -3 23 -13 43
-22 47 -8 3 -13 12 -10 19 3 7 1 16 -5 20 -5 3 -7 14 -4 24 3 10 -1 25 -9 33
-8 8 -12 18 -8 21 9 10 2 79 -9 91 -5 5 -9 19 -9 32 0 13 -4 23 -9 23 -5 0
-14 13 -21 30 -16 38 -50 60 -90 57 -22 -1 -32 -8 -36 -23z"/>
<path d="M4505 472 c-12 -12 -4 -20 15 -15 24 6 27 -12 4 -21 -9 -3 -30 -6
-47 -7 -18 0 -26 -3 -19 -6 6 -2 9 -10 5 -16 -4 -7 0 -8 13 -2 10 4 33 13 50
19 19 7 29 17 26 25 -3 9 0 11 8 6 8 -5 11 -4 7 2 -8 12 -54 23 -62 15z"/>
<path d="M4595 460 c-3 -5 3 -10 14 -10 12 0 21 5 21 10 0 6 -6 10 -14 10 -8
0 -18 -4 -21 -10z"/>
<path d="M4010 440 c14 -10 27 -17 29 -14 6 5 -31 33 -44 33 -5 1 1 -8 15 -19z"/>
<path d="M5691 444 c0 -11 3 -14 6 -6 3 7 2 16 -1 19 -3 4 -6 -2 -5 -13z"/>
<path d="M5900 449 c0 -5 5 -7 10 -4 6 3 10 8 10 11 0 2 -4 4 -10 4 -5 0 -10
-5 -10 -11z"/>
<path d="M3305 440 c3 -5 11 -10 16 -10 6 0 7 5 4 10 -3 6 -11 10 -16 10 -6 0
-7 -4 -4 -10z"/>
<path d="M8163 405 c2 -38 21 -47 30 -15 3 11 1 20 -4 20 -5 0 -9 7 -9 15 0 8
-4 15 -10 15 -5 0 -9 -16 -7 -35z"/>
<path d="M1088 423 c12 -2 30 -2 40 0 9 3 -1 5 -23 4 -22 0 -30 -2 -17 -4z"/>
<path d="M5834 419 c-3 -6 2 -18 12 -27 17 -16 17 -16 4 1 -12 16 -12 20 1 28
9 5 10 9 2 9 -6 0 -15 -5 -19 -11z"/>
<path d="M7731 414 c0 -11 3 -14 6 -6 3 7 2 16 -1 19 -3 4 -6 -2 -5 -13z"/>
<path d="M4050 410 c0 -5 5 -10 11 -10 5 0 7 5 4 10 -3 6 -8 10 -11 10 -2 0
-4 -4 -4 -10z"/>
<path d="M2230 380 c-8 -5 -10 -10 -5 -10 6 0 17 5 25 10 8 5 11 10 5 10 -5 0
-17 -5 -25 -10z"/>
<path d="M4130 375 c14 -7 27 -11 30 -9 6 7 -22 24 -40 23 -9 0 -5 -6 10 -14z"/>
<path d="M8110 373 c0 -10 5 -36 11 -58 9 -33 13 -37 23 -24 6 8 19 18 28 22
9 3 15 13 14 21 -3 23 -16 32 -16 11 0 -10 -3 -15 -7 -12 -3 4 -12 2 -19 -4
-9 -7 -14 -5 -19 10 -3 12 -4 25 0 30 3 5 1 12 -5 16 -5 3 -10 -2 -10 -12z"/>
<path d="M1898 363 c-16 -2 -28 -9 -28 -14 0 -5 -11 -9 -24 -9 -14 0 -27 -4
-30 -9 -3 -4 42 -11 101 -15 58 -4 125 -12 149 -18 40 -11 45 -10 79 16 20 15
33 31 29 35 -4 3 -9 0 -11 -6 -3 -7 -10 -13 -18 -13 -7 0 -18 -7 -25 -15 -16
-20 -23 -19 -51 6 -17 15 -19 19 -6 15 9 -3 17 -1 17 3 0 16 -24 18 -52 4 -15
-8 -40 -12 -55 -10 -28 4 -28 4 -5 12 18 6 20 10 10 16 -13 9 -32 9 -80 2z"/>
<path d="M1700 354 c0 -7 66 -34 82 -34 7 1 -5 9 -27 20 -42 20 -55 24 -55 14z"/>
<path d="M2000 349 c0 -5 5 -7 10 -4 6 3 10 8 10 11 0 2 -4 4 -10 4 -5 0 -10
-5 -10 -11z"/>
<path d="M3180 325 c-25 -13 -40 -24 -35 -24 6 0 30 11 55 24 25 13 41 24 35
24 -5 0 -30 -11 -55 -24z"/>
<path d="M4730 336 c0 -6 65 -46 74 -46 3 0 6 10 6 23 0 17 -2 19 -9 8 -7 -11
-13 -12 -23 -4 -15 11 -48 24 -48 19z"/>
<path d="M6234 289 c0 -10 4 -19 8 -19 4 0 8 6 8 14 0 8 -4 17 -8 20 -4 2 -8
-4 -8 -15z"/>
<path d="M3761 284 c-1 -6 -27 -10 -68 -9 -38 1 -76 -2 -85 -7 -9 -4 -43 -11
-75 -13 -43 -4 -62 -11 -72 -25 -7 -11 -21 -20 -29 -20 -13 0 -12 3 4 15 19
14 19 14 -1 16 -11 1 -24 1 -29 0 -5 -1 -36 -3 -69 -3 l-59 -1 63 -33 c35 -19
67 -38 72 -43 5 -5 28 0 56 14 60 30 164 59 274 75 48 7 87 18 87 23 0 5 -13
7 -29 4 -19 -4 -31 -2 -35 6 -2 7 -5 7 -5 1z m-254 -70 c-3 -3 -12 -4 -19 -1
-8 3 -5 6 6 6 11 1 17 -2 13 -5z"/>
<path d="M5761 284 c-1 -5 5 -18 12 -28 12 -17 14 -17 20 -2 4 10 1 16 -7 16
-8 0 -17 6 -19 13 -3 6 -6 7 -6 1z"/>
<path d="M507 269 c7 -7 15 -10 18 -7 3 3 -2 9 -12 12 -14 6 -15 5 -6 -5z"/>
<path d="M3868 273 c6 -2 18 -2 25 0 6 3 1 5 -13 5 -14 0 -19 -2 -12 -5z"/>
<path d="M4730 250 c0 -6 7 -10 15 -10 8 0 15 2 15 4 0 2 -7 6 -15 10 -8 3
-15 1 -15 -4z"/>
<path d="M7610 238 c0 -21 15 -37 26 -30 6 4 3 13 -8 25 -12 11 -18 13 -18 5z"/>
<path d="M5731 239 c-3 -18 36 -123 66 -175 l36 -61 58 1 c50 1 59 4 59 19 0
11 5 16 13 13 6 -3 20 -9 30 -12 9 -4 17 -10 17 -15 0 -12 71 -11 90 1 12 8
12 10 -4 16 -11 4 -14 9 -7 13 7 5 4 15 -9 29 -11 11 -20 29 -21 39 0 11 -3
13 -6 6 -9 -25 -28 -12 -46 30 -10 24 -23 44 -30 45 -7 1 -56 3 -110 5 -77 2
-97 0 -93 -10 12 -31 -11 -9 -26 25 -9 20 -17 34 -17 31z"/>
<path d="M6185 210 c-3 -5 -1 -10 4 -10 6 0 11 5 11 10 0 6 -2 10 -4 10 -3 0
-8 -4 -11 -10z"/>
<path d="M6020 200 c-9 -6 -10 -10 -3 -10 6 0 15 5 18 10 8 12 4 12 -15 0z"/>
<path d="M7636 165 c4 -8 8 -15 10 -15 2 0 4 7 4 15 0 8 -4 15 -10 15 -5 0 -7
-7 -4 -15z"/>
<path d="M4715 140 c-17 -16 -35 -20 -115 -21 -52 -1 -113 -8 -135 -16 -22 -8
-54 -11 -72 -8 -50 9 -39 -3 13 -16 26 -7 66 -27 90 -45 24 -19 46 -29 49 -23
14 21 112 62 152 63 l43 1 0 43 c0 23 -1 42 -3 42 -1 0 -11 -9 -22 -20z"/>
<path d="M6120 98 c-12 -8 -12 -9 2 -5 9 3 19 1 22 -6 3 -9 5 -9 5 0 1 18 -13
23 -29 11z"/>
<path d="M8047 99 c7 -7 15 -10 18 -7 3 3 -2 9 -12 12 -14 6 -15 5 -6 -5z"/>
<path d="M6190 45 c0 -8 2 -15 4 -15 2 0 6 7 10 15 3 8 1 15 -4 15 -6 0 -10
-7 -10 -15z"/>
<path d="M7992 20 c0 -14 2 -19 5 -12 2 6 2 18 0 25 -3 6 -5 1 -5 -13z"/>
<path d="M635 10 c-3 -5 -1 -10 4 -10 6 0 11 5 11 10 0 6 -2 10 -4 10 -3 0 -8
-4 -11 -10z"/>
</g>
</svg>
