<?xml version="1.0" standalone="no"?>
<!DOCTYPE svg PUBLIC "-//W3C//DTD SVG 20010904//EN"
 "http://www.w3.org/TR/2001/REC-SVG-20010904/DTD/svg10.dtd">
<svg version="1.0" xmlns="http://www.w3.org/2000/svg"
 width="940.000000pt" height="568.000000pt" viewBox="0 0 940.000000 568.000000"
 preserveAspectRatio="xMidYMid meet">

<g transform="translate(0.000000,568.000000) scale(0.100000,-0.100000)"
fill="#000000" stroke="none">
<path d="M211 5527 c-2 -14 30 -119 35 -114 2 2 -4 30 -15 63 -10 32 -19 55
-20 51z"/>
<path d="M258 5018 c-9 -35 -19 -74 -22 -88 -4 -14 3 -5 14 20 19 41 39 130
28 130 -2 0 -11 -28 -20 -62z"/>
<path d="M7207 4945 c17 -7 38 -26 47 -42 8 -15 15 -22 16 -15 0 20 -56 72
-77 72 -11 -1 -6 -6 14 -15z"/>
<path d="M6975 4909 c-4 -6 -5 -12 -2 -15 2 -3 7 2 10 11 7 17 1 20 -8 4z"/>
<path d="M6736 4873 c-6 -14 -5 -15 5 -6 7 7 10 15 7 18 -3 3 -9 -2 -12 -12z"/>
<path d="M177 4808 c-44 -96 -105 -191 -117 -183 -6 4 -7 -1 -3 -11 5 -15 11
-12 35 17 37 43 73 108 104 183 35 85 22 81 -19 -6z"/>
<path d="M6670 4871 c0 -6 4 -13 10 -16 6 -3 7 1 4 9 -7 18 -14 21 -14 7z"/>
<path d="M7240 4860 l-25 -8 28 -1 c15 -1 27 4 27 9 0 6 -1 10 -2 9 -2 -1 -14
-5 -28 -9z"/>
<path d="M6951 4824 c0 -11 3 -14 6 -6 3 7 2 16 -1 19 -3 4 -6 -2 -5 -13z"/>
<path d="M6733 4823 c9 -2 25 -2 35 0 9 3 1 5 -18 5 -19 0 -27 -2 -17 -5z"/>
<path d="M6798 4823 c6 -2 18 -2 25 0 6 3 1 5 -13 5 -14 0 -19 -2 -12 -5z"/>
<path d="M6898 4813 c6 -2 18 -2 25 0 6 3 1 5 -13 5 -14 0 -19 -2 -12 -5z"/>
<path d="M7565 4810 c3 -5 8 -10 11 -10 2 0 4 5 4 10 0 6 -5 10 -11 10 -5 0
-7 -4 -4 -10z"/>
<path d="M7202 4794 c10 -10 69 -13 63 -4 -4 6 -20 10 -37 10 -17 0 -29 -3
-26 -6z"/>
<path d="M6952 4747 c0 -26 4 -50 9 -53 5 -3 6 2 2 12 -5 14 -3 15 15 5 11 -6
24 -16 27 -21 3 -6 14 -10 23 -9 14 0 13 2 -3 8 -28 12 -55 44 -65 77 -7 25
-8 23 -8 -19z"/>
<path d="M7415 4780 c40 -9 142 -13 134 -6 -2 2 -42 6 -89 9 -59 3 -73 3 -45
-3z"/>
<path d="M7220 4751 c-13 -25 -71 -60 -104 -63 -14 -1 -26 -6 -26 -11 0 -12
59 2 90 21 34 21 70 54 70 64 0 15 -19 8 -30 -11z"/>
<path d="M7206 4691 c-48 -50 -135 -65 -199 -32 -46 23 -48 18 -4 -9 42 -26
105 -26 161 0 39 19 86 54 86 65 0 13 -19 2 -44 -24z"/>
<path d="M6875 4700 c-3 -6 1 -7 9 -4 18 7 21 14 7 14 -6 0 -13 -4 -16 -10z"/>
<path d="M7058 4683 c7 -3 16 -2 19 1 4 3 -2 6 -13 5 -11 0 -14 -3 -6 -6z"/>
<path d="M6790 4655 c-25 -13 -41 -24 -37 -25 11 0 87 39 87 45 0 7 0 7 -50
-20z"/>
<path d="M7525 4660 c10 -11 20 -20 23 -20 3 0 -3 9 -13 20 -10 11 -20 20 -23
20 -3 0 3 -9 13 -20z"/>
<path d="M2 4600 c0 -8 4 -26 8 -40 8 -24 8 -24 9 -2 1 13 7 22 17 22 8 0 12
5 9 10 -5 8 -11 8 -20 0 -10 -8 -14 -7 -18 7 -3 11 -5 12 -5 3z"/>
<path d="M6691 4577 c-13 -21 -12 -21 5 -5 10 10 16 20 13 22 -3 3 -11 -5 -18
-17z"/>
<path d="M7605 4550 c9 -16 18 -30 21 -30 2 0 -2 14 -11 30 -9 17 -18 30 -21
30 -2 0 2 -13 11 -30z"/>
<path d="M11 4418 c0 -65 2 -118 7 -118 4 0 6 42 4 92 -4 144 -9 155 -11 26z"/>
<path d="M43 4450 c0 -30 2 -43 4 -27 2 15 2 39 0 55 -2 15 -4 2 -4 -28z"/>
<path d="M6631 4469 c-6 -18 -9 -34 -7 -36 2 -2 9 10 15 28 6 18 9 34 7 36 -2
2 -9 -10 -15 -28z"/>
<path d="M7200 4421 c37 -9 65 -32 90 -74 30 -51 37 -47 8 4 -29 52 -63 79
-97 78 l-26 -1 25 -7z"/>
<path d="M6656 4404 c-5 -14 -4 -15 9 -4 17 14 19 20 6 20 -5 0 -12 -7 -15
-16z"/>
<path d="M7068 4403 c7 -3 16 -2 19 1 4 3 -2 6 -13 5 -11 0 -14 -3 -6 -6z"/>
<path d="M6592 4300 c0 -19 2 -27 5 -17 2 9 2 25 0 35 -3 9 -5 1 -5 -18z"/>
<path d="M7045 4302 c-41 -25 -59 -48 -45 -57 6 -4 16 -2 23 3 25 20 66 22
101 6 40 -19 66 -13 66 15 0 47 -89 67 -145 33z"/>
<path d="M7338 4260 c9 -21 18 -35 20 -30 3 9 -25 70 -33 70 -2 0 4 -18 13
-40z"/>
<path d="M6651 4267 c-28 -14 -49 -43 -38 -53 3 -4 20 -1 36 6 17 7 43 9 60 5
23 -5 33 -3 37 9 15 39 -44 59 -95 33z"/>
<path d="M54 4150 c0 -58 1 -81 3 -52 2 28 2 76 0 105 -2 28 -3 5 -3 -53z"/>
<path d="M7366 4185 c8 -37 14 -45 14 -19 0 10 -5 26 -10 34 -8 11 -9 7 -4
-15z"/>
<path d="M7492 4173 c9 -10 18 -25 21 -33 4 -10 6 -11 6 -2 1 20 -18 52 -31
52 -7 0 -5 -7 4 -17z"/>
<path d="M7380 4124 c0 -8 5 -12 10 -9 6 3 10 10 10 16 0 5 -4 9 -10 9 -5 0
-10 -7 -10 -16z"/>
<path d="M7043 4103 c-22 -8 -14 -23 12 -23 14 0 25 4 25 9 0 11 -21 19 -37
14z"/>
<path d="M6676 4081 c-3 -5 4 -11 16 -14 25 -7 33 -3 23 12 -8 13 -32 14 -39
2z"/>
<path d="M7520 4042 c0 -7 -9 -21 -20 -32 -20 -20 -19 -20 11 -65 17 -26 33
-44 36 -41 2 2 -7 22 -22 44 -26 39 -26 41 -9 66 9 15 14 29 10 33 -3 3 -6 1
-6 -5z"/>
<path d="M6802 3967 c-12 -13 -22 -28 -22 -35 0 -16 41 -42 65 -41 13 0 9 4
-12 10 -44 13 -49 26 -24 60 26 35 23 38 -7 6z"/>
<path d="M7547 3888 c-41 -74 -177 -220 -330 -356 -122 -108 -133 -122 -117
-153 13 -24 4 -41 -10 -19 -6 8 -10 10 -10 5 0 -13 21 -35 33 -35 5 0 7 16 4
35 -3 19 -2 35 4 35 5 0 9 7 9 16 0 8 4 13 9 9 5 -3 12 -1 16 5 3 5 0 10 -7
10 -8 0 -6 5 5 11 9 5 21 8 26 4 5 -3 14 7 19 22 6 16 11 21 11 13 1 -9 4 -11
9 -5 4 6 16 15 27 21 11 6 20 18 20 27 0 9 7 22 15 29 12 11 12 10 0 -6 -14
-17 -13 -18 8 -11 23 7 23 6 7 -18 -9 -14 -23 -28 -31 -31 -9 -3 -13 -10 -10
-14 3 -5 -6 -20 -20 -35 -31 -34 -18 -35 26 -2 19 14 40 23 47 21 7 -3 19 2
28 10 8 9 15 11 15 6 0 -5 -9 -17 -20 -27 -12 -11 -20 -13 -20 -6 0 7 -4 9
-10 6 -15 -9 -13 -38 3 -29 12 8 -21 -36 -37 -48 -5 -3 -16 -4 -25 -1 -14 4
-14 3 -1 -6 13 -10 13 -12 0 -21 -8 -5 -24 -7 -35 -5 -17 5 -18 4 -5 -6 13 -9
10 -17 -23 -50 -22 -21 -44 -36 -50 -32 -5 3 -7 1 -4 -4 4 -6 1 -16 -6 -22
-16 -13 -34 16 -40 64 -4 28 -4 28 -5 -5 -1 -20 6 -47 18 -65 l20 -30 176 180
c179 182 284 301 342 387 l33 47 -30 64 c-15 35 -33 67 -39 71 -6 3 -26 -22
-45 -56z"/>
<path d="M7495 3884 c-9 -15 -12 -23 -6 -20 11 7 35 46 28 46 -3 0 -12 -12
-22 -26z"/>
<path d="M787 3889 c7 -7 15 -10 18 -7 3 3 -2 9 -12 12 -14 6 -15 5 -6 -5z"/>
<path d="M824 3878 l-19 -23 23 19 c21 18 27 26 19 26 -2 0 -12 -10 -23 -22z"/>
<path d="M6612 3875 c0 -16 2 -22 5 -12 2 9 2 23 0 30 -3 6 -5 -1 -5 -18z"/>
<path d="M755 3846 c10 -14 19 -26 22 -26 7 0 -17 39 -28 46 -6 3 -3 -5 6 -20z"/>
<path d="M836 3853 c-6 -14 -5 -15 5 -6 7 7 10 15 7 18 -3 3 -9 -2 -12 -12z"/>
<path d="M6620 3825 c0 -5 5 -17 10 -25 5 -8 10 -10 10 -5 0 6 -5 17 -10 25
-5 8 -10 11 -10 5z"/>
<path d="M7399 3803 c-13 -16 -12 -17 4 -4 9 7 17 15 17 17 0 8 -8 3 -21 -13z"/>
<path d="M62 3785 c0 -16 2 -22 5 -12 2 9 2 23 0 30 -3 6 -5 -1 -5 -18z"/>
<path d="M385 3780 c3 -5 8 -10 11 -10 2 0 4 5 4 10 0 6 -5 10 -11 10 -5 0 -7
-4 -4 -10z"/>
<path d="M890 3725 c35 -36 67 -65 69 -65 3 0 -24 29 -59 65 -35 36 -67 65
-69 65 -3 0 24 -29 59 -65z"/>
<path d="M6843 3753 c-26 -10 -12 -23 25 -23 46 0 82 10 82 22 0 5 -8 4 -19
-2 -26 -13 -92 -14 -71 0 16 10 4 12 -17 3z"/>
<path d="M32 3710 c0 -19 2 -27 5 -17 2 9 2 25 0 35 -3 9 -5 1 -5 -18z"/>
<path d="M317 3719 c12 -13 29 -40 37 -59 17 -40 21 -28 6 16 -6 16 -23 38
-38 48 l-27 19 22 -24z"/>
<path d="M446 3708 c-3 -13 -5 -34 -5 -48 1 -15 5 -7 10 19 9 47 6 68 -5 29z"/>
<path d="M6685 3709 c-4 -6 -5 -12 -2 -15 2 -3 7 2 10 11 7 17 1 20 -8 4z"/>
<path d="M7279 3653 l-34 -38 38 34 c34 33 42 41 34 41 -2 0 -19 -17 -38 -37z"/>
<path d="M391 3634 c0 -11 3 -14 6 -6 3 7 2 16 -1 19 -3 4 -6 -2 -5 -13z"/>
<path d="M980 3626 c0 -2 8 -10 18 -17 15 -13 16 -12 3 4 -13 16 -21 21 -21
13z"/>
<path d="M7101 3614 c0 -11 3 -14 6 -6 3 7 2 16 -1 19 -3 4 -6 -2 -5 -13z"/>
<path d="M32 3560 c0 -14 2 -19 5 -12 2 6 2 18 0 25 -3 6 -5 1 -5 -13z"/>
<path d="M1040 3566 c0 -2 8 -10 18 -17 15 -13 16 -12 3 4 -13 16 -21 21 -21
13z"/>
<path d="M9146 3515 c6 -24 4 -26 -13 -21 -14 4 -20 2 -20 -9 0 -8 8 -15 17
-15 24 0 87 27 95 41 11 17 1 19 -28 4 -15 -8 -28 -12 -28 -9 -1 2 -2 9 -3 16
0 6 -7 13 -14 16 -9 3 -11 -3 -6 -23z"/>
<path d="M432 3500 c0 -19 2 -27 5 -17 2 9 2 25 0 35 -3 9 -5 1 -5 -18z"/>
<path d="M1737 3509 c12 -12 25 -20 28 -17 3 3 -7 13 -22 23 l-28 17 22 -23z"/>
<path d="M32 3490 c0 -19 2 -27 5 -17 2 9 2 25 0 35 -3 9 -5 1 -5 -18z"/>
<path d="M1189 3493 c-13 -16 -12 -17 4 -4 9 7 17 15 17 17 0 8 -8 3 -21 -13z"/>
<path d="M8930 3495 c-6 -8 -9 -20 -5 -27 4 -7 -3 -3 -14 10 -28 32 -45 19
-26 -19 13 -25 19 -28 35 -19 17 9 20 7 20 -14 0 -35 -15 -40 -49 -15 -16 12
-37 19 -45 16 -23 -9 -20 -27 4 -27 27 0 25 -5 -14 -45 l-34 -34 -1 42 c0 23
-7 60 -16 82 l-15 40 7 -45 c4 -25 7 -76 7 -115 1 -56 4 -70 17 -73 12 -2 16
4 14 23 -2 14 1 25 6 25 5 0 9 11 9 23 0 16 9 28 28 38 15 7 30 15 33 17 4 1
4 -9 1 -24 -4 -20 -2 -25 8 -19 9 6 11 -3 9 -39 -2 -25 -1 -46 3 -46 8 0 13
46 9 87 -1 17 2 21 14 17 9 -4 15 -1 15 9 0 10 8 13 28 10 l27 -4 -22 19 -23
20 23 15 22 16 -24 0 c-23 1 -24 2 -6 21 20 22 13 39 -8 22 -16 -14 -28 -6
-20 14 7 18 -1 18 -17 -1z"/>
<path d="M152 3480 c0 -14 2 -19 5 -12 2 6 2 18 0 25 -3 6 -5 1 -5 -13z"/>
<path d="M9085 3480 c3 -5 8 -10 11 -10 2 0 4 5 4 10 0 6 -5 10 -11 10 -5 0
-7 -4 -4 -10z"/>
<path d="M9240 3465 c-8 -9 -8 -15 -2 -15 12 0 26 19 19 26 -2 2 -10 -2 -17
-11z"/>
<path d="M432 3430 c0 -19 2 -27 5 -17 2 9 2 25 0 35 -3 9 -5 1 -5 -18z"/>
<path d="M8206 3445 c-9 -26 -7 -32 5 -12 6 10 9 21 6 23 -2 3 -7 -2 -11 -11z"/>
<path d="M8594 3413 c-4 -26 -13 -63 -21 -81 -10 -24 -11 -37 -3 -50 11 -16
11 -16 6 0 -3 9 1 30 9 45 15 29 32 133 22 133 -3 0 -9 -21 -13 -47z"/>
<path d="M9103 3453 c-15 -5 -17 -23 -4 -23 5 0 11 7 15 15 3 8 4 15 3 14 -1
0 -8 -3 -14 -6z"/>
<path d="M8245 3413 c-8 -20 -13 -38 -10 -41 3 -3 5 -3 5 0 0 3 7 22 15 42 8
20 13 36 10 36 -2 0 -12 -16 -20 -37z"/>
<path d="M8305 3418 l-16 -33 20 25 c20 24 26 40 16 40 -2 0 -12 -15 -20 -32z"/>
<path d="M9136 3441 c-12 -5 -15 -10 -9 -14 6 -4 16 0 23 8 14 17 13 17 -14 6z"/>
<path d="M7232 3408 c-24 -17 -41 -32 -39 -35 7 -6 87 48 87 58 0 11 3 13 -48
-23z"/>
<path d="M8546 3425 c-3 -9 -6 -27 -6 -41 0 -13 -9 -47 -20 -76 -23 -60 -24
-68 -10 -68 5 0 6 7 3 17 -4 11 -3 14 5 9 8 -5 10 -1 5 10 -4 12 -3 15 5 10 7
-4 12 -2 12 6 0 7 5 42 10 78 9 65 8 85 -4 55z"/>
<path d="M8687 3433 c-23 -38 -54 -103 -49 -103 9 0 64 101 59 107 -3 2 -7 1
-10 -4z"/>
<path d="M9165 3431 c-3 -7 0 -8 9 -5 19 7 21 -7 4 -24 -9 -9 -7 -12 12 -12
23 0 23 -1 7 -17 -12 -12 -20 -14 -25 -7 -5 8 -16 5 -37 -8 l-30 -20 28 5 c18
3 27 0 27 -9 0 -10 8 -10 38 -2 61 17 80 41 41 51 -22 6 -22 28 1 35 7 3 10 0
6 -7 -4 -6 -2 -11 3 -11 6 0 11 7 11 15 0 9 -9 14 -27 13 -16 -1 -35 2 -44 6
-10 4 -20 3 -24 -3z m71 -70 c-3 -5 -16 -11 -28 -14 -22 -6 -22 -5 -4 8 22 17
40 20 32 6z"/>
<path d="M8131 3403 c-1 -12 4 -25 9 -28 12 -7 12 2 0 30 -8 19 -9 19 -9 -2z"/>
<path d="M9108 3403 c7 -3 16 -2 19 1 4 3 -2 6 -13 5 -11 0 -14 -3 -6 -6z"/>
<path d="M8330 3370 c-7 -17 -10 -33 -8 -36 3 -2 11 9 18 26 7 17 10 33 8 36
-3 2 -11 -9 -18 -26z"/>
<path d="M434 3235 c0 -88 2 -123 3 -77 2 46 2 118 0 160 -1 42 -3 5 -3 -83z"/>
<path d="M9312 3365 c5 -22 2 -24 -18 -19 -13 4 -24 2 -24 -4 0 -12 25 -33 32
-27 3 3 17 1 32 -4 14 -6 33 -8 42 -4 15 6 15 7 -1 19 -16 12 -16 14 -1 29 23
23 9 41 -15 19 -17 -15 -19 -15 -25 0 -10 25 -27 19 -22 -9z"/>
<path d="M8181 3364 c0 -11 3 -14 6 -6 3 7 2 16 -1 19 -3 4 -6 -2 -5 -13z"/>
<path d="M6104 3318 l-29 -33 33 29 c17 17 32 31 32 33 0 8 -8 1 -36 -29z"/>
<path d="M8990 3305 c-7 -20 -10 -39 -7 -41 3 -3 10 11 17 31 7 20 10 39 7 41
-3 3 -10 -11 -17 -31z"/>
<path d="M8145 3308 c4 -41 6 -43 16 -25 11 19 6 47 -9 47 -5 0 -8 -10 -7 -22z"/>
<path d="M8217 3323 c-7 -11 10 -40 18 -31 4 4 3 14 -3 24 -5 9 -12 12 -15 7z"/>
<path d="M8250 3316 c0 -27 22 -29 44 -5 20 22 20 22 0 6 -25 -21 -38 -22 -30
-2 3 8 1 15 -4 15 -6 0 -10 -6 -10 -14z"/>
<path d="M9205 3320 c-17 -7 -16 -9 10 -10 26 0 27 -2 12 -11 -9 -6 -27 -7
-40 -4 -17 5 -19 4 -7 -4 21 -15 43 -14 66 4 16 13 17 16 4 25 -17 11 -19 11
-45 0z"/>
<path d="M358 3313 c-2 -5 0 -42 3 -83 l5 -75 2 83 c2 74 -1 96 -10 75z"/>
<path d="M9064 3305 c11 -8 31 -14 45 -14 l26 2 -25 4 c-14 3 -29 9 -34 14 -6
5 -15 9 -20 9 -6 0 -2 -7 8 -15z"/>
<path d="M9130 3310 c20 -13 33 -13 25 0 -3 6 -14 10 -23 10 -15 0 -15 -2 -2
-10z"/>
<path d="M41 3194 c1 -61 6 -130 10 -155 4 -24 5 24 2 106 -3 83 -8 152 -10
155 -2 2 -3 -45 -2 -106z"/>
<path d="M9016 3288 c-11 -36 -16 -81 -7 -73 11 12 26 85 17 85 -4 0 -8 -6
-10 -12z"/>
<path d="M9312 3280 c0 -14 2 -19 5 -12 2 6 2 18 0 25 -3 6 -5 1 -5 -13z"/>
<path d="M6044 3275 c-10 -8 -14 -15 -8 -15 6 0 17 7 24 15 16 19 9 19 -16 0z"/>
<path d="M4363 3263 c9 -2 23 -2 30 0 6 3 -1 5 -18 5 -16 0 -22 -2 -12 -5z"/>
<path d="M8966 3235 c-3 -8 -1 -15 4 -15 6 0 10 7 10 15 0 8 -2 15 -4 15 -2 0
-6 -7 -10 -15z"/>
<path d="M5548 3215 c-3 -14 -1 -28 3 -31 5 -3 9 9 9 25 0 38 -6 40 -12 6z"/>
<path d="M5878 3233 c7 -3 16 -2 19 1 4 3 -2 6 -13 5 -11 0 -14 -3 -6 -6z"/>
<path d="M5501 3203 c0 -25 1 -26 9 -8 12 27 12 35 0 35 -5 0 -10 -12 -9 -27z"/>
<path d="M5780 3216 c0 -2 7 -7 16 -10 8 -3 12 -2 9 4 -6 10 -25 14 -25 6z"/>
<path d="M5429 3175 c17 -33 31 -51 31 -40 0 6 -10 21 -21 35 -13 17 -17 18
-10 5z"/>
<path d="M5609 3163 c-12 -16 -12 -17 1 -7 8 6 22 14 30 17 13 5 12 6 -1 6 -9
1 -23 -7 -30 -16z"/>
<path d="M680 3149 c0 -5 5 -7 10 -4 6 3 10 8 10 11 0 2 -4 4 -10 4 -5 0 -10
-5 -10 -11z"/>
<path d="M5800 3120 l-25 -21 28 12 c15 7 27 16 27 21 0 11 -1 10 -30 -12z"/>
<path d="M2807 3119 c7 -7 15 -10 18 -7 3 3 -2 9 -12 12 -14 6 -15 5 -6 -5z"/>
<path d="M8130 3128 c0 -3 8 -15 19 -26 16 -19 29 -22 106 -22 109 0 107 9 -3
13 -62 2 -85 7 -101 21 -12 11 -21 17 -21 14z"/>
<path d="M2888 3113 c7 -3 16 -2 19 1 4 3 -2 6 -13 5 -11 0 -14 -3 -6 -6z"/>
<path d="M5411 3113 c0 -4 4 -17 9 -28 8 -19 9 -19 9 2 1 12 -3 25 -9 28 -5 3
-10 3 -9 -2z"/>
<path d="M6705 3110 c-12 -19 -113 -78 -199 -116 -47 -21 -88 -44 -91 -51 -5
-16 14 -63 27 -63 11 0 10 17 -2 25 -19 12 -10 35 20 50 17 9 36 13 42 9 7 -4
8 -3 4 4 -4 7 -2 12 3 12 19 0 25 3 63 26 21 13 41 24 45 24 5 0 19 9 33 20
27 21 45 26 35 10 -3 -6 1 -7 9 -4 24 9 19 -10 -9 -36 -14 -13 -23 -30 -21
-37 4 -9 -1 -12 -18 -7 -14 3 -27 -1 -35 -10 -8 -9 -10 -16 -5 -16 5 0 -9 -16
-31 -35 -22 -19 -35 -34 -29 -35 5 0 19 8 30 18 37 34 69 50 88 43 15 -6 6
-13 -42 -39 -33 -18 -65 -32 -72 -32 -6 0 -25 -9 -41 -21 -33 -23 -59 -19 -59
8 -1 17 -1 17 -11 0 -11 -18 5 -44 26 -41 17 2 85 32 184 82 l93 47 -6 44 c-3
24 -6 63 -6 87 0 42 -11 56 -25 34z"/>
<path d="M8692 3097 c9 -7 40 -14 69 -16 29 -1 56 -4 61 -7 4 -3 31 -2 60 2
37 5 47 9 33 14 -11 4 -35 3 -53 -1 -18 -4 -47 -3 -65 1 -18 4 -52 11 -77 14
-38 5 -43 4 -28 -7z"/>
<path d="M8365 3091 c12 -20 100 -30 142 -18 53 16 69 32 23 22 -50 -10 -100
-11 -138 -3 -19 5 -31 4 -27 -1z"/>
<path d="M5410 3050 c-12 -8 -10 -10 8 -10 13 0 20 4 17 10 -7 12 -6 12 -25 0z"/>
<path d="M5607 3053 c-4 -3 -24 -9 -44 -13 -36 -7 -36 -8 -7 -9 16 0 39 6 50
14 10 8 16 15 13 15 -3 0 -9 -3 -12 -7z"/>
<path d="M5458 3043 c7 -3 16 -2 19 1 4 3 -2 6 -13 5 -11 0 -14 -3 -6 -6z"/>
<path d="M5490 3040 c0 -6 7 -10 15 -10 8 0 15 2 15 4 0 2 -7 6 -15 10 -8 3
-15 1 -15 -4z"/>
<path d="M8950 3024 c45 -21 73 -26 159 -28 58 -1 96 1 85 5 -10 4 -56 8 -102
8 -62 1 -91 6 -119 21 -21 11 -47 20 -58 19 -12 0 3 -11 35 -25z"/>
<path d="M5648 3026 c-15 -8 -29 -12 -31 -10 -2 3 -2 -7 1 -21 3 -19 10 -25
24 -23 15 2 27 -9 45 -45 32 -60 43 -54 14 7 -23 46 -51 78 -51 57 0 -6 -5
-11 -10 -11 -7 0 -7 6 0 20 6 11 17 20 25 20 7 0 17 5 20 10 9 14 -5 12 -37
-4z"/>
<path d="M5720 3037 c0 -5 15 -27 33 -50 44 -55 111 -177 97 -177 -7 0 -6 -7
2 -19 7 -11 15 -18 19 -15 9 5 20 -23 13 -39 -2 -7 2 -34 10 -59 15 -51 13
-60 -11 -51 -16 6 -15 -7 3 -69 3 -10 2 -18 -3 -18 -11 0 -47 115 -39 128 3 5
-3 30 -13 54 -13 28 -20 36 -21 23 -1 -20 -1 -20 -15 -1 -21 28 -20 53 0 36
13 -11 14 -10 9 4 -3 9 -12 16 -20 16 -8 0 -14 5 -14 10 0 6 -9 19 -20 30 -23
23 -25 15 -5 -20 22 -39 18 -53 -25 -83 -37 -26 -90 -107 -70 -107 5 0 10 -6
13 -12 2 -7 3 -4 1 7 -7 47 71 129 104 109 20 -13 56 -118 42 -122 -15 -5 -12
-22 5 -22 19 0 32 -49 16 -59 -7 -5 -11 -12 -10 -17 1 -5 -1 -17 -6 -27 -5
-11 -3 -23 5 -30 10 -10 12 -7 7 11 -4 18 -3 21 7 12 10 -8 12 -4 9 17 -4 22
-2 25 6 13 6 -8 11 -31 11 -50 0 -23 -3 -30 -9 -22 -7 11 -9 11 -14 -2 -3 -8
-2 -18 3 -21 6 -4 10 -12 10 -18 0 -7 -4 -6 -10 3 -6 9 -10 10 -10 3 0 -6 5
-15 11 -18 6 -4 8 -13 5 -20 -3 -8 0 -16 7 -19 7 -2 4 -5 -6 -5 -14 -1 -17 -6
-11 -23 4 -13 14 -28 22 -34 17 -13 10 -44 -10 -44 -9 0 -9 3 2 10 16 10 7 25
-17 25 -9 0 -18 6 -21 14 -3 8 0 11 7 7 7 -5 9 -1 5 9 -4 9 -9 14 -12 11 -5
-5 -62 68 -62 79 0 15 -42 96 -47 91 -3 -3 1 -20 10 -38 28 -59 26 -73 -8 -71
-27 3 -28 2 -7 -7 12 -5 28 -7 36 -4 16 6 30 -36 17 -49 -5 -5 -22 -2 -39 7
-35 18 -78 23 -52 6 16 -10 8 -13 -27 -10 -13 1 -23 -3 -23 -7 0 -5 -21 -7
-48 -3 -26 3 -63 2 -82 -3 -19 -4 -43 -8 -52 -8 -11 0 -15 -6 -11 -15 4 -10 0
-12 -11 -8 -9 3 -16 1 -16 -5 0 -6 10 -11 23 -12 21 0 21 -1 2 -9 -18 -8 -17
-9 8 -11 15 -1 39 -4 55 -5 15 -1 41 -7 58 -12 22 -7 40 -6 61 3 24 10 150 35
177 35 5 0 46 -74 46 -84 0 -2 -11 -3 -25 -1 -14 1 -44 -1 -68 -6 -31 -5 -46
-4 -58 7 -24 22 -35 17 -14 -7 16 -16 26 -19 59 -13 68 11 110 8 138 -10 31
-20 48 -52 20 -37 -30 16 -160 3 -203 -19 -10 -6 -43 -10 -75 -10 -88 0 -58
-10 74 -26 65 -7 132 -18 147 -24 35 -13 59 -5 107 33 39 31 50 51 23 41 -27
-11 -16 10 34 64 56 60 53 45 36 237 -12 126 -77 307 -168 466 -45 80 -126
185 -127 166z m105 -327 c3 -5 1 -10 -4 -10 -6 0 -11 5 -11 10 0 6 2 10 4 10
3 0 8 -4 11 -10z m69 -196 c3 -8 2 -12 -4 -9 -6 3 -10 10 -10 16 0 14 7 11 14
-7z m96 -38 c0 -19 -7 -39 -15 -46 -12 -10 -15 -9 -15 8 0 37 12 82 21 76 5
-3 9 -20 9 -38z m-43 8 c-3 -3 -12 -4 -19 -1 -8 3 -5 6 6 6 11 1 17 -2 13 -5z
m-40 -76 c-3 -7 -5 -2 -5 12 0 14 2 19 5 13 2 -7 2 -19 0 -25z m-40 -20 c-3
-7 -5 -2 -5 12 0 14 2 19 5 13 2 -7 2 -19 0 -25z m133 -3 c0 -8 -7 -15 -15
-15 -26 0 -18 20 13 29 1 1 2 -6 2 -14z m-123 -37 c-3 -8 -6 -5 -6 6 -1 11 2
17 5 13 3 -3 4 -12 1 -19z m-67 -78 c47 -94 51 -111 13 -55 -25 37 -68 135
-58 135 2 0 22 -36 45 -80z m200 22 c0 -15 -2 -15 -10 -2 -13 20 -13 33 0 25
6 -3 10 -14 10 -23z m-480 -12 c-8 -5 -11 -10 -7 -10 5 0 5 -5 1 -12 -5 -8
-10 -6 -15 8 -6 16 -8 16 -8 2 -1 -15 -9 -17 -60 -9 -3 1 4 8 15 16 10 8 35
14 54 15 26 0 31 -3 20 -10z m40 -4 c0 -3 -4 -8 -10 -11 -5 -3 -10 -1 -10 4 0
6 5 11 10 11 6 0 10 -2 10 -4z"/>
<path d="M8683 3023 c9 -2 23 -2 30 0 6 3 -1 5 -18 5 -16 0 -22 -2 -12 -5z"/>
<path d="M8181 3004 c0 -11 3 -14 6 -6 3 7 2 16 -1 19 -3 4 -6 -2 -5 -13z"/>
<path d="M8837 2996 c47 -17 72 -21 95 -16 l33 8 -36 1 c-20 1 -56 8 -79 16
-23 8 -50 15 -59 14 -9 0 12 -10 46 -23z"/>
<path d="M432 2975 c0 -16 2 -22 5 -12 2 9 2 23 0 30 -3 6 -5 -1 -5 -18z"/>
<path d="M8267 2985 c34 -6 75 -18 92 -25 27 -11 36 -10 73 9 44 22 40 29 -7
11 -19 -7 -47 -6 -98 5 -40 8 -83 14 -97 14 -14 -1 3 -7 37 -14z"/>
<path d="M6555 2981 c-3 -5 -2 -12 3 -15 5 -3 9 1 9 9 0 17 -3 19 -12 6z"/>
<path d="M1 2944 c0 -11 3 -14 6 -6 3 7 2 16 -1 19 -3 4 -6 -2 -5 -13z"/>
<path d="M5540 2945 c-14 -8 -20 -14 -15 -14 6 0 21 6 35 14 14 8 21 14 15 14
-5 0 -21 -6 -35 -14z"/>
<path d="M9310 2945 c7 -8 17 -15 22 -15 6 0 5 7 -2 15 -7 8 -17 15 -22 15 -6
0 -5 -7 2 -15z"/>
<path d="M5438 2923 c7 -3 16 -2 19 1 4 3 -2 6 -13 5 -11 0 -14 -3 -6 -6z"/>
<path d="M5480 2920 c-9 -6 -10 -10 -3 -10 6 0 15 5 18 10 8 12 4 12 -15 0z"/>
<path d="M443 2860 c0 -36 2 -50 4 -32 2 17 2 47 0 65 -2 17 -4 3 -4 -33z"/>
<path d="M5199 2906 c-3 -3 -23 -6 -46 -7 -32 -2 -40 -6 -32 -15 14 -17 -4
-26 -34 -18 -14 3 -28 1 -31 -5 -12 -19 51 -12 101 11 59 28 57 27 51 33 -2 3
-7 3 -9 1z"/>
<path d="M8538 2903 c7 -3 16 -2 19 1 4 3 -2 6 -13 5 -11 0 -14 -3 -6 -6z"/>
<path d="M8718 2903 c7 -3 16 -2 19 1 4 3 -2 6 -13 5 -11 0 -14 -3 -6 -6z"/>
<path d="M5078 2883 c7 -3 16 -2 19 1 4 3 -2 6 -13 5 -11 0 -14 -3 -6 -6z"/>
<path d="M776 2845 c-5 -25 -3 -40 8 -50 13 -13 17 -13 30 7 18 26 21 48 6 48
-5 0 -10 -9 -10 -19 0 -23 -16 -37 -23 -19 -2 7 0 25 4 41 4 15 4 27 -1 27 -4
0 -11 -16 -14 -35z"/>
<path d="M5372 2859 c-18 -12 -31 -24 -28 -26 5 -5 66 35 66 43 0 6 -3 5 -38
-17z"/>
<path d="M10 2861 c0 -6 4 -13 10 -16 6 -3 7 1 4 9 -7 18 -14 21 -14 7z"/>
<path d="M4990 2860 c-22 -7 -21 -8 13 -9 20 -1 37 4 37 9 0 11 -14 11 -50 0z"/>
<path d="M7792 2858 c-7 -7 -12 -17 -12 -24 0 -15 -180 -59 -295 -74 -44 -5
-161 -15 -260 -21 -99 -6 -184 -15 -189 -20 -6 -5 -5 -17 2 -31 l11 -23 0 26
1 26 94 -1 c76 -1 98 -5 114 -19 19 -18 21 -18 32 0 7 12 13 14 16 6 4 -8 13
-9 27 -4 12 5 31 5 42 0 20 -8 6 -14 -23 -10 -8 1 -20 -6 -28 -16 -12 -16 -15
-16 -25 -3 -8 11 -12 12 -16 2 -2 -6 -9 -9 -15 -6 -6 4 -14 0 -19 -7 -7 -11
-10 -9 -15 9 l-7 23 -15 -22 c-17 -24 -3 -40 28 -32 9 3 20 -1 22 -9 4 -10 -5
-13 -36 -12 -22 0 -51 -5 -63 -13 -20 -12 -23 -11 -23 2 0 15 -1 15 -16 1 -8
-9 -12 -20 -9 -26 3 -5 -3 -10 -14 -10 -14 0 -19 5 -15 15 4 8 1 15 -6 15 -7
0 -2 11 11 25 24 25 63 33 74 15 3 -5 10 -10 16 -10 17 0 9 20 -8 21 -12 1
-10 4 7 9 23 7 4 7 -115 -3 -24 -2 -34 -10 -53 -45 -12 -24 -20 -48 -16 -53 8
-14 197 -11 319 6 268 37 426 72 480 105 54 33 58 43 46 97 -6 27 -13 60 -16
76 -6 29 -14 34 -33 15z m-512 -148 c0 -5 -5 -10 -11 -10 -5 0 -7 5 -4 10 3 6
8 10 11 10 2 0 4 -4 4 -10z m-220 -125 c0 -10 -9 -15 -27 -14 -24 2 -25 2 -5
6 12 2 22 9 22 14 0 5 2 9 5 9 3 0 5 -7 5 -15z"/>
<path d="M8390 2855 c-14 -8 -20 -14 -15 -14 6 0 21 6 35 14 14 8 21 14 15 14
-5 0 -21 -6 -35 -14z"/>
<path d="M1088 2853 c7 -3 16 -2 19 1 4 3 -2 6 -13 5 -11 0 -14 -3 -6 -6z"/>
<path d="M4908 2844 c-39 -21 -35 -28 5 -8 37 19 44 24 31 24 -5 -1 -21 -8
-36 -16z"/>
<path d="M9281 2856 c10 -9 109 -56 109 -51 0 5 -95 55 -106 55 -4 0 -5 -2 -3
-4z"/>
<path d="M8178 2843 c7 -3 16 -2 19 1 4 3 -2 6 -13 5 -11 0 -14 -3 -6 -6z"/>
<path d="M8233 2843 c15 -2 37 -2 50 0 12 2 0 4 -28 4 -27 0 -38 -2 -22 -4z"/>
<path d="M1003 2833 c9 -2 23 -2 30 0 6 3 -1 5 -18 5 -16 0 -22 -2 -12 -5z"/>
<path d="M5488 2823 c7 -3 16 -2 19 1 4 3 -2 6 -13 5 -11 0 -14 -3 -6 -6z"/>
<path d="M252 2800 c0 -14 2 -19 5 -12 2 6 2 18 0 25 -3 6 -5 1 -5 -13z"/>
<path d="M730 2805 c7 -9 15 -13 17 -11 7 7 -7 26 -19 26 -6 0 -6 -6 2 -15z"/>
<path d="M4702 2800 c0 -14 2 -19 5 -12 2 6 2 18 0 25 -3 6 -5 1 -5 -13z"/>
<path d="M5433 2810 c-13 -5 -23 -11 -23 -13 0 -8 50 5 56 14 6 11 -4 11 -33
-1z"/>
<path d="M122 2780 c0 -19 2 -27 5 -17 2 9 2 25 0 35 -3 9 -5 1 -5 -18z"/>
<path d="M5230 2800 c0 -5 7 -10 16 -10 8 0 12 5 9 10 -3 6 -10 10 -16 10 -5
0 -9 -4 -9 -10z"/>
<path d="M5345 2800 c3 -5 16 -10 28 -9 21 0 21 1 2 9 -28 12 -37 12 -30 0z"/>
<path d="M4464 2763 l-7 -38 -15 33 c-9 17 -19 32 -24 32 -8 0 9 -45 25 -67
12 -16 -6 -17 -34 -3 -24 14 -26 -5 -1 -19 15 -10 15 -11 -6 -17 -13 -4 -21
-12 -19 -18 5 -12 10 -12 42 0 20 7 20 7 1 -14 -11 -12 -16 -25 -12 -30 4 -4
13 1 20 11 18 24 24 21 20 -10 -4 -26 -3 -26 11 6 15 32 17 33 31 15 14 -18
15 -17 9 9 -5 24 -2 27 20 27 14 0 25 5 25 10 0 6 -14 10 -31 10 -31 0 -31 0
-15 25 9 14 12 25 6 25 -6 0 -13 -7 -16 -15 -8 -21 -26 -19 -20 3 2 9 7 27 11
40 4 12 2 22 -4 22 -5 0 -13 -17 -17 -37z m20 -84 c-5 -9 -34 -13 -34 -5 0 2
3 12 6 20 5 13 9 14 20 5 8 -6 11 -15 8 -20z"/>
<path d="M5278 2793 c6 -2 18 -2 25 0 6 3 1 5 -13 5 -14 0 -19 -2 -12 -5z"/>
<path d="M555 2780 c-4 -6 3 -10 14 -10 25 0 27 6 6 13 -8 4 -17 2 -20 -3z"/>
<path d="M1046 2773 c-6 -14 -5 -15 5 -6 7 7 10 15 7 18 -3 3 -9 -2 -12 -12z"/>
<path d="M5520 2755 c-19 -19 -29 -35 -24 -35 11 0 45 34 58 58 12 21 1 14
-34 -23z"/>
<path d="M446 2750 c9 -52 12 -60 26 -59 10 0 10 2 1 6 -7 2 -13 17 -13 31 0
15 -5 34 -10 42 -7 11 -8 5 -4 -20z"/>
<path d="M636 2773 c6 -4 14 -15 17 -23 5 -11 6 -9 4 4 -1 11 -9 21 -17 23
-10 3 -11 2 -4 -4z"/>
<path d="M6387 2751 c-22 -37 -21 -40 4 -34 17 5 20 2 17 -18 -2 -18 -9 -24
-28 -24 -14 0 -30 -9 -37 -20 -18 -30 -16 -35 13 -25 35 14 44 13 44 -6 0 -19
27 -47 38 -40 5 3 27 -1 49 -9 23 -8 91 -15 154 -17 l114 -3 -1 30 c-1 17 -7
55 -13 85 l-11 55 -103 0 c-84 0 -109 4 -144 22 -24 12 -43 17 -43 12 0 -5 10
-14 23 -19 12 -6 29 -14 37 -19 29 -18 119 -51 137 -51 11 0 24 -5 31 -12 8
-8 15 -8 28 3 14 12 16 11 13 -4 -2 -10 -8 -18 -14 -18 -12 0 -45 -29 -45 -40
0 -11 64 -1 68 11 6 16 22 1 22 -21 0 -17 -7 -19 -65 -19 -39 0 -65 4 -65 11
0 5 5 7 10 4 6 -3 10 -1 10 4 0 10 -53 17 -75 10 -27 -8 -83 -4 -107 8 -25 12
-28 18 -28 76 -1 34 -1 70 -1 80 0 25 -12 21 -32 -12z m213 -170 c0 -4 -11 -6
-25 -3 -14 2 -25 6 -25 8 0 2 11 4 25 4 14 0 25 -4 25 -9z"/>
<path d="M161 2754 c0 -11 3 -14 6 -6 3 7 2 16 -1 19 -3 4 -6 -2 -5 -13z"/>
<path d="M249 2758 c-5 -72 -5 -88 3 -88 4 0 8 23 8 50 0 28 -2 50 -5 50 -3 0
-5 -6 -6 -12z"/>
<path d="M285 2760 c-3 -5 -2 -10 4 -10 5 0 13 5 16 10 3 6 2 10 -4 10 -5 0
-13 -4 -16 -10z"/>
<path d="M4636 2753 c-6 -14 -5 -15 5 -6 7 7 10 15 7 18 -3 3 -9 -2 -12 -12z"/>
<path d="M5420 2760 c0 -5 5 -10 11 -10 5 0 7 5 4 10 -3 6 -8 10 -11 10 -2 0
-4 -4 -4 -10z"/>
<path d="M8758 2763 c7 -3 16 -2 19 1 4 3 -2 6 -13 5 -11 0 -14 -3 -6 -6z"/>
<path d="M352 2740 c-1 -14 -5 -36 -8 -50 -5 -19 -4 -22 5 -14 7 7 11 28 8 50
-2 22 -4 28 -5 14z"/>
<path d="M8146 2738 c-14 -54 -14 -54 101 -50 59 3 123 11 142 18 33 13 33 14
6 8 -16 -3 -77 -6 -135 -7 l-106 -2 4 28 c5 33 -3 36 -12 5z"/>
<path d="M9198 2753 c7 -3 16 -2 19 1 4 3 -2 6 -13 5 -11 0 -14 -3 -6 -6z"/>
<path d="M310 2730 l-25 -21 28 12 c15 7 27 16 27 21 0 11 -1 10 -30 -12z"/>
<path d="M4935 2740 c-13 -6 -15 -9 -5 -9 8 0 22 4 30 9 18 12 2 12 -25 0z"/>
<path d="M61 2670 c0 -30 3 -70 8 -88 8 -26 7 -34 -5 -39 -10 -4 8 -14 48 -28
65 -23 131 -57 159 -81 8 -8 19 -14 24 -14 32 0 -140 102 -177 105 -25 2 -29
8 -34 56 -3 24 -9 67 -13 94 l-9 50 -1 -55z"/>
<path d="M510 2710 c0 -12 8 -12 35 0 18 8 17 9 -7 9 -16 1 -28 -3 -28 -9z"/>
<path d="M5437 2709 c7 -7 15 -10 18 -7 3 3 -2 9 -12 12 -14 6 -15 5 -6 -5z"/>
<path d="M8757 2714 c-3 -3 -25 -7 -49 -8 -24 -2 -83 -7 -132 -11 -98 -9 -93
-18 17 -29 37 -4 103 -18 147 -31 64 -21 83 -23 107 -14 47 18 220 49 281 50
115 2 110 16 -8 23 -63 4 -144 12 -180 17 -75 10 -174 12 -183 3z"/>
<path d="M9275 2700 c3 -5 11 -10 16 -10 6 0 7 5 4 10 -3 6 -11 10 -16 10 -6
0 -7 -4 -4 -10z"/>
<path d="M270 2690 c0 -5 5 -10 10 -10 6 0 10 5 10 10 0 6 -4 10 -10 10 -5 0
-10 -4 -10 -10z"/>
<path d="M5600 2680 c-6 -11 -7 -20 -2 -20 6 0 12 9 15 20 3 11 3 20 1 20 -2
0 -8 -9 -14 -20z"/>
<path d="M7068 2693 c7 -3 16 -2 19 1 4 3 -2 6 -13 5 -11 0 -14 -3 -6 -6z"/>
<path d="M8438 2683 c6 -2 18 -2 25 0 6 3 1 5 -13 5 -14 0 -19 -2 -12 -5z"/>
<path d="M9315 2681 c3 -6 25 -11 47 -11 51 0 43 12 -13 17 -27 3 -39 1 -34
-6z"/>
<path d="M134 2646 c1 -26 6 -41 16 -43 10 -3 11 -2 3 4 -6 4 -13 24 -16 43
-4 34 -4 33 -3 -4z"/>
<path d="M585 2660 c10 -11 20 -20 23 -20 3 0 -3 9 -13 20 -10 11 -20 20 -23
20 -3 0 3 -9 13 -20z"/>
<path d="M152 2645 c0 -16 2 -22 5 -12 2 9 2 23 0 30 -3 6 -5 -1 -5 -18z"/>
<path d="M251 2648 c-1 -9 -7 -19 -13 -22 -7 -3 1 -3 17 1 17 3 37 10 45 15
11 7 7 8 -12 4 -16 -4 -28 -1 -31 7 -4 7 -6 6 -6 -5z"/>
<path d="M671 2631 c-24 -22 -31 -36 -29 -57 3 -24 -1 -29 -27 -35 -27 -6 -27
-7 -5 -7 33 -2 62 21 54 42 -8 22 23 69 42 62 8 -3 14 -1 14 4 0 5 12 11 28
13 23 3 22 4 -9 6 -26 1 -44 -6 -68 -28z"/>
<path d="M4944 2644 c-18 -14 -18 -15 4 -4 12 6 22 13 22 15 0 8 -5 6 -26 -11z"/>
<path d="M5855 2650 c3 -5 8 -10 11 -10 2 0 4 5 4 10 0 6 -5 10 -11 10 -5 0
-7 -4 -4 -10z"/>
<path d="M6480 2650 c0 -5 5 -10 11 -10 5 0 7 5 4 10 -3 6 -8 10 -11 10 -2 0
-4 -4 -4 -10z"/>
<path d="M772 2635 c-11 -12 -10 -15 2 -15 8 0 16 -5 18 -12 3 -7 17 -12 33
-13 15 0 30 -6 33 -14 4 -11 -4 -13 -37 -8 l-42 5 7 -31 c8 -40 9 -41 31 -32
17 8 17 8 1 12 -28 7 -21 20 12 25 19 3 31 0 35 -10 7 -19 7 -20 -7 -25 -7 -2
-2 -2 12 1 14 3 35 4 47 4 12 -1 25 4 29 10 5 8 2 9 -9 5 -21 -8 -22 7 -1 27
8 9 12 16 7 16 -14 0 -29 -14 -36 -32 -9 -26 -24 -22 -29 7 -3 13 -1 22 3 19
5 -3 9 0 9 6 0 6 5 8 10 5 17 -11 11 11 -8 28 -21 19 -42 22 -42 6 0 -6 -12
-9 -27 -7 -20 2 -28 8 -27 21 2 21 -6 21 -24 2z m116 -33 c2 -7 -3 -12 -12
-12 -9 0 -16 7 -16 16 0 17 22 14 28 -4z"/>
<path d="M5585 2640 c-3 -5 -1 -10 4 -10 6 0 11 5 11 10 0 6 -2 10 -4 10 -3 0
-8 -4 -11 -10z"/>
<path d="M8125 2620 c-4 -17 -5 -34 -2 -36 3 -3 8 9 12 26 4 17 5 34 2 36 -3
3 -8 -9 -12 -26z"/>
<path d="M530 2630 c0 -5 5 -10 11 -10 5 0 7 5 4 10 -3 6 -8 10 -11 10 -2 0
-4 -4 -4 -10z"/>
<path d="M5538 2633 c7 -3 16 -2 19 1 4 3 -2 6 -13 5 -11 0 -14 -3 -6 -6z"/>
<path d="M175 2620 c-3 -5 1 -10 10 -10 9 0 13 5 10 10 -3 6 -8 10 -10 10 -2
0 -7 -4 -10 -10z"/>
<path d="M12 2595 c0 -16 2 -22 5 -12 2 9 2 23 0 30 -3 6 -5 -1 -5 -18z"/>
<path d="M4233 2604 c-3 -8 -1 -20 4 -25 7 -7 11 -2 11 15 0 29 -6 33 -15 10z"/>
<path d="M676 2602 c-3 -5 3 -17 14 -27 24 -21 26 -40 5 -31 -8 3 -15 1 -15
-4 0 -11 64 -24 82 -17 7 3 3 6 -9 6 -25 1 -31 16 -10 24 10 4 10 6 0 6 -7 1
-13 6 -13 12 0 6 9 9 20 6 23 -6 28 8 6 16 -8 3 -20 -1 -27 -10 -12 -13 -15
-13 -30 6 -10 12 -20 17 -23 13z"/>
<path d="M4287 2582 c-24 -25 -26 -31 -13 -41 11 -10 18 -6 36 19 31 43 13 59
-23 22z m12 -24 c-8 -14 -14 -18 -17 -10 -4 13 17 46 25 38 3 -2 -1 -15 -8
-28z"/>
<path d="M4510 2595 c-7 -8 -8 -15 -2 -15 5 0 15 7 22 15 7 8 8 15 2 15 -5 0
-15 -7 -22 -15z"/>
<path d="M6302 2585 c-9 -20 -9 -25 3 -25 8 0 40 -11 71 -25 31 -14 60 -25 65
-25 5 0 9 17 9 38 0 27 -3 33 -10 22 -5 -8 -10 -11 -10 -6 0 6 -6 1 -14 -9
-12 -16 -18 -18 -37 -8 -13 7 -34 14 -45 18 -16 4 -20 11 -17 25 7 28 -2 25
-15 -5z"/>
<path d="M8230 2600 c0 -5 4 -10 9 -10 6 0 13 5 16 10 3 6 -1 10 -9 10 -9 0
-16 -4 -16 -10z"/>
<path d="M8453 2599 c-34 -4 -79 -12 -100 -18 -21 -6 -52 -11 -69 -11 -19 0
-34 -6 -38 -15 -4 -11 -21 -15 -66 -15 -35 0 -59 4 -55 9 3 5 1 12 -5 16 -5 3
-10 2 -10 -4 0 -5 -3 -16 -6 -25 -5 -14 4 -16 68 -16 41 0 79 5 84 10 19 19
170 49 278 56 59 4 109 11 112 15 6 11 -107 10 -193 -2z"/>
<path d="M246 2574 c-10 -14 -15 -28 -13 -31 3 -2 13 7 23 21 9 15 14 29 12
32 -3 2 -13 -7 -22 -22z"/>
<path d="M8188 2580 c-11 -12 -13 -22 -7 -26 12 -7 15 -5 23 24 9 26 7 26 -16
2z"/>
<path d="M8758 2593 c7 -3 16 -2 19 1 4 3 -2 6 -13 5 -11 0 -14 -3 -6 -6z"/>
<path d="M5677 2551 c4 -27 2 -42 -3 -38 -6 3 -16 1 -24 -4 -11 -6 -6 -8 18
-7 36 3 42 25 17 68 -14 24 -15 23 -8 -19z"/>
<path d="M8903 2583 c9 -2 23 -2 30 0 6 3 -1 5 -18 5 -16 0 -22 -2 -12 -5z"/>
<path d="M131 2564 c0 -11 3 -14 6 -6 3 7 2 16 -1 19 -3 4 -6 -2 -5 -13z"/>
<path d="M358 2563 c-16 -18 -61 -114 -56 -119 2 -1 20 29 40 67 39 72 41 81
16 52z"/>
<path d="M4380 2559 c0 -11 4 -18 10 -14 5 3 7 12 3 20 -7 21 -13 19 -13 -6z"/>
<path d="M5373 2569 c14 -8 22 -8 30 0 8 8 3 11 -18 11 -26 -1 -28 -2 -12 -11z"/>
<path d="M9130 2570 c-18 -12 -2 -12 25 0 13 6 15 9 5 9 -8 0 -22 -4 -30 -9z"/>
<path d="M292 2550 c-6 -11 -8 -21 -3 -25 5 -3 13 4 16 16 9 28 2 33 -13 9z"/>
<path d="M5168 2563 c7 -3 16 -2 19 1 4 3 -2 6 -13 5 -11 0 -14 -3 -6 -6z"/>
<path d="M5810 2556 c0 -9 5 -16 10 -16 6 0 10 4 10 9 0 6 -4 13 -10 16 -5 3
-10 -1 -10 -9z"/>
<path d="M8990 2566 c0 -2 20 -11 45 -19 25 -9 45 -12 45 -8 0 4 -17 13 -39
19 -41 13 -51 14 -51 8z"/>
<path d="M1990 2541 c0 -6 4 -13 10 -16 6 -3 7 1 4 9 -7 18 -14 21 -14 7z"/>
<path d="M5589 2519 c18 -11 35 -18 38 -15 5 5 -50 36 -64 36 -4 0 7 -9 26
-21z"/>
<path d="M9035 2520 c3 -5 8 -10 11 -10 2 0 4 5 4 10 0 6 -5 10 -11 10 -5 0
-7 -4 -4 -10z"/>
<path d="M397 2513 c-5 -7 -5 -18 -1 -24 4 -7 0 -9 -14 -5 -11 4 -23 2 -27 -4
-4 -7 2 -14 15 -17 16 -4 21 -12 17 -29 -2 -14 2 -25 11 -29 14 -5 31 10 32
28 0 4 5 6 11 5 6 -2 13 5 14 14 2 11 -2 15 -11 11 -20 -8 -17 14 3 26 10 5
14 13 10 17 -4 4 -13 2 -19 -4 -17 -17 -26 -15 -30 6 -3 12 -6 14 -11 5z"/>
<path d="M4367 2513 c-10 -9 -8 -43 2 -43 5 0 9 11 9 25 0 27 -1 28 -11 18z"/>
<path d="M9238 2513 c7 -3 16 -2 19 1 4 3 -2 6 -13 5 -11 0 -14 -3 -6 -6z"/>
<path d="M4385 2500 c-3 -5 -2 -10 4 -10 5 0 13 5 16 10 3 6 2 10 -4 10 -5 0
-13 -4 -16 -10z"/>
<path d="M6246 2485 c-9 -14 -13 -25 -9 -25 10 0 36 40 30 46 -2 3 -12 -7 -21
-21z"/>
<path d="M8354 2490 c28 -11 51 -18 53 -16 5 5 -74 36 -90 36 -6 -1 10 -10 37
-20z"/>
<path d="M9275 2500 c3 -5 18 -10 33 -9 24 0 25 1 7 9 -28 12 -47 12 -40 0z"/>
<path d="M8815 2490 c-13 -5 -14 -9 -5 -9 8 0 24 4 35 9 13 5 14 9 5 9 -8 0
-24 -4 -35 -9z"/>
<path d="M9363 2493 c9 -2 23 -2 30 0 6 3 -1 5 -18 5 -16 0 -22 -2 -12 -5z"/>
<path d="M849 2478 c15 -21 31 -23 31 -6 0 6 -3 8 -7 5 -3 -4 -13 -1 -22 6
-14 11 -14 10 -2 -5z"/>
<path d="M6422 2481 c-11 -7 -11 -9 2 -14 10 -4 16 -1 16 8 0 17 -1 17 -18 6z"/>
<path d="M4280 2465 c-11 -13 -10 -14 4 -9 9 3 16 10 16 15 0 13 -6 11 -20 -6z"/>
<path d="M5208 2473 c7 -3 16 -2 19 1 4 3 -2 6 -13 5 -11 0 -14 -3 -6 -6z"/>
<path d="M8753 2470 c-34 -14 -28 -21 7 -9 17 6 30 13 30 15 0 6 -12 4 -37 -6z"/>
<path d="M720 2451 c0 -12 -5 -31 -10 -42 -7 -12 -7 -19 -1 -19 12 0 27 68 17
77 -3 4 -6 -4 -6 -16z"/>
<path d="M6263 2457 c-48 -14 -73 -32 -28 -21 45 11 102 33 85 32 -8 0 -34 -5
-57 -11z"/>
<path d="M8445 2464 c39 -6 274 -10 270 -3 -3 3 -69 6 -147 7 -79 0 -134 -2
-123 -4z"/>
<path d="M9117 2456 c3 -4 -5 -5 -17 -1 -14 5 -25 2 -31 -6 -4 -8 -23 -12 -46
-11 -34 2 -36 1 -20 -12 13 -10 15 -15 5 -18 -7 -3 -23 6 -35 19 -21 22 -23
23 -42 6 -15 -12 -17 -19 -8 -25 13 -8 -15 -5 -74 6 -19 4 -51 3 -70 -1 -32
-9 -30 -10 34 -16 38 -3 92 -14 121 -23 53 -17 54 -17 87 8 29 21 108 59 169
81 8 3 -6 5 -31 4 -26 -1 -45 -6 -42 -11z"/>
<path d="M4235 2450 c-3 -5 -1 -10 4 -10 6 0 11 5 11 10 0 6 -2 10 -4 10 -3 0
-8 -4 -11 -10z"/>
<path d="M8071 2453 c-1 -6 -4 -20 -7 -30 -5 -17 -5 -17 6 0 6 10 9 23 6 30
-3 9 -5 9 -5 0z"/>
<path d="M360 2435 c-11 -13 -10 -14 4 -9 9 3 16 10 16 15 0 13 -6 11 -20 -6z"/>
<path d="M761 2440 c-1 -8 -4 -26 -7 -40 -5 -22 -4 -23 6 -7 6 10 9 28 7 40
-2 12 -5 15 -6 7z"/>
<path d="M4298 2423 c5 -21 7 -23 10 -9 2 10 0 22 -6 28 -6 6 -7 0 -4 -19z"/>
<path d="M814 2426 c-6 -7 -17 -23 -23 -37 -11 -22 -10 -22 13 4 14 15 26 32
26 38 0 12 -3 11 -16 -5z"/>
<path d="M672 2405 c0 -16 2 -22 5 -12 2 9 2 23 0 30 -3 6 -5 -1 -5 -18z"/>
<path d="M8205 2414 c-22 -9 -53 -19 -70 -24 -20 -5 -23 -8 -10 -9 11 0 49 10
85 24 36 13 58 24 50 24 -8 0 -33 -7 -55 -15z"/>
<path d="M5410 2413 c0 -4 11 -13 25 -20 14 -6 23 -7 19 -2 -8 13 -44 31 -44
22z"/>
<path d="M6421 2404 c0 -11 3 -14 6 -6 3 7 2 16 -1 19 -3 4 -6 -2 -5 -13z"/>
<path d="M319 2386 c27 -29 33 -32 25 -13 -2 7 -14 19 -27 26 -21 13 -21 12 2
-13z"/>
<path d="M5477 2399 c7 -7 15 -10 18 -7 3 3 -2 9 -12 12 -14 6 -15 5 -6 -5z"/>
<path d="M10 2390 c-11 -7 -9 -11 13 -19 16 -6 31 -11 35 -11 13 0 106 -66
143 -102 20 -18 68 -62 107 -97 70 -62 107 -114 131 -182 12 -35 3 -49 -29
-48 -10 0 -8 3 5 9 18 8 17 9 -6 9 -27 1 -44 24 -33 43 4 7 0 7 -12 0 -22 -12
-60 10 -49 27 3 7 0 8 -10 5 -10 -4 -14 -2 -10 8 5 11 -1 14 -23 13 -18 -1
-29 3 -29 12 0 16 9 17 26 1 9 -9 12 -9 7 -1 -3 6 0 14 6 16 7 3 -1 4 -18 3
-17 -2 -37 -7 -44 -11 -7 -5 -11 -4 -8 1 3 5 -1 16 -10 24 -14 13 -15 12 -8
-5 6 -18 5 -18 -16 2 -13 12 -48 33 -78 46 -98 43 -107 39 -20 -8 47 -25 98
-57 114 -71 l28 -25 -26 -39 c-27 -42 -40 -52 -29 -24 5 14 1 16 -20 12 -26
-5 -26 -5 -22 51 l5 56 -18 -30 c-10 -19 -25 -31 -37 -30 -11 0 -26 -4 -32 -9
-8 -5 -19 -4 -28 4 -9 7 -15 8 -15 2 0 -14 27 -23 47 -15 11 4 14 3 9 -6 -5
-8 -18 -10 -32 -7 -33 9 -30 -10 3 -23 46 -17 61 -34 56 -62 -4 -21 -10 -26
-31 -25 -15 1 -32 4 -37 8 -6 4 -12 -4 -13 -18 -1 -17 2 -23 10 -18 17 11 58
14 58 5 0 -4 19 -8 42 -8 25 -1 47 -8 54 -18 6 -8 17 -15 25 -15 11 0 11 2 -1
10 -9 6 -10 10 -3 10 6 0 15 -4 18 -10 3 -5 15 -10 25 -10 25 0 36 -19 20 -33
-10 -9 -11 -9 -5 2 5 9 4 12 -6 7 -8 -3 -22 -9 -32 -12 -20 -7 -23 -24 -4 -24
29 0 89 22 93 35 3 7 32 29 63 49 71 44 160 137 189 200 12 25 22 49 22 53 0
5 12 21 26 36 27 29 26 50 -1 27 -8 -7 -15 -9 -15 -4 -1 5 -8 -3 -16 -18 -8
-16 -18 -28 -23 -28 -5 0 -11 -9 -14 -20 -3 -11 -1 -18 4 -14 5 3 9 -4 9 -15
0 -11 -4 -23 -10 -26 -6 -3 -7 1 -4 9 3 9 1 16 -5 16 -12 0 -12 -1 -16 -38 -1
-13 -13 -34 -26 -45 -13 -13 -17 -14 -10 -4 12 15 9 21 -11 18 -4 0 -21 26
-39 59 -19 37 -54 79 -92 112 -33 29 -69 60 -79 69 -9 9 -14 19 -10 23 4 4 2
6 -4 4 -7 -1 -20 6 -30 18 -23 24 -111 84 -125 84 -6 0 -8 4 -5 9 3 5 0 9 -7
8 -32 -1 -48 4 -42 13 8 12 4 12 -15 0z m273 -412 c19 -24 44 -61 56 -83 l21
-39 -23 -13 c-39 -22 -49 -17 -32 17 26 50 17 69 -11 23 -14 -24 -27 -43 -29
-43 -2 0 2 21 10 47 8 26 13 49 11 51 -2 1 -13 -8 -24 -22 -11 -15 -21 -26
-23 -26 -2 0 -4 29 -4 65 0 36 3 65 7 65 4 0 22 -19 41 -42z m-71 -20 c-8 -8
-9 -4 -5 13 4 13 8 18 11 10 2 -7 -1 -18 -6 -23z m117 -2 c-3 -3 -11 5 -18 17
-13 21 -12 21 5 5 10 -10 16 -20 13 -22z m-180 -62 c2 -2 -4 -10 -13 -19 -15
-15 -17 -14 -26 10 -5 14 -10 28 -10 31 0 4 39 -13 49 -22z"/>
<path d="M367 2393 c-4 -3 -7 -11 -7 -17 0 -6 5 -5 12 2 6 6 9 14 7 17 -3 3
-9 2 -12 -2z"/>
<path d="M6290 2386 c25 -7 54 -16 65 -20 11 -3 2 3 -20 14 -22 11 -51 19 -65
19 -17 0 -11 -4 20 -13z"/>
<path d="M8046 2385 c-3 -8 -1 -15 4 -15 6 0 10 7 10 15 0 8 -2 15 -4 15 -2 0
-6 -7 -10 -15z"/>
<path d="M5601 2386 c11 -9 69 -15 64 -6 -3 6 -20 10 -37 10 -17 0 -29 -2 -27
-4z"/>
<path d="M9098 2383 c7 -3 16 -2 19 1 4 3 -2 6 -13 5 -11 0 -14 -3 -6 -6z"/>
<path d="M9177 2383 c18 -2 50 -2 70 0 21 2 7 4 -32 4 -38 0 -55 -2 -38 -4z"/>
<path d="M4788 2373 c7 -3 16 -2 19 1 4 3 -2 6 -13 5 -11 0 -14 -3 -6 -6z"/>
<path d="M5476 2371 c5 -4 32 -5 59 -1 l50 7 -59 2 c-35 0 -56 -3 -50 -8z"/>
<path d="M5816 2365 c-3 -8 -1 -15 4 -15 6 0 10 7 10 15 0 8 -2 15 -4 15 -2 0
-6 -7 -10 -15z"/>
<path d="M6421 2367 c-1 -14 -6 -17 -23 -12 -21 5 -21 5 -5 -6 22 -13 43 1 34
23 -4 8 -6 7 -6 -5z"/>
<path d="M8340 2359 c36 -10 72 -19 80 -18 8 0 -14 9 -50 20 -36 10 -72 19
-80 18 -8 0 14 -9 50 -20z"/>
<path d="M8508 2373 c7 -3 16 -2 19 1 4 3 -2 6 -13 5 -11 0 -14 -3 -6 -6z"/>
<path d="M9315 2370 c19 -8 73 -14 64 -6 -2 2 -22 6 -44 9 -28 5 -34 4 -20 -3z"/>
<path d="M4863 2344 c46 -24 55 -25 245 -26 121 0 207 3 222 10 33 14 35 14
-225 17 -130 1 -221 6 -238 13 -51 21 -53 12 -4 -14z m412 -14 c-3 -5 -11 -10
-16 -10 -6 0 -7 5 -4 10 3 6 11 10 16 10 6 0 7 -4 4 -10z"/>
<path d="M355 2351 c-3 -5 -1 -12 5 -16 5 -3 10 1 10 9 0 18 -6 21 -15 7z"/>
<path d="M540 2313 c-17 -22 -29 -46 -26 -56 2 -9 0 -15 -5 -11 -5 3 -9 0 -9
-7 0 -8 -9 -5 -22 7 -54 47 -59 45 -10 -3 40 -40 52 -59 52 -82 0 -45 16 -46
40 -3 34 60 100 91 100 46 0 -8 4 -14 10 -14 13 0 1 31 -21 53 -20 19 -34 23
-24 7 3 -5 1 -10 -6 -10 -7 0 -21 -8 -31 -17 -18 -16 -18 -16 -5 11 8 15 23
33 33 41 11 8 14 15 8 15 -12 0 -61 -36 -82 -60 -11 -13 -12 -11 -6 10 13 46
22 66 38 79 9 7 16 17 16 22 0 19 -20 7 -50 -28z"/>
<path d="M8011 2319 c-7 -12 -10 -23 -8 -26 3 -3 11 5 17 17 15 28 8 35 -9 9z"/>
<path d="M370 2316 c0 -3 9 -10 20 -16 11 -6 20 -8 20 -6 0 3 -9 10 -20 16
-11 6 -20 8 -20 6z"/>
<path d="M8688 2313 c7 -3 16 -2 19 1 4 3 -2 6 -13 5 -11 0 -14 -3 -6 -6z"/>
<path d="M8778 2313 c7 -3 16 -2 19 1 4 3 -2 6 -13 5 -11 0 -14 -3 -6 -6z"/>
<path d="M6238 2303 c7 -3 16 -2 19 1 4 3 -2 6 -13 5 -11 0 -14 -3 -6 -6z"/>
<path d="M8033 2302 c4 -5 35 -12 69 -15 63 -6 246 -61 302 -91 28 -14 31 -14
51 9 12 12 36 30 54 39 17 9 31 18 31 19 0 1 -15 2 -32 3 -37 1 -83 8 -143 23
-56 14 -339 26 -332 13z"/>
<path d="M8600 2300 c-20 -6 -21 -8 -5 -8 11 0 29 3 40 8 25 11 -1 11 -35 0z"/>
<path d="M4740 2270 c-9 -6 -10 -10 -3 -10 6 0 15 5 18 10 8 12 4 12 -15 0z"/>
<path d="M5355 2260 c10 -11 22 -20 27 -20 4 0 3 9 -4 20 -7 11 -19 20 -27 20
-11 0 -10 -5 4 -20z"/>
<path d="M4344 2250 c-33 -10 -77 -25 -97 -35 -20 -9 -41 -14 -47 -10 -6 3
-25 3 -43 -1 -30 -8 -29 -9 23 -14 30 -4 57 -3 60 0 14 19 157 64 235 73 17 2
8 4 -20 4 -27 1 -77 -7 -111 -17z"/>
<path d="M4596 2261 c39 -5 81 -12 92 -16 12 -3 22 -2 22 3 0 5 -6 9 -12 10
-7 0 -49 3 -93 6 l-80 5 71 -8z"/>
<path d="M7970 2249 c-7 -11 -10 -23 -7 -25 2 -2 9 7 15 21 14 30 7 33 -8 4z"/>
<path d="M6400 2253 c0 -16 -22 -22 -108 -30 -97 -8 -102 -8 -132 1 -24 8 -24
8 -5 -8 15 -11 44 -15 117 -16 53 0 100 -4 103 -10 12 -20 24 -10 31 25 3 20
4 39 0 42 -3 4 -6 2 -6 -4z"/>
<path d="M9098 2210 c28 -21 53 -44 57 -50 4 -7 12 -7 24 0 10 5 38 12 62 15
23 3 45 7 47 10 9 9 -62 5 -95 -4 -26 -8 -35 -6 -52 13 l-21 22 32 2 c50 4 48
13 -2 11 -25 -1 -55 3 -67 9 -40 22 -35 12 15 -28z"/>
<path d="M9331 2239 l-23 -9 28 -22 c16 -13 34 -29 41 -38 6 -8 15 -12 19 -7
4 4 3 12 -4 19 -8 8 -8 17 -1 30 5 10 6 18 2 17 -20 -3 -34 2 -28 11 7 12 -2
12 -34 -1z"/>
<path d="M5258 2233 c7 -3 16 -2 19 1 4 3 -2 6 -13 5 -11 0 -14 -3 -6 -6z"/>
<path d="M5208 2223 c6 -2 18 -2 25 0 6 3 1 5 -13 5 -14 0 -19 -2 -12 -5z"/>
<path d="M695 2210 c-3 -5 -1 -10 4 -10 6 0 11 5 11 10 0 6 -2 10 -4 10 -3 0
-8 -4 -11 -10z"/>
<path d="M4101 2200 c-17 -15 -19 -20 -7 -20 8 0 20 9 26 20 13 25 11 25 -19
0z"/>
<path d="M8195 2199 c-16 -6 -66 -11 -110 -12 -66 -2 -89 -8 -128 -29 -27 -15
-55 -24 -65 -21 -16 5 -16 5 0 -12 16 -17 18 -17 45 2 58 40 104 55 145 49 41
-7 148 12 148 26 0 5 -1 8 -2 7 -2 0 -16 -5 -33 -10z"/>
<path d="M724 2175 c10 -8 24 -11 29 -8 6 4 2 10 -9 14 -31 12 -40 9 -20 -6z"/>
<path d="M4451 2172 c-4 -7 -29 -15 -55 -18 -26 -2 -45 -1 -43 3 3 5 -6 8 -19
8 -22 0 -20 -3 19 -41 40 -38 43 -39 69 -27 48 24 221 65 281 66 62 1 57 12
-10 23 -26 4 -43 2 -47 -5 -4 -6 -15 -11 -24 -10 -14 0 -13 2 3 9 18 8 17 9
-8 9 -16 1 -26 -3 -22 -9 3 -5 -1 -10 -10 -10 -9 0 -13 5 -10 10 5 7 -14 10
-55 8 -37 -2 -65 -8 -69 -16z"/>
<path d="M5030 2159 c-19 -10 -29 -19 -23 -19 7 0 27 9 45 20 42 26 24 25 -22
-1z"/>
<path d="M2762 2153 c-6 -10 -13 -32 -16 -49 -7 -31 -7 -32 -49 -22 -23 5 -72
6 -108 3 l-66 -7 7 -32 c37 -165 223 -296 406 -287 19 1 21 6 17 54 -6 62 -44
147 -81 179 -25 22 -26 25 -15 58 19 55 16 87 -9 104 -30 21 -75 20 -86 -1z
m-153 -117 c-2 -2 -17 -6 -34 -10 -22 -5 -26 -4 -15 4 14 9 59 15 49 6z m41
-36 c-8 -5 -19 -10 -25 -10 -5 0 -3 5 5 10 8 5 20 10 25 10 6 0 3 -5 -5 -10z
m-50 -20 c-8 -5 -19 -10 -25 -10 -5 0 -3 5 5 10 8 5 20 10 25 10 6 0 3 -5 -5
-10z m110 -46 c0 -8 -5 -12 -10 -9 -6 4 -8 11 -5 16 9 14 15 11 15 -7z m18
-79 c-6 -14 -15 -25 -20 -25 -5 0 -1 11 8 25 9 14 18 25 20 25 2 0 -2 -11 -8
-25z"/>
<path d="M8404 2148 l-19 -23 23 19 c12 11 22 21 22 23 0 8 -8 2 -26 -19z"/>
<path d="M8223 2120 c19 -16 38 -30 41 -30 4 0 -7 14 -24 30 -17 17 -35 30
-41 30 -5 0 6 -13 24 -30z"/>
<path d="M9180 2135 c0 -4 9 -20 20 -35 14 -20 26 -27 40 -23 11 3 17 9 15 14
-3 4 -12 6 -19 3 -8 -3 -23 7 -35 22 -11 15 -21 23 -21 19z"/>
<path d="M775 2111 c7 -23 -7 -29 -82 -33 -51 -3 -70 -13 -36 -20 39 -7 102 5
127 25 l27 22 -21 13 c-20 12 -21 11 -15 -7z"/>
<path d="M4022 2094 c-13 -20 -22 -38 -19 -40 2 -2 16 14 31 36 14 22 23 40
19 40 -5 0 -18 -16 -31 -36z"/>
<path d="M5540 2110 c-8 -5 -10 -10 -5 -10 6 0 17 5 25 10 8 5 11 10 5 10 -5
0 -17 -5 -25 -10z"/>
<path d="M5117 2099 c7 -7 15 -10 18 -7 3 3 -2 9 -12 12 -14 6 -15 5 -6 -5z"/>
<path d="M5154 2102 c5 -8 66 -4 66 4 0 2 -16 4 -36 4 -19 0 -33 -4 -30 -8z"/>
<path d="M5348 2103 c6 -2 18 -2 25 0 6 3 1 5 -13 5 -14 0 -19 -2 -12 -5z"/>
<path d="M5408 2098 c5 -5 16 -8 23 -6 8 3 3 7 -10 11 -17 4 -21 3 -13 -5z"/>
<path d="M6154 2092 c-42 -24 -69 -44 -79 -62 -4 -8 3 -5 16 6 61 54 146 74
221 51 27 -8 46 -11 43 -6 -19 29 -154 37 -201 11z"/>
<path d="M5460 2090 c20 -13 33 -13 25 0 -3 6 -14 10 -23 10 -15 0 -15 -2 -2
-10z"/>
<path d="M9300 2090 c0 -5 4 -10 9 -10 5 0 18 -3 28 -6 16 -5 16 -4 -1 10 -23
18 -36 20 -36 6z"/>
<path d="M468 2078 c7 -7 12 -21 12 -32 0 -10 3 -16 7 -12 10 10 11 46 1 40
-4 -3 -8 0 -8 5 0 6 -5 11 -12 11 -9 0 -9 -3 0 -12z"/>
<path d="M4710 2062 c0 -11 3 -13 8 -6 8 13 72 15 72 2 0 -9 -7 -10 -60 -13
-19 -1 -42 -5 -50 -8 -8 -3 -31 -8 -50 -10 -19 -2 11 -5 68 -5 166 -3 296 -27
387 -73 l43 -22 29 23 c17 13 21 21 11 18 -9 -1 -17 1 -16 6 0 9 -22 26 -34
26 -5 0 -8 -7 -8 -15 0 -8 -4 -15 -10 -15 -5 0 -10 4 -10 10 0 5 -8 7 -17 4
-10 -3 -7 2 7 10 l25 15 -27 1 c-16 0 -27 3 -27 8 3 18 -2 24 -13 15 -7 -6
-23 -13 -36 -16 -19 -4 -21 -3 -11 9 6 8 10 17 7 20 -9 8 -118 11 -118 2 0 -4
-19 1 -43 11 -57 25 -127 26 -127 3z m425 -102 c3 -5 -1 -10 -10 -10 -9 0 -13
5 -10 10 3 6 8 10 10 10 2 0 7 -4 10 -10z"/>
<path d="M6373 2065 c-3 -9 -3 -18 -1 -21 3 -3 8 4 11 16 6 23 -1 27 -10 5z"/>
<path d="M4410 2063 c0 -5 9 -18 20 -28 11 -10 20 -24 20 -32 0 -7 7 -13 15
-13 17 0 16 1 -30 54 -14 16 -25 24 -25 19z"/>
<path d="M9370 2060 c8 -5 20 -10 25 -10 6 0 3 5 -5 10 -8 5 -19 10 -25 10 -5
0 -3 -5 5 -10z"/>
<path d="M2470 2050 c-9 -6 -10 -10 -3 -10 6 0 15 5 18 10 8 12 4 12 -15 0z"/>
<path d="M4470 2040 c-13 -9 -13 -10 0 -9 8 1 26 5 40 9 l25 8 -25 1 c-14 0
-32 -4 -40 -9z"/>
<path d="M5210 2025 c13 -14 26 -25 28 -25 3 0 -5 11 -18 25 -13 14 -26 25
-28 25 -3 0 5 -11 18 -25z"/>
<path d="M561 2014 c-16 -37 -9 -39 11 -3 9 16 14 29 9 29 -4 0 -13 -12 -20
-26z"/>
<path d="M4543 2033 c4 -6 1 -14 -5 -16 -7 -3 -4 -6 7 -6 11 0 27 4 35 9 9 6
10 10 3 10 -6 0 -19 3 -29 7 -11 4 -15 3 -11 -4z"/>
<path d="M5965 2035 c22 -10 97 -23 89 -15 -5 4 -29 11 -54 14 -25 3 -40 4
-35 1z"/>
<path d="M330 2016 c0 -8 4 -17 9 -21 6 -3 9 4 8 15 -1 23 -17 28 -17 6z"/>
<path d="M8282 2010 c0 -14 2 -19 5 -12 2 6 2 18 0 25 -3 6 -5 1 -5 -13z"/>
<path d="M9240 2022 c0 -5 7 -17 16 -28 14 -17 15 -17 10 -1 -3 10 -6 23 -6
28 0 5 -4 9 -10 9 -5 0 -10 -4 -10 -8z"/>
<path d="M150 2010 c0 -5 5 -10 11 -10 5 0 7 5 4 10 -3 6 -8 10 -11 10 -2 0
-4 -4 -4 -10z"/>
<path d="M485 2009 c-4 -6 -5 -12 -2 -15 2 -3 7 2 10 11 7 17 1 20 -8 4z"/>
<path d="M4115 2010 c50 -4 115 -10 145 -14 l55 -6 -60 15 c-33 8 -98 14 -145
13 l-85 -1 90 -7z"/>
<path d="M5778 2013 c7 -3 16 -2 19 1 4 3 -2 6 -13 5 -11 0 -14 -3 -6 -6z"/>
<path d="M2423 1995 c-12 -8 -35 -37 -52 -65 -25 -40 -28 -50 -15 -50 12 0 15
-7 12 -30 -3 -16 -4 -30 -2 -30 1 0 21 9 45 20 24 11 57 20 73 20 l29 0 -21
23 c-11 12 -26 46 -34 75 -13 51 -14 52 -35 37z m32 -114 c-6 -5 -21 -12 -35
-15 l-25 -7 25 15 c28 17 50 21 35 7z"/>
<path d="M3983 2003 c9 -2 23 -2 30 0 6 3 -1 5 -18 5 -16 0 -22 -2 -12 -5z"/>
<path d="M5690 1993 c-44 -15 -160 -75 -160 -83 0 -5 26 6 59 24 32 19 78 40
102 49 24 8 37 15 29 15 -8 0 -22 -2 -30 -5z"/>
<path d="M9325 1981 c-22 -10 -46 -16 -53 -14 -7 3 -10 -1 -6 -11 8 -20 9 -20
39 0 14 9 42 22 63 30 21 8 29 13 17 13 -11 0 -38 -8 -60 -18z"/>
<path d="M4328 1983 c7 -3 16 -2 19 1 4 3 -2 6 -13 5 -11 0 -14 -3 -6 -6z"/>
<path d="M3891 1964 c0 -11 3 -14 6 -6 3 7 2 16 -1 19 -3 4 -6 -2 -5 -13z"/>
<path d="M4373 1968 c15 -10 54 -10 60 0 3 4 -12 7 -34 7 -22 1 -33 -2 -26 -7z"/>
<path d="M4755 1939 c-4 -5 -17 -6 -30 -3 -12 3 -26 1 -30 -5 -3 -6 -12 -8
-18 -4 -9 6 -227 12 -227 7 0 -1 33 -17 73 -37 72 -36 75 -36 195 -36 103 0
130 -4 172 -22 42 -18 55 -20 76 -10 14 6 32 11 40 11 9 0 27 9 40 19 l25 19
-23 7 c-13 4 -29 12 -36 18 -7 5 -32 12 -55 14 -58 5 -70 7 -84 16 -6 4 -13 1
-16 -5 -3 -10 -14 -9 -50 4 -28 10 -49 13 -52 7z"/>
<path d="M5222 1928 c-66 -15 -45 -19 33 -7 38 6 111 9 163 7 52 -2 86 -1 76
3 -27 11 -221 9 -272 -3z"/>
<path d="M5885 1930 c-13 -6 -15 -9 -5 -9 8 0 22 4 30 9 18 12 2 12 -25 0z"/>
<path d="M6356 1925 c-3 -8 -1 -15 4 -15 6 0 10 7 10 15 0 8 -2 15 -4 15 -2 0
-6 -7 -10 -15z"/>
<path d="M5824 1904 c-18 -14 -18 -14 6 -3 31 14 36 19 24 19 -6 0 -19 -7 -30
-16z"/>
<path d="M6158 1883 c17 -17 27 -20 40 -13 9 5 36 14 60 20 23 6 42 12 42 13
0 1 -37 2 -82 2 l-83 0 23 -22z"/>
<path d="M9000 1890 c-9 -6 -10 -10 -3 -10 6 0 15 5 18 10 8 12 4 12 -15 0z"/>
<path d="M5655 1864 c87 -37 111 -40 35 -5 -36 17 -72 30 -80 30 -8 1 12 -11
45 -25z"/>
<path d="M5774 1876 c-10 -8 -16 -17 -13 -20 3 -3 14 3 24 14 21 23 17 26 -11
6z"/>
<path d="M1800 1870 c-91 -8 -224 -37 -330 -71 -205 -67 -348 -151 -442 -259
-22 -25 -23 -37 -2 -19 14 11 15 9 7 -27 -4 -21 -8 -84 -7 -139 1 -88 6 -114
38 -209 20 -60 48 -129 62 -152 14 -24 24 -53 22 -66 -2 -19 1 -23 22 -20 122
12 255 19 267 15 13 -5 64 5 153 33 25 7 80 15 122 18 68 3 79 1 96 -18 30
-33 42 -61 51 -124 9 -57 9 -57 10 -12 1 50 -25 115 -58 144 -11 11 -21 24
-21 29 0 6 11 0 25 -13 24 -23 25 -23 45 -5 15 14 20 15 20 4 0 -8 16 -45 35
-83 19 -39 35 -71 35 -72 0 -8 -67 -64 -75 -64 -6 0 -18 -13 -28 -29 -25 -43
-85 -91 -113 -91 -14 0 -44 -10 -67 -21 -37 -19 -51 -21 -127 -14 -47 4 -93 7
-102 8 -13 1 -14 5 -6 20 5 10 7 25 4 33 -3 7 3 18 12 23 12 7 -11 10 -78 9
-79 -2 -83 -3 -28 -5 77 -4 95 -17 77 -56 -9 -20 -17 -25 -38 -22 -14 2 -52 7
-84 10 -32 2 -64 8 -70 12 -15 9 -30 11 -147 21 -53 5 -101 11 -108 16 -6 4
-31 2 -54 -4 -54 -15 -140 -29 -133 -22 8 8 117 42 136 42 9 0 34 13 56 29 25
18 45 26 53 21 18 -11 4 -27 -30 -35 -17 -4 -30 -10 -30 -15 0 -15 59 11 74
31 7 10 16 16 19 12 4 -3 7 -1 7 5 0 6 -13 13 -29 17 -31 7 -141 106 -141 127
0 7 -7 27 -16 43 -11 20 -19 71 -24 160 -4 83 -8 110 -10 75 -5 -83 -4 -121 4
-166 7 -37 5 -41 -21 -53 -83 -39 -133 -49 -200 -42 -7 0 -13 9 -13 19 0 15 2
15 10 2 8 -11 9 -8 4 13 -6 24 8 39 19 20 2 -5 2 -2 0 5 -2 8 6 16 17 19 11 3
20 9 20 14 0 20 -58 -15 -74 -46 -19 -35 -54 -60 -42 -30 3 9 2 13 -4 10 -17
-10 -11 -37 8 -42 14 -3 18 -11 14 -29 -2 -14 0 -24 7 -24 6 0 11 5 11 10 0 6
7 10 15 10 8 0 15 -3 15 -7 0 -9 57 -43 70 -43 5 0 7 8 3 18 -4 10 2 8 14 -8
12 -14 25 -22 29 -18 4 4 1 14 -6 23 -8 9 -8 15 -2 15 6 0 14 -5 17 -10 9 -14
48 -12 64 3 12 10 13 9 7 -7 -5 -15 -4 -17 7 -8 10 9 17 8 25 0 9 -9 12 -9 12
0 0 7 7 12 15 12 8 0 15 5 15 11 0 6 18 -8 41 -30 22 -23 37 -45 34 -50 -6
-10 -134 -55 -140 -50 -2 2 -10 20 -19 39 -14 32 -15 21 -1 -28 4 -14 -3 -21
-29 -29 -49 -15 -86 -6 -86 21 1 21 1 21 16 1 15 -19 15 -19 9 8 -5 17 -3 27
4 27 6 0 11 4 11 10 0 19 -31 -3 -46 -32 -10 -20 -12 -34 -6 -40 6 -6 0 -30
-19 -66 -16 -32 -29 -63 -29 -69 0 -7 -4 -13 -10 -13 -13 0 -13 17 0 25 5 3 7
11 4 18 -6 17 -10 167 -4 167 3 0 6 17 7 38 2 32 1 34 -9 18 -17 -30 -58 -204
-58 -247 0 -44 -10 -49 -38 -19 -19 20 -19 20 -36 1 -10 -11 -16 -26 -13 -33
4 -9 6 -8 6 3 1 9 8 19 16 23 18 6 20 -5 4 -21 -8 -8 4 -10 46 -7 55 4 56 3
49 -19 -5 -12 -8 -35 -9 -51 0 -24 5 -31 28 -37 41 -11 56 -2 63 37 3 19 11
37 16 40 6 4 8 -1 4 -14 -4 -11 -2 -23 4 -27 6 -4 10 6 10 25 0 17 5 40 11 51
5 11 12 47 13 80 2 33 6 63 10 67 4 4 6 0 4 -8 -2 -9 6 -16 22 -18 27 -4 51
-21 29 -19 -47 2 -67 -14 -33 -27 10 -4 13 -2 8 7 -4 6 3 3 16 -8 13 -11 21
-15 17 -9 -3 6 2 16 13 24 10 7 16 20 13 29 -4 12 -3 13 5 3 7 -11 10 -11 15
2 4 9 14 15 24 15 14 -1 14 -2 3 -6 -15 -4 -104 -134 -126 -183 -6 -14 -18
-31 -27 -39 -10 -7 -17 -18 -17 -23 0 -6 7 -4 17 3 17 14 16 12 -6 -33 -17
-34 -51 -45 -51 -15 0 11 7 29 17 39 22 24 13 31 -13 10 -16 -14 -19 -26 -16
-60 l4 -43 33 25 c18 14 36 22 40 18 5 -4 5 -2 2 5 -4 6 13 41 37 77 25 37 61
96 81 132 21 37 40 62 44 58 7 -11 62 -11 79 0 7 4 12 2 12 -3 0 -6 7 -11 15
-11 8 0 15 5 15 10 0 6 14 10 30 10 17 0 30 -4 30 -9 0 -5 10 -11 23 -14 12
-3 32 -9 45 -12 18 -6 22 -4 22 14 0 19 2 20 23 10 20 -12 53 -17 135 -21 17
-1 32 -6 32 -11 0 -4 -3 -6 -7 -4 -5 3 -17 1 -28 -3 -16 -7 -12 -9 22 -15 37
-7 41 -9 30 -26 -10 -16 -13 -17 -28 -3 -16 14 -18 14 -29 -8 -10 -19 -10 -21
1 -10 16 14 33 16 24 2 -3 -6 -1 -10 5 -10 7 0 5 -9 -4 -22 -25 -36 -18 -42 9
-10 14 17 25 35 25 41 0 14 23 14 36 1 5 -5 22 -6 39 -1 l30 8 -45 16 -45 17
48 -4 c35 -3 47 0 47 10 0 21 28 17 35 -6 3 -11 11 -20 17 -20 6 0 6 6 -2 15
-10 12 -10 15 3 15 8 0 17 5 19 12 3 7 14 9 31 4 17 -4 25 -11 21 -18 -5 -8
-2 -9 10 -5 10 4 19 7 22 7 2 0 1 6 -1 13 -3 6 6 17 20 24 14 6 25 7 25 2 0
-5 5 -9 10 -9 6 0 10 7 10 15 0 17 41 20 69 6 19 -10 61 -4 61 9 0 4 -11 5
-25 2 -14 -2 -25 -1 -25 3 0 12 44 44 62 45 9 0 19 4 23 9 7 12 44 9 70 -6 29
-17 15 -27 -50 -32 -24 -2 39 -33 77 -37 37 -5 40 -3 28 10 -11 14 -9 16 11
16 34 -1 62 5 78 15 9 5 12 4 8 -3 -9 -13 93 -28 102 -15 7 10 35 9 67 -1 15
-5 24 -2 28 10 5 13 10 14 18 6 15 -15 38 -4 38 19 0 10 5 19 10 19 6 0 10 -7
10 -15 0 -8 5 -15 11 -15 6 0 9 7 5 15 -3 9 0 15 8 15 8 0 17 -6 19 -12 4 -10
6 -10 6 0 1 7 15 12 36 12 19 0 35 5 35 10 0 6 8 10 18 10 18 1 55 24 47 31
-2 3 14 3 36 1 33 -3 40 -1 47 18 4 12 12 21 17 21 22 0 55 12 65 24 6 7 20
11 30 8 14 -4 20 0 20 11 0 9 5 16 11 16 5 0 7 -5 3 -12 -5 -8 -2 -9 12 -4 10
5 31 12 45 16 27 8 70 31 79 41 3 3 15 11 28 18 22 12 31 41 12 41 -5 0 -9 -5
-7 -12 3 -19 -78 -27 -162 -17 -41 5 -75 10 -77 11 -1 2 -3 32 -5 67 -4 62 -3
65 21 72 23 6 22 6 -10 10 -35 4 -49 28 -21 37 10 3 12 0 7 -13 -5 -14 -4 -16
8 -6 7 6 21 9 30 5 9 -3 28 1 42 11 14 9 28 15 30 12 3 -2 -10 -14 -28 -26
-18 -11 -29 -21 -24 -21 5 0 24 10 43 21 19 12 50 25 69 29 32 8 34 7 29 -13
-5 -20 -5 -20 8 -5 19 24 67 34 77 17 7 -10 15 -7 34 14 26 28 35 67 16 67 -5
0 -7 -6 -5 -13 3 -7 -8 -18 -25 -25 -27 -12 -34 -12 -66 7 -45 27 -57 27 -49
-1 7 -21 6 -21 -85 -14 -50 4 -101 12 -113 19 -12 7 -24 13 -25 14 -8 3 36 89
51 102 9 7 26 11 38 8 12 -3 22 0 25 8 7 18 -13 55 -29 54 -9 0 -9 -2 0 -5 11
-5 -82 -104 -98 -104 -4 0 -5 -9 -2 -20 4 -16 2 -19 -11 -14 -14 6 -19 -4 -15
-32 1 -11 -23 -22 -37 -17 -12 4 -12 45 1 103 11 49 -14 35 -38 -20 -13 -32
-26 -49 -34 -46 -17 7 -17 -26 -1 -42 9 -9 3 -12 -29 -12 -23 0 -54 5 -69 10
-20 8 -29 8 -34 -1 -9 -13 -15 -5 -24 33 -3 15 -2 30 4 33 6 3 8 -2 5 -12 -3
-10 0 -8 6 5 17 31 31 28 24 -5 -5 -26 -5 -27 5 -5 5 13 17 33 26 45 15 22 15
21 9 -8 -5 -21 1 -15 18 21 14 28 30 55 36 58 16 10 14 1 -8 -42 -17 -34 -25
-68 -22 -99 2 -21 21 -15 21 6 0 27 11 52 20 46 5 -3 6 5 3 17 -4 19 -3 20 6
8 7 -10 11 -11 11 -3 0 7 14 28 31 48 25 28 38 35 68 35 32 0 132 37 105 39
-7 1 -25 -6 -40 -14 -36 -19 -111 -19 -188 -1 l-59 14 -57 -60 -57 -61 -26 35
c-48 62 -105 199 -122 293 -21 107 -16 227 10 255 9 10 14 23 11 28 -3 5 -65
12 -138 16 -73 4 -149 8 -168 10 -19 2 -73 0 -120 -4z m70 -20 c-8 -5 -22 -9
-30 -9 -10 0 -8 3 5 9 27 12 43 12 25 0z m-53 -6 c-3 -3 -12 -4 -19 -1 -8 3
-5 6 6 6 11 1 17 -2 13 -5z m276 -365 c31 -29 43 -54 83 -179 26 -80 53 -152
61 -161 15 -18 17 -45 3 -54 -6 -4 -7 1 -3 11 4 12 3 15 -5 10 -7 -4 -12 -12
-12 -17 0 -15 -20 -31 -74 -59 -27 -13 -44 -26 -37 -28 20 -7 118 45 137 72
11 15 27 37 36 49 l17 22 1 -24 c0 -30 -159 -192 -210 -214 -30 -12 -38 -13
-57 -1 -26 16 -37 18 -29 5 4 -5 -3 -7 -14 -4 -25 7 -16 23 13 23 12 0 30 7
40 14 16 12 16 14 1 20 -8 3 -28 6 -43 6 -24 0 -31 7 -45 43 -9 23 -16 50 -16
59 0 9 -7 23 -15 31 -13 13 -13 17 1 28 10 8 11 14 4 19 -6 4 -12 21 -13 38
-1 18 -6 32 -10 32 -5 0 -5 9 -2 20 4 13 -1 34 -14 56 -12 19 -17 33 -12 30 5
-3 11 3 14 14 3 13 0 20 -8 20 -9 0 -13 11 -12 33 2 34 12 49 40 60 9 3 17 11
17 17 0 5 9 10 21 10 11 0 17 -4 14 -10 -3 -5 1 -10 9 -10 17 0 17 20 1 32 -5
4 0 8 13 8 12 0 22 4 22 9 0 19 49 1 83 -30z m-259 -66 c-16 -51 -24 -65 -24
-39 0 18 26 86 34 86 2 0 -2 -21 -10 -47z m-44 -18 c0 -18 -33 -78 -37 -67 -6
16 16 72 28 72 5 0 9 -2 9 -5z m5 -110 c14 -14 25 -28 25 -30 0 -12 -22 -3
-40 15 -18 18 -27 40 -15 40 2 0 16 -11 30 -25z m872 -147 c-3 -8 -6 -5 -6 6
-1 11 2 17 5 13 3 -3 4 -12 1 -19z m298 -7 c3 -6 -3 -9 -14 -8 -11 0 -17 5
-15 9 7 11 22 10 29 -1z m-604 -14 c-5 -5 -17 -5 -28 2 -16 9 -15 10 9 9 16
-2 24 -6 19 -11z m89 -7 c-13 -9 -13 -10 0 -11 8 0 24 -2 35 -4 11 -2 55 -6
97 -8 90 -6 98 -10 98 -42 0 -13 4 -26 9 -30 5 -3 7 -22 4 -42 -4 -26 -3 -34
5 -29 8 5 12 -1 12 -16 0 -17 -6 -24 -23 -25 -34 -3 -51 -8 -67 -18 -8 -5 -25
-8 -38 -6 -47 6 -132 -38 -132 -69 0 -5 -7 -10 -16 -10 -8 0 -12 -4 -9 -10 3
-5 2 -10 -4 -10 -17 0 -24 22 -10 31 9 6 10 9 2 9 -6 0 -15 -5 -19 -11 -4 -7
-22 -9 -45 -6 -22 3 -37 1 -33 -4 3 -5 -2 -9 -10 -9 -9 0 -16 3 -16 8 0 4 -16
8 -35 9 -20 1 -33 -3 -30 -8 4 -5 -3 -6 -17 0 -13 4 -44 11 -70 15 -26 4 -50
12 -54 17 -3 6 -18 15 -32 22 l-27 11 27 4 c15 2 37 -2 50 -9 17 -9 23 -9 26
0 3 8 8 9 16 2 8 -7 24 -4 51 9 22 10 49 21 60 25 16 5 17 8 5 16 -11 7 -7 8
13 3 31 -7 35 2 10 23 -17 14 -17 14 0 9 9 -3 17 -1 17 4 0 6 -8 10 -18 10
-15 0 -19 7 -17 34 1 18 10 44 19 57 9 13 16 29 16 36 0 9 19 13 66 13 41 0
63 4 59 10 -3 6 4 10 17 10 18 0 20 -2 8 -10z m-517 -81 c3 -24 1 -36 -7 -36
-11 0 -12 14 -7 66 2 22 8 10 14 -30z m27 -99 c0 -5 -4 -10 -10 -10 -5 0 -10
5 -10 10 0 6 5 10 10 10 6 0 10 -4 10 -10z m-1090 -13 c0 -13 -146 -54 -156
-44 -3 3 9 8 27 12 17 4 50 16 73 26 49 22 56 23 56 6z m1324 -14 c3 -7 1 -11
-4 -8 -5 3 -20 0 -32 -6 -21 -11 -22 -11 -9 5 20 24 8 29 -17 6 -22 -21 -32
-25 -32 -12 0 14 52 40 71 35 10 -3 20 -12 23 -20z m41 7 c-3 -5 -11 -10 -16
-10 -6 0 -7 5 -4 10 3 6 11 10 16 10 6 0 7 -4 4 -10z m326 -90 c6 0 7 -4 4
-10 -10 -15 -32 -12 -39 6 -5 12 -2 15 10 10 8 -3 20 -6 25 -6z m-57 -24 c-7
-17 -34 -22 -34 -6 0 6 7 10 15 10 8 0 15 5 15 12 0 6 2 9 5 6 3 -3 3 -13 -1
-22z m-314 -12 c0 -2 -11 -4 -25 -4 -14 0 -25 4 -25 9 0 4 11 6 25 3 14 -2 25
-6 25 -8z m210 -14 c12 -8 9 -10 -13 -10 -16 0 -26 4 -22 10 8 12 16 12 35 0z
m-40 -80 c0 -5 -4 -10 -10 -10 -5 0 -10 5 -10 10 0 6 5 10 10 10 6 0 10 -4 10
-10z m-470 -10 c0 -5 -5 -10 -11 -10 -5 0 -7 5 -4 10 3 6 8 10 11 10 2 0 4 -4
4 -10z m430 -20 c0 -5 -7 -10 -15 -10 -8 0 -15 5 -15 10 0 6 7 10 15 10 8 0
15 -4 15 -10z m40 -11 c0 -5 -4 -9 -10 -9 -5 0 -10 7 -10 16 0 8 5 12 10 9 6
-3 10 -10 10 -16z m-1740 -51 c-1 -30 -3 -38 -9 -28 -8 14 -4 70 5 70 2 0 4
-19 4 -42z m373 27 c-3 -9 -8 -14 -10 -11 -3 3 -2 9 2 15 9 16 15 13 8 -4z
m-264 -44 c-15 -41 -22 -34 -13 14 4 21 10 33 15 28 6 -6 5 -23 -2 -42z m241
45 c0 -3 -4 -8 -10 -11 -5 -3 -10 -1 -10 4 0 6 5 11 10 11 6 0 10 -2 10 -4z
m285 -26 c3 -5 2 -10 -4 -10 -5 0 -13 5 -16 10 -3 6 -2 10 4 10 5 0 13 -4 16
-10z m-535 -69 c13 -11 12 -12 -8 -1 -22 11 -23 10 -17 -9 8 -27 -1 -42 -21
-34 -13 5 -13 7 -2 14 11 7 10 11 -2 19 -13 9 -13 12 2 24 10 7 17 15 15 17
-1 2 3 0 8 -6 6 -5 17 -16 25 -24z m96 -56 c-9 -14 -23 -36 -32 -50 -9 -14
-19 -24 -21 -21 -8 7 52 96 65 96 2 0 -3 -11 -12 -25z m-139 -27 c-3 -8 -6 -5
-6 6 -1 11 2 17 5 13 3 -3 4 -12 1 -19z m-23 -33 c6 -17 4 -18 -18 -9 -20 8
-21 24 -2 24 8 0 16 -7 20 -15z"/>
<path d="M2023 1483 c9 -2 23 -2 30 0 6 3 -1 5 -18 5 -16 0 -22 -2 -12 -5z"/>
<path d="M2151 994 c-32 -14 -60 -40 -61 -57 0 -11 27 5 74 42 42 34 39 38
-13 15z"/>
<path d="M5518 1873 c7 -3 16 -2 19 1 4 3 -2 6 -13 5 -11 0 -14 -3 -6 -6z"/>
<path d="M6349 1850 c-7 -35 -4 -48 7 -38 3 4 4 21 2 40 l-3 33 -6 -35z"/>
<path d="M5425 1851 c-53 -25 -43 -26 20 -1 28 10 43 19 35 19 -8 0 -33 -8
-55 -18z"/>
<path d="M8928 1857 c-7 -8 -20 -12 -28 -9 -12 4 -13 2 -2 -9 10 -11 16 -9 34
9 12 12 20 22 16 22 -4 0 -13 -6 -20 -13z"/>
<path d="M5165 1840 c17 -4 46 -8 65 -8 l35 0 -30 8 c-16 4 -46 8 -65 8 l-35
0 30 -8z"/>
<path d="M5270 1832 c0 -5 12 -14 27 -21 l27 -12 -37 -35 c-20 -19 -40 -46
-43 -60 -6 -23 -9 -24 -118 -26 l-111 -2 115 -5 115 -6 12 35 c13 36 74 101
107 113 10 4 16 10 13 13 -3 3 -15 1 -26 -5 -16 -9 -28 -8 -51 4 -16 9 -30 12
-30 7z"/>
<path d="M2278 1813 c-8 -10 -18 -25 -21 -34 -4 -13 -1 -16 15 -11 11 3 24 -1
29 -9 5 -9 6 2 2 26 -7 50 -7 49 -25 28z"/>
<path d="M6200 1820 c0 -14 15 -19 29 -11 9 6 7 10 -8 14 -12 3 -21 1 -21 -3z"/>
<path d="M4895 1810 c-3 -5 -1 -10 4 -10 6 0 11 5 11 10 0 6 -2 10 -4 10 -3 0
-8 -4 -11 -10z"/>
<path d="M3792 1770 c0 -19 2 -27 5 -17 2 9 2 25 0 35 -3 9 -5 1 -5 -18z"/>
<path d="M4852 1790 c-13 -6 -38 -21 -55 -34 -30 -23 -33 -24 -34 -6 -1 10 6
21 15 23 13 4 12 5 -3 6 -29 1 -48 -19 -33 -36 15 -19 8 -23 -43 -26 -24 -1
-47 -6 -50 -10 -3 -4 -32 6 -63 23 -32 16 -65 30 -75 30 -9 0 9 -12 39 -26 30
-15 62 -32 70 -39 11 -10 28 -11 70 -3 30 6 60 13 66 17 36 21 124 82 124 86
0 6 1 6 -28 -5z"/>
<path d="M9326 1765 c7 -43 20 -65 38 -65 6 0 3 5 -6 11 -10 5 -18 22 -18 37
0 15 -5 34 -11 42 -7 11 -8 4 -3 -25z"/>
<path d="M6335 1774 c-4 -12 -21 -25 -40 -31 -30 -10 -34 -8 -44 15 -16 34
-25 21 -9 -14 6 -16 12 -30 13 -31 2 -5 77 25 86 34 6 6 9 19 6 29 -4 18 -5
17 -12 -2z"/>
<path d="M5780 1776 c0 -2 8 -10 18 -17 15 -13 16 -12 3 4 -13 16 -21 21 -21
13z"/>
<path d="M41 1766 c8 -8 98 -10 105 -3 4 4 -19 7 -51 7 -32 0 -56 -2 -54 -4z"/>
<path d="M2460 1762 c0 -4 14 -13 30 -19 21 -8 30 -18 30 -33 0 -29 24 -20 28
10 3 15 -3 29 -14 37 -19 14 -74 18 -74 5z"/>
<path d="M3750 1761 c0 -6 4 -13 10 -16 6 -3 7 1 4 9 -7 18 -14 21 -14 7z"/>
<path d="M3815 1730 c-4 -11 -10 -18 -15 -15 -4 3 -6 -5 -2 -17 3 -14 1 -19
-6 -14 -8 5 -10 2 -6 -9 4 -9 7 -15 8 -13 17 24 43 88 37 88 -6 0 -13 -9 -16
-20z"/>
<path d="M3923 1737 c23 -19 22 -30 -3 -17 -28 15 -37 6 -32 -28 3 -23 0 -30
-17 -35 -12 -3 -21 0 -21 6 0 6 -3 7 -7 3 -5 -4 -8 -13 -8 -19 0 -7 -15 -19
-32 -27 -18 -8 -33 -18 -33 -22 0 -7 192 81 242 112 l31 18 -49 7 c-27 4 -58
9 -69 11 -19 5 -19 4 -2 -9z"/>
<path d="M4610 1740 c0 -5 5 -10 11 -10 5 0 7 5 4 10 -3 6 -8 10 -11 10 -2 0
-4 -4 -4 -10z"/>
<path d="M4690 1740 c20 -13 43 -13 35 0 -3 6 -16 10 -28 10 -18 0 -19 -2 -7
-10z"/>
<path d="M8725 1730 c-3 -5 -1 -10 4 -10 6 0 11 5 11 10 0 6 -2 10 -4 10 -3 0
-8 -4 -11 -10z"/>
<path d="M471 1664 c-18 -25 -30 -49 -27 -52 3 -3 7 -3 9 -1 10 13 57 99 54
99 -2 0 -18 -21 -36 -46z"/>
<path d="M3860 1680 c0 -5 5 -10 11 -10 5 0 7 5 4 10 -3 6 -8 10 -11 10 -2 0
-4 -4 -4 -10z"/>
<path d="M421 1663 c-1 -13 -5 -23 -10 -23 -5 0 -6 -10 -3 -22 5 -21 7 -20 14
10 5 19 7 39 4 45 -2 7 -5 2 -5 -10z"/>
<path d="M2251 1664 c0 -11 3 -14 6 -6 3 7 2 16 -1 19 -3 4 -6 -2 -5 -13z"/>
<path d="M2883 1673 c-8 -3 -13 -22 -13 -46 0 -41 0 -41 20 -22 34 35 29 83
-7 68z"/>
<path d="M4181 1645 c35 -22 61 -47 69 -65 7 -17 15 -29 19 -27 75 40 169 67
236 67 21 0 35 6 39 16 5 13 2 15 -16 9 -13 -4 -52 -11 -88 -16 -36 -5 -78
-14 -93 -20 -15 -7 -30 -9 -34 -5 -3 3 1 6 10 6 9 0 14 6 11 13 -7 19 -37 35
-79 43 -33 6 -37 5 -32 -10 8 -20 -2 -21 -28 -2 -11 7 -31 16 -45 20 -14 4 0
-9 31 -29z m79 -25 c0 -5 -2 -10 -4 -10 -3 0 -8 5 -11 10 -3 6 -1 10 4 10 6 0
11 -4 11 -10z"/>
<path d="M2493 1653 c-18 -7 -16 -23 2 -23 8 0 15 7 15 15 0 8 -1 15 -2 14 -2
0 -9 -3 -15 -6z"/>
<path d="M9040 1656 c0 -2 7 -7 16 -10 8 -3 12 -2 9 4 -6 10 -25 14 -25 6z"/>
<path d="M545 1640 c-3 -5 -1 -10 4 -10 6 0 11 5 11 10 0 6 -2 10 -4 10 -3 0
-8 -4 -11 -10z"/>
<path d="M9115 1639 c-4 -6 -14 -8 -24 -4 -13 5 -14 4 -3 -6 10 -11 15 -10 29
4 10 9 14 17 11 17 -4 0 -10 -5 -13 -11z"/>
<path d="M3720 1631 c0 -5 5 -13 10 -16 6 -3 10 -2 10 4 0 5 -4 13 -10 16 -5
3 -10 2 -10 -4z"/>
<path d="M4848 1624 c-16 -8 -28 -17 -28 -20 0 -2 12 2 28 9 15 8 34 17 42 20
13 5 13 5 0 6 -8 0 -27 -7 -42 -15z"/>
<path d="M6271 1624 c0 -11 3 -14 6 -6 3 7 2 16 -1 19 -3 4 -6 -2 -5 -13z"/>
<path d="M6321 1612 c-1 -18 -6 -42 -11 -53 -7 -12 -7 -25 -1 -36 7 -13 11 -4
16 39 4 31 5 63 2 70 -3 7 -6 -2 -6 -20z"/>
<path d="M2726 1618 c-29 -16 -17 -23 38 -23 40 0 52 3 45 11 -13 16 -64 23
-83 12z"/>
<path d="M5695 1590 c-21 -22 -37 -42 -34 -44 2 -2 21 16 42 40 48 55 44 57
-8 4z"/>
<path d="M510 1590 c-8 -5 -12 -12 -9 -15 4 -3 12 1 19 10 14 17 11 19 -10 5z"/>
<path d="M2585 1589 c-4 -6 -5 -12 -2 -15 2 -3 7 2 10 11 7 17 1 20 -8 4z"/>
<path d="M6275 1580 c10 -11 20 -20 22 -20 2 0 -1 9 -7 20 -6 11 -16 20 -22
20 -6 0 -3 -9 7 -20z"/>
<path d="M9345 1591 c-6 -5 -39 -12 -74 -15 -35 -3 -67 -9 -73 -12 -5 -3 -21
2 -36 11 -25 15 -25 15 3 -9 20 -17 37 -23 51 -20 21 5 117 8 158 5 29 -3 32
7 8 29 -24 23 -25 23 -37 11z"/>
<path d="M4651 1577 c2 -1 15 -11 29 -22 l25 -20 -19 23 c-11 12 -24 22 -29
22 -6 0 -8 -1 -6 -3z"/>
<path d="M5490 1574 c0 -16 36 -33 51 -23 11 7 9 9 -6 9 -12 0 -26 5 -33 12
-7 7 -12 8 -12 2z"/>
<path d="M3660 1567 c0 -2 15 -16 33 -33 l32 -29 -29 33 c-28 30 -36 37 -36
29z"/>
<path d="M3706 1557 c3 -10 9 -15 12 -12 3 3 0 11 -7 18 -10 9 -11 8 -5 -6z"/>
<path d="M2542 1548 c-15 -15 -15 -28 -1 -28 5 0 8 4 4 9 -3 6 3 14 12 20 10
6 13 11 8 11 -6 0 -16 -5 -23 -12z"/>
<path d="M2755 1539 c-10 -15 3 -25 16 -12 7 7 7 13 1 17 -6 3 -14 1 -17 -5z"/>
<path d="M4700 1520 c0 -5 5 -10 11 -10 5 0 7 5 4 10 -3 6 -8 10 -11 10 -2 0
-4 -4 -4 -10z"/>
<path d="M2464 1485 c-3 -14 -4 -29 0 -32 3 -4 6 3 6 15 0 22 0 22 40 -4 22
-15 43 -24 47 -20 3 3 1 6 -5 6 -6 0 -27 14 -46 31 l-35 30 -7 -26z"/>
<path d="M2550 1505 c0 -2 9 -9 19 -15 14 -7 22 -7 27 2 4 6 3 8 -4 4 -6 -3
-13 -2 -17 4 -6 10 -25 14 -25 5z"/>
<path d="M4410 1489 c38 -17 56 -19 120 -13 85 7 117 18 77 26 -15 3 -24 2
-22 -2 2 -4 -27 -10 -66 -14 -53 -5 -77 -3 -99 9 -16 8 -35 15 -42 15 -7 0 7
-10 32 -21z"/>
<path d="M5559 1495 c14 -30 40 -61 41 -50 0 6 -12 24 -26 40 -14 17 -21 21
-15 10z"/>
<path d="M5631 1503 c-1 -6 -4 -20 -7 -30 -5 -17 -5 -17 6 0 6 10 9 23 6 30
-3 9 -5 9 -5 0z"/>
<path d="M9210 1501 c0 -6 4 -13 10 -16 6 -3 7 1 4 9 -7 18 -14 21 -14 7z"/>
<path d="M4648 1483 c7 -3 16 -2 19 1 4 3 -2 6 -13 5 -11 0 -14 -3 -6 -6z"/>
<path d="M4690 1480 c-8 -5 -12 -12 -9 -15 4 -3 12 1 19 10 14 17 11 19 -10 5z"/>
<path d="M959 1463 c-13 -16 -12 -17 4 -4 9 7 17 15 17 17 0 8 -8 3 -21 -13z"/>
<path d="M3707 1469 c7 -7 15 -10 18 -7 3 3 -2 9 -12 12 -14 6 -15 5 -6 -5z"/>
<path d="M4277 1453 c-4 -6 -1 -14 5 -16 7 -3 1 -4 -14 -4 -15 1 -26 -1 -25
-6 3 -10 -44 -34 -66 -34 -9 0 -17 4 -17 9 0 4 7 8 16 8 27 0 9 24 -23 31 -47
9 -92 -1 -98 -22 -4 -11 -11 -17 -16 -13 -6 3 -17 0 -26 -8 -14 -11 -16 -11
-11 3 5 12 0 14 -26 11 -17 -3 -36 -9 -43 -14 -7 -5 -22 -7 -35 -4 -13 3 -17
3 -10 0 26 -12 10 -22 -24 -14 -22 5 -51 4 -77 -4 -39 -11 -42 -14 -40 -46 1
-19 -1 -27 -3 -17 -3 10 -11 29 -18 43 -13 24 -13 24 -19 -13 -4 -21 -9 -49
-13 -63 -5 -25 -5 -25 52 -21 45 2 66 10 103 36 54 38 189 75 275 75 31 0 64
5 74 10 9 6 51 24 92 41 53 21 64 28 38 24 -24 -4 -38 -1 -40 7 -3 8 -6 9 -11
1z m-152 -63 c-7 -12 -65 -10 -65 2 0 4 16 8 36 8 21 0 33 -4 29 -10z m-290
-80 c-3 -5 -11 -10 -16 -10 -6 0 -7 5 -4 10 3 6 11 10 16 10 6 0 7 -4 4 -10z"/>
<path d="M8095 1430 c-9 -16 -14 -30 -12 -30 2 0 13 14 25 30 13 17 18 30 13
30 -6 0 -17 -13 -26 -30z"/>
<path d="M5606 1435 c-9 -24 5 -41 16 -20 7 11 7 20 0 27 -6 6 -12 3 -16 -7z"/>
<path d="M9244 1421 c4 -19 7 -35 9 -36 9 -6 147 9 147 16 0 5 -3 8 -7 7 -5
-2 -18 7 -31 20 -19 19 -26 21 -43 11 -15 -8 -19 -8 -15 0 10 15 -17 14 -32
-1 -10 -10 -15 -10 -23 2 -8 11 -9 6 -5 -19z m46 -17 c0 -2 -7 -4 -15 -4 -8 0
-15 4 -15 10 0 5 7 7 15 4 8 -4 15 -8 15 -10z"/>
<path d="M2470 1431 c0 -6 4 -13 10 -16 6 -3 7 1 4 9 -7 18 -14 21 -14 7z"/>
<path d="M8038 1433 c6 -2 18 -2 25 0 6 3 1 5 -13 5 -14 0 -19 -2 -12 -5z"/>
<path d="M2550 1418 c0 -9 -6 -19 -12 -21 -10 -4 -10 -6 0 -6 14 -1 28 26 18
36 -3 4 -6 -1 -6 -9z"/>
<path d="M4654 1407 c-3 -9 -25 -27 -47 -41 -23 -13 -53 -37 -67 -52 -21 -24
-19 -23 14 5 22 18 52 38 68 43 28 10 55 44 44 55 -3 3 -8 -1 -12 -10z"/>
<path d="M6180 1314 c32 -34 53 -49 72 -50 29 -1 32 4 42 66 6 32 5 33 -5 10
-6 -14 -15 -35 -20 -48 -11 -27 -45 -26 -43 1 1 9 -2 15 -6 12 -5 -3 -11 -1
-15 4 -3 6 -20 20 -38 33 -28 19 -26 16 13 -28z"/>
<path d="M8028 1326 c-19 -14 -23 -26 -10 -26 4 0 13 9 20 20 14 23 13 24 -10
6z"/>
<path d="M5909 1301 l-22 -30 -38 20 c-59 30 -59 23 0 -16 61 -40 64 -41 56
-17 -3 11 3 30 16 45 11 15 18 27 15 27 -3 0 -15 -13 -27 -29z"/>
<path d="M875 1303 c-14 -33 -23 -83 -16 -83 4 0 13 21 18 47 12 50 11 67 -2
36z"/>
<path d="M2356 1307 c3 -10 9 -15 12 -12 3 3 0 11 -7 18 -10 9 -11 8 -5 -6z"/>
<path d="M210 1281 c-7 -18 -9 -46 -5 -75 l7 -46 -26 10 c-36 13 -93 13 -102
-1 -3 -6 6 -23 21 -39 l26 -27 -28 -8 -28 -7 38 -35 c21 -19 37 -36 35 -37 -2
-1 -20 -13 -40 -25 -47 -28 -41 -49 15 -54 l42 -3 -32 -8 c-34 -9 -71 -41 -60
-53 4 -3 33 -9 65 -11 l57 -5 -48 -14 c-52 -15 -60 -33 -22 -53 31 -17 31 -24
0 -38 -14 -6 -25 -16 -25 -22 0 -17 15 -11 40 15 32 34 48 18 49 -51 0 -30 4
-62 9 -71 8 -14 12 -13 31 6 23 23 43 28 36 9 -8 -22 11 -41 30 -31 28 16 60
4 80 -30 11 -19 20 -26 23 -18 2 7 -1 18 -7 24 -17 17 -13 27 12 27 28 0 147
69 147 86 0 18 -22 30 -52 29 l-26 -1 30 39 c33 42 28 57 -19 57 -30 0 -29 8
4 42 31 33 24 47 -26 51 l-33 2 33 27 c43 37 28 54 -44 51 -48 -2 -50 -2 -26
11 31 16 69 48 69 58 0 5 -20 8 -45 8 l-44 0 24 24 c14 14 33 29 42 35 16 9
15 11 -9 20 -15 6 -33 9 -40 7 -7 -3 -28 -7 -47 -10 l-35 -6 21 22 c21 23 43
61 43 74 0 14 -65 -7 -87 -28 l-23 -21 0 30 c0 35 -18 93 -30 93 -4 0 -13 -13
-20 -29z m30 -26 c0 -8 -2 -15 -4 -15 -2 0 -6 7 -10 15 -3 8 -1 15 4 15 6 0
10 -7 10 -15z m100 -171 c0 -8 -4 -12 -10 -9 -5 3 -10 10 -10 16 0 5 5 9 10 9
6 0 10 -7 10 -16z m-5 -44 c3 -5 1 -10 -4 -10 -6 0 -11 5 -11 10 0 6 2 10 4
10 3 0 8 -4 11 -10z m-15 -34 c0 -3 -4 -8 -10 -11 -5 -3 -10 -1 -10 4 0 6 5
11 10 11 6 0 10 -2 10 -4z m0 -41 c-7 -8 -17 -12 -22 -9 -6 4 -5 10 3 15 22
14 33 10 19 -6z m-184 -13 c-10 -2 -22 0 -28 6 -6 6 0 7 19 4 21 -5 23 -7 9
-10z m144 3 c0 -10 -10 -15 -27 -15 l-28 1 25 14 c31 18 30 18 30 0z m-87 -45
c-3 -11 -10 -23 -16 -27 -6 -3 -7 -1 -3 5 4 7 1 12 -8 12 -9 0 -16 -6 -16 -14
0 -9 -8 -12 -25 -8 -27 5 -25 22 3 22 13 0 42 12 69 29 0 1 -1 -8 -4 -19z
m107 -39 c0 -14 -6 -17 -25 -13 -24 4 -24 5 -8 18 25 18 33 17 33 -5z m45 9
c-3 -5 -10 -10 -16 -10 -5 0 -9 5 -9 10 0 6 7 10 16 10 8 0 12 -4 9 -10z m1
-45 c4 -8 10 -12 15 -9 5 3 9 -2 9 -10 0 -14 -3 -14 -20 -4 -22 14 -35 38 -19
38 5 0 12 -7 15 -15z m4 -45 c0 -5 -5 -10 -11 -10 -5 0 -7 5 -4 10 3 6 8 10
11 10 2 0 4 -4 4 -10z m-40 -13 c0 -9 -11 -12 -37 -8 -35 4 -36 5 -13 12 39
11 50 10 50 -4z m60 -67 c0 -5 -4 -10 -10 -10 -5 0 -10 5 -10 10 0 6 5 10 10
10 6 0 10 -4 10 -10z m-50 -14 c0 -9 -7 -12 -20 -9 -11 3 -17 9 -14 14 8 14
34 10 34 -5z"/>
<path d="M5050 1300 c0 -5 5 -10 11 -10 5 0 7 5 4 10 -3 6 -8 10 -11 10 -2 0
-4 -4 -4 -10z"/>
<path d="M5268 1294 c-39 -21 -35 -28 5 -8 37 19 44 24 31 24 -5 -1 -21 -8
-36 -16z"/>
<path d="M5076 1255 c4 -8 11 -15 16 -15 6 0 5 6 -2 15 -7 8 -14 15 -16 15 -2
0 -1 -7 2 -15z"/>
<path d="M5155 1215 c-47 -41 -50 -43 -53 -22 -2 12 -8 27 -14 32 -6 7 -7 0
-2 -20 4 -16 7 -39 6 -49 -1 -16 3 -15 26 10 15 16 45 44 67 62 22 17 35 32
30 32 -6 0 -33 -20 -60 -45z"/>
<path d="M4325 1240 c-16 -7 -11 -9 20 -9 29 -1 36 2 25 9 -17 11 -19 11 -45
0z"/>
<path d="M3680 1201 c0 -25 6 -27 13 -6 4 8 2 17 -3 20 -6 4 -10 -3 -10 -14z"/>
<path d="M8038 1190 c5 -35 2 -34 38 -14 l29 16 -27 -6 c-23 -5 -28 -3 -28 14
0 11 -4 20 -8 20 -5 0 -7 -13 -4 -30z"/>
<path d="M8135 1204 l-30 -14 30 6 c17 3 34 10 40 15 14 13 -5 11 -40 -7z"/>
<path d="M8538 1213 c7 -3 16 -2 19 1 4 3 -2 6 -13 5 -11 0 -14 -3 -6 -6z"/>
<path d="M8635 1174 c39 -20 77 -42 85 -49 11 -10 26 -12 55 -5 22 5 80 7 128
6 51 -2 83 0 75 5 -7 5 -41 9 -75 9 -34 0 -64 4 -68 9 -7 12 -65 11 -65 -1 0
-4 -5 -8 -11 -8 -6 0 -9 6 -6 14 4 9 -2 14 -19 14 -13 0 -21 -5 -18 -10 4 -6
-4 -3 -18 6 -21 13 -113 46 -128 46 -3 -1 27 -17 65 -36z"/>
<path d="M3980 1174 c0 -6 9 -19 19 -28 15 -14 24 -15 40 -6 12 6 21 13 21 16
0 2 -9 0 -20 -6 -17 -9 -24 -7 -40 12 -11 13 -19 18 -20 12z"/>
<path d="M3678 1131 c-2 -22 -2 -44 0 -49 1 -5 33 -1 70 10 37 10 96 23 132
28 l65 9 -75 -4 c-41 -2 -97 -11 -125 -20 -27 -8 -52 -15 -54 -15 -2 0 -1 18
2 40 3 22 1 40 -3 40 -4 0 -10 -18 -12 -39z"/>
<path d="M7989 1123 c-13 -16 -12 -17 4 -4 16 13 21 21 13 21 -2 0 -10 -8 -17
-17z"/>
<path d="M4293 1120 c-13 -5 -23 -14 -23 -20 0 -17 -28 -11 -39 8 -10 16 -10
16 -11 -2 0 -12 -5 -16 -16 -12 -8 3 -12 2 -9 -4 8 -12 11 -13 -55 5 -61 16
-78 14 -28 -4 18 -6 72 -31 119 -55 86 -43 87 -43 110 -25 13 11 54 29 92 41
37 12 67 24 67 27 -1 16 -19 30 -45 36 -28 6 -36 7 -67 4 -7 -1 -26 2 -43 5
-16 3 -40 1 -52 -4z"/>
<path d="M9030 1120 c-13 -8 -13 -10 2 -10 9 0 20 5 23 10 8 13 -5 13 -25 0z"/>
<path d="M6710 1107 c0 -2 13 -13 30 -25 l29 -22 48 19 c26 11 40 20 31 20 -9
1 -29 -4 -43 -11 -20 -9 -31 -8 -53 2 -41 21 -42 21 -42 17z"/>
<path d="M756 1060 c-3 -22 -11 -40 -18 -40 -6 0 -9 -2 -7 -5 3 -2 15 -2 27 2
17 4 20 9 12 18 -8 9 -8 15 0 20 12 8 14 45 1 45 -5 0 -11 -18 -15 -40z"/>
<path d="M810 1070 c0 -11 4 -20 9 -20 5 0 7 9 4 20 -3 11 -7 20 -9 20 -2 0
-4 -9 -4 -20z"/>
<path d="M7380 1086 c0 -2 8 -10 18 -17 15 -13 16 -12 3 4 -13 16 -21 21 -21
13z"/>
<path d="M7926 1063 c-14 -14 -24 -28 -21 -31 3 -3 6 -3 8 -1 1 2 13 16 26 32
31 35 22 35 -13 0z"/>
<path d="M2978 1073 c7 -3 16 -2 19 1 4 3 -2 6 -13 5 -11 0 -14 -3 -6 -6z"/>
<path d="M9230 1066 c0 -2 9 -6 20 -9 11 -3 20 -1 20 4 0 5 -9 9 -20 9 -11 0
-20 -2 -20 -4z"/>
<path d="M7006 1052 c-3 -5 -55 -9 -115 -8 -67 1 -106 -3 -101 -8 5 -5 38 -8
72 -7 35 1 75 -2 89 -8 21 -8 31 -5 55 14 16 14 24 24 17 25 -6 0 -14 -4 -17
-8z"/>
<path d="M7758 1053 c7 -3 16 -2 19 1 4 3 -2 6 -13 5 -11 0 -14 -3 -6 -6z"/>
<path d="M8785 1052 c11 -5 49 -12 85 -15 37 -3 56 -2 45 2 -11 5 -49 11 -85
15 -39 4 -57 3 -45 -2z"/>
<path d="M8975 1050 c3 -5 8 -10 11 -10 2 0 4 5 4 10 0 6 -5 10 -11 10 -5 0
-7 -4 -4 -10z"/>
<path d="M790 1040 c0 -5 5 -10 11 -10 5 0 7 5 4 10 -3 6 -8 10 -11 10 -2 0
-4 -4 -4 -10z"/>
<path d="M9335 1037 c22 -8 42 -12 44 -10 8 6 -5 11 -44 17 l-40 6 40 -13z"/>
<path d="M7480 989 l42 -56 47 25 c27 14 74 28 116 33 l70 8 -70 -3 c-47 -2
-84 -10 -112 -24 -32 -17 -44 -19 -50 -9 -5 6 -26 28 -47 47 l-39 35 43 -56z"/>
<path d="M8940 1026 c0 -2 21 -17 48 -34 46 -28 49 -29 127 -20 78 9 233 5
271 -8 15 -5 16 -4 4 5 -27 18 -300 36 -300 19 0 -18 -19 -6 -22 14 -2 12 -10
23 -18 25 -12 4 -12 3 -1 -5 8 -6 9 -12 3 -16 -6 -3 -14 -2 -17 4 -5 8 -11 8
-20 0 -11 -9 -20 -8 -37 4 -22 15 -38 20 -38 12z m110 -48 c0 -6 -7 -5 -15 2
-8 7 -15 17 -15 22 0 6 7 5 15 -2 8 -7 15 -17 15 -22z"/>
<path d="M3017 999 c5 -18 3 -21 -12 -15 -15 5 -16 4 -5 -9 14 -17 6 -22 -44
-27 -36 -4 -48 -28 -14 -28 19 0 20 2 8 11 -12 8 -8 10 15 8 49 -2 52 0 59 31
8 44 8 44 -2 48 -6 2 -8 -6 -5 -19z"/>
<path d="M6018 993 c7 -3 16 -2 19 1 4 3 -2 6 -13 5 -11 0 -14 -3 -6 -6z"/>
<path d="M6185 990 c4 -6 11 -8 16 -5 14 9 11 15 -7 15 -8 0 -12 -5 -9 -10z"/>
<path d="M6822 980 c9 -14 21 -42 28 -62 10 -34 40 -54 40 -27 0 6 14 31 32
57 25 37 26 43 9 27 -13 -11 -30 -33 -39 -50 l-15 -30 -17 40 c-9 22 -25 47
-35 55 -18 14 -18 14 -3 -10z"/>
<path d="M565 980 c-3 -5 -1 -10 4 -10 6 0 11 5 11 10 0 6 -2 10 -4 10 -3 0
-8 -4 -11 -10z"/>
<path d="M4118 973 c6 -2 18 -2 25 0 6 3 1 5 -13 5 -14 0 -19 -2 -12 -5z"/>
<path d="M6091 966 c10 -9 89 -46 89 -41 0 5 -75 45 -86 45 -4 0 -5 -2 -3 -4z"/>
<path d="M7821 967 c2 -1 13 -9 24 -17 19 -14 19 -14 6 3 -7 9 -18 17 -24 17
-6 0 -8 -1 -6 -3z"/>
<path d="M1094 938 l-19 -23 25 20 c14 11 27 21 29 22 2 2 0 3 -6 3 -5 0 -18
-10 -29 -22z"/>
<path d="M4448 953 c7 -3 16 -2 19 1 4 3 -2 6 -13 5 -11 0 -14 -3 -6 -6z"/>
<path d="M4500 950 c0 -5 5 -10 10 -10 6 0 10 5 10 10 0 6 -4 10 -10 10 -5 0
-10 -4 -10 -10z"/>
<path d="M4850 933 c-46 -18 -84 -26 -130 -26 -52 0 -55 -1 -17 -4 26 -2 47
-8 47 -14 0 -5 12 -3 28 4 15 8 57 24 95 36 64 22 82 32 55 30 -7 0 -42 -12
-78 -26z"/>
<path d="M5515 950 c-8 -13 5 -13 25 0 13 8 13 10 -2 10 -9 0 -20 -4 -23 -10z"/>
<path d="M5210 940 c8 -5 20 -10 25 -10 6 0 3 5 -5 10 -8 5 -19 10 -25 10 -5
0 -3 -5 5 -10z"/>
<path d="M5275 904 c17 -16 37 -40 46 -53 l15 -24 55 38 c96 68 81 67 -20 -1
l-34 -23 -21 31 c-12 17 -32 38 -46 46 -22 13 -21 12 5 -14z"/>
<path d="M4608 913 c6 -2 18 -2 25 0 6 3 1 5 -13 5 -14 0 -19 -2 -12 -5z"/>
<path d="M9100 917 c0 -2 14 -16 32 -33 l31 -29 -22 33 c-18 26 -41 42 -41 29z"/>
<path d="M4310 890 c-20 -6 -21 -8 -5 -8 11 0 34 4 50 8 27 7 27 8 5 8 -14 0
-36 -4 -50 -8z"/>
<path d="M4220 869 c-14 -6 -36 -8 -50 -6 -31 6 -80 -14 -108 -43 -20 -21 -49
-20 -36 2 4 6 -1 8 -13 4 -11 -4 -52 0 -92 9 -40 8 -96 14 -124 14 -45 -1 -41
-3 28 -10 44 -5 100 -15 125 -23 92 -29 108 -29 158 -3 26 13 73 32 105 41 31
9 57 19 57 21 0 8 -23 5 -50 -6z"/>
<path d="M4597 854 c-2 -2 -53 -7 -112 -10 -68 -3 -122 -11 -144 -22 -20 -8
-40 -16 -46 -17 -5 -1 -17 -5 -25 -8 -33 -12 -120 -28 -128 -24 -4 3 -14 2
-22 -3 -10 -6 -4 -10 21 -14 105 -16 126 -16 194 5 54 17 98 22 192 23 l123 1
29 35 28 35 -53 1 c-29 1 -55 0 -57 -2z"/>
<path d="M9168 834 c16 -31 39 -47 47 -34 4 6 26 8 58 5 42 -5 48 -4 34 5 -10
7 -37 10 -60 7 -33 -3 -47 1 -66 17 l-24 21 11 -21z"/>
<path d="M9350 824 c0 -8 5 -12 10 -9 6 4 8 11 5 16 -9 14 -15 11 -15 -7z"/>
<path d="M9385 820 c-3 -5 -1 -10 4 -10 6 0 11 5 11 10 0 6 -2 10 -4 10 -3 0
-8 -4 -11 -10z"/>
<path d="M22 797 c-29 -31 -28 -44 1 -17 l22 21 7 -23 c5 -20 6 -18 7 10 1 38
-8 40 -37 9z"/>
<path d="M1752 769 c-24 -23 -41 -44 -37 -47 3 -4 10 0 14 7 5 7 13 11 19 7 6
-3 14 -1 18 5 4 8 3 9 -4 5 -7 -4 -12 -3 -12 3 0 5 6 14 13 18 13 8 42 43 36
43 -2 0 -23 -19 -47 -41z"/>
<path d="M9330 801 c0 -4 16 -15 36 -24 21 -11 34 -13 32 -6 -4 13 -68 42 -68
30z"/>
<path d="M783 788 c-25 -12 -29 -23 -13 -33 6 -3 10 1 10 9 0 9 6 16 14 16 8
0 18 5 21 10 8 13 -3 12 -32 -2z"/>
<path d="M76 771 c-3 -5 1 -11 9 -15 9 -3 15 0 15 9 0 16 -16 20 -24 6z"/>
<path d="M920 775 c0 -5 5 -17 10 -25 5 -8 10 -10 10 -5 0 6 -5 17 -10 25 -5
8 -10 11 -10 5z"/>
<path d="M4000 770 c0 -5 7 -7 15 -4 8 4 15 8 15 10 0 2 -7 4 -15 4 -8 0 -15
-4 -15 -10z"/>
<path d="M850 760 c0 -8 5 -22 10 -30 9 -13 10 -13 10 0 0 8 -5 22 -10 30 -9
13 -10 13 -10 0z"/>
<path d="M6474 755 c-10 -8 -14 -14 -9 -14 6 0 19 6 29 14 11 8 15 15 10 15
-6 0 -19 -7 -30 -15z"/>
<path d="M9220 769 c0 -4 11 -32 25 -63 14 -32 27 -72 28 -89 2 -21 8 -31 17
-30 106 12 110 13 109 41 -2 24 -2 24 -6 5 -2 -13 -10 -23 -17 -23 -8 0 -27
-3 -43 -6 -27 -5 -31 -3 -37 21 -4 16 -3 32 2 37 15 15 2 49 -17 45 -10 -2
-25 11 -38 32 -13 20 -23 33 -23 30z m70 -89 c0 -5 -2 -10 -4 -10 -3 0 -8 5
-11 10 -3 6 -1 10 4 10 6 0 11 -4 11 -10z"/>
<path d="M3701 718 l-1 -38 20 20 c11 11 27 20 35 20 8 0 15 5 15 10 0 7 -6 7
-19 0 -28 -14 -39 -13 -44 8 -3 9 -5 0 -6 -20z"/>
<path d="M3785 740 c-3 -5 -1 -10 4 -10 6 0 11 5 11 10 0 6 -2 10 -4 10 -3 0
-8 -4 -11 -10z"/>
<path d="M3818 743 c7 -3 16 -2 19 1 4 3 -2 6 -13 5 -11 0 -14 -3 -6 -6z"/>
<path d="M6364 734 c3 -9 6 -22 6 -30 0 -19 9 -18 49 7 38 23 37 34 -3 19 -15
-5 -25 -6 -22 -1 3 5 -1 12 -10 15 -24 9 -27 8 -20 -10z"/>
<path d="M4613 725 c-3 -9 -3 -18 -1 -21 3 -3 8 4 11 16 6 23 -1 27 -10 5z"/>
<path d="M1661 719 c-13 -5 -22 -12 -19 -14 6 -6 58 12 58 20 0 7 -11 5 -39
-6z"/>
<path d="M1135 710 c27 -12 43 -12 25 0 -8 5 -22 9 -30 9 -10 0 -8 -3 5 -9z"/>
<path d="M1213 693 c9 -2 23 -2 30 0 6 3 -1 5 -18 5 -16 0 -22 -2 -12 -5z"/>
<path d="M1548 693 c12 -2 32 -2 45 0 12 2 2 4 -23 4 -25 0 -35 -2 -22 -4z"/>
<path d="M3711 665 c-3 -24 33 -154 39 -145 6 10 -2 43 -30 130 -5 14 -9 21
-9 15z"/>
<path d="M4438 663 c6 -2 18 -2 25 0 6 3 1 5 -13 5 -14 0 -19 -2 -12 -5z"/>
<path d="M4538 663 c7 -3 16 -2 19 1 4 3 -2 6 -13 5 -11 0 -14 -3 -6 -6z"/>
<path d="M4588 653 c6 -2 18 -2 25 0 6 3 1 5 -13 5 -14 0 -19 -2 -12 -5z"/>
<path d="M4621 604 c0 -11 3 -14 6 -6 3 7 2 16 -1 19 -3 4 -6 -2 -5 -13z"/>
<path d="M7707 608 c6 -11 41 -10 48 2 3 5 -7 8 -24 7 -16 -1 -27 -5 -24 -9z"/>
<path d="M7997 613 c-4 -3 -7 -11 -7 -17 0 -6 5 -5 12 2 6 6 9 14 7 17 -3 3
-9 2 -12 -2z"/>
<path d="M4097 575 c-27 -14 -53 -23 -58 -19 -5 3 -9 1 -9 -4 0 -4 -15 -15
-32 -24 -33 -16 -55 -33 -148 -116 l-48 -43 -22 66 c-12 37 -25 64 -28 61 -9
-9 31 -128 45 -133 11 -4 126 86 158 124 6 6 54 32 108 57 87 42 111 56 90 56
-5 0 -30 -12 -56 -25z"/>
<path d="M980 580 c0 -5 5 -10 10 -10 6 0 10 5 10 10 0 6 -4 10 -10 10 -5 0
-10 -4 -10 -10z"/>
<path d="M4594 575 c-3 -8 -13 -11 -21 -8 -12 5 -14 1 -8 -15 7 -23 -10 -31
-18 -9 -3 6 -6 2 -6 -9 -1 -18 -9 -23 -43 -28 -24 -3 -72 -2 -108 3 -36 5 -71
5 -79 1 -11 -6 88 -18 164 -20 17 -1 187 38 193 44 8 9 -26 43 -49 49 -12 3
-22 0 -25 -8z"/>
<path d="M433 573 c-7 -2 -13 -10 -13 -16 0 -8 4 -7 12 1 20 20 48 14 48 -10
0 -15 3 -19 10 -12 27 27 -16 54 -57 37z"/>
<path d="M1740 570 c0 -5 5 -10 11 -10 5 0 7 5 4 10 -3 6 -8 10 -11 10 -2 0
-4 -4 -4 -10z"/>
<path d="M1125 560 c-3 -6 1 -7 9 -4 18 7 21 14 7 14 -6 0 -13 -4 -16 -10z"/>
<path d="M3800 560 c-9 -6 -10 -10 -3 -10 6 0 15 5 18 10 8 12 4 12 -15 0z"/>
<path d="M5207 545 c3 -16 11 -36 16 -43 9 -11 5 -13 -18 -12 -17 2 -37 0 -45
-3 -8 -3 -24 -8 -35 -11 -11 -2 7 -2 40 1 33 4 68 6 79 5 18 -1 18 0 0 19 -10
12 -24 33 -31 47 l-12 27 6 -30z"/>
<path d="M7751 561 c-8 -5 -9 -11 -3 -15 5 -3 12 1 16 9 6 17 6 18 -13 6z"/>
<path d="M1310 547 c0 -10 8 -17 18 -17 9 0 13 4 7 8 -5 4 -13 11 -17 16 -5 5
-8 2 -8 -7z"/>
<path d="M1598 553 c7 -3 16 -2 19 1 4 3 -2 6 -13 5 -11 0 -14 -3 -6 -6z"/>
<path d="M1803 543 c9 -2 23 -2 30 0 6 3 -1 5 -18 5 -16 0 -22 -2 -12 -5z"/>
<path d="M1860 540 c0 -5 4 -10 9 -10 6 0 13 5 16 10 3 6 -1 10 -9 10 -9 0
-16 -4 -16 -10z"/>
<path d="M1900 540 c0 -5 5 -10 10 -10 6 0 10 5 10 10 0 6 -4 10 -10 10 -5 0
-10 -4 -10 -10z"/>
<path d="M1700 526 c0 -9 5 -16 10 -16 6 0 10 4 10 9 0 6 -4 13 -10 16 -5 3
-10 -1 -10 -9z"/>
<path d="M4480 530 c0 -5 5 -10 10 -10 6 0 10 5 10 10 0 6 -4 10 -10 10 -5 0
-10 -4 -10 -10z"/>
<path d="M1790 510 c0 -5 7 -10 15 -10 8 0 15 5 15 10 0 6 -7 10 -15 10 -8 0
-15 -4 -15 -10z"/>
<path d="M4223 503 c9 -2 25 -2 35 0 9 3 1 5 -18 5 -19 0 -27 -2 -17 -5z"/>
<path d="M1055 490 c-3 -5 -1 -10 4 -10 6 0 11 5 11 10 0 6 -2 10 -4 10 -3 0
-8 -4 -11 -10z"/>
<path d="M1277 493 c-10 -9 -9 -33 1 -33 4 0 8 9 8 20 0 23 0 22 -9 13z"/>
<path d="M4081 489 c-18 -6 -31 -12 -29 -14 5 -5 78 14 78 20 0 6 -8 5 -49 -6z"/>
<path d="M5010 491 c8 -5 33 -12 55 -15 28 -4 33 -3 15 2 -46 16 -86 23 -70
13z"/>
<path d="M1100 480 c-9 -6 -10 -10 -3 -10 6 0 15 5 18 10 8 12 4 12 -15 0z"/>
<path d="M1142 476 c7 -8 15 -12 17 -11 5 6 -10 25 -20 25 -5 0 -4 -6 3 -14z"/>
<path d="M1307 470 c8 -30 21 -34 15 -5 -2 14 -8 25 -12 25 -5 0 -6 -9 -3 -20z"/>
<path d="M7998 483 c6 -2 18 -2 25 0 6 3 1 5 -13 5 -14 0 -19 -2 -12 -5z"/>
<path d="M8088 483 c7 -3 16 -2 19 1 4 3 -2 6 -13 5 -11 0 -14 -3 -6 -6z"/>
<path d="M1012 450 c-25 -33 -30 -56 -6 -25 18 24 36 55 31 55 -2 0 -13 -13
-25 -30z"/>
<path d="M4604 471 c13 -20 97 -31 213 -29 66 2 119 7 116 11 -3 5 -62 8 -131
7 -70 -1 -143 3 -162 9 -42 13 -43 13 -36 2z"/>
<path d="M7790 468 c0 -11 12 -10 30 2 12 7 10 9 -8 7 -12 0 -22 -5 -22 -9z"/>
<path d="M4008 463 c6 -2 18 -2 25 0 6 3 1 5 -13 5 -14 0 -19 -2 -12 -5z"/>
<path d="M6105 430 c-9 -16 -13 -30 -11 -30 3 0 12 14 21 30 9 17 13 30 11 30
-3 0 -12 -13 -21 -30z"/>
<path d="M1610 441 c0 -6 5 -11 10 -11 6 0 10 -6 10 -14 0 -8 4 -17 9 -20 5
-4 6 5 2 21 -7 26 -31 45 -31 24z"/>
<path d="M5490 445 c0 -2 24 -14 53 -28 35 -18 76 -28 127 -32 70 -5 77 -4
105 20 20 16 25 25 15 25 -9 0 -21 -5 -28 -12 -9 -9 -15 -9 -23 -1 -9 9 -16 8
-27 -4 -15 -14 -30 -14 -91 3 -17 5 -22 4 -17 -4 13 -22 -13 -12 -28 10 -11
15 -27 23 -51 24 -19 0 -35 0 -35 -1z"/>
<path d="M5658 443 c7 -3 16 -2 19 1 4 3 -2 6 -13 5 -11 0 -14 -3 -6 -6z"/>
<path d="M914 432 c-7 -4 -19 -23 -27 -44 -15 -35 -17 -36 -55 -31 -37 5 -41
3 -57 -27 -21 -42 -15 -47 10 -9 20 30 26 31 84 17 8 -2 19 14 27 37 19 53 32
65 48 43 7 -10 17 -18 21 -18 5 0 0 9 -10 20 -20 22 -24 23 -41 12z"/>
<path d="M1170 436 c0 -2 7 -9 15 -16 13 -11 14 -10 9 4 -5 14 -24 23 -24 12z"/>
<path d="M1555 430 c3 -5 8 -10 11 -10 2 0 4 5 4 10 0 6 -5 10 -11 10 -5 0 -7
-4 -4 -10z"/>
<path d="M1230 415 c-7 -9 -8 -15 -2 -15 5 0 12 7 16 15 3 8 4 15 2 15 -2 0
-9 -7 -16 -15z"/>
<path d="M1685 405 c-16 -13 -25 -24 -19 -25 6 0 17 7 24 15 7 8 16 12 21 9 5
-3 9 2 9 10 0 20 1 20 -35 -9z"/>
<path d="M4477 406 c4 -5 -4 -6 -19 -3 -18 5 -38 -2 -73 -24 -26 -16 -49 -28
-52 -25 -3 2 5 9 16 16 12 6 21 15 21 20 0 5 -12 2 -27 -5 -15 -8 -31 -11 -35
-7 -5 5 -24 6 -44 4 -24 -3 -32 -7 -23 -13 7 -4 -17 -8 -57 -8 -38 -1 -85 -6
-104 -11 -28 -8 -21 -9 40 -5 41 2 108 0 148 -4 62 -8 79 -6 112 10 21 11 65
26 96 34 70 18 74 22 30 27 -20 2 -32 0 -29 -6z"/>
<path d="M7819 398 c7 -21 14 -23 62 -20 30 2 85 -2 122 -8 60 -9 72 -8 110 9
29 14 36 20 21 20 -11 1 -23 4 -26 7 -4 3 -34 7 -68 8 -54 2 -60 1 -44 -11 16
-11 11 -13 -34 -11 -28 2 -52 7 -52 11 0 4 -9 3 -21 -3 -16 -9 -26 -8 -44 4
-32 21 -36 20 -26 -6z"/>
<path d="M5920 399 c-20 -6 -17 -7 18 -8 23 -1 42 1 42 3 0 9 -37 12 -60 5z"/>
<path d="M97 391 c-18 -7 -18 -8 -1 -21 13 -12 18 -12 21 -2 3 6 12 12 21 12
15 0 15 2 2 10 -17 11 -19 11 -43 1z"/>
<path d="M1921 373 c0 -16 4 -36 8 -46 6 -17 8 -17 20 -3 7 9 9 16 3 16 -5 0
-10 6 -9 13 1 30 -4 47 -13 47 -5 0 -10 -12 -9 -27z"/>
<path d="M2384 365 c-3 -20 -4 -60 -2 -90 3 -30 1 -55 -4 -55 -4 0 -8 8 -8 18
0 10 -16 33 -35 52 -19 19 -35 31 -35 28 0 -14 45 -90 64 -107 21 -18 22 -18
66 2 33 14 59 38 94 86 28 36 41 60 30 52 -30 -23 -94 -93 -94 -104 0 -6 -2
-8 -5 -6 -2 3 2 27 10 54 17 56 18 65 7 65 -12 0 -31 -44 -38 -91 -4 -21 -11
-42 -17 -46 -7 -4 -8 7 -4 31 3 21 1 49 -5 64 -6 15 -10 39 -9 55 2 38 -7 34
-15 -8z"/>
<path d="M6008 393 c12 -2 30 -2 40 0 9 3 -1 5 -23 4 -22 0 -30 -2 -17 -4z"/>
<path d="M6070 390 c0 -5 5 -10 11 -10 5 0 7 5 4 10 -3 6 -8 10 -11 10 -2 0
-4 -4 -4 -10z"/>
<path d="M5351 379 c-18 -6 -31 -12 -29 -14 5 -5 78 14 78 20 0 6 -8 5 -49 -6z"/>
<path d="M712 368 c-14 -14 -16 -28 -3 -28 9 0 24 30 18 36 -2 2 -9 -2 -15 -8z"/>
<path d="M1972 368 c-16 -16 -15 -31 1 -22 10 6 -28 -43 -44 -56 -4 -3 -10
-24 -14 -47 -4 -24 -10 -43 -14 -43 -4 0 -7 -10 -5 -22 1 -13 3 -31 3 -40 1
-13 9 -18 31 -18 23 0 30 -5 30 -19 0 -11 6 -26 13 -33 8 -7 17 -26 21 -41 3
-15 11 -25 16 -22 5 3 -5 32 -22 65 l-31 59 27 31 c42 50 32 64 -25 34 -17 -8
-32 -14 -34 -12 -2 2 0 21 4 43 7 39 7 39 14 12 9 -32 27 -27 27 7 0 31 8 36
36 24 38 -18 54 5 23 31 -13 11 -30 20 -37 21 -9 0 -10 5 -2 19 19 36 8 55
-18 29z m34 -73 c10 -8 14 -15 8 -15 -5 0 -19 7 -30 15 -10 8 -14 15 -8 15 5
0 19 -7 30 -15z m-26 -113 c0 -15 -48 -54 -61 -50 -8 3 -2 14 17 31 29 27 44
34 44 19z"/>
<path d="M5265 370 c3 -5 14 -10 23 -10 15 0 15 2 2 10 -20 13 -33 13 -25 0z"/>
<path d="M5475 352 c20 -20 85 -32 111 -20 13 6 24 15 24 21 0 5 -8 6 -17 1
-23 -10 -50 -10 -93 0 -24 6 -32 5 -25 -2z"/>
<path d="M98 338 c-16 -5 -28 -14 -28 -18 0 -10 32 -5 56 8 24 14 3 21 -28 10z"/>
<path d="M1879 332 c6 -11 16 -22 23 -25 10 -3 10 -7 0 -20 -8 -9 -12 -22 -10
-29 3 -7 12 2 20 20 9 18 13 32 8 32 -4 0 -7 8 -6 17 1 12 -7 19 -22 21 -21 3
-22 1 -13 -16z"/>
<path d="M6065 331 c-3 -6 -37 -11 -74 -11 -37 0 -94 -5 -127 -11 -32 -6 -99
-12 -147 -12 l-88 -2 38 -17 c44 -20 71 -22 108 -8 48 18 207 32 252 22 39 -9
42 -8 48 15 6 27 1 41 -10 24z"/>
<path d="M3928 323 c7 -3 16 -2 19 1 4 3 -2 6 -13 5 -11 0 -14 -3 -6 -6z"/>
<path d="M8376 306 c21 -15 30 -14 19 3 -3 6 -14 11 -23 11 -13 0 -13 -2 4
-14z"/>
<path d="M8560 310 c-12 -8 -11 -10 8 -10 12 0 22 5 22 10 0 13 -11 13 -30 0z"/>
<path d="M8610 311 c0 -8 79 -3 89 5 2 2 -17 4 -42 4 -26 0 -47 -4 -47 -9z"/>
<path d="M153 304 c-7 -3 -10 -11 -7 -17 3 -8 -11 -12 -43 -13 -27 0 -58 -4
-70 -8 -20 -7 -23 -5 -24 15 -1 19 -2 20 -6 5 -3 -10 0 -23 5 -28 7 -7 7 -16
-1 -29 -9 -14 -9 -21 1 -31 6 -6 15 -8 19 -4 4 4 2 10 -4 14 -13 8 8 44 23 41
28 -5 54 2 48 13 -4 7 -3 8 5 4 6 -4 9 -11 6 -16 -10 -15 36 -22 66 -10 31 13
39 30 15 30 -8 0 -18 5 -21 10 -4 7 3 9 22 5 27 -6 27 -6 9 9 -21 17 -24 17
-43 10z"/>
<path d="M8425 300 c-16 -7 -13 -9 15 -8 19 0 49 4 65 8 27 7 26 8 -15 8 -25
0 -54 -3 -65 -8z"/>
<path d="M8778 303 c6 -2 18 -2 25 0 6 3 1 5 -13 5 -14 0 -19 -2 -12 -5z"/>
<path d="M9033 303 c-15 -5 -17 -23 -4 -23 5 0 11 7 15 15 3 8 4 15 3 14 -1 0
-8 -3 -14 -6z"/>
<path d="M9283 303 c-24 -9 -13 -19 22 -19 27 0 32 3 23 13 -11 13 -24 15 -45
6z"/>
<path d="M420 272 c0 -32 11 -52 29 -52 13 0 14 2 2 9 -8 5 -16 20 -18 32 -5
30 -13 38 -13 11z"/>
<path d="M5440 279 c-53 -6 -53 -10 0 -13 32 -2 78 8 65 15 -6 2 -35 2 -65 -2z"/>
<path d="M8935 280 c3 -5 18 -10 33 -9 24 0 25 1 7 9 -28 12 -47 12 -40 0z"/>
<path d="M9083 267 c-2 -4 32 -7 77 -6 45 1 78 4 75 8 -9 9 -146 8 -152 -2z"/>
<path d="M9378 273 c-21 -5 -24 -23 -4 -23 8 0 16 7 20 15 3 8 4 14 3 14 -1
-1 -10 -3 -19 -6z"/>
<path d="M290 259 c0 -5 5 -7 10 -4 6 3 10 8 10 11 0 2 -4 4 -10 4 -5 0 -10
-5 -10 -11z"/>
<path d="M760 251 c0 -10 7 -24 15 -31 11 -9 20 -8 45 10 33 24 50 20 50 -13
0 -40 15 -52 46 -38 22 10 29 10 35 -1 5 -7 9 -15 9 -18 0 -16 53 -6 85 16 42
28 53 26 34 -5 -7 -11 -11 -22 -9 -25 14 -13 110 -10 110 3 0 5 -18 8 -40 6
-22 -3 -42 1 -46 7 -4 6 -3 8 3 5 17 -10 23 19 9 38 -12 17 -16 16 -58 -9 -54
-31 -84 -33 -91 -6 -4 17 -12 20 -40 16 -28 -3 -34 -1 -31 12 2 10 -3 26 -11
36 -15 19 -15 19 -45 -2 -36 -27 -50 -28 -50 -2 0 11 -4 20 -10 20 -5 0 -10
-8 -10 -19z"/>
<path d="M5190 235 l51 -34 39 24 c21 13 53 28 71 34 33 9 32 9 -18 10 -40 1
-53 -3 -53 -14 0 -8 -9 -19 -19 -25 -30 -15 -38 -12 -13 6 33 23 27 33 -15 23
-23 -5 -42 -4 -47 1 -6 6 -19 10 -29 10 -12 0 -1 -12 33 -35z"/>
<path d="M6062 245 c0 -16 2 -22 5 -12 2 9 2 23 0 30 -3 6 -5 -1 -5 -18z"/>
<path d="M2501 236 c-14 -15 -18 -26 -12 -30 10 -7 48 41 39 49 -2 3 -15 -6
-27 -19z"/>
<path d="M90 226 c0 -8 4 -17 8 -20 5 -3 7 -19 4 -35 -4 -28 -3 -29 24 -22 34
9 42 27 15 34 -12 3 -25 17 -31 31 -10 29 -20 34 -20 12z"/>
<path d="M207 233 c-13 -13 -7 -21 13 -16 11 3 17 9 14 14 -6 11 -18 12 -27 2z"/>
<path d="M1821 224 c0 -11 3 -14 6 -6 3 7 2 16 -1 19 -3 4 -6 -2 -5 -13z"/>
<path d="M1857 233 c-4 -3 -7 -18 -7 -32 l0 -25 20 22 c11 12 20 26 20 32 0
11 -23 14 -33 3z"/>
<path d="M2532 220 c-8 -13 -8 -20 -2 -20 6 0 13 7 17 15 9 24 -1 27 -15 5z"/>
<path d="M3474 213 c4 -16 8 -47 10 -70 1 -24 5 -46 9 -49 9 -9 37 3 37 16 0
6 -4 9 -8 6 -4 -2 -8 3 -9 12 -4 37 -28 112 -36 112 -5 0 -6 -12 -3 -27z"/>
<path d="M5900 230 c14 -4 32 -8 40 -9 13 -1 13 0 0 9 -8 5 -26 9 -40 9 l-25
-1 25 -8z"/>
<path d="M6980 231 c-16 -5 -21 -9 -13 -14 7 -5 25 -1 40 7 29 16 16 19 -27 7z"/>
<path d="M48 223 c7 -3 16 -2 19 1 4 3 -2 6 -13 5 -11 0 -14 -3 -6 -6z"/>
<path d="M170 220 c0 -5 5 -10 10 -10 6 0 10 5 10 10 0 6 -4 10 -10 10 -5 0
-10 -4 -10 -10z"/>
<path d="M290 210 c0 -11 5 -20 11 -20 5 0 7 -5 4 -10 -11 -17 15 -42 30 -30
10 8 15 8 20 -1 4 -6 1 -15 -6 -20 -19 -12 -49 -11 -49 0 0 6 -10 8 -22 6 -12
-3 -25 0 -29 6 -4 7 -6 -7 -6 -29 0 -23 4 -39 9 -36 5 3 22 -1 38 -10 32 -15
52 -4 23 13 -15 8 -11 11 22 12 22 1 32 3 23 6 -21 5 -24 23 -4 23 8 0 16 7
20 15 3 8 0 15 -6 15 -6 0 -5 6 3 17 12 15 12 16 -2 11 -9 -4 -22 -1 -28 5 -8
8 -11 7 -11 -6 0 -9 -4 -17 -9 -17 -5 0 -9 6 -8 13 1 34 -4 57 -13 57 -5 0
-10 -9 -10 -20z"/>
<path d="M7749 218 c18 -5 37 -6 42 -1 4 4 -11 9 -34 10 l-42 1 34 -10z"/>
<path d="M335 210 c-3 -5 1 -10 10 -10 9 0 13 5 10 10 -3 6 -8 10 -10 10 -2 0
-7 -4 -10 -10z"/>
<path d="M5978 213 c6 -2 18 -2 25 0 6 3 1 5 -13 5 -14 0 -19 -2 -12 -5z"/>
<path d="M140 206 c0 -2 7 -7 16 -10 8 -3 12 -2 9 4 -6 10 -25 14 -25 6z"/>
<path d="M250 179 c12 -16 25 -27 29 -23 3 4 0 9 -6 11 -7 3 -13 11 -13 18 0
7 -7 16 -16 19 -11 4 -10 -2 6 -25z"/>
<path d="M3531 174 c0 -21 5 -48 10 -59 6 -14 8 -4 5 33 -5 63 -16 83 -15 26z"/>
<path d="M6060 191 c0 -5 5 -13 10 -16 6 -3 10 -2 10 4 0 5 -4 13 -10 16 -5 3
-10 2 -10 -4z"/>
<path d="M7120 196 c0 -4 164 -33 240 -41 30 -4 103 -18 161 -31 l106 -25 38
25 37 25 -30 -2 c-17 -1 -29 -4 -27 -7 2 -3 -4 -12 -13 -20 -14 -13 -15 -12
-9 2 4 11 0 19 -11 22 -52 14 -72 15 -72 6 0 -14 -27 -13 -32 2 -2 6 -29 12
-64 13 -84 3 -202 15 -249 26 -42 9 -75 11 -75 5z m485 -66 c-3 -5 -10 -10
-16 -10 -5 0 -9 5 -9 10 0 6 7 10 16 10 8 0 12 -4 9 -10z"/>
<path d="M30 170 c0 -5 5 -10 10 -10 6 0 10 5 10 10 0 6 -4 10 -10 10 -5 0
-10 -4 -10 -10z"/>
<path d="M180 171 c0 -10 19 -25 25 -20 1 2 -3 10 -11 17 -8 7 -14 8 -14 3z"/>
<path d="M3582 160 c-7 -11 -12 -29 -12 -39 0 -11 -9 -26 -19 -33 -31 -22 8
-57 40 -37 11 7 9 9 -8 9 -26 0 -30 12 -9 29 13 11 32 79 24 87 -2 2 -9 -6
-16 -16z"/>
<path d="M4550 170 c0 -4 28 -10 63 -12 66 -6 129 -32 161 -67 l18 -20 50 25
c28 14 82 34 122 44 39 10 59 19 45 19 -31 1 -142 -33 -182 -55 -26 -15 -30
-15 -50 3 -12 10 -24 21 -27 24 -16 21 -200 57 -200 39z"/>
<path d="M5270 176 c0 -2 8 -10 18 -17 15 -13 16 -12 3 4 -13 16 -21 21 -21
13z"/>
<path d="M500 160 c0 -5 7 -10 15 -10 8 0 15 5 15 10 0 6 -7 10 -15 10 -8 0
-15 -4 -15 -10z"/>
<path d="M5072 161 c20 -4 56 -4 80 -1 35 6 29 8 -37 8 -59 0 -71 -2 -43 -7z"/>
<path d="M450 149 c0 -5 5 -7 10 -4 6 3 10 8 10 11 0 2 -4 4 -10 4 -5 0 -10
-5 -10 -11z"/>
<path d="M4338 143 c6 -2 18 -2 25 0 6 3 1 5 -13 5 -14 0 -19 -2 -12 -5z"/>
<path d="M5655 140 c-5 -7 -1 -11 11 -9 11 1 36 -1 57 -6 30 -6 42 -4 55 9 15
15 15 16 -1 16 -11 0 -15 -5 -11 -11 4 -7 0 -9 -12 -6 -51 15 -92 18 -99 7z"/>
<path d="M5805 140 c3 -5 8 -10 11 -10 2 0 4 5 4 10 0 6 -5 10 -11 10 -5 0 -7
-4 -4 -10z"/>
<path d="M6068 143 c7 -3 16 -2 19 1 4 3 -2 6 -13 5 -11 0 -14 -3 -6 -6z"/>
<path d="M45 130 c3 -5 8 -10 11 -10 2 0 4 5 4 10 0 6 -5 10 -11 10 -5 0 -7
-4 -4 -10z"/>
<path d="M141 132 c-1 -9 -8 -11 -21 -7 -11 3 -20 2 -20 -3 0 -5 9 -12 19 -15
23 -6 25 -47 2 -47 -8 0 -12 3 -8 6 8 8 -25 44 -35 38 -5 -3 -6 -10 -3 -15 4
-5 1 -9 -4 -9 -6 0 -11 5 -11 10 0 6 -9 10 -20 10 -11 0 -20 5 -20 11 0 5 -4
8 -9 4 -16 -9 -11 -85 5 -85 17 0 18 -17 2 -23 -7 -3 31 -6 84 -6 60 -1 99 3
104 10 3 6 14 9 24 6 25 -6 33 36 10 51 -12 7 -16 19 -13 35 7 34 -16 45 -37
18 l-16 -23 -17 24 c-9 12 -16 17 -16 10z m79 -23 c0 -5 -4 -9 -10 -9 -5 0
-10 7 -10 16 0 8 5 12 10 9 6 -3 10 -10 10 -16z m-118 -44 c15 -20 7 -25 -37
-23 -25 1 -45 3 -45 4 0 1 3 9 6 18 6 17 64 18 76 1z m72 -27 c-3 -4 0 -8 5
-8 6 0 11 -4 11 -9 0 -6 -9 -9 -20 -8 -22 1 -22 2 -13 35 4 17 8 20 14 11 4
-7 5 -17 3 -21z m46 12 c0 -5 -8 -10 -17 -10 -15 0 -16 2 -3 10 19 12 20 12
20 0z m-160 -24 c0 -3 -4 -8 -10 -11 -5 -3 -10 -1 -10 4 0 6 5 11 10 11 6 0
10 -2 10 -4z"/>
<path d="M5391 121 c20 -11 61 -43 91 -70 l55 -51 54 30 c30 16 48 30 40 30
-7 0 -31 -10 -52 -22 l-40 -22 -42 42 c-32 33 -39 44 -29 54 9 9 12 9 12 -3 0
-8 10 -15 21 -16 16 -2 19 1 11 9 -6 6 -8 17 -5 24 4 12 0 12 -22 4 -15 -6
-31 -7 -37 -4 -7 4 -8 2 -4 -4 8 -14 -16 -16 -29 -3 -6 5 -21 12 -35 15 -18 5
-14 1 11 -13z"/>
<path d="M5600 130 c0 -5 7 -7 15 -4 8 4 15 8 15 10 0 2 -7 4 -15 4 -8 0 -15
-4 -15 -10z"/>
<path d="M5840 128 c-19 -5 -60 -17 -90 -26 -30 -9 -60 -17 -67 -17 -7 0 -18
-6 -25 -14 -11 -11 -9 -12 12 -6 80 25 134 39 205 55 63 14 72 18 40 18 -22 0
-56 -4 -75 -10z"/>
<path d="M380 116 c0 -8 4 -17 9 -20 5 -4 7 3 4 14 -6 23 -13 26 -13 6z"/>
<path d="M400 119 c0 -5 5 -7 10 -4 6 3 10 8 10 11 0 2 -4 4 -10 4 -5 0 -10
-5 -10 -11z"/>
<path d="M1176 108 c3 -13 13 -31 22 -40 11 -14 12 -18 2 -18 -9 0 -8 -6 4
-19 10 -11 25 -17 33 -14 8 3 19 0 25 -8 7 -11 8 -9 6 6 -2 12 -11 19 -21 19
-12 -1 -17 6 -17 22 0 13 -5 24 -10 24 -6 0 -15 11 -20 25 -12 32 -34 34 -24
3z"/>
<path d="M4240 120 c-18 -12 -2 -12 25 0 13 6 15 9 5 9 -8 0 -22 -4 -30 -9z"/>
<path d="M3603 94 c-18 -21 -19 -24 -5 -24 19 0 46 36 34 44 -4 2 -17 -7 -29
-20z"/>
<path d="M4185 100 c-3 -5 -2 -10 4 -10 5 0 13 5 16 10 3 6 2 10 -4 10 -5 0
-13 -4 -16 -10z"/>
<path d="M8470 102 c1 -10 211 -104 218 -97 4 3 -4 8 -16 12 -12 3 -22 9 -22
14 0 5 -8 9 -17 9 -10 0 -40 12 -68 26 -70 35 -95 45 -95 36z"/>
<path d="M8910 100 c-58 -13 -124 -43 -160 -74 l-35 -28 40 23 c78 45 137 69
169 69 11 0 28 5 36 10 13 9 13 10 0 9 -8 -1 -31 -5 -50 -9z"/>
<path d="M610 79 c-14 -6 -32 -8 -42 -6 -10 3 -15 0 -12 -8 3 -7 -5 -15 -18
-19 -23 -6 -23 -6 6 -21 15 -8 33 -15 40 -14 6 0 3 4 -7 7 -17 7 -16 9 3 30
11 12 30 22 40 22 11 0 20 5 20 10 0 6 -1 10 -2 9 -2 0 -14 -5 -28 -10z"/>
<path d="M4130 80 c-18 -12 -2 -12 25 0 13 6 15 9 5 9 -8 0 -22 -4 -30 -9z"/>
<path d="M8694 75 c-10 -8 -14 -15 -9 -15 6 0 4 -4 -4 -9 -10 -7 -7 -9 10 -8
19 2 25 8 25 24 0 13 0 23 -1 23 -1 0 -10 -7 -21 -15z"/>
<path d="M435 70 c3 -5 20 -10 37 -10 39 0 33 7 -11 15 -21 4 -30 2 -26 -5z"/>
<path d="M668 63 c7 -3 16 -2 19 1 4 3 -2 6 -13 5 -11 0 -14 -3 -6 -6z"/>
<path d="M377 49 c7 -7 15 -10 18 -7 3 3 -2 9 -12 12 -14 6 -15 5 -6 -5z"/>
<path d="M409 32 l-15 -28 78 -2 c53 -2 78 1 78 9 0 8 -14 10 -41 6 -37 -5
-40 -3 -36 14 3 12 0 19 -8 19 -7 0 -19 2 -27 5 -7 3 -20 -7 -29 -23z m51 -4
c0 -13 -23 -5 -28 10 -2 7 2 10 12 6 9 -3 16 -11 16 -16z"/>
<path d="M270 36 c-16 -16 -12 -26 7 -19 10 4 14 2 10 -4 -4 -7 3 -10 18 -9
14 0 25 6 25 13 0 6 6 13 13 16 6 2 -5 6 -26 8 -20 3 -42 0 -47 -5z"/>
<path d="M4720 35 c-7 -9 -11 -17 -8 -20 2 -2 12 4 21 15 9 11 13 20 8 20 -5
0 -14 -7 -21 -15z"/>
<path d="M1285 10 c-3 -5 1 -10 9 -10 9 0 16 5 16 10 0 6 -4 10 -9 10 -6 0
-13 -4 -16 -10z"/>
<path d="M7890 16 c0 -2 7 -7 16 -10 8 -3 12 -2 9 4 -6 10 -25 14 -25 6z"/>
</g>
</svg>
